<?xml version="1.0" standalone="no"?>
<!DOCTYPE svg PUBLIC "-//W3C//DTD SVG 1.1//EN" "http://www.w3.org/Graphics/SVG/1.1/DTD/svg11.dtd" >
<svg xmlns="http://www.w3.org/2000/svg" xmlns:xlink="http://www.w3.org/1999/xlink" version="1.1">
<metadata>
Created by FontForge 20170731 at Mon Nov  2 19:35:56 2020
 By Aleksey,,,
Copyright (c) 2020 by Fontsmith Ltd. All rights reserved. This font may not be altered in any way without prior permission of Fontsmith Ltd.
</metadata>
<defs>
<font id="CognizantSans-Light" horiz-adv-x="0" >
  <font-face 
    font-family="Cognizant Sans Light"
    font-weight="300"
    font-stretch="normal"
    units-per-em="2048"
    panose-1="2 1 5 3 3 2 2 2 2 4"
    ascent="1526"
    descent="-522"
    x-height="1006"
    cap-height="1434"
    bbox="-535 -553 2535 1905"
    underline-thickness="79"
    underline-position="-283"
    unicode-range="U+000D-FB03"
  />
<missing-glyph horiz-adv-x="1073" 
d="M49 0v1376h975v-1376h-975zM537 778l331 500h-663zM147 188l332 500l-332 500v-1000zM926 188v1000l-332 -500zM205 98h663l-331 500z" />
    <glyph glyph-name="f_f.liga" unicode="ff" horiz-adv-x="1210" 
d="M1063 1370q-73 0 -110.5 -52.5t-37.5 -141.5v-168h248v-82h-248v-926h-98v926h-498v-926h-98v926h-180v82h180v176q0 122 58.5 195t166.5 73q84 0 170 -45l-18 -74q-64 37 -129 37q-73 0 -111.5 -52.5t-38.5 -141.5v-168h498v176q0 122 58.5 195t166.5 73q82 0 168 -45
l-16 -74q-64 37 -131 37z" />
    <glyph glyph-name="fi" unicode="fi" horiz-adv-x="1052" 
d="M221 0v926h-180v82h180v114q0 149 93 239.5t237 90.5q162 0 289 -84l-29 -74q-66 45 -123.5 60.5t-122.5 15.5q-107 0 -176.5 -69t-69.5 -181v-112h582v-1008h-98v926h-484v-926h-98z" />
    <glyph glyph-name="f_f_i.liga" unicode="ffi" horiz-adv-x="1650" 
d="M915 1008h582v-1008h-98v926h-484v-926h-98v926h-498v-926h-98v926h-180v82h180v176q0 122 58.5 195t166.5 73q84 0 170 -45l-18 -74q-64 37 -129 37q-73 0 -111.5 -52.5t-38.5 -141.5v-168h498v114q0 149 93.5 239.5t238.5 90.5q160 0 287 -84l-29 -74
q-66 45 -123.5 60.5t-122.5 15.5q-107 0 -176.5 -69t-69.5 -181v-112z" />
    <glyph glyph-name="f_f_j.liga" unicode="ffj" horiz-adv-x="1650" 
d="M915 1008h582v-1205q0 -107 -71.5 -179.5t-182.5 -72.5q-128 0 -213 66l29 78q69 -62 166 -62q75 0 124.5 52t49.5 125v1116h-484v-926h-98v926h-498v-926h-98v926h-180v82h180v176q0 122 58.5 195t166.5 73q84 0 170 -45l-18 -74q-64 37 -129 37q-73 0 -111.5 -52.5
t-38.5 -141.5v-168h498v114q0 149 93.5 239.5t238.5 90.5q160 0 287 -84l-29 -74q-66 45 -123.5 60.5t-122.5 15.5q-107 0 -176.5 -69t-69.5 -181v-112z" />
    <glyph glyph-name="f_j.liga" unicode="fj" horiz-adv-x="1052" 
d="M901 1008v-1205q0 -107 -71.5 -179.5t-182.5 -72.5q-128 0 -213 66l27 78q72 -62 166 -62q77 0 126.5 51.5t49.5 125.5v1116h-484v-926h-98v926h-180v82h180v114q0 149 93 239.5t237 90.5q162 0 289 -84l-29 -74q-66 45 -123.5 60.5t-122.5 15.5q-107 0 -176.5 -69
t-69.5 -181v-112h582z" />
    <glyph glyph-name=".notdef" horiz-adv-x="1073" 
d="M49 0v1376h975v-1376h-975zM537 778l331 500h-663zM147 188l332 500l-332 500v-1000zM926 188v1000l-332 -500zM205 98h663l-331 500z" />
    <glyph glyph-name=".null" 
 />
    <glyph glyph-name="nonmarkingreturn" horiz-adv-x="682" 
 />
    <glyph glyph-name="CR" unicode="&#xd;" horiz-adv-x="491" 
 />
    <glyph glyph-name="space" unicode=" " horiz-adv-x="491" 
 />
    <glyph glyph-name="exclam" unicode="!" horiz-adv-x="516" 
d="M217 412l-8 1022h100l-8 -1022h-84zM258 -18q-36 0 -59 22.5t-23 58.5q0 35 23.5 58.5t58.5 23.5q36 0 59 -23t23 -59q0 -37 -22.5 -59t-59.5 -22z" />
    <glyph glyph-name="quotedbl" unicode="&#x22;" horiz-adv-x="776" 
d="M170 1010l-8 424h94l-10 -424h-76zM528 1010l-10 424h96l-10 -424h-76z" />
    <glyph glyph-name="numbersign" unicode="#" horiz-adv-x="1320" 
d="M315 -10l-79 10l75 412h-278v82h295l82 424h-281v79h295l86 445l80 -10l-82 -435h420l86 445l78 -10l-82 -435h278v-79h-293l-82 -424h281v-82h-295l-82 -422l-78 10l76 412h-420zM410 494h421l80 424h-419z" />
    <glyph glyph-name="dollar" unicode="$" horiz-adv-x="1173" 
d="M1057 362q0 -166 -117.5 -267.5t-312.5 -112.5v-232h-88v232q-241 11 -422 108l26 84q175 -91 396 -102v618q-52 15 -88 27t-82 31.5t-78 40t-65 51t-52.5 66t-32 83t-12.5 103.5q0 148 112 245t298 109v223h88v-221q218 -7 385 -107l-27 -86q-155 98 -358 105v-596
q49 -13 80.5 -23t76 -26t74 -32t64 -39t56.5 -50.5t41.5 -61.5t28.5 -77t9 -93zM227 1096q0 -55 17 -99.5t43.5 -74.5t69.5 -56t84 -42t98 -33v567q-141 -14 -226.5 -85t-85.5 -177zM627 74q154 9 242.5 84.5t88.5 201.5q0 56 -18.5 101t-46.5 75t-74.5 56t-88.5 41t-103 33
v-592z" />
    <glyph glyph-name="percent" unicode="%" horiz-adv-x="1804" 
d="M446 715q-155 0 -253.5 102.5t-98.5 265.5q0 162 98.5 265.5t253.5 103.5q154 0 253.5 -104t99.5 -265q0 -162 -99.5 -265t-253.5 -103zM414 -10l-56 41l1033 1376l55 -41zM446 788q121 0 198 82t77 213t-77 213t-198 82t-197.5 -82t-76.5 -213t76.5 -213t197.5 -82z
M1358 -18q-154 0 -253 103t-99 265q0 161 99 265t253 104q155 0 252.5 -103.5t97.5 -265.5q0 -163 -97.5 -265.5t-252.5 -102.5zM1358 55q121 0 196.5 81t75.5 214q0 130 -76 212.5t-196 82.5q-122 0 -198.5 -82.5t-76.5 -212.5q0 -133 76.5 -214t198.5 -81z" />
    <glyph glyph-name="ampersand" unicode="&#x26;" horiz-adv-x="1314" 
d="M1290 0h-123l-188 203q-84 -104 -196 -162.5t-240 -58.5q-195 0 -321 114t-126 285q0 129 83 231t249 187q-54 59 -81.5 91.5t-59.5 80t-45 92t-13 94.5q0 132 96 213.5t244 81.5q150 0 241 -81t91 -210q0 -102 -77.5 -188t-256.5 -191l402 -434q88 163 88 344h94
q0 -225 -117 -413zM569 1368q-107 0 -176 -58.5t-69 -156.5q0 -77 38.5 -135t151.5 -176q153 88 223 160.5t70 156.5q0 91 -65.5 150t-172.5 59zM545 68q110 0 205.5 54t167.5 148l-435 469q-144 -79 -214 -163t-70 -189q0 -134 98.5 -226.5t247.5 -92.5z" />
    <glyph glyph-name="quotesingle" unicode="'" horiz-adv-x="417" 
d="M170 1010l-8 424h94l-10 -424h-76z" />
    <glyph glyph-name="parenleft" unicode="(" horiz-adv-x="673" 
d="M522 -297q-168 179 -256 406.5t-88 480.5q0 251 88 478.5t256 408.5l70 -52q-158 -170 -240 -384t-82 -451t82 -452t240 -384z" />
    <glyph glyph-name="parenright" unicode=")" horiz-adv-x="673" 
d="M150 -297l-70 51q159 168 240 382t81 454q0 239 -81 453t-240 382l70 52q168 -179 256 -406.5t88 -480.5q0 -251 -88 -478.5t-256 -408.5z" />
    <glyph glyph-name="asterisk" unicode="*" horiz-adv-x="993" 
d="M291 678l-62 45l209 285l-336 112l21 68l338 -109v355h74v-355l335 109l25 -68l-338 -112l209 -285l-59 -45l-209 289z" />
    <glyph glyph-name="plus" unicode="+" horiz-adv-x="1179" 
d="M547 121v426h-426v86h426v426h86v-426h426v-86h-426v-426h-86z" />
    <glyph glyph-name="comma" unicode="," horiz-adv-x="483" 
d="M133 -295l-35 47q152 101 152 236q-37 -5 -64.5 17t-27.5 58q0 35 23.5 58.5t58.5 23.5q44 0 69 -35t25 -94q0 -91 -53 -172.5t-148 -138.5z" />
    <glyph glyph-name="hyphen" unicode="-" horiz-adv-x="655" 
d="M59 465v82h537v-82h-537z" />
    <glyph glyph-name="period" unicode="." horiz-adv-x="485" 
d="M242 -18q-36 0 -59 22.5t-23 58.5q0 35 23.5 58.5t58.5 23.5q36 0 59 -23t23 -59q0 -37 -22.5 -59t-59.5 -22z" />
    <glyph glyph-name="slash" unicode="/" horiz-adv-x="786" 
d="M123 -176l-82 26l623 1711l81 -27z" />
    <glyph glyph-name="zero" unicode="0" horiz-adv-x="1267" 
d="M635 -18q-230 0 -373 204t-143 531t143 531t373 204q150 0 267 -92.5t182 -260t65 -382.5t-65 -382.5t-182 -260t-267 -92.5zM635 72q183 0 297.5 179t114.5 466t-114.5 466t-297.5 179q-123 0 -217 -81t-145.5 -227.5t-51.5 -336.5t51.5 -336.5t145.5 -227.5t217 -81z
" />
    <glyph glyph-name="one" unicode="1" horiz-adv-x="847" 
d="M498 1434h86v-1434h-101v1323l-377 -219l-45 78z" />
    <glyph glyph-name="two" unicode="2" horiz-adv-x="1058" 
d="M184 90h754v-90h-862q0 61 14 118.5t34.5 102.5t58.5 93t69 81t84 75.5t86.5 66.5t91.5 65q70 48 121 92t98.5 99.5t72.5 119.5t25 134q0 142 -90.5 228.5t-238.5 86.5q-203 0 -359 -141l-43 75q171 156 416 156q186 0 300 -110.5t114 -282.5q0 -85 -28.5 -161
t-82.5 -140.5t-110.5 -113.5t-133.5 -103q-67 -48 -107.5 -78.5t-96 -79.5t-88.5 -90t-61 -94.5t-38 -108.5z" />
    <glyph glyph-name="three" unicode="3" horiz-adv-x="1079" 
d="M643 735q137 -36 216 -131t79 -235q0 -178 -120.5 -282.5t-332.5 -104.5q-234 0 -407 122l37 82q153 -114 354 -114q169 0 268 82.5t99 224.5q0 138 -110 224.5t-290 86.5h-74v84h74q168 0 276.5 86t108.5 223q0 118 -89 198.5t-251 80.5q-174 0 -319 -96l-35 82
q157 104 377 104q196 0 308 -102t112 -254q0 -128 -77.5 -225t-203.5 -136z" />
    <glyph glyph-name="four" unicode="4" horiz-adv-x="1216" 
d="M1128 481v-90h-268v-391h-100v391h-688v80l686 963h102v-953h268zM766 1300l-588 -823h588v823z" />
    <glyph glyph-name="five" unicode="5" horiz-adv-x="1142" 
d="M575 879q200 0 315.5 -122t115.5 -321q0 -213 -128 -333.5t-350 -120.5q-238 0 -411 120l37 84q156 -114 360 -114q177 0 286 96.5t109 271.5q0 163 -95 259t-261 96q-164 0 -266 -76l-88 33l55 682h733v-91h-643l-43 -526q113 62 274 62z" />
    <glyph glyph-name="six" unicode="6" horiz-adv-x="1153" 
d="M608 874q195 0 314.5 -122.5t119.5 -319.5q0 -192 -127 -321t-313 -129q-230 0 -356.5 166t-126.5 466q0 192 28.5 340.5t90 262.5t168 174.5t253.5 60.5q191 0 334 -117l-53 -69q-69 54 -131 76t-147 22q-119 0 -205.5 -48.5t-138.5 -142.5t-77.5 -221t-27.5 -295
q44 98 152 157.5t243 59.5zM600 70q144 0 243 104.5t99 255.5q0 159 -95 256.5t-251 97.5q-153 0 -256.5 -93.5t-103.5 -227.5q0 -171 102 -282t262 -111z" />
    <glyph glyph-name="seven" unicode="7" horiz-adv-x="983" 
d="M66 1434h835v-66l-592 -1368h-104l586 1343h-725v91z" />
    <glyph glyph-name="eight" unicode="8" horiz-adv-x="1155" 
d="M762 768q128 -38 201 -138.5t73 -236.5q0 -182 -126.5 -296.5t-331.5 -114.5q-204 0 -331.5 114.5t-127.5 296.5q0 134 73.5 234.5t200.5 140.5q-108 36 -171.5 122t-63.5 202q0 159 117 259.5t303 100.5q187 0 303 -100.5t116 -259.5q0 -115 -62.5 -201t-172.5 -123z
M256 1087q0 -123 90 -200.5t232 -77.5q144 0 232.5 77t88.5 201q0 125 -88.5 203t-232.5 78q-143 0 -232.5 -78.5t-89.5 -202.5zM578 66q161 0 261.5 91.5t100.5 237.5t-100.5 238t-261.5 92t-262 -92t-101 -238t101 -237.5t262 -91.5z" />
    <glyph glyph-name="nine" unicode="9" horiz-adv-x="1159" 
d="M553 1450q235 0 362 -164.5t127 -468.5q0 -837 -536 -837q-188 0 -330 114l41 74q70 -55 134 -77.5t149 -22.5q454 0 444 723q-44 -107 -151.5 -170.5t-241.5 -63.5q-194 0 -313 122.5t-119 319.5q0 192 124.5 321.5t309.5 129.5zM563 647q153 0 257 94t104 228
q0 171 -102 282t-263 111q-144 0 -242 -104t-98 -257q0 -159 94 -256.5t250 -97.5z" />
    <glyph glyph-name="colon" unicode=":" horiz-adv-x="485" 
d="M242 842q-36 0 -59 23t-23 59q0 35 23.5 58.5t58.5 23.5q36 0 59 -23t23 -59q0 -37 -22.5 -59.5t-59.5 -22.5zM242 -18q-36 0 -59 22.5t-23 58.5q0 35 23.5 58.5t58.5 23.5q36 0 59 -23t23 -59q0 -37 -22.5 -59t-59.5 -22z" />
    <glyph glyph-name="semicolon" unicode=";" horiz-adv-x="483" 
d="M242 842q-36 0 -59 23t-23 59q0 35 23.5 58.5t58.5 23.5q36 0 59 -23t23 -59q0 -37 -22.5 -59.5t-59.5 -22.5zM133 -295l-35 47q152 98 152 234q-37 -5 -63.5 17t-26.5 58q0 35 23.5 58.5t58.5 23.5q43 0 67.5 -34.5t24.5 -94.5q0 -91 -53 -172.5t-148 -136.5z" />
    <glyph glyph-name="less" unicode="&#x3c;" horiz-adv-x="1179" 
d="M1034 121l-913 426v86l913 426l35 -82l-833 -387l833 -387z" />
    <glyph glyph-name="equal" unicode="=" horiz-adv-x="1179" 
d="M121 756v86h938v-86h-938zM121 338v86h938v-86h-938z" />
    <glyph glyph-name="greater" unicode="&#x3e;" horiz-adv-x="1179" 
d="M145 121l-34 82l833 387l-833 387l34 82l914 -426v-86z" />
    <glyph glyph-name="question" unicode="?" horiz-adv-x="927" 
d="M389 412v22q0 55 18.5 105.5t48 91t65 80.5t71 80.5t65 82.5t48 96.5t18.5 114.5q0 123 -80 201t-215 78q-76 0 -153 -37t-134 -119l-51 70q134 174 359 174q93 0 166.5 -30.5t118 -81.5t68 -114t23.5 -132q0 -67 -19.5 -128t-50 -107t-68 -89t-75 -82t-68 -77.5
t-50 -84.5t-19.5 -94v-20h-86zM430 -18q-36 0 -59 22.5t-23 58.5q0 35 23.5 58.5t58.5 23.5q36 0 59 -23t23 -59q0 -37 -22.5 -59t-59.5 -22z" />
    <glyph glyph-name="at" unicode="@" horiz-adv-x="1976" 
d="M1014 -418q-156 0 -295 43t-248.5 124t-189 192.5t-122 252.5t-42.5 300q0 265 114.5 473.5t319 324t463.5 115.5q243 0 436.5 -103t302.5 -288.5t109 -419.5q0 -245 -102.5 -397t-268.5 -152q-86 0 -146 51t-67 133q-46 -87 -127 -135.5t-186 -48.5q-167 0 -276 126
t-109 321t108.5 320.5t276.5 125.5q102 0 179 -46t120 -130l10 156h80v-631q0 -74 39.5 -119t105.5 -45q123 0 200 128t77 337q0 214 -97.5 382.5t-271 261.5t-393.5 93q-176 0 -327 -62t-257 -171t-166.5 -264t-60.5 -336q0 -241 103 -431t288 -295.5t420 -105.5
q234 0 510 150l41 -68q-293 -162 -551 -162zM981 129q125 0 202 83t77 208v147q0 128 -76.5 210.5t-202.5 82.5q-132 0 -217.5 -102.5t-85.5 -263.5q0 -160 85.5 -262.5t217.5 -102.5z" />
    <glyph glyph-name="A" unicode="A" horiz-adv-x="1378" 
d="M1227 0l-187 459h-700l-188 -459h-105l592 1434h100l592 -1434h-104zM375 547h629l-314 770z" />
    <glyph glyph-name="B" unicode="B" horiz-adv-x="1273" 
d="M893 731q127 -34 199.5 -131t72.5 -231q0 -166 -113 -267.5t-290 -101.5h-567v1434h534q172 0 279.5 -100.5t107.5 -268.5q0 -119 -59 -207.5t-164 -126.5zM295 1354v-590h422q132 0 215.5 80.5t83.5 214.5q0 136 -83 215.5t-216 79.5h-422zM745 80q141 0 229.5 82.5
t88.5 214.5q0 138 -88.5 224.5t-229.5 86.5h-450v-608h450z" />
    <glyph glyph-name="C" unicode="C" horiz-adv-x="1429" 
d="M844 -18q-214 0 -382.5 96.5t-260.5 265t-92 377.5q0 208 92 374.5t258.5 261.5t378.5 95q261 0 477 -145l-45 -82q-90 66 -201.5 101.5t-222.5 35.5q-185 0 -330.5 -83.5t-225 -229.5t-79.5 -328q0 -110 29.5 -209t86 -179t134 -138.5t178 -90.5t213.5 -32
q109 0 220.5 35.5t201.5 99.5l45 -80q-213 -145 -475 -145z" />
    <glyph glyph-name="D" unicode="D" horiz-adv-x="1437" 
d="M195 0v1434h362q178 0 323 -52.5t243.5 -147.5t152 -229.5t53.5 -295.5q0 -156 -53.5 -287t-151.5 -224.5t-243.5 -145.5t-323.5 -52h-362zM295 90h256q312 0 494 170.5t182 448.5q0 140 -46.5 257t-132.5 200.5t-213.5 130t-283.5 46.5h-256v-1253z" />
    <glyph glyph-name="E" unicode="E" horiz-adv-x="1204" 
d="M195 0v1434h843v-91h-743v-571h678v-90h-678v-592h776v-90h-876z" />
    <glyph glyph-name="F" unicode="F" horiz-adv-x="1157" 
d="M195 0v1434h841v-91h-739v-647h674v-90h-674v-606h-102z" />
    <glyph glyph-name="G" unicode="G" horiz-adv-x="1519" 
d="M862 686h463v-588q-99 -57 -228 -86.5t-255 -29.5q-221 0 -389 97t-256 264t-88 378q0 208 92.5 374.5t260.5 261.5t382 95q124 0 248.5 -36t228.5 -105l-43 -82q-92 64 -204.5 98.5t-225.5 34.5q-185 0 -331 -83.5t-226 -229.5t-80 -328q0 -185 75.5 -331.5t221 -232
t338.5 -85.5q94 0 197.5 22t187.5 62v448h-369v82z" />
    <glyph glyph-name="H" unicode="H" horiz-adv-x="1474" 
d="M1180 1434h100v-1434h-100v678h-885v-678h-100v1434h100v-666h885v666z" />
    <glyph glyph-name="I" unicode="I" horiz-adv-x="491" 
d="M195 0v1434h100v-1434h-100z" />
    <glyph glyph-name="J" unicode="J" horiz-adv-x="894" 
d="M309 -25q-118 0 -252 35l17 82q118 -31 219 -31q129 0 203.5 68t74.5 213v1092h101v-1100q0 -179 -98 -269t-265 -90z" />
    <glyph glyph-name="K" unicode="K" horiz-adv-x="1329" 
d="M195 0v1434h100v-803l801 803h131l-678 -678l694 -756h-129l-635 690l-184 -180v-510h-100z" />
    <glyph glyph-name="L" unicode="L" horiz-adv-x="1093" 
d="M195 0v1434h100v-1344h723v-90h-823z" />
    <glyph glyph-name="M" unicode="M" horiz-adv-x="1648" 
d="M1352 1434h100v-1434h-96v1278l-531 -864l-534 868v-1282h-96v1434h102l528 -850z" />
    <glyph glyph-name="N" unicode="N" horiz-adv-x="1509" 
d="M1219 1434h96v-1434h-103l-921 1284v-1284h-96v1434h102l922 -1282v1282z" />
    <glyph glyph-name="O" unicode="O" horiz-adv-x="1665" 
d="M834 -18q-205 0 -371 95t-260 263.5t-94 376.5t94 376.5t260 263.5t371 95q204 0 370 -95t260.5 -263.5t94.5 -376.5t-94.5 -376.5t-260.5 -263.5t-370 -95zM834 72q131 0 246.5 49.5t198 134.5t130 205t47.5 256t-47.5 256t-130 205t-198 134.5t-246.5 49.5t-247 -49
t-198.5 -134.5t-130 -205.5t-47.5 -256t47.5 -256t130 -205.5t198.5 -134.5t247 -49z" />
    <glyph glyph-name="P" unicode="P" horiz-adv-x="1230" 
d="M195 0v1434h493q204 0 324.5 -114.5t120.5 -303.5q0 -190 -121 -309t-324 -119h-393v-588h-100zM295 678h381q166 0 260 92.5t94 245.5t-93 240t-261 87h-381v-665z" />
    <glyph glyph-name="Q" unicode="Q" horiz-adv-x="1665" 
d="M1559 717q0 -219 -105 -393t-283 -265l177 -245h-123l-150 206q-112 -38 -241 -38q-205 0 -371 95t-260 263.5t-94 376.5t94 376.5t260 263.5t371 95q204 0 370 -95t260.5 -263.5t94.5 -376.5zM1116 137q156 78 248 232t92 348q0 136 -47.5 256t-130 205t-198 134.5
t-246.5 49.5t-247 -49t-198.5 -134.5t-130 -205.5t-47.5 -256t47.5 -256t130 -205.5t198.5 -134.5t247 -49q90 0 186 26l-262 365h123z" />
    <glyph glyph-name="R" unicode="R" horiz-adv-x="1347" 
d="M1102 0l-391 549h-416v-549h-100v1434h553q188 0 308 -125t120 -318q0 -172 -100.5 -295.5t-258.5 -136.5l402 -559h-117zM295 1343v-704h440q150 0 246 97.5t96 254.5q0 156 -96 254t-246 98h-440z" />
    <glyph glyph-name="S" unicode="S" horiz-adv-x="1173" 
d="M588 -18q-267 0 -471 108l26 86q200 -104 439 -104q172 0 274 77.5t102 212.5q0 71 -28.5 124t-76.5 85.5t-110 57t-130.5 43.5t-137.5 39.5t-131 51t-110 72t-76.5 108t-28.5 153.5q0 158 128 257t335 99q117 0 217 -21.5t203 -84.5l-27 -86q-164 104 -389 104
q-165 0 -267 -73.5t-102 -192.5q0 -73 28.5 -127t76.5 -87.5t110 -58t131 -44t138 -39.5t131 -50t110 -70t76.5 -105.5t28.5 -151.5q0 -176 -128.5 -279.5t-340.5 -103.5z" />
    <glyph glyph-name="T" unicode="T" horiz-adv-x="1187" 
d="M545 0v1343h-484v91h1065v-91h-481v-1343h-100z" />
    <glyph glyph-name="U" unicode="U" horiz-adv-x="1521" 
d="M762 -18q-162 0 -291 69t-202.5 196t-73.5 290v897h100v-887q0 -209 133 -342t334 -133t333 133t132 342v887h100v-897q0 -163 -73.5 -290t-202 -196t-289.5 -69z" />
    <glyph glyph-name="V" unicode="V" horiz-adv-x="1359" 
d="M1212 1434h107l-590 -1434h-96l-592 1434h109l532 -1309z" />
    <glyph glyph-name="W" unicode="W" horiz-adv-x="1988" 
d="M1845 1434h103l-457 -1434h-102l-394 1290l-393 -1290h-102l-459 1434h104l408 -1301l393 1301h98l394 -1303z" />
    <glyph glyph-name="X" unicode="X" horiz-adv-x="1345" 
d="M49 0l559 735l-532 699h114l482 -631l479 631h117l-533 -699l559 -735h-116l-506 668l-506 -668h-117z" />
    <glyph glyph-name="Y" unicode="Y" horiz-adv-x="1214" 
d="M1055 1434h108l-504 -850v-584h-102v584l-508 850h113l446 -754z" />
    <glyph glyph-name="Z" unicode="Z" horiz-adv-x="1271" 
d="M258 90h897v-90h-1038v61l893 1282h-850v91h989v-64z" />
    <glyph glyph-name="bracketleft" unicode="[" horiz-adv-x="673" 
d="M238 -268v1716h350v-82h-258v-1552h258v-82h-350z" />
    <glyph glyph-name="backslash" unicode="\" horiz-adv-x="786" 
d="M664 -176l-623 1710l82 27l622 -1711z" />
    <glyph glyph-name="bracketright" unicode="]" horiz-adv-x="673" 
d="M88 -268v82h254v1552h-254v82h346v-1716h-346z" />
    <glyph glyph-name="asciicircum" unicode="^" horiz-adv-x="1179" 
d="M203 422l-82 33l426 921h86l426 -921l-82 -33l-387 838z" />
    <glyph glyph-name="underscore" unicode="_" horiz-adv-x="983" 
d="M0 -303v82h983v-82h-983z" />
    <glyph glyph-name="grave" unicode="`" horiz-adv-x="552" 
d="M424 1159l-336 215l49 68l328 -228z" />
    <glyph glyph-name="a" unicode="a" horiz-adv-x="1032" 
d="M492 1026q167 0 271.5 -93.5t104.5 -250.5v-682h-80l-12 158q-106 -176 -336 -176q-154 0 -254 82.5t-100 216.5q0 143 119 227t327 84q131 0 244 -31v113q0 119 -82.5 190.5t-212.5 71.5q-176 0 -307 -105l-27 82q143 113 345 113zM455 63q143 0 232 94t89 236v88
q-111 31 -229 31q-171 0 -267 -62t-96 -165q0 -97 77 -159.5t194 -62.5z" />
    <glyph glyph-name="b" unicode="b" horiz-adv-x="1204" 
d="M659 1026q195 0 325 -149t130 -373t-130 -373t-325 -149q-133 0 -235 62t-158 167l-14 -211h-80v1434h98v-641q53 106 154 169.5t235 63.5zM643 72q160 0 265.5 123t105.5 309q0 185 -106 308.5t-265 123.5q-158 0 -265.5 -124t-107.5 -308q0 -185 107 -308.5t266 -123.5
z" />
    <glyph glyph-name="c" unicode="c" horiz-adv-x="1015" 
d="M580 -18q-217 0 -354.5 145.5t-137.5 372.5q0 230 138.5 378t355.5 148q189 0 329 -129l-47 -76q-124 115 -278 115q-172 0 -285 -121.5t-113 -312.5t112.5 -310.5t287.5 -119.5q146 0 276 106l47 -74q-150 -122 -331 -122z" />
    <glyph glyph-name="d" unicode="d" horiz-adv-x="1202" 
d="M932 1434h98v-1434h-80l-14 209q-56 -104 -158.5 -165.5t-234.5 -61.5q-127 0 -231 67.5t-163 187t-59 265.5q0 225 129.5 374.5t323.5 149.5q131 0 232 -60.5t157 -162.5v631zM559 70q160 0 266.5 123.5t106.5 308.5q0 186 -106.5 310t-266.5 124q-158 0 -264.5 -124
t-106.5 -310q0 -184 106.5 -308t264.5 -124z" />
    <glyph glyph-name="e" unicode="e" horiz-adv-x="1071" 
d="M983 524q0 -23 -4 -51h-791q10 -181 122 -291t284 -110q163 0 303 110l37 -76q-158 -124 -348 -124q-217 0 -356.5 147.5t-139.5 374.5q0 224 132.5 373t330.5 149q184 0 307 -142t123 -360zM551 936q-144 0 -244 -105.5t-117 -269.5h693q-4 163 -99 269t-233 106z" />
    <glyph glyph-name="f" unicode="f" horiz-adv-x="620" 
d="M221 0v926h-180v82h180v170q0 128 62 201t174 73q96 0 164 -41l-33 -72q-53 31 -117 31q-73 0 -112.5 -53t-39.5 -143v-166h250v-82h-250v-926h-98z" />
    <glyph glyph-name="g" unicode="g" horiz-adv-x="1202" 
d="M950 1006h80v-992q0 -196 -132.5 -329.5t-330.5 -133.5q-125 0 -219 32t-196 108l30 78q96 -73 180.5 -104.5t196.5 -31.5q161 0 267 109t106 270v193q-55 -101 -158 -161t-231 -60q-195 0 -324 147t-129 371q0 148 58.5 268t162.5 188t232 68q129 0 232.5 -62.5
t158.5 -166.5zM559 74q160 0 266.5 123t106.5 307q0 185 -106.5 308.5t-266.5 123.5q-158 0 -264.5 -124t-106.5 -308t106.5 -307t264.5 -123z" />
    <glyph glyph-name="h" unicode="h" horiz-adv-x="1165" 
d="M612 1026q174 0 283 -115.5t109 -300.5v-610h-99v594q0 159 -84.5 252.5t-226.5 93.5q-141 0 -232.5 -108t-91.5 -271v-561h-98v1434h100v-603q53 92 139.5 143.5t200.5 51.5z" />
    <glyph glyph-name="i" unicode="i" horiz-adv-x="458" 
d="M229 1237q-34 0 -55.5 21t-21.5 53q0 33 21.5 53t55.5 20t56 -20t22 -53q0 -32 -22 -53t-56 -21zM180 0v1008h99v-1008h-99z" />
    <glyph glyph-name="j" unicode="j" horiz-adv-x="475" 
d="M244 1237q-32 0 -54 21t-22 53q0 33 21.5 53t54.5 20q34 0 56 -20t22 -53q0 -32 -22 -53t-56 -21zM39 -449q-128 0 -213 66l29 76q70 -58 165 -58q75 0 125 51t50 124v1198h98v-1205q0 -107 -71.5 -179.5t-182.5 -72.5z" />
    <glyph glyph-name="k" unicode="k" horiz-adv-x="1017" 
d="M819 0l-424 483l-125 -125v-358h-98v1434h98v-959l533 533h119l-463 -463l479 -545h-119z" />
    <glyph glyph-name="l" unicode="l" horiz-adv-x="444" 
d="M172 0v1434h98v-1434h-98z" />
    <glyph glyph-name="m" unicode="m" horiz-adv-x="1824" 
d="M1292 1026q163 0 266 -107.5t103 -291.5v-627h-98v610q0 155 -81 242.5t-214 87.5q-131 0 -216 -101t-85 -261v-578h-99v610q0 155 -81 242.5t-214 87.5q-132 0 -217.5 -101t-85.5 -261v-578h-98v1006h80l12 -179q50 95 135 147t197 52q121 0 212 -61t132 -172
q45 111 136 172t216 61z" />
    <glyph glyph-name="n" unicode="n" horiz-adv-x="1165" 
d="M612 1026q174 0 283 -115.5t109 -300.5v-610h-99v594q0 159 -84.5 252.5t-226.5 93.5q-141 0 -232.5 -108t-91.5 -271v-561h-98v1006h80l12 -189q53 98 141.5 153.5t206.5 55.5z" />
    <glyph glyph-name="o" unicode="o" horiz-adv-x="1140" 
d="M571 -18q-207 0 -344 146.5t-137 369.5t137 369.5t344 146.5q206 0 343 -147t137 -369t-137 -369t-343 -147zM571 72q163 0 272 121.5t109 304.5t-109 304.5t-272 121.5q-164 0 -273.5 -121.5t-109.5 -304.5t109.5 -304.5t273.5 -121.5z" />
    <glyph glyph-name="p" unicode="p" horiz-adv-x="1202" 
d="M659 1014q195 0 325 -147t130 -369t-130 -369t-325 -147q-131 0 -232 58.5t-157 158.5v-629h-98v1425h80l14 -207q56 103 158.5 164.5t234.5 61.5zM643 72q159 0 265 121.5t106 304.5t-106.5 305.5t-264.5 122.5q-160 0 -266.5 -122.5t-106.5 -305.5t106.5 -304.5
t266.5 -121.5z" />
    <glyph glyph-name="q" unicode="q" horiz-adv-x="1204" 
d="M950 1006h80v-1436h-98v641q-55 -105 -155 -167t-234 -62q-127 0 -231 67.5t-163 187t-59 265.5q0 147 59 267.5t163 188.5t231 68q133 0 235 -61.5t158 -165.5zM561 70q158 0 264.5 124t106.5 308q0 186 -106.5 310t-264.5 124q-160 0 -265.5 -124t-105.5 -310
q0 -185 106 -308.5t265 -123.5z" />
    <glyph glyph-name="r" unicode="r" horiz-adv-x="755" 
d="M584 1026q65 0 129 -20l-15 -80q-66 16 -118 16q-136 0 -223 -103.5t-87 -267.5v-571h-98v1006h80l10 -177q42 91 127.5 144t194.5 53z" />
    <glyph glyph-name="s" unicode="s" horiz-adv-x="903" 
d="M451 -18q-203 0 -347 112l27 76q134 -109 313 -109q118 0 188 58t70 160q0 64 -32 105t-83 60t-112.5 31t-123.5 27t-113 38.5t-83 73.5t-32 125q0 134 103 210.5t255 76.5q165 0 303 -106l-30 -74q-125 102 -265 102q-116 0 -193 -54t-77 -153q0 -58 32 -94.5t83.5 -53
t113.5 -27.5t124 -27t113.5 -42t83.5 -81t32 -137q0 -136 -96 -216.5t-254 -80.5z" />
    <glyph glyph-name="t" unicode="t" horiz-adv-x="626" 
d="M420 -18q-219 0 -219 284v660h-172v82h172v280h98v-280h258v-82h-258v-652q0 -107 29.5 -159t109.5 -52q50 0 123 23l12 -74q-40 -19 -71.5 -24.5t-81.5 -5.5z" />
    <glyph glyph-name="u" unicode="u" horiz-adv-x="1163" 
d="M893 1006h98v-1006h-80l-12 186q-51 -96 -139 -150t-207 -54q-173 0 -282 113.5t-109 297.5v613h98v-590q0 -162 85.5 -256t227.5 -94q140 0 230 109t90 276v555z" />
    <glyph glyph-name="v" unicode="v" horiz-adv-x="948" 
d="M825 1008h105l-410 -1008h-92l-410 1008h103l352 -891z" />
    <glyph glyph-name="w" unicode="w" horiz-adv-x="1439" 
d="M1321 1008h100l-325 -1008h-99l-278 891l-277 -891h-98l-326 1008h101l276 -893l277 893h96l276 -889z" />
    <glyph glyph-name="x" unicode="x" horiz-adv-x="942" 
d="M27 0l381 514l-365 494h113l315 -426l317 426h113l-366 -494l383 -514h-115l-332 451l-332 -451h-112z" />
    <glyph glyph-name="y" unicode="y" horiz-adv-x="948" 
d="M260 -430l174 436l-416 1002h103l358 -891l346 891h105l-576 -1438h-94z" />
    <glyph glyph-name="z" unicode="z" horiz-adv-x="968" 
d="M233 80h629v-80h-756v59l613 867h-594v82h723v-60z" />
    <glyph glyph-name="braceleft" unicode="{" horiz-adv-x="673" 
d="M535 -268q-114 0 -190.5 77t-76.5 197q0 57 14.5 173.5t14.5 174.5q0 84 -51 139.5t-133 55.5h-33v82h33q81 0 132.5 54.5t51.5 139.5q0 54 -14.5 172.5t-14.5 176.5q0 120 76.5 197t190.5 77h53v-82h-33q-84 0 -138.5 -57t-54.5 -148q0 -52 14.5 -167.5t14.5 -174.5
q0 -81 -39.5 -143t-111.5 -86q72 -24 111.5 -86.5t39.5 -143.5q0 -57 -14.5 -172.5t-14.5 -169.5q0 -91 54.5 -147.5t138.5 -56.5h33v-82h-53z" />
    <glyph glyph-name="bar" unicode="|" horiz-adv-x="491" 
d="M203 -459v1966h86v-1966h-86z" />
    <glyph glyph-name="braceright" unicode="}" horiz-adv-x="673" 
d="M88 -268v82h33q83 0 136.5 56.5t53.5 147.5q0 52 -13 167.5t-13 174.5q0 82 38.5 144t110.5 86q-72 24 -110.5 85.5t-38.5 143.5q0 57 13 172.5t13 169.5q0 91 -53.5 148t-136.5 57h-33v82h49q116 0 191 -76.5t75 -197.5q0 -58 -14 -175t-14 -174q0 -84 51.5 -139
t132.5 -55h33v-82h-33q-80 0 -132 -55t-52 -140q0 -54 14 -172t14 -176q0 -121 -75 -197.5t-191 -76.5h-49z" />
    <glyph glyph-name="asciitilde" unicode="~" horiz-adv-x="1179" 
d="M793 498q-71 0 -140 24.5t-135 49t-131 24.5q-126 0 -231 -92l-50 71q125 107 281 107q71 0 140 -24.5t135 -49t131 -24.5q126 0 231 92l49 -72q-124 -106 -280 -106z" />
    <glyph glyph-name="uni00A0" unicode="&#xa0;" horiz-adv-x="491" 
 />
    <glyph glyph-name="exclamdown" unicode="&#xa1;" horiz-adv-x="516" 
d="M258 1006q36 0 59 -23t23 -59q0 -35 -23.5 -58.5t-58.5 -23.5q-36 0 -59 23t-23 59q0 37 22.5 59.5t59.5 22.5zM299 575l8 -1021h-100l8 1021h84z" />
    <glyph glyph-name="cent" unicode="&#xa2;" horiz-adv-x="1015" 
d="M864 403l47 -73q-148 -120 -323 -123v-289h-88v295q-186 26 -299 167t-113 345q0 207 113.5 349.5t298.5 170.5v271h88v-265q186 -3 323 -129l-47 -75q-123 114 -278 114q-172 0 -285 -121.5t-113 -312.5t112.5 -310.5t287.5 -119.5q146 0 276 106z" />
    <glyph glyph-name="sterling" unicode="&#xa3;" horiz-adv-x="1179" 
d="M154 0v86h215v571h-183v88h183v275q0 201 103.5 316.5t287.5 115.5q80 0 159 -23.5t136 -66.5l-37 -80q-105 80 -244 80q-148 0 -226.5 -93t-78.5 -255v-269h408v-88h-408v-571h590v-86h-905z" />
    <glyph glyph-name="currency" unicode="&#xa4;" horiz-adv-x="1179" 
d="M195 233l-60 60l166 168q-78 94 -78 227q0 132 76 227l-164 168l60 60l165 -166q94 78 230 78q133 0 227 -78l168 166l59 -60l-165 -168q77 -93 77 -227q0 -130 -77 -227l165 -168l-59 -60l-168 166q-94 -75 -227 -75q-134 0 -228 75zM590 406q125 0 204.5 79t79.5 203
q0 125 -80 205t-204 80t-204.5 -80.5t-80.5 -204.5t80 -203t205 -79z" />
    <glyph glyph-name="yen" unicode="&#xa5;" horiz-adv-x="1214" 
d="M1163 1434l-471 -795h363v-72h-396v-237h396v-72h-396v-258h-102v258h-401v72h401v237h-401v72h368l-475 795h113l446 -754l447 754h108z" />
    <glyph glyph-name="brokenbar" unicode="&#xa6;" horiz-adv-x="491" 
d="M203 721v786h86v-786h-86zM203 -459v787h86v-787h-86z" />
    <glyph glyph-name="section" unicode="&#xa7;" horiz-adv-x="1067" 
d="M516 -301q-188 0 -407 92l24 80q208 -88 377 -88q146 0 230.5 62t84.5 171q0 51 -20 91.5t-54 66.5t-79 48t-96 37t-105 32.5t-105 34.5t-96 44.5t-79 60.5t-54 83t-20 113q0 88 49.5 156t138.5 102q-155 86 -155 260q0 137 110.5 222t288.5 85q168 0 371 -82l-25 -82
q-193 80 -340 80q-138 0 -222.5 -62t-84.5 -161q0 -71 39.5 -120.5t102 -77t138.5 -49.5t152.5 -48t139 -61.5t102 -99.5t39.5 -154q0 -87 -48 -155.5t-133 -107.5q148 -90 148 -256q0 -145 -113.5 -231t-298.5 -86zM686 315q82 28 127 84.5t45 130.5q0 54 -21 96t-51.5 68
t-81.5 49.5t-93 36t-105 31t-100 31.5q-89 -23 -140 -80t-51 -133q0 -54 22 -95.5t55 -67.5t85 -48.5t97.5 -35.5t108.5 -32t103 -35z" />
    <glyph glyph-name="dieresis" unicode="&#xa8;" horiz-adv-x="733" 
d="M162 1239q-32 0 -53 20t-21 52t21 52.5t53 20.5t51.5 -20.5t19.5 -52.5t-19.5 -52t-51.5 -20zM571 1239q-32 0 -51.5 20t-19.5 52t19.5 52.5t51.5 20.5t52 -20.5t20 -52.5t-20 -52t-52 -20z" />
    <glyph glyph-name="copyright" unicode="&#xa9;" horiz-adv-x="1703" 
d="M852 -18q-218 0 -390 93t-268 261t-96 381t96 381t268 261t390 93t390 -93t268 -261t96 -381t-96 -381t-268 -261t-390 -93zM852 31q203 0 362.5 87t248.5 243.5t89 355.5t-89 355.5t-248.5 243.5t-362.5 87t-362.5 -87t-248.5 -243.5t-89 -355.5t89 -355.5t248.5 -243.5
t362.5 -87zM877 285q-180 0 -291 121t-111 315t111 315t291 121q137 0 270 -88l-29 -45q-112 80 -239 80q-156 0 -252.5 -106t-96.5 -277q0 -172 97 -278.5t252 -106.5q125 0 239 82l29 -45q-133 -88 -270 -88z" />
    <glyph glyph-name="ordfeminine" unicode="&#xaa;" horiz-adv-x="759" 
d="M358 1452q107 0 183.5 -62.5t76.5 -164.5v-441h-63l-6 103q-37 -59 -98.5 -91t-137.5 -32q-98 0 -162.5 54.5t-64.5 139.5q0 101 80.5 157t220.5 56q66 0 158 -18v72q0 77 -54 123.5t-133 46.5q-120 0 -221 -82l-24 55q106 84 245 84zM326 823q94 0 156.5 59.5
t62.5 149.5v70q-106 16 -154 16q-107 0 -168 -41.5t-61 -115.5q0 -60 47 -99t117 -39z" />
    <glyph glyph-name="guillemotleft" unicode="&#xab;" horiz-adv-x="1042" 
d="M467 35l-404 446v51l404 449l59 -49l-364 -426l364 -424zM895 35l-403 446v51l403 449l59 -49l-364 -426l364 -424z" />
    <glyph glyph-name="logicalnot" unicode="&#xac;" horiz-adv-x="1179" 
d="M975 121v426h-854v86h938v-512h-84z" />
    <glyph glyph-name="uni00AD" unicode="&#xad;" horiz-adv-x="655" 
d="M113 465v82h538v-82h-538z" />
    <glyph glyph-name="registered" unicode="&#xae;" horiz-adv-x="749" 
d="M375 795q-146 0 -239 91t-93 232t93 232.5t239 91.5t239 -91.5t93 -232.5t-93 -232t-239 -91zM375 829q130 0 212.5 80.5t82.5 208.5t-82.5 208.5t-212.5 80.5t-212.5 -80.5t-82.5 -208.5t82.5 -208.5t212.5 -80.5zM260 936v367h135q50 0 83.5 -31t33.5 -80
q0 -41 -25 -70t-65 -35l102 -151h-47l-98 147h-78v-147h-41zM301 1116h90q35 0 57.5 21t22.5 55t-22.5 55t-57.5 21h-90v-152z" />
    <glyph glyph-name="macron" unicode="&#xaf;" horiz-adv-x="757" 
d="M88 1274v76h580v-76h-580z" />
    <glyph glyph-name="degree" unicode="&#xb0;" horiz-adv-x="667" 
d="M334 993q-100 0 -165 65t-65 165q0 101 65 165t165 64q101 0 165 -64t64 -165q0 -100 -64 -165t-165 -65zM334 1057q74 0 120 46.5t46 119.5q0 74 -46.5 121t-119.5 47t-118.5 -47t-45.5 -121q0 -73 46 -119.5t118 -46.5z" />
    <glyph glyph-name="plusminus" unicode="&#xb1;" horiz-adv-x="1179" 
d="M547 260v426h-426v86h426v428h86v-428h426v-86h-426v-426h-86zM121 0v86h938v-86h-938z" />
    <glyph glyph-name="uni00B2" unicode="&#xb2;" horiz-adv-x="694" 
d="M55 786v52l344 348q105 105 105 211q0 85 -51.5 135.5t-137.5 50.5q-101 0 -219 -72l-33 60q134 84 263 84q114 0 186 -69.5t72 -178.5q0 -136 -121 -254l-299 -299h430v-68h-539z" />
    <glyph glyph-name="uni00B3" unicode="&#xb3;" horiz-adv-x="694" 
d="M330 770q-142 0 -271 66l31 61q119 -61 227 -61q88 0 143.5 49t55.5 125q0 82 -64.5 132t-168.5 50h-52v61h52q95 0 155 47.5t60 122.5q0 74 -49 120t-132 46q-104 0 -217 -55l-24 61q123 60 254 60q108 0 176.5 -63t68.5 -162q0 -74 -42.5 -129.5t-116.5 -75.5
q82 -23 131 -82t49 -137q0 -104 -74 -170t-192 -66z" />
    <glyph glyph-name="acute" unicode="&#xb4;" horiz-adv-x="552" 
d="M129 1159l-41 55l330 228l47 -68z" />
    <glyph glyph-name="uni00B5" unicode="&#xb5;" horiz-adv-x="1220" 
d="M1165 72l13 -82q-54 -8 -88 -8q-75 0 -121.5 43t-50.5 116v58q-51 -102 -144 -159.5t-207 -57.5q-97 0 -173.5 42.5t-117.5 120.5v-575h-98v1438h98v-654q0 -128 82.5 -208t212.5 -80q146 0 242 101t96 259v582h99v-840q0 -48 27.5 -76.5t76.5 -28.5q17 0 53 9z" />
    <glyph glyph-name="paragraph" unicode="&#xb6;" horiz-adv-x="1171" 
d="M860 -270v1618h-223v-732h-94q-193 0 -318 115.5t-125 294.5q0 178 125.5 293t317.5 115h401v-1704h-84z" />
    <glyph glyph-name="periodcentered" unicode="&#xb7;" horiz-adv-x="483" 
d="M242 424q-35 0 -58.5 23.5t-23.5 58.5t23.5 58.5t58.5 23.5q36 0 59 -23t23 -59t-23 -59t-59 -23z" />
    <glyph glyph-name="cedilla" unicode="&#xb8;" horiz-adv-x="561" 
d="M264 -451q-91 0 -176 33l23 64q82 -29 145 -29q57 0 94 28.5t37 73.5q0 46 -37.5 73.5t-97.5 27.5h-21l33 180h78l-25 -131q68 -8 112 -52.5t44 -105.5q0 -70 -59.5 -116t-149.5 -46z" />
    <glyph glyph-name="uni00B9" unicode="&#xb9;" horiz-adv-x="542" 
d="M301 786v770l-227 -133l-31 58l270 157h66v-852h-78z" />
    <glyph glyph-name="ordmasculine" unicode="&#xba;" horiz-adv-x="835" 
d="M428 762q-143 0 -234.5 96.5t-91.5 249.5q0 152 91.5 248t234.5 96t234.5 -96t91.5 -248q0 -153 -91.5 -249.5t-234.5 -96.5zM428 829q108 0 177 78t69 201q0 124 -69 201t-177 77t-177 -77t-69 -201q0 -123 69 -201t177 -78z" />
    <glyph glyph-name="guillemotright" unicode="&#xbb;" horiz-adv-x="1042" 
d="M145 35l-57 47l365 424l-365 426l57 49l406 -449v-51zM575 35l-59 47l365 424l-365 426l59 49l404 -449v-51z" />
    <glyph glyph-name="onequarter" unicode="&#xbc;" horiz-adv-x="1966" 
d="M422 582v770l-227 -133l-33 57l272 158h66v-852h-78zM496 -20l-58 40l1032 1377l58 -41zM1673 0v207h-422v53l420 592h74v-584h139v-61h-139v-207h-72zM1333 268h340v482z" />
    <glyph glyph-name="onehalf" unicode="&#xbd;" horiz-adv-x="1966" 
d="M422 582v770l-227 -133l-33 57l272 158h66v-852h-78zM496 -20l-58 40l1032 1377l58 -41zM1280 0v51l346 348q105 108 105 211q0 85 -52.5 136t-138.5 51q-101 0 -219 -72l-33 59q134 84 262 84q114 0 186 -69t72 -178q0 -137 -120 -254l-297 -299h428v-68h-539z" />
    <glyph glyph-name="threequarters" unicode="&#xbe;" horiz-adv-x="1966" 
d="M375 565q-142 0 -271 66l31 61q119 -61 227 -61q89 0 145 49t56 125q0 82 -65 132t-170 50h-49v62h49q95 0 155 47.5t60 122.5q0 74 -49 119.5t-132 45.5q-102 0 -215 -55l-26 62q123 59 254 59q109 0 178.5 -63.5t69.5 -161.5q0 -74 -43.5 -129.5t-116.5 -75.5
q81 -24 130.5 -83t49.5 -136q0 -104 -75 -170t-193 -66zM496 -20l-58 40l1032 1377l58 -41zM1673 0v207h-422v53l420 592h74v-584h139v-61h-139v-207h-72zM1333 268h340v482z" />
    <glyph glyph-name="questiondown" unicode="&#xbf;" horiz-adv-x="927" 
d="M498 1006q36 0 59 -23t23 -59q0 -35 -23.5 -58.5t-58.5 -23.5q-36 0 -59 23t-23 59q0 37 22.5 59.5t59.5 22.5zM539 575v-22q0 -55 -18.5 -106t-48 -91.5t-65 -80.5t-71 -80.5t-65 -83t-48 -97t-18.5 -114.5q0 -121 80 -199t215 -78q77 0 154 36.5t132 117.5l52 -68
q-67 -90 -161 -133t-196 -43q-93 0 -167 31t-119 82.5t-68 115t-23 132.5q0 67 19 128t50 106.5t68 88t74.5 81.5t68.5 77.5t50 84.5t19 95v20h86z" />
    <glyph glyph-name="Agrave" unicode="&#xc0;" horiz-adv-x="1378" 
d="M803 1620l-41 -55l-336 213l47 69zM1227 0l-187 459h-700l-188 -459h-105l592 1434h100l592 -1434h-104zM375 547h629l-314 770z" />
    <glyph glyph-name="Aacute" unicode="&#xc1;" horiz-adv-x="1378" 
d="M961 1778l-336 -213l-41 55l329 227zM1227 0l-187 459h-700l-188 -459h-105l592 1434h100l592 -1434h-104zM375 547h629l-314 770z" />
    <glyph glyph-name="Acircumflex" unicode="&#xc2;" horiz-adv-x="1378" 
d="M690 1786l-235 -219l-49 51l249 242h68l250 -242l-47 -51zM1227 0l-187 459h-700l-188 -459h-105l592 1434h100l592 -1434h-104zM375 547h629l-314 770z" />
    <glyph glyph-name="Atilde" unicode="&#xc3;" horiz-adv-x="1378" 
d="M565 1720q-32 0 -57 -21.5t-37 -58.5l-68 21q15 59 57.5 96t98.5 37q46 0 134.5 -40t121.5 -40q32 0 57 21t37 59l68 -25q-15 -58 -57.5 -93.5t-98.5 -35.5q-46 0 -134.5 40t-121.5 40zM1227 0l-187 459h-700l-188 -459h-105l592 1434h100l592 -1434h-104zM375 547h629
l-314 770z" />
    <glyph glyph-name="Adieresis" unicode="&#xc4;" horiz-adv-x="1378" 
d="M485 1645q-32 0 -51.5 19.5t-19.5 51.5q0 33 19.5 53.5t51.5 20.5t52 -21t20 -53t-20 -51.5t-52 -19.5zM895 1645q-32 0 -52 19.5t-20 51.5t20 53t52 21t52 -21t20 -53t-20 -51.5t-52 -19.5zM1227 0l-187 459h-700l-188 -459h-105l592 1434h100l592 -1434h-104zM375 547
h629l-314 770z" />
    <glyph glyph-name="Aring" unicode="&#xc5;" horiz-adv-x="1378" 
d="M694 1528q-86 0 -140 52.5t-54 135.5q0 85 52 137t138 52t138.5 -52t52.5 -137q0 -84 -51.5 -136t-135.5 -52zM690 1847q-60 0 -96.5 -35.5t-36.5 -95.5t38.5 -96.5t98.5 -36.5q58 0 93.5 36.5t35.5 96.5q0 59 -37 95t-96 36zM1227 0l-187 459h-700l-188 -459h-105
l592 1434h100l592 -1434h-104zM375 547h629l-314 770z" />
    <glyph glyph-name="AE" unicode="&#xc6;" horiz-adv-x="2041" 
d="M1135 90h774v-90h-875v459h-577l-305 -459h-105l938 1434h891v-91h-741v-571h675v-90h-675v-592zM516 547h518v778z" />
    <glyph glyph-name="Ccedilla" unicode="&#xc7;" horiz-adv-x="1429" 
d="M868 -131q68 -8 112 -52.5t44 -105.5q0 -70 -59.5 -116t-149.5 -46q-91 0 -176 33l23 64q82 -29 145 -29q57 0 94 28.5t37 73.5q0 46 -37.5 73.5t-97.5 27.5h-21l29 162q-206 8 -366.5 106t-248 263.5t-87.5 369.5q0 208 92 374.5t258.5 261.5t378.5 95q261 0 477 -145
l-45 -82q-90 66 -201.5 101.5t-222.5 35.5q-185 0 -330.5 -83.5t-225 -229.5t-79.5 -328q0 -110 29.5 -209t86 -179t134 -138.5t178 -90.5t213.5 -32q109 0 220.5 35.5t201.5 99.5l45 -80q-191 -130 -430 -143z" />
    <glyph glyph-name="Egrave" unicode="&#xc8;" horiz-adv-x="1204" 
d="M655 1565l-336 213l48 69l329 -227zM195 0v1434h843v-91h-743v-571h678v-90h-678v-592h776v-90h-876z" />
    <glyph glyph-name="Eacute" unicode="&#xc9;" horiz-adv-x="1204" 
d="M518 1565l-41 55l330 227l47 -69zM195 0v1434h843v-91h-743v-571h678v-90h-678v-592h776v-90h-876z" />
    <glyph glyph-name="Ecircumflex" unicode="&#xca;" horiz-adv-x="1204" 
d="M348 1567l-49 51l250 242h67l250 -242l-47 -51l-235 219zM195 0v1434h843v-91h-743v-571h678v-90h-678v-592h776v-90h-876z" />
    <glyph glyph-name="Edieresis" unicode="&#xcb;" horiz-adv-x="1204" 
d="M379 1645q-32 0 -52 19.5t-20 51.5t20 53t52 21t52 -21t20 -53t-20 -51.5t-52 -19.5zM788 1645q-32 0 -51.5 19.5t-19.5 51.5q0 33 19.5 53.5t51.5 20.5t52 -21t20 -53t-20 -51.5t-52 -19.5zM195 0v1434h843v-91h-743v-571h678v-90h-678v-592h776v-90h-876z" />
    <glyph glyph-name="Igrave" unicode="&#xcc;" horiz-adv-x="491" 
d="M319 1565l-335 213l47 69l329 -227zM195 0v1434h100v-1434h-100z" />
    <glyph glyph-name="Iacute" unicode="&#xcd;" horiz-adv-x="491" 
d="M182 1565l-41 55l330 227l47 -69zM195 0v1434h100v-1434h-100z" />
    <glyph glyph-name="Icircumflex" unicode="&#xce;" horiz-adv-x="491" 
d="M12 1567l-49 51l250 242h68l249 -242l-47 -51l-235 219zM195 0v1434h100v-1434h-100z" />
    <glyph glyph-name="Idieresis" unicode="&#xcf;" horiz-adv-x="491" 
d="M43 1645q-32 0 -52 19.5t-20 51.5t20 53t52 21t52 -21t20 -53t-20 -51.5t-52 -19.5zM453 1645q-32 0 -52 19.5t-20 51.5t20 53t52 21t51.5 -20.5t19.5 -53.5q0 -32 -19.5 -51.5t-51.5 -19.5zM195 0v1434h100v-1434h-100z" />
    <glyph glyph-name="Eth" unicode="&#xd0;" horiz-adv-x="1437" 
d="M557 1434q178 0 323 -52.5t243.5 -147.5t152 -229.5t53.5 -295.5q0 -156 -53.5 -287t-151.5 -224.5t-243.5 -145.5t-323.5 -52h-362v666h-195v79h195v689h362zM551 90q312 0 494 170.5t182 448.5q0 140 -46.5 257t-132.5 200.5t-213.5 130t-283.5 46.5h-256v-598h397v-79
h-397v-576h256z" />
    <glyph glyph-name="Ntilde" unicode="&#xd1;" horiz-adv-x="1509" 
d="M625 1720q-32 0 -57.5 -21.5t-37.5 -58.5l-67 21q15 60 57 96.5t98 36.5q46 0 134.5 -40t121.5 -40t58 21t37 59l67 -25q-15 -58 -57 -93.5t-98 -35.5q-46 0 -134.5 40t-121.5 40zM1219 1434h96v-1434h-103l-921 1284v-1284h-96v1434h102l922 -1282v1282z" />
    <glyph glyph-name="Ograve" unicode="&#xd2;" horiz-adv-x="1665" 
d="M905 1565l-336 213l47 69l330 -227zM834 -18q-205 0 -371 95t-260 263.5t-94 376.5t94 376.5t260 263.5t371 95q204 0 370 -95t260.5 -263.5t94.5 -376.5t-94.5 -376.5t-260.5 -263.5t-370 -95zM834 72q131 0 246.5 49.5t198 134.5t130 205t47.5 256t-47.5 256t-130 205
t-198 134.5t-246.5 49.5t-247 -49t-198.5 -134.5t-130 -205.5t-47.5 -256t47.5 -256t130 -205.5t198.5 -134.5t247 -49z" />
    <glyph glyph-name="Oacute" unicode="&#xd3;" horiz-adv-x="1665" 
d="M768 1565l-41 55l330 227l47 -69zM834 -18q-205 0 -371 95t-260 263.5t-94 376.5t94 376.5t260 263.5t371 95q204 0 370 -95t260.5 -263.5t94.5 -376.5t-94.5 -376.5t-260.5 -263.5t-370 -95zM834 72q131 0 246.5 49.5t198 134.5t130 205t47.5 256t-47.5 256t-130 205
t-198 134.5t-246.5 49.5t-247 -49t-198.5 -134.5t-130 -205.5t-47.5 -256t47.5 -256t130 -205.5t198.5 -134.5t247 -49z" />
    <glyph glyph-name="Ocircumflex" unicode="&#xd4;" horiz-adv-x="1665" 
d="M598 1567l-49 51l250 242h67l250 -242l-47 -51l-235 219zM834 -18q-205 0 -371 95t-260 263.5t-94 376.5t94 376.5t260 263.5t371 95q204 0 370 -95t260.5 -263.5t94.5 -376.5t-94.5 -376.5t-260.5 -263.5t-370 -95zM834 72q131 0 246.5 49.5t198 134.5t130 205t47.5 256
t-47.5 256t-130 205t-198 134.5t-246.5 49.5t-247 -49t-198.5 -134.5t-130 -205.5t-47.5 -256t47.5 -256t130 -205.5t198.5 -134.5t247 -49z" />
    <glyph glyph-name="Otilde" unicode="&#xd5;" horiz-adv-x="1665" 
d="M614 1640l-67 21q15 60 57 96.5t98 36.5q46 0 134.5 -40t121.5 -40t58 21t37 59l67 -25q-15 -58 -57 -93.5t-98 -35.5q-46 0 -134.5 40t-121.5 40q-32 0 -57.5 -21.5t-37.5 -58.5zM834 -18q-205 0 -371 95t-260 263.5t-94 376.5t94 376.5t260 263.5t371 95q204 0 370 -95
t260.5 -263.5t94.5 -376.5t-94.5 -376.5t-260.5 -263.5t-370 -95zM834 72q131 0 246.5 49.5t198 134.5t130 205t47.5 256t-47.5 256t-130 205t-198 134.5t-246.5 49.5t-247 -49t-198.5 -134.5t-130 -205.5t-47.5 -256t47.5 -256t130 -205.5t198.5 -134.5t247 -49z" />
    <glyph glyph-name="Odieresis" unicode="&#xd6;" horiz-adv-x="1665" 
d="M629 1645q-32 0 -52 19.5t-20 51.5t20 53t52 21t51.5 -20.5t19.5 -53.5q0 -32 -19.5 -51.5t-51.5 -19.5zM1038 1645q-32 0 -51.5 19.5t-19.5 51.5q0 33 19.5 53.5t51.5 20.5t52 -21t20 -53t-20 -51.5t-52 -19.5zM834 -18q-205 0 -371 95t-260 263.5t-94 376.5t94 376.5
t260 263.5t371 95q204 0 370 -95t260.5 -263.5t94.5 -376.5t-94.5 -376.5t-260.5 -263.5t-370 -95zM834 72q131 0 246.5 49.5t198 134.5t130 205t47.5 256t-47.5 256t-130 205t-198 134.5t-246.5 49.5t-247 -49t-198.5 -134.5t-130 -205.5t-47.5 -256t47.5 -256t130 -205.5
t198.5 -134.5t247 -49z" />
    <glyph glyph-name="multiply" unicode="&#xd7;" horiz-adv-x="1179" 
d="M240 180l-60 60l348 350l-348 350l60 59l350 -348l350 348l59 -59l-348 -350l348 -350l-59 -60l-350 348z" />
    <glyph glyph-name="Oslash" unicode="&#xd8;" horiz-adv-x="1665" 
d="M1272 1313q134 -100 210.5 -255t76.5 -341q0 -208 -94.5 -376.5t-260.5 -263.5t-370 -95q-201 0 -373 96l-107 -164l-73 35l114 174q-134 100 -210 254t-76 340q0 208 94 376.5t260 263.5t371 95q200 0 372 -96l107 162l71 -33zM211 717q0 -159 63 -292.5t175 -221.5
l704 1073q-144 86 -319 86q-131 0 -247 -49t-198.5 -134.5t-130 -205.5t-47.5 -256zM834 72q131 0 246.5 49.5t198 134.5t130 205t47.5 256q0 158 -63 292t-174 222l-705 -1073q144 -86 320 -86z" />
    <glyph glyph-name="Ugrave" unicode="&#xd9;" horiz-adv-x="1521" 
d="M834 1565l-336 213l47 69l329 -227zM762 -18q-162 0 -291 69t-202.5 196t-73.5 290v897h100v-887q0 -209 133 -342t334 -133t333 133t132 342v887h100v-897q0 -163 -73.5 -290t-202 -196t-289.5 -69z" />
    <glyph glyph-name="Uacute" unicode="&#xda;" horiz-adv-x="1521" 
d="M696 1565l-41 55l330 227l47 -69zM762 -18q-162 0 -291 69t-202.5 196t-73.5 290v897h100v-887q0 -209 133 -342t334 -133t333 133t132 342v887h100v-897q0 -163 -73.5 -290t-202 -196t-289.5 -69z" />
    <glyph glyph-name="Ucircumflex" unicode="&#xdb;" horiz-adv-x="1521" 
d="M526 1567l-49 51l250 242h68l249 -242l-47 -51l-235 219zM762 -18q-162 0 -291 69t-202.5 196t-73.5 290v897h100v-887q0 -209 133 -342t334 -133t333 133t132 342v887h100v-897q0 -163 -73.5 -290t-202 -196t-289.5 -69z" />
    <glyph glyph-name="Udieresis" unicode="&#xdc;" horiz-adv-x="1521" 
d="M557 1645q-32 0 -52 19.5t-20 51.5t20 53t52 21t52 -21t20 -53t-20 -51.5t-52 -19.5zM967 1645q-32 0 -52 19.5t-20 51.5t20 53t52 21t51.5 -20.5t19.5 -53.5q0 -32 -19.5 -51.5t-51.5 -19.5zM762 -18q-162 0 -291 69t-202.5 196t-73.5 290v897h100v-887q0 -209 133 -342
t334 -133t333 133t132 342v887h100v-897q0 -163 -73.5 -290t-202 -196t-289.5 -69z" />
    <glyph glyph-name="Yacute" unicode="&#xdd;" horiz-adv-x="1214" 
d="M879 1778l-336 -213l-41 55l329 227zM1055 1434h108l-504 -850v-584h-102v584l-508 850h113l446 -754z" />
    <glyph glyph-name="Thorn" unicode="&#xde;" horiz-adv-x="1230" 
d="M688 1124q204 0 324.5 -113.5t120.5 -301.5q0 -191 -121 -309.5t-324 -118.5h-393v-281h-100v1434h100v-310h393zM676 369q166 0 260 92.5t94 247.5q0 153 -93 240t-261 87h-381v-667h381z" />
    <glyph glyph-name="germandbls" unicode="&#xdf;" horiz-adv-x="1239" 
d="M819 -18q-133 0 -278 67l28 76q131 -64 244 -64q109 0 176.5 51.5t67.5 139.5q0 50 -22.5 88.5t-59 64t-80 48t-87 47t-80 54t-59 76t-22.5 105.5q0 48 18.5 91.5t45.5 77.5l54 68t45.5 78.5t18.5 94.5q0 97 -72.5 162t-189.5 65q-132 0 -212.5 -81t-80.5 -218v-1073h-96
v1075q0 172 108 274.5t283 102.5q157 0 258 -87t101 -216q0 -57 -19 -106.5t-46 -85t-54.5 -68t-46.5 -71t-19 -79.5q0 -48 22.5 -85.5t58.5 -62t79.5 -47t87 -47.5t79.5 -55.5t58.5 -79t22.5 -110.5q0 -124 -92 -197t-240 -73z" />
    <glyph glyph-name="agrave" unicode="&#xe0;" horiz-adv-x="1032" 
d="M631 1235l-41 -55l-336 215l47 67zM492 1026q167 0 271.5 -93.5t104.5 -250.5v-682h-80l-12 158q-106 -176 -336 -176q-154 0 -254 82.5t-100 216.5q0 143 119 227t327 84q131 0 244 -31v113q0 119 -82.5 190.5t-212.5 71.5q-176 0 -307 -105l-27 82q143 113 345 113z
M455 63q143 0 232 94t89 236v88q-111 31 -229 31q-171 0 -267 -62t-96 -165q0 -97 77 -159.5t194 -62.5z" />
    <glyph glyph-name="aacute" unicode="&#xe1;" horiz-adv-x="1032" 
d="M788 1395l-335 -215l-41 55l329 227zM492 1026q167 0 271.5 -93.5t104.5 -250.5v-682h-80l-12 158q-106 -176 -336 -176q-154 0 -254 82.5t-100 216.5q0 143 119 227t327 84q131 0 244 -31v113q0 119 -82.5 190.5t-212.5 71.5q-176 0 -307 -105l-27 82q143 113 345 113z
M455 63q143 0 232 94t89 236v88q-111 31 -229 31q-171 0 -267 -62t-96 -165q0 -97 77 -159.5t194 -62.5z" />
    <glyph glyph-name="acircumflex" unicode="&#xe2;" horiz-adv-x="1032" 
d="M518 1401l-235 -219l-50 51l250 242h70l250 -242l-49 -51zM492 1026q167 0 271.5 -93.5t104.5 -250.5v-682h-80l-12 158q-106 -176 -336 -176q-154 0 -254 82.5t-100 216.5q0 143 119 227t327 84q131 0 244 -31v113q0 119 -82.5 190.5t-212.5 71.5q-176 0 -307 -105
l-27 82q143 113 345 113zM455 63q143 0 232 94t89 236v88q-111 31 -229 31q-171 0 -267 -62t-96 -165q0 -97 77 -159.5t194 -62.5z" />
    <glyph glyph-name="atilde" unicode="&#xe3;" horiz-adv-x="1032" 
d="M393 1335q-32 0 -57 -21.5t-37 -58.5l-68 21q15 59 57.5 96t98.5 37q46 0 134.5 -40t121.5 -40q32 0 57 21.5t37 58.5l68 -23q-15 -59 -57.5 -95t-98.5 -36q-46 0 -134.5 40t-121.5 40zM492 1026q167 0 271.5 -93.5t104.5 -250.5v-682h-80l-12 158q-106 -176 -336 -176
q-154 0 -254 82.5t-100 216.5q0 143 119 227t327 84q131 0 244 -31v113q0 119 -82.5 190.5t-212.5 71.5q-176 0 -307 -105l-27 82q143 113 345 113zM455 63q143 0 232 94t89 236v88q-111 31 -229 31q-171 0 -267 -62t-96 -165q0 -97 77 -159.5t194 -62.5z" />
    <glyph glyph-name="adieresis" unicode="&#xe4;" horiz-adv-x="1032" 
d="M313 1260q-32 0 -51.5 19.5t-19.5 51.5q0 33 19.5 53.5t51.5 20.5t52 -21t20 -53t-20 -51.5t-52 -19.5zM723 1260q-32 0 -52 19.5t-20 51.5t20 53t52 21t52 -21t20 -53t-20 -51.5t-52 -19.5zM492 1026q167 0 271.5 -93.5t104.5 -250.5v-682h-80l-12 158
q-106 -176 -336 -176q-154 0 -254 82.5t-100 216.5q0 143 119 227t327 84q131 0 244 -31v113q0 119 -82.5 190.5t-212.5 71.5q-176 0 -307 -105l-27 82q143 113 345 113zM455 63q143 0 232 94t89 236v88q-111 31 -229 31q-171 0 -267 -62t-96 -165q0 -97 77 -159.5
t194 -62.5z" />
    <glyph glyph-name="aring" unicode="&#xe5;" horiz-adv-x="1032" 
d="M522 1143q-86 0 -140 52.5t-54 135.5q0 85 52 137t138 52t138.5 -52t52.5 -137q0 -84 -51.5 -136t-135.5 -52zM518 1464q-60 0 -96.5 -36.5t-36.5 -96.5t38.5 -96.5t98.5 -36.5q58 0 93.5 36.5t35.5 96.5t-37 96.5t-96 36.5zM492 1026q167 0 271.5 -93.5t104.5 -250.5
v-682h-80l-12 158q-106 -176 -336 -176q-154 0 -254 82.5t-100 216.5q0 143 119 227t327 84q131 0 244 -31v113q0 119 -82.5 190.5t-212.5 71.5q-176 0 -307 -105l-27 82q143 113 345 113zM455 63q143 0 232 94t89 236v88q-111 31 -229 31q-171 0 -267 -62t-96 -165
q0 -97 77 -159.5t194 -62.5z" />
    <glyph glyph-name="ae" unicode="&#xe6;" horiz-adv-x="1757" 
d="M1669 524q0 -37 -2 -51h-790q9 -181 120 -291t285 -110q161 0 303 110l35 -76q-155 -124 -346 -124q-150 0 -268 74t-177 202q-41 -134 -147.5 -205t-241.5 -71q-154 0 -254 82.5t-100 216.5q0 143 119 227t327 84q131 0 244 -31v113q0 119 -82.5 190.5t-212.5 71.5
q-176 0 -307 -105l-27 82q143 113 345 113q133 0 229 -61t131 -168q61 107 162.5 168t224.5 61q185 0 307.5 -141.5t122.5 -360.5zM1237 936q-141 0 -241 -105.5t-117 -269.5h690q-3 163 -98 269t-234 106zM455 63q143 0 232 94t89 236v88q-111 31 -229 31
q-172 0 -267.5 -62t-95.5 -165q0 -97 77 -159.5t194 -62.5z" />
    <glyph glyph-name="ccedilla" unicode="&#xe7;" horiz-adv-x="1015" 
d="M911 104q-145 -116 -311 -122l-20 -113q68 -8 111.5 -52.5t43.5 -105.5q0 -70 -59.5 -116t-149.5 -46q-91 0 -176 33l23 64q82 -29 145 -29q57 0 94 28.5t37 73.5q0 46 -37.5 73.5t-97.5 27.5h-20l30 164q-195 20 -315.5 162.5t-120.5 353.5q0 230 138.5 378t355.5 148
q189 0 329 -129l-47 -76q-124 115 -278 115q-172 0 -285 -121.5t-113 -312.5t112.5 -310.5t287.5 -119.5q146 0 276 106z" />
    <glyph glyph-name="egrave" unicode="&#xe8;" horiz-adv-x="1071" 
d="M668 1235l-41 -55l-336 215l47 67zM983 524q0 -23 -4 -51h-791q10 -181 122 -291t284 -110q163 0 303 110l37 -76q-158 -124 -348 -124q-217 0 -356.5 147.5t-139.5 374.5q0 224 132.5 373t330.5 149q184 0 307 -142t123 -360zM551 936q-144 0 -244 -105.5t-117 -269.5
h693q-4 163 -99 269t-233 106z" />
    <glyph glyph-name="eacute" unicode="&#xe9;" horiz-adv-x="1071" 
d="M825 1395l-336 -215l-40 55l329 227zM983 524q0 -23 -4 -51h-791q10 -181 122 -291t284 -110q163 0 303 110l37 -76q-158 -124 -348 -124q-217 0 -356.5 147.5t-139.5 374.5q0 224 132.5 373t330.5 149q184 0 307 -142t123 -360zM551 936q-144 0 -244 -105.5t-117 -269.5
h693q-4 163 -99 269t-233 106z" />
    <glyph glyph-name="ecircumflex" unicode="&#xea;" horiz-adv-x="1071" 
d="M555 1401l-236 -219l-49 51l250 242h70l250 -242l-49 -51zM983 524q0 -23 -4 -51h-791q10 -181 122 -291t284 -110q163 0 303 110l37 -76q-158 -124 -348 -124q-217 0 -356.5 147.5t-139.5 374.5q0 224 132.5 373t330.5 149q184 0 307 -142t123 -360zM551 936
q-144 0 -244 -105.5t-117 -269.5h693q-4 163 -99 269t-233 106z" />
    <glyph glyph-name="edieresis" unicode="&#xeb;" horiz-adv-x="1071" 
d="M350 1260q-32 0 -51.5 19.5t-19.5 51.5q0 33 19.5 53.5t51.5 20.5t52 -21t20 -53t-20 -51.5t-52 -19.5zM760 1260q-32 0 -52 19.5t-20 51.5t20 53t52 21t51.5 -20.5t19.5 -53.5q0 -32 -19.5 -51.5t-51.5 -19.5zM983 524q0 -23 -4 -51h-791q10 -181 122 -291t284 -110
q163 0 303 110l37 -76q-158 -124 -348 -124q-217 0 -356.5 147.5t-139.5 374.5q0 224 132.5 373t330.5 149q184 0 307 -142t123 -360zM551 936q-144 0 -244 -105.5t-117 -269.5h693q-4 163 -99 269t-233 106z" />
    <glyph glyph-name="igrave" unicode="&#xec;" horiz-adv-x="456" 
d="M299 1182l-336 215l47 67l330 -227zM178 0v1008h98v-1008h-98z" />
    <glyph glyph-name="iacute" unicode="&#xed;" horiz-adv-x="456" 
d="M162 1182l-41 55l330 227l47 -67zM178 0v1008h98v-1008h-98z" />
    <glyph glyph-name="icircumflex" unicode="&#xee;" horiz-adv-x="456" 
d="M-8 1184l-49 51l250 242h69l250 -242l-49 -51l-236 219zM178 0v1008h98v-1008h-98z" />
    <glyph glyph-name="idieresis" unicode="&#xef;" horiz-adv-x="456" 
d="M23 1262q-32 0 -52 19.5t-20 51.5t20 53t52 21t51.5 -20.5t19.5 -53.5q0 -32 -19.5 -51.5t-51.5 -19.5zM432 1262q-32 0 -52 19.5t-20 51.5t20 53t52 21t52 -21t20 -53t-20 -51.5t-52 -19.5zM178 0v1008h98v-1008h-98z" />
    <glyph glyph-name="eth" unicode="&#xf0;" horiz-adv-x="1124" 
d="M551 -18q-201 0 -332 145.5t-131 372.5q0 220 127.5 359.5t327.5 139.5q105 0 186.5 -35.5t151.5 -119.5q-77 241 -306 411l-272 -133l-29 60l230 112q-91 52 -197 92l27 72q140 -46 262 -121l242 121l30 -59l-211 -103q164 -125 260 -293t113 -368q7 -69 4 -125
q-6 -233 -141 -380.5t-342 -147.5zM553 68q169 0 276 123t107 319q0 178 -107 290.5t-276 112.5q-162 0 -265.5 -116t-103.5 -299q0 -191 103.5 -310.5t265.5 -119.5z" />
    <glyph glyph-name="ntilde" unicode="&#xf1;" horiz-adv-x="1165" 
d="M457 1335q-32 0 -57.5 -21.5t-37.5 -58.5l-67 21q15 59 57.5 96t98.5 37q46 0 134.5 -40t121.5 -40q32 0 57 21.5t37 58.5l67 -23q-15 -59 -57 -95t-98 -36q-46 0 -134.5 40t-121.5 40zM612 1026q174 0 283 -115.5t109 -300.5v-610h-99v594q0 159 -84.5 252.5
t-226.5 93.5q-141 0 -232.5 -108t-91.5 -271v-561h-98v1006h80l12 -189q53 98 141.5 153.5t206.5 55.5z" />
    <glyph glyph-name="ograve" unicode="&#xf2;" horiz-adv-x="1140" 
d="M641 1167l-336 215l47 68l330 -227zM571 -18q-207 0 -344 146.5t-137 369.5t137 369.5t344 146.5q206 0 343 -147t137 -369t-137 -369t-343 -147zM571 72q163 0 272 121.5t109 304.5t-109 304.5t-272 121.5q-164 0 -273.5 -121.5t-109.5 -304.5t109.5 -304.5
t273.5 -121.5z" />
    <glyph glyph-name="oacute" unicode="&#xf3;" horiz-adv-x="1140" 
d="M504 1167l-41 56l330 227l47 -68zM571 -18q-207 0 -344 146.5t-137 369.5t137 369.5t344 146.5q206 0 343 -147t137 -369t-137 -369t-343 -147zM571 72q163 0 272 121.5t109 304.5t-109 304.5t-272 121.5q-164 0 -273.5 -121.5t-109.5 -304.5t109.5 -304.5t273.5 -121.5z
" />
    <glyph glyph-name="ocircumflex" unicode="&#xf4;" horiz-adv-x="1140" 
d="M334 1169l-49 52l250 241h69l250 -241l-49 -52l-236 220zM571 -18q-207 0 -344 146.5t-137 369.5t137 369.5t344 146.5q206 0 343 -147t137 -369t-137 -369t-343 -147zM571 72q163 0 272 121.5t109 304.5t-109 304.5t-272 121.5q-164 0 -273.5 -121.5t-109.5 -304.5
t109.5 -304.5t273.5 -121.5z" />
    <glyph glyph-name="otilde" unicode="&#xf5;" horiz-adv-x="1140" 
d="M350 1243l-67 21q15 60 57 96.5t98 36.5q46 0 134.5 -40t121.5 -40q32 0 57 21.5t37 58.5l68 -23q-15 -59 -57.5 -95t-98.5 -36q-46 0 -134.5 40t-121.5 40q-32 0 -57 -21.5t-37 -58.5zM571 -18q-207 0 -344 146.5t-137 369.5t137 369.5t344 146.5q206 0 343 -147
t137 -369t-137 -369t-343 -147zM571 72q163 0 272 121.5t109 304.5t-109 304.5t-272 121.5q-164 0 -273.5 -121.5t-109.5 -304.5t109.5 -304.5t273.5 -121.5z" />
    <glyph glyph-name="odieresis" unicode="&#xf6;" horiz-adv-x="1140" 
d="M365 1247q-32 0 -52 20t-20 52t20 53t52 21t51.5 -20.5t19.5 -53.5q0 -32 -19.5 -52t-51.5 -20zM774 1247q-32 0 -52 20t-20 52t20 53t52 21t52 -21t20 -53t-20 -52t-52 -20zM571 -18q-207 0 -344 146.5t-137 369.5t137 369.5t344 146.5q206 0 343 -147t137 -369
t-137 -369t-343 -147zM571 72q163 0 272 121.5t109 304.5t-109 304.5t-272 121.5q-164 0 -273.5 -121.5t-109.5 -304.5t109.5 -304.5t273.5 -121.5z" />
    <glyph glyph-name="divide" unicode="&#xf7;" horiz-adv-x="1179" 
d="M590 915q-29 0 -48.5 19.5t-19.5 48.5t19.5 48.5t48.5 19.5q30 0 48.5 -18.5t18.5 -49.5q0 -29 -19 -48.5t-48 -19.5zM121 549v82h938v-82h-938zM590 129q-29 0 -48.5 19.5t-19.5 48.5t19.5 48t48.5 19t48 -19t19 -48t-19 -48.5t-48 -19.5z" />
    <glyph glyph-name="oslash" unicode="&#xf8;" horiz-adv-x="1140" 
d="M883 899q79 -72 123.5 -175.5t44.5 -225.5q0 -222 -137 -369t-343 -147q-142 0 -252 69l-88 -131l-63 33l94 141q-81 70 -126.5 175t-45.5 229q0 223 137 369.5t344 146.5q137 0 252 -72l84 125l64 -35zM188 498q0 -200 127 -324l457 690q-92 60 -201 60
q-164 0 -273.5 -121.5t-109.5 -304.5zM571 72q163 0 272 121.5t109 304.5q0 197 -125 319l-456 -686q86 -59 200 -59z" />
    <glyph glyph-name="ugrave" unicode="&#xf9;" horiz-adv-x="1163" 
d="M698 1235l-41 -55l-335 215l47 67zM893 1006h98v-1006h-80l-12 186q-51 -96 -139 -150t-207 -54q-173 0 -282 113.5t-109 297.5v613h98v-590q0 -162 85.5 -256t227.5 -94q140 0 230 109t90 276v555z" />
    <glyph glyph-name="uacute" unicode="&#xfa;" horiz-adv-x="1163" 
d="M856 1395l-336 -215l-41 55l330 227zM893 1006h98v-1006h-80l-12 186q-51 -96 -139 -150t-207 -54q-173 0 -282 113.5t-109 297.5v613h98v-590q0 -162 85.5 -256t227.5 -94q140 0 230 109t90 276v555z" />
    <glyph glyph-name="ucircumflex" unicode="&#xfb;" horiz-adv-x="1163" 
d="M586 1401l-236 -219l-49 51l250 242h70l249 -242l-49 -51zM893 1006h98v-1006h-80l-12 186q-51 -96 -139 -150t-207 -54q-173 0 -282 113.5t-109 297.5v613h98v-590q0 -162 85.5 -256t227.5 -94q140 0 230 109t90 276v555z" />
    <glyph glyph-name="udieresis" unicode="&#xfc;" horiz-adv-x="1163" 
d="M381 1260q-32 0 -52 19.5t-20 51.5t20 53t52 21t52 -21t20 -53t-20 -51.5t-52 -19.5zM791 1260q-32 0 -52 19.5t-20 51.5t20 53t52 21t51.5 -20.5t19.5 -53.5q0 -32 -19.5 -51.5t-51.5 -19.5zM893 1006h98v-1006h-80l-12 186q-51 -96 -139 -150t-207 -54
q-173 0 -282 113.5t-109 297.5v613h98v-590q0 -162 85.5 -256t227.5 -94q140 0 230 109t90 276v555z" />
    <glyph glyph-name="yacute" unicode="&#xfd;" horiz-adv-x="948" 
d="M408 1180l-41 55l329 227l47 -67zM260 -430l174 436l-416 1002h103l358 -891l346 891h105l-576 -1438h-94z" />
    <glyph glyph-name="thorn" unicode="&#xfe;" horiz-adv-x="1202" 
d="M659 1026q195 0 325 -149t130 -373t-130 -373t-325 -149q-131 0 -232 59.5t-157 161.5v-633h-98v1864h98v-633q56 103 157 164t232 61zM643 72q159 0 265 123t106 309q0 184 -106.5 308t-264.5 124q-160 0 -266.5 -123.5t-106.5 -308.5q0 -186 106.5 -309t266.5 -123z
" />
    <glyph glyph-name="ydieresis" unicode="&#xff;" horiz-adv-x="948" 
d="M268 1260q-32 0 -51.5 19.5t-19.5 51.5q0 33 19.5 53.5t51.5 20.5t52 -21t20 -53t-20 -51.5t-52 -19.5zM678 1260q-32 0 -52 19.5t-20 51.5t20 53t52 21t52 -21t20 -53t-20 -51.5t-52 -19.5zM260 -430l174 436l-416 1002h103l358 -891l346 891h105l-576 -1438h-94z" />
    <glyph glyph-name="Amacron" unicode="&#x100;" horiz-adv-x="1378" 
d="M979 1753v-74h-578v74h578zM1227 0l-187 459h-700l-188 -459h-105l592 1434h100l592 -1434h-104zM375 547h629l-314 770z" />
    <glyph glyph-name="amacron" unicode="&#x101;" horiz-adv-x="1032" 
d="M807 1370v-76h-578v76h578zM492 1026q167 0 271.5 -93.5t104.5 -250.5v-682h-80l-12 158q-106 -176 -336 -176q-154 0 -254 82.5t-100 216.5q0 143 119 227t327 84q131 0 244 -31v113q0 119 -82.5 190.5t-212.5 71.5q-176 0 -307 -105l-27 82q143 113 345 113zM455 63
q143 0 232 94t89 236v88q-111 31 -229 31q-171 0 -267 -62t-96 -165q0 -97 77 -159.5t194 -62.5z" />
    <glyph glyph-name="Abreve" unicode="&#x102;" horiz-adv-x="1378" 
d="M690 1556q-119 0 -198.5 75.5t-85.5 195.5h71q6 -86 65 -140.5t148 -54.5q88 0 147.5 54.5t63.5 140.5h72q-6 -119 -85.5 -195t-197.5 -76zM1227 0l-187 459h-700l-188 -459h-105l592 1434h100l592 -1434h-104zM375 547h629l-314 770z" />
    <glyph glyph-name="abreve" unicode="&#x103;" horiz-adv-x="1032" 
d="M518 1174q-118 0 -198.5 74.5t-86.5 193.5h74q4 -86 63.5 -140.5t147.5 -54.5t147.5 54.5t63.5 140.5h74q-6 -119 -86.5 -193.5t-198.5 -74.5zM492 1026q167 0 271.5 -93.5t104.5 -250.5v-682h-80l-12 158q-106 -176 -336 -176q-154 0 -254 82.5t-100 216.5
q0 143 119 227t327 84q131 0 244 -31v113q0 119 -82.5 190.5t-212.5 71.5q-176 0 -307 -105l-27 82q143 113 345 113zM455 63q143 0 232 94t89 236v88q-111 31 -229 31q-171 0 -267 -62t-96 -165q0 -97 77 -159.5t194 -62.5z" />
    <glyph glyph-name="Aogonek" unicode="&#x104;" horiz-adv-x="1378" 
d="M1333 -362l17 -64q-64 -25 -127 -25q-72 0 -121 44.5t-49 117.5q0 142 190 289h-16l-187 459h-700l-188 -459h-105l592 1434h100l592 -1434q-198 -154 -198 -276q0 -48 31.5 -77.5t78.5 -29.5t90 21zM375 547h629l-314 770z" />
    <glyph glyph-name="aogonek" unicode="&#x105;" horiz-adv-x="1032" 
d="M870 -362l17 -64q-64 -25 -127 -25q-72 0 -121 44.5t-49 117.5q0 146 198 295l-12 152q-106 -176 -336 -176q-154 0 -254 82.5t-100 216.5q0 143 119 227t327 84q131 0 244 -31v113q0 119 -82.5 190.5t-212.5 71.5q-176 0 -307 -105l-27 82q143 113 345 113
q167 0 271.5 -93.5t104.5 -250.5v-682q-198 -154 -198 -276q0 -48 31.5 -77.5t78.5 -29.5q46 0 90 21zM455 63q143 0 232 94t89 236v88q-111 31 -229 31q-171 0 -267 -62t-96 -165q0 -97 77 -159.5t194 -62.5z" />
    <glyph glyph-name="Cacute" unicode="&#x106;" horiz-adv-x="1429" 
d="M780 1565l-41 55l330 227l47 -69zM844 -18q-214 0 -382.5 96.5t-260.5 265t-92 377.5q0 208 92 374.5t258.5 261.5t378.5 95q261 0 477 -145l-45 -82q-90 66 -201.5 101.5t-222.5 35.5q-185 0 -330.5 -83.5t-225 -229.5t-79.5 -328q0 -110 29.5 -209t86 -179t134 -138.5
t178 -90.5t213.5 -32q109 0 220.5 35.5t201.5 99.5l45 -80q-213 -145 -475 -145z" />
    <glyph glyph-name="cacute" unicode="&#x107;" horiz-adv-x="1015" 
d="M502 1180l-41 55l330 227l47 -67zM580 -18q-217 0 -354.5 145.5t-137.5 372.5q0 230 138.5 378t355.5 148q189 0 329 -129l-47 -76q-124 115 -278 115q-172 0 -285 -121.5t-113 -312.5t112.5 -310.5t287.5 -119.5q146 0 276 106l47 -74q-150 -122 -331 -122z" />
    <glyph glyph-name="Ccircumflex" unicode="&#x108;" horiz-adv-x="1429" 
d="M610 1567l-49 51l250 242h68l249 -242l-47 -51l-235 219zM844 -18q-214 0 -382.5 96.5t-260.5 265t-92 377.5q0 208 92 374.5t258.5 261.5t378.5 95q261 0 477 -145l-45 -82q-90 66 -201.5 101.5t-222.5 35.5q-185 0 -330.5 -83.5t-225 -229.5t-79.5 -328
q0 -110 29.5 -209t86 -179t134 -138.5t178 -90.5t213.5 -32q109 0 220.5 35.5t201.5 99.5l45 -80q-213 -145 -475 -145z" />
    <glyph glyph-name="ccircumflex" unicode="&#x109;" horiz-adv-x="1015" 
d="M332 1182l-49 51l249 242h70l250 -242l-49 -51l-236 219zM580 -18q-217 0 -354.5 145.5t-137.5 372.5q0 230 138.5 378t355.5 148q189 0 329 -129l-47 -76q-124 115 -278 115q-172 0 -285 -121.5t-113 -312.5t112.5 -310.5t287.5 -119.5q146 0 276 106l47 -74
q-150 -122 -331 -122z" />
    <glyph glyph-name="Cdotaccent" unicode="&#x10a;" horiz-adv-x="1429" 
d="M846 1642q-34 0 -55 20t-21 54q0 33 21.5 54.5t54.5 21.5t54.5 -21.5t21.5 -54.5q0 -34 -21 -54t-55 -20zM844 -18q-214 0 -382.5 96.5t-260.5 265t-92 377.5q0 208 92 374.5t258.5 261.5t378.5 95q261 0 477 -145l-45 -82q-90 66 -201.5 101.5t-222.5 35.5
q-185 0 -330.5 -83.5t-225 -229.5t-79.5 -328q0 -110 29.5 -209t86 -179t134 -138.5t178 -90.5t213.5 -32q109 0 220.5 35.5t201.5 99.5l45 -80q-213 -145 -475 -145z" />
    <glyph glyph-name="cdotaccent" unicode="&#x10b;" horiz-adv-x="1015" 
d="M567 1257q-34 0 -54.5 20t-20.5 54t20.5 55t54.5 21t55 -21t21 -55t-21 -54t-55 -20zM580 -18q-217 0 -354.5 145.5t-137.5 372.5q0 230 138.5 378t355.5 148q189 0 329 -129l-47 -76q-124 115 -278 115q-172 0 -285 -121.5t-113 -312.5t112.5 -310.5t287.5 -119.5
q146 0 276 106l47 -74q-150 -122 -331 -122z" />
    <glyph glyph-name="Ccaron" unicode="&#x10c;" horiz-adv-x="1429" 
d="M811 1573l-250 244l49 47l236 -215l235 215l47 -47l-249 -244h-68zM844 -18q-214 0 -382.5 96.5t-260.5 265t-92 377.5q0 208 92 374.5t258.5 261.5t378.5 95q261 0 477 -145l-45 -82q-90 66 -201.5 101.5t-222.5 35.5q-185 0 -330.5 -83.5t-225 -229.5t-79.5 -328
q0 -110 29.5 -209t86 -179t134 -138.5t178 -90.5t213.5 -32q109 0 220.5 35.5t201.5 99.5l45 -80q-213 -145 -475 -145z" />
    <glyph glyph-name="ccaron" unicode="&#x10d;" horiz-adv-x="1015" 
d="M532 1190l-249 242l49 49l235 -217l236 217l49 -49l-250 -242h-70zM580 -18q-217 0 -354.5 145.5t-137.5 372.5q0 230 138.5 378t355.5 148q189 0 329 -129l-47 -76q-124 115 -278 115q-172 0 -285 -121.5t-113 -312.5t112.5 -310.5t287.5 -119.5q146 0 276 106l47 -74
q-150 -122 -331 -122z" />
    <glyph glyph-name="Dcaron" unicode="&#x10e;" horiz-adv-x="1437" 
d="M676 1573l-250 244l49 47l236 -215l235 215l47 -47l-250 -244h-67zM195 0v1434h362q178 0 323 -52.5t243.5 -147.5t152 -229.5t53.5 -295.5q0 -156 -53.5 -287t-151.5 -224.5t-243.5 -145.5t-323.5 -52h-362zM295 90h256q312 0 494 170.5t182 448.5q0 140 -46.5 257
t-132.5 200.5t-213.5 130t-283.5 46.5h-256v-1253z" />
    <glyph glyph-name="dcaron" unicode="&#x10f;" horiz-adv-x="1261" 
d="M1329 1499l80 -29l-141 -329l-68 24zM932 803v631h98v-1434h-80l-14 209q-56 -104 -158.5 -165.5t-234.5 -61.5q-127 0 -231 67.5t-163 187t-59 265.5q0 225 129.5 374.5t323.5 149.5q131 0 232 -60.5t157 -162.5zM559 70q160 0 266.5 123.5t106.5 308.5
q0 186 -106.5 310t-266.5 124q-158 0 -264.5 -124t-106.5 -310q0 -184 106.5 -308t264.5 -124z" />
    <glyph glyph-name="Dcroat" unicode="&#x110;" horiz-adv-x="1488" 
d="M557 1434q178 0 323 -52.5t243.5 -147.5t152 -229.5t53.5 -295.5q0 -156 -53.5 -287t-151.5 -224.5t-243.5 -145.5t-323.5 -52h-362v666h-195v79h195v689h362zM551 90q312 0 494 170.5t182 448.5q0 140 -46.5 257t-132.5 200.5t-213.5 130t-283.5 46.5h-256v-598h397v-79
h-397v-576h256z" />
    <glyph glyph-name="dcroat" unicode="&#x111;" horiz-adv-x="1202" 
d="M1239 1247v-76h-209v-1171h-80l-14 209q-56 -104 -158.5 -165.5t-234.5 -61.5q-127 0 -231 67.5t-163 187t-59 265.5q0 225 129.5 374.5t323.5 149.5q131 0 232 -60.5t157 -162.5v368h-314v76h314v187h98v-187h209zM559 70q160 0 266.5 123.5t106.5 308.5
q0 186 -106.5 310t-266.5 124q-158 0 -264.5 -124t-106.5 -310q0 -184 106.5 -308t264.5 -124z" />
    <glyph glyph-name="Emacron" unicode="&#x112;" horiz-adv-x="1204" 
d="M295 1679v74h577v-74h-577zM195 0v1434h843v-91h-743v-571h678v-90h-678v-592h776v-90h-876z" />
    <glyph glyph-name="emacron" unicode="&#x113;" horiz-adv-x="1071" 
d="M844 1370v-76h-578v76h578zM983 524q0 -23 -4 -51h-791q10 -181 122 -291t284 -110q163 0 303 110l37 -76q-158 -124 -348 -124q-217 0 -356.5 147.5t-139.5 374.5q0 224 132.5 373t330.5 149q184 0 307 -142t123 -360zM551 936q-144 0 -244 -105.5t-117 -269.5h693
q-4 163 -99 269t-233 106z" />
    <glyph glyph-name="Ebreve" unicode="&#x114;" horiz-adv-x="1204" 
d="M584 1556q-119 0 -199 75.5t-86 195.5h72q6 -86 65 -140.5t148 -54.5q88 0 147.5 54.5t63.5 140.5h71q-6 -120 -85.5 -195.5t-196.5 -75.5zM195 0v1434h843v-91h-743v-571h678v-90h-678v-592h776v-90h-876z" />
    <glyph glyph-name="ebreve" unicode="&#x115;" horiz-adv-x="1071" 
d="M555 1174q-118 0 -198.5 74.5t-86.5 193.5h74q4 -86 63.5 -140.5t147.5 -54.5t147.5 54.5t63.5 140.5h74q-6 -119 -86.5 -193.5t-198.5 -74.5zM983 524q0 -23 -4 -51h-791q10 -181 122 -291t284 -110q163 0 303 110l37 -76q-158 -124 -348 -124q-217 0 -356.5 147.5
t-139.5 374.5q0 224 132.5 373t330.5 149q184 0 307 -142t123 -360zM551 936q-144 0 -244 -105.5t-117 -269.5h693q-4 163 -99 269t-233 106z" />
    <glyph glyph-name="Edotaccent" unicode="&#x116;" horiz-adv-x="1204" 
d="M584 1642q-34 0 -55 20t-21 54q0 33 21.5 54.5t54.5 21.5t54 -21.5t21 -54.5q0 -34 -20.5 -54t-54.5 -20zM195 0v1434h843v-91h-743v-571h678v-90h-678v-592h776v-90h-876z" />
    <glyph glyph-name="edotaccent" unicode="&#x117;" horiz-adv-x="1071" 
d="M555 1257q-34 0 -55 20t-21 54t21 55t55 21t55 -21t21 -55t-21 -54t-55 -20zM983 524q0 -23 -4 -51h-791q10 -181 122 -291t284 -110q163 0 303 110l37 -76q-158 -124 -348 -124q-217 0 -356.5 147.5t-139.5 374.5q0 224 132.5 373t330.5 149q184 0 307 -142t123 -360z
M551 936q-144 0 -244 -105.5t-117 -269.5h693q-4 163 -99 269t-233 106z" />
    <glyph glyph-name="Eogonek" unicode="&#x118;" horiz-adv-x="1204" 
d="M1073 -362l17 -64q-64 -25 -127 -25q-72 0 -121 44.5t-49 117.5q0 142 190 289h-788v1434h843v-91h-743v-571h678v-90h-678v-592h776v-90q-199 -155 -199 -276q0 -48 32 -77.5t79 -29.5t90 21z" />
    <glyph glyph-name="eogonek" unicode="&#x119;" horiz-adv-x="1071" 
d="M983 524q0 -23 -4 -51h-791q11 -179 123 -290t283 -111q162 0 303 100l37 -76q-128 -120 -176.5 -200.5t-48.5 -153.5q0 -48 31.5 -76t80.5 -28q38 0 90 20l17 -64q-61 -24 -127 -24q-73 0 -122.5 44t-49.5 116q0 65 30.5 131.5t104.5 148.5q-83 -28 -178 -28
q-217 0 -356.5 148t-139.5 374q0 224 132.5 373t330.5 149q184 0 307 -142t123 -360zM551 936q-144 0 -244 -105.5t-117 -269.5h693q-4 163 -99 269t-233 106z" />
    <glyph glyph-name="Ecaron" unicode="&#x11a;" horiz-adv-x="1204" 
d="M549 1573l-250 244l49 47l236 -215l235 215l47 -47l-250 -244h-67zM195 0v1434h843v-91h-743v-571h678v-90h-678v-592h776v-90h-876z" />
    <glyph glyph-name="ecaron" unicode="&#x11b;" horiz-adv-x="1071" 
d="M590 1190h-70l-250 242l49 49l236 -217l236 217l49 -49zM983 524q0 -23 -4 -51h-791q10 -181 122 -291t284 -110q163 0 303 110l37 -76q-158 -124 -348 -124q-217 0 -356.5 147.5t-139.5 374.5q0 224 132.5 373t330.5 149q184 0 307 -142t123 -360zM551 936
q-144 0 -244 -105.5t-117 -269.5h693q-4 163 -99 269t-233 106z" />
    <glyph glyph-name="Gcircumflex" unicode="&#x11c;" horiz-adv-x="1519" 
d="M823 1786l-235 -219l-49 51l249 242h68l250 -242l-47 -51zM862 686h463v-588q-99 -57 -228 -86.5t-255 -29.5q-221 0 -389 97t-256 264t-88 378q0 208 92.5 374.5t260.5 261.5t382 95q124 0 248.5 -36t228.5 -105l-43 -82q-92 64 -204.5 98.5t-225.5 34.5
q-185 0 -331 -83.5t-226 -229.5t-80 -328q0 -185 75.5 -331.5t221 -232t338.5 -85.5q94 0 197.5 22t187.5 62v448h-369v82z" />
    <glyph glyph-name="gcircumflex" unicode="&#x11d;" horiz-adv-x="1202" 
d="M608 1401l-235 -219l-49 51l249 242h70l250 -242l-49 -51zM950 1006h80v-992q0 -196 -132.5 -329.5t-330.5 -133.5q-125 0 -219 32t-196 108l30 78q96 -73 180.5 -104.5t196.5 -31.5q161 0 267 109t106 270v193q-55 -101 -158 -161t-231 -60q-195 0 -324 147t-129 371
q0 148 58.5 268t162.5 188t232 68q129 0 232.5 -62.5t158.5 -166.5zM559 74q160 0 266.5 123t106.5 307q0 185 -106.5 308.5t-266.5 123.5q-158 0 -264.5 -124t-106.5 -308t106.5 -307t264.5 -123z" />
    <glyph glyph-name="Gbreve" unicode="&#x11e;" horiz-adv-x="1519" 
d="M823 1556q-119 0 -198.5 75.5t-85.5 195.5h71q6 -86 65 -140.5t148 -54.5q88 0 147.5 54.5t63.5 140.5h72q-6 -119 -85.5 -195t-197.5 -76zM862 686h463v-588q-99 -57 -228 -86.5t-255 -29.5q-221 0 -389 97t-256 264t-88 378q0 208 92.5 374.5t260.5 261.5t382 95
q124 0 248.5 -36t228.5 -105l-43 -82q-92 64 -204.5 98.5t-225.5 34.5q-185 0 -331 -83.5t-226 -229.5t-80 -328q0 -185 75.5 -331.5t221 -232t338.5 -85.5q94 0 197.5 22t187.5 62v448h-369v82z" />
    <glyph glyph-name="gbreve" unicode="&#x11f;" horiz-adv-x="1202" 
d="M608 1174q-118 0 -198 74.5t-86 193.5h73q4 -86 63.5 -140.5t147.5 -54.5t147.5 54.5t63.5 140.5h74q-6 -119 -86.5 -193.5t-198.5 -74.5zM950 1006h80v-992q0 -196 -132.5 -329.5t-330.5 -133.5q-125 0 -219 32t-196 108l30 78q96 -73 180.5 -104.5t196.5 -31.5
q161 0 267 109t106 270v193q-55 -101 -158 -161t-231 -60q-195 0 -324 147t-129 371q0 148 58.5 268t162.5 188t232 68q129 0 232.5 -62.5t158.5 -166.5zM559 74q160 0 266.5 123t106.5 307q0 185 -106.5 308.5t-266.5 123.5q-158 0 -264.5 -124t-106.5 -308t106.5 -307
t264.5 -123z" />
    <glyph glyph-name="Gdotaccent" unicode="&#x120;" horiz-adv-x="1519" 
d="M823 1642q-34 0 -54.5 20t-20.5 54q0 33 21 54.5t54 21.5t54.5 -21.5t21.5 -54.5q0 -34 -21 -54t-55 -20zM862 686h463v-588q-99 -57 -228 -86.5t-255 -29.5q-221 0 -389 97t-256 264t-88 378q0 208 92.5 374.5t260.5 261.5t382 95q124 0 248.5 -36t228.5 -105l-43 -82
q-92 64 -204.5 98.5t-225.5 34.5q-185 0 -331 -83.5t-226 -229.5t-80 -328q0 -185 75.5 -331.5t221 -232t338.5 -85.5q94 0 197.5 22t187.5 62v448h-369v82z" />
    <glyph glyph-name="gdotaccent" unicode="&#x121;" horiz-adv-x="1202" 
d="M608 1257q-34 0 -55 20t-21 54t21 55t55 21t55 -21t21 -55t-21 -54t-55 -20zM950 1006h80v-992q0 -196 -132.5 -329.5t-330.5 -133.5q-125 0 -219 32t-196 108l30 78q96 -73 180.5 -104.5t196.5 -31.5q161 0 267 109t106 270v193q-55 -101 -158 -161t-231 -60
q-195 0 -324 147t-129 371q0 148 58.5 268t162.5 188t232 68q129 0 232.5 -62.5t158.5 -166.5zM559 74q160 0 266.5 123t106.5 307q0 185 -106.5 308.5t-266.5 123.5q-158 0 -264.5 -124t-106.5 -308t106.5 -307t264.5 -123z" />
    <glyph glyph-name="uni0122" unicode="&#x122;" horiz-adv-x="1519" 
d="M862 686h463v-588q-99 -57 -228 -86.5t-255 -29.5q-221 0 -389 97t-256 264t-88 378q0 208 92.5 374.5t260.5 261.5t382 95q124 0 248.5 -36t228.5 -105l-43 -82q-92 64 -204.5 98.5t-225.5 34.5q-185 0 -331 -83.5t-226 -229.5t-80 -328q0 -185 75.5 -331.5t221 -232
t338.5 -85.5q94 0 197.5 22t187.5 62v448h-369v82zM823 -145q37 0 59.5 -29.5t22.5 -81.5q0 -90 -45 -167.5t-129 -129.5l-31 43q126 94 129 225q-33 -4 -55 14.5t-22 51.5t19.5 53.5t51.5 20.5z" />
    <glyph glyph-name="uni0123" unicode="&#x123;" horiz-adv-x="1171" 
d="M586 1133q-39 0 -61.5 29t-22.5 81q0 89 45 166t129 131l33 -43q-126 -97 -129 -225q32 3 54.5 -16t22.5 -50q0 -32 -19.5 -52.5t-51.5 -20.5zM950 1006h80v-992q0 -196 -131.5 -329.5t-331.5 -133.5q-124 0 -217.5 32t-197.5 108l30 78q96 -73 180.5 -104.5t196.5 -31.5
q161 0 267 109t106 270v193q-55 -101 -158 -161t-231 -60q-195 0 -324 147t-129 371q0 148 58.5 268t162.5 188t232 68q127 0 231.5 -62t161.5 -165zM561 74q158 0 264.5 123t106.5 307t-106.5 308t-264.5 124q-160 0 -266.5 -123.5t-106.5 -308.5q0 -184 106.5 -307
t266.5 -123z" />
    <glyph glyph-name="Hcircumflex" unicode="&#x124;" horiz-adv-x="1474" 
d="M748 1786l-236 -219l-49 51l250 242h67l250 -242l-47 -51zM1180 1434h100v-1434h-100v678h-885v-678h-100v1434h100v-666h885v666z" />
    <glyph glyph-name="hcircumflex" unicode="&#x125;" horiz-adv-x="1165" 
d="M459 1567l-236 219l-235 -219l-49 51l249 242h68l250 -242zM612 1026q174 0 283 -115.5t109 -300.5v-610h-99v594q0 159 -84.5 252.5t-226.5 93.5q-141 0 -232.5 -108t-91.5 -271v-561h-98v1434h100v-603q53 92 139.5 143.5t200.5 51.5z" />
    <glyph glyph-name="Hbar" unicode="&#x126;" horiz-adv-x="1474" 
d="M1432 1130v-79h-152v-1051h-100v678h-885v-678h-100v1051h-150v79h150v304h100v-304h885v304h100v-304h152zM1180 768v283h-885v-283h885z" />
    <glyph glyph-name="hbar" unicode="&#x127;" horiz-adv-x="1165" 
d="M612 1026q174 0 283 -115.5t109 -300.5v-610h-99v594q0 159 -84.5 252.5t-226.5 93.5q-141 0 -232.5 -108t-91.5 -271v-561h-98v1171h-197v76h197v187h100v-187h324v-76h-324v-340q53 92 139.5 143.5t200.5 51.5z" />
    <glyph glyph-name="Itilde" unicode="&#x128;" horiz-adv-x="491" 
d="M29 1640l-68 21q15 59 57.5 96t98.5 37q46 0 134.5 -40t121.5 -40q32 0 57 21t37 59l68 -25q-15 -58 -57.5 -93.5t-98.5 -35.5q-46 0 -134.5 40t-121.5 40q-32 0 -57 -21.5t-37 -58.5zM195 0v1434h100v-1434h-100z" />
    <glyph glyph-name="itilde" unicode="&#x129;" horiz-adv-x="456" 
d="M8 1257l-67 21q15 60 57 96.5t98 36.5q46 0 134.5 -40t121.5 -40q32 0 57 21.5t37 58.5l68 -22q-15 -59 -57.5 -95.5t-98.5 -36.5q-46 0 -134.5 40t-121.5 40q-32 0 -57 -21.5t-37 -58.5zM178 0v1008h98v-1008h-98z" />
    <glyph glyph-name="Imacron" unicode="&#x12a;" horiz-adv-x="491" 
d="M-41 1679v74h578v-74h-578zM195 0v1434h100v-1434h-100z" />
    <glyph glyph-name="imacron" unicode="&#x12b;" horiz-adv-x="456" 
d="M-61 1296v76h577v-76h-577zM178 0v1008h98v-1008h-98z" />
    <glyph glyph-name="Ibreve" unicode="&#x12c;" horiz-adv-x="491" 
d="M248 1556q-119 0 -199 75.5t-86 195.5h72q6 -86 65 -140.5t148 -54.5q88 0 147.5 54.5t63.5 140.5h71q-6 -120 -85.5 -195.5t-196.5 -75.5zM195 0v1434h100v-1434h-100z" />
    <glyph glyph-name="ibreve" unicode="&#x12d;" horiz-adv-x="456" 
d="M227 1176q-118 0 -198 74.5t-86 193.5h73q4 -86 63.5 -140.5t147.5 -54.5t147.5 54.5t63.5 140.5h74q-6 -119 -86.5 -193.5t-198.5 -74.5zM178 0v1008h98v-1008h-98z" />
    <glyph glyph-name="Iogonek" unicode="&#x12e;" horiz-adv-x="491" 
d="M297 -362l16 -64q-64 -25 -127 -25q-72 0 -121 44.5t-49 117.5q0 141 191 289h-12v1434h100v-1434q-199 -155 -199 -276q0 -48 32 -77.5t79 -29.5t90 21z" />
    <glyph glyph-name="iogonek" unicode="&#x12f;" horiz-adv-x="458" 
d="M229 1237q-34 0 -55.5 21t-21.5 53q0 33 21.5 53t55.5 20t56 -20t22 -53q0 -32 -22 -53t-56 -21zM190 -383q48 0 91 21l16 -64q-64 -25 -127 -25q-72 0 -121 44.5t-49 117.5q0 142 190 289h-10v1008h99v-1008q-199 -155 -199 -276q0 -48 31.5 -77.5t78.5 -29.5z" />
    <glyph glyph-name="Idotaccent" unicode="&#x130;" horiz-adv-x="491" 
d="M248 1642q-34 0 -55 20t-21 54q0 33 21.5 54.5t54.5 21.5t54.5 -21.5t21.5 -54.5q0 -34 -21 -54t-55 -20zM195 0v1434h100v-1434h-100z" />
    <glyph glyph-name="dotlessi" unicode="&#x131;" horiz-adv-x="456" 
d="M178 0v1008h98v-1008h-98z" />
    <glyph glyph-name="IJ" unicode="&#x132;" horiz-adv-x="1386" 
d="M195 0v1434h100v-1434h-100zM801 -25q-118 0 -252 35l16 82q118 -31 219 -31q129 0 204 68t75 213v1092h100v-1100q0 -179 -97.5 -269t-264.5 -90z" />
    <glyph glyph-name="ij" unicode="&#x133;" horiz-adv-x="933" 
d="M229 1237q-34 0 -55.5 21t-21.5 53q0 33 21.5 53t55.5 20t56 -20t22 -53q0 -32 -22 -53t-56 -21zM702 1237q-32 0 -53.5 21t-21.5 53q0 33 21 53t54 20q34 0 56 -20t22 -53q0 -32 -22 -53t-56 -21zM180 0v1008h99v-1008h-99zM498 -449q-128 0 -213 66l28 76
q70 -58 166 -58q75 0 124.5 51t49.5 124v1198h99v-1205q0 -107 -71.5 -179.5t-182.5 -72.5z" />
    <glyph glyph-name="Jcircumflex" unicode="&#x134;" horiz-adv-x="894" 
d="M385 1567l-49 51l250 242h67l250 -242l-47 -51l-235 219zM309 -25q-118 0 -252 35l17 82q118 -31 219 -31q129 0 203.5 68t74.5 213v1092h101v-1100q0 -179 -98 -269t-265 -90z" />
    <glyph glyph-name="jcircumflex" unicode="&#x135;" horiz-adv-x="473" 
d="M2 1182l-49 51l250 242h69l250 -242l-49 -51l-235 219zM39 -449q-128 0 -213 66l29 78q72 -62 165 -62q75 0 125 52t50 125v1198h98v-1205q0 -107 -71.5 -179.5t-182.5 -72.5z" />
    <glyph glyph-name="uni0136" unicode="&#x136;" horiz-adv-x="1329" 
d="M195 0v1434h100v-803l801 803h131l-678 -678l694 -756h-129l-635 690l-184 -180v-510h-100zM563 -553l-31 43q127 95 130 225q-34 -4 -56 15t-22 51q0 33 19.5 53.5t51.5 20.5q37 0 59.5 -29.5t22.5 -81.5q0 -90 -45 -167.5t-129 -129.5z" />
    <glyph glyph-name="uni0137" unicode="&#x137;" horiz-adv-x="1017" 
d="M459 545l479 -545h-119l-424 483l-125 -125v-358h-98v1434h98v-959l533 533h119zM504 -145q37 0 59.5 -29.5t22.5 -81.5q0 -90 -45 -167.5t-129 -129.5l-31 43q126 94 129 225q-34 -4 -56 15t-22 51t20 53t52 21z" />
    <glyph glyph-name="kgreenlandic" unicode="&#x138;" horiz-adv-x="1017" 
d="M819 0l-424 483l-125 -125v-358h-98v989h98v-514l533 533h119l-463 -463l479 -545h-119z" />
    <glyph glyph-name="Lacute" unicode="&#x139;" horiz-adv-x="1093" 
d="M182 1565l-41 55l330 227l47 -69zM195 0v1434h100v-1344h723v-90h-823z" />
    <glyph glyph-name="lacute" unicode="&#x13a;" horiz-adv-x="444" 
d="M156 1565l-41 55l329 227l48 -69zM172 0v1434h98v-1434h-98z" />
    <glyph glyph-name="uni013B" unicode="&#x13b;" horiz-adv-x="1093" 
d="M195 0v1434h100v-1344h723v-90h-823zM487 -553l-30 43q126 94 129 225q-34 -4 -56 15t-22 51t20 53t52 21q37 0 59.5 -29.5t22.5 -81.5q0 -90 -45.5 -167.5t-129.5 -129.5z" />
    <glyph glyph-name="uni013C" unicode="&#x13c;" horiz-adv-x="444" 
d="M172 0v1434h98v-1434h-98zM129 -553l-31 43q126 94 129 225q-33 -4 -55 14.5t-22 51.5t19.5 53.5t51.5 20.5q37 0 59.5 -29.5t22.5 -81.5q0 -90 -45 -167.5t-129 -129.5z" />
    <glyph glyph-name="Lcaron" unicode="&#x13d;" horiz-adv-x="1093" 
d="M545 1130l-68 25l129 334l80 -29zM195 0v1434h100v-1344h723v-90h-823z" />
    <glyph glyph-name="lcaron" unicode="&#x13e;" horiz-adv-x="503" 
d="M463 1130l-68 25l129 334l80 -29zM172 0v1434h98v-1434h-98z" />
    <glyph glyph-name="Ldot" unicode="&#x13f;" horiz-adv-x="1120" 
d="M195 0v1434h100v-1344h723v-90h-823zM756 655q-34 0 -56 21t-22 53q0 34 22 55t56 21q32 0 53.5 -21.5t21.5 -54.5q0 -32 -21.5 -53t-53.5 -21z" />
    <glyph glyph-name="ldot" unicode="&#x140;" horiz-adv-x="624" 
d="M172 0v1434h98v-1434h-98zM557 614q-36 0 -59 23t-23 59q0 35 23.5 58.5t58.5 23.5t58.5 -23.5t23.5 -58.5q0 -36 -23 -59t-59 -23z" />
    <glyph glyph-name="Lslash" unicode="&#x141;" horiz-adv-x="1093" 
d="M295 90h723v-90h-823v623l-185 -84l-33 65l218 101v729h100v-682l287 133l34 -68l-321 -147v-580z" />
    <glyph glyph-name="lslash" unicode="&#x142;" horiz-adv-x="444" 
d="M471 799l-201 -135v-664h-98v598l-166 -111l-35 52l201 135v760h98v-695l166 113z" />
    <glyph glyph-name="Nacute" unicode="&#x143;" horiz-adv-x="1509" 
d="M1020 1778l-336 -213l-41 55l330 227zM1219 1434h96v-1434h-103l-921 1284v-1284h-96v1434h102l922 -1282v1282z" />
    <glyph glyph-name="nacute" unicode="&#x144;" horiz-adv-x="1165" 
d="M852 1395l-336 -215l-41 55l330 227zM612 1026q174 0 283 -115.5t109 -300.5v-610h-99v594q0 159 -84.5 252.5t-226.5 93.5q-141 0 -232.5 -108t-91.5 -271v-561h-98v1006h80l12 -189q53 98 141.5 153.5t206.5 55.5z" />
    <glyph glyph-name="uni0145" unicode="&#x145;" horiz-adv-x="1509" 
d="M1219 1434h96v-1434h-103l-921 1284v-1284h-96v1434h102l922 -1282v1282zM748 -145q37 0 59 -29.5t22 -81.5q0 -90 -45 -167.5t-129 -129.5l-30 43q126 94 129 225q-34 -4 -56 15t-22 51t20 53t52 21z" />
    <glyph glyph-name="uni0146" unicode="&#x146;" horiz-adv-x="1165" 
d="M612 1026q174 0 283 -115.5t109 -300.5v-610h-99v594q0 159 -84.5 252.5t-226.5 93.5q-141 0 -232.5 -108t-91.5 -271v-561h-98v1006h80l12 -189q53 98 141.5 153.5t206.5 55.5zM586 -145q37 0 59.5 -29.5t22.5 -81.5q0 -90 -45 -167.5t-129 -129.5l-31 43
q126 94 129 225q-34 -4 -56 15t-22 51t20 53t52 21z" />
    <glyph glyph-name="Ncaron" unicode="&#x147;" horiz-adv-x="1509" 
d="M782 1573h-67l-250 244l49 47l236 -215l235 215l47 -47zM1219 1434h96v-1434h-103l-921 1284v-1284h-96v1434h102l922 -1282v1282z" />
    <glyph glyph-name="ncaron" unicode="&#x148;" horiz-adv-x="1165" 
d="M616 1190h-69l-250 242l49 49l236 -217l235 217l49 -49zM612 1026q174 0 283 -115.5t109 -300.5v-610h-99v594q0 159 -84.5 252.5t-226.5 93.5q-141 0 -232.5 -108t-91.5 -271v-561h-98v1006h80l12 -189q53 98 141.5 153.5t206.5 55.5z" />
    <glyph glyph-name="Eng" unicode="&#x14a;" horiz-adv-x="1509" 
d="M1219 1434h96v-1524q0 -181 -98 -270t-265 -89q-105 0 -254 33l19 84q109 -33 217 -33q131 0 208 68.5t77 214.5v74l-928 1292v-1284h-96v1434h102l922 -1282v1282z" />
    <glyph glyph-name="eng" unicode="&#x14b;" horiz-adv-x="1165" 
d="M612 1026q174 0 283 -115.5t109 -300.5v-809q0 -106 -72.5 -178t-183.5 -72q-126 0 -213 68l28 76q67 -60 166 -60q76 0 126 51t50 124v784q0 159 -84.5 252.5t-226.5 93.5q-141 0 -232.5 -108t-91.5 -271v-561h-98v1006h80l12 -189q53 98 141.5 153.5t206.5 55.5z" />
    <glyph glyph-name="Omacron" unicode="&#x14c;" horiz-adv-x="1665" 
d="M545 1679v74h577v-74h-577zM834 -18q-205 0 -371 95t-260 263.5t-94 376.5t94 376.5t260 263.5t371 95q204 0 370 -95t260.5 -263.5t94.5 -376.5t-94.5 -376.5t-260.5 -263.5t-370 -95zM834 72q131 0 246.5 49.5t198 134.5t130 205t47.5 256t-47.5 256t-130 205
t-198 134.5t-246.5 49.5t-247 -49t-198.5 -134.5t-130 -205.5t-47.5 -256t47.5 -256t130 -205.5t198.5 -134.5t247 -49z" />
    <glyph glyph-name="omacron" unicode="&#x14d;" horiz-adv-x="1140" 
d="M281 1282v76h577v-76h-577zM571 -18q-207 0 -344 146.5t-137 369.5t137 369.5t344 146.5q206 0 343 -147t137 -369t-137 -369t-343 -147zM571 72q163 0 272 121.5t109 304.5t-109 304.5t-272 121.5q-164 0 -273.5 -121.5t-109.5 -304.5t109.5 -304.5t273.5 -121.5z" />
    <glyph glyph-name="Obreve" unicode="&#x14e;" horiz-adv-x="1665" 
d="M834 1556q-119 0 -199 75.5t-86 195.5h72q6 -86 65 -140.5t148 -54.5q88 0 147 54.5t63 140.5h72q-6 -120 -85.5 -195.5t-196.5 -75.5zM834 -18q-205 0 -371 95t-260 263.5t-94 376.5t94 376.5t260 263.5t371 95q204 0 370 -95t260.5 -263.5t94.5 -376.5t-94.5 -376.5
t-260.5 -263.5t-370 -95zM834 72q131 0 246.5 49.5t198 134.5t130 205t47.5 256t-47.5 256t-130 205t-198 134.5t-246.5 49.5t-247 -49t-198.5 -134.5t-130 -205.5t-47.5 -256t47.5 -256t130 -205.5t198.5 -134.5t247 -49z" />
    <glyph glyph-name="obreve" unicode="&#x14f;" horiz-adv-x="1140" 
d="M569 1161q-118 0 -198 75t-86 194h73q4 -86 63.5 -140.5t147.5 -54.5t147.5 54.5t63.5 140.5h74q-6 -119 -86.5 -194t-198.5 -75zM571 -18q-207 0 -344 146.5t-137 369.5t137 369.5t344 146.5q206 0 343 -147t137 -369t-137 -369t-343 -147zM571 72q163 0 272 121.5
t109 304.5t-109 304.5t-272 121.5q-164 0 -273.5 -121.5t-109.5 -304.5t109.5 -304.5t273.5 -121.5z" />
    <glyph glyph-name="Ohungarumlaut" unicode="&#x150;" horiz-adv-x="1665" 
d="M625 1552l-52 54l283 290l59 -59zM987 1552l-49 54l281 290l59 -59zM834 -18q-205 0 -371 95t-260 263.5t-94 376.5t94 376.5t260 263.5t371 95q204 0 370 -95t260.5 -263.5t94.5 -376.5t-94.5 -376.5t-260.5 -263.5t-370 -95zM834 72q131 0 246.5 49.5t198 134.5
t130 205t47.5 256t-47.5 256t-130 205t-198 134.5t-246.5 49.5t-247 -49t-198.5 -134.5t-130 -205.5t-47.5 -256t47.5 -256t130 -205.5t198.5 -134.5t247 -49z" />
    <glyph glyph-name="ohungarumlaut" unicode="&#x151;" horiz-adv-x="1140" 
d="M360 1157l-51 51l283 291l59 -59zM723 1157l-49 51l280 291l60 -59zM571 -18q-207 0 -344 146.5t-137 369.5t137 369.5t344 146.5q206 0 343 -147t137 -369t-137 -369t-343 -147zM571 72q163 0 272 121.5t109 304.5t-109 304.5t-272 121.5q-164 0 -273.5 -121.5
t-109.5 -304.5t109.5 -304.5t273.5 -121.5z" />
    <glyph glyph-name="OE" unicode="&#x152;" horiz-adv-x="2273" 
d="M1366 90h776v-90h-876v94q-190 -112 -422 -112q-214 0 -382.5 96.5t-260.5 265t-92 377.5q0 208 92 374.5t258.5 261.5t378.5 95q227 0 428 -115v97h843v-91h-743v-571h678v-90h-678v-592zM852 72q106 0 215.5 34t198.5 95v1026q-90 65 -200 100t-220 35
q-185 0 -330.5 -83.5t-225 -229.5t-79.5 -328q0 -110 29.5 -209t86 -179t134 -138.5t178 -90.5t213.5 -32z" />
    <glyph glyph-name="oe" unicode="&#x153;" horiz-adv-x="1933" 
d="M1847 524q0 -23 -4 -51h-790q9 -181 120 -291t285 -110q163 0 303 110l37 -76q-158 -124 -348 -124q-152 0 -269.5 75.5t-176.5 204.5q-59 -129 -174 -204.5t-259 -75.5q-207 0 -344 146.5t-137 369.5t137 369.5t344 146.5q143 0 256 -73.5t172 -201.5
q56 132 167.5 209.5t250.5 77.5q184 0 307 -142t123 -360zM1413 936q-141 0 -241 -105.5t-117 -269.5h692q-4 163 -99.5 269t-234.5 106zM571 72q163 0 272 121.5t109 304.5t-109 304.5t-272 121.5q-164 0 -273.5 -121.5t-109.5 -304.5t109.5 -304.5t273.5 -121.5z" />
    <glyph glyph-name="Racute" unicode="&#x154;" horiz-adv-x="1347" 
d="M940 1778l-336 -213l-41 55l330 227zM1102 0l-391 549h-416v-549h-100v1434h553q188 0 308 -125t120 -318q0 -172 -100.5 -295.5t-258.5 -136.5l402 -559h-117zM295 1343v-704h440q150 0 246 97.5t96 254.5q0 156 -96 254t-246 98h-440z" />
    <glyph glyph-name="racute" unicode="&#x155;" horiz-adv-x="755" 
d="M647 1395l-336 -215l-41 55l330 227zM584 1026q65 0 129 -20l-15 -80q-66 16 -118 16q-136 0 -223 -103.5t-87 -267.5v-571h-98v1006h80l10 -177q42 91 127.5 144t194.5 53z" />
    <glyph glyph-name="uni0156" unicode="&#x156;" horiz-adv-x="1347" 
d="M817 559l402 -559h-117l-391 549h-416v-549h-100v1434h553q188 0 308 -125t120 -318q0 -172 -100.5 -295.5t-258.5 -136.5zM295 1343v-704h440q150 0 246 97.5t96 254.5q0 156 -96 254t-246 98h-440zM647 -145q37 0 59.5 -29.5t22.5 -81.5q0 -90 -45 -167.5t-129 -129.5
l-31 43q126 94 129 225q-34 -4 -56 15t-22 51t20 53t52 21z" />
    <glyph glyph-name="uni0157" unicode="&#x157;" horiz-adv-x="755" 
d="M584 1026q65 0 129 -20l-15 -80q-66 16 -118 16q-136 0 -223 -103.5t-87 -267.5v-571h-98v1006h80l10 -177q42 91 127.5 144t194.5 53zM221 -145q37 0 59.5 -29.5t22.5 -81.5q0 -90 -45 -167.5t-129 -129.5l-31 43q126 94 129 225q-33 -4 -55 14.5t-22 51.5t19.5 53.5
t51.5 20.5z" />
    <glyph glyph-name="Rcaron" unicode="&#x158;" horiz-adv-x="1347" 
d="M702 1573h-67l-250 244l49 47l236 -215l235 215l47 -47zM1102 0l-391 549h-416v-549h-100v1434h553q188 0 308 -125t120 -318q0 -172 -100.5 -295.5t-258.5 -136.5l402 -559h-117zM295 1343v-704h440q150 0 246 97.5t96 254.5q0 156 -96 254t-246 98h-440z" />
    <glyph glyph-name="rcaron" unicode="&#x159;" horiz-adv-x="755" 
d="M412 1190h-70l-250 242l49 49l236 -217l235 217l50 -49zM584 1026q65 0 129 -20l-15 -80q-66 16 -118 16q-136 0 -223 -103.5t-87 -267.5v-571h-98v1006h80l10 -177q42 91 127.5 144t194.5 53z" />
    <glyph glyph-name="Sacute" unicode="&#x15a;" horiz-adv-x="1173" 
d="M522 1565l-41 55l330 227l47 -69zM588 -18q-267 0 -471 108l26 86q200 -104 439 -104q172 0 274 77.5t102 212.5q0 71 -28.5 124t-76.5 85.5t-110 57t-130.5 43.5t-137.5 39.5t-131 51t-110 72t-76.5 108t-28.5 153.5q0 158 128 257t335 99q117 0 217 -21.5t203 -84.5
l-27 -86q-164 104 -389 104q-165 0 -267 -73.5t-102 -192.5q0 -73 28.5 -127t76.5 -87.5t110 -58t131 -44t138 -39.5t131 -50t110 -70t76.5 -105.5t28.5 -151.5q0 -176 -128.5 -279.5t-340.5 -103.5z" />
    <glyph glyph-name="sacute" unicode="&#x15b;" horiz-adv-x="903" 
d="M385 1180l-41 55l330 227l47 -67zM451 -18q-203 0 -347 112l27 76q134 -109 313 -109q118 0 188 58t70 160q0 64 -32 105t-83 60t-112.5 31t-123.5 27t-113 38.5t-83 73.5t-32 125q0 134 103 210.5t255 76.5q165 0 303 -106l-30 -74q-125 102 -265 102q-116 0 -193 -54
t-77 -153q0 -58 32 -94.5t83.5 -53t113.5 -27.5t124 -27t113.5 -42t83.5 -81t32 -137q0 -136 -96 -216.5t-254 -80.5z" />
    <glyph glyph-name="Scircumflex" unicode="&#x15c;" horiz-adv-x="1173" 
d="M352 1567l-49 51l250 242h68l249 -242l-47 -51l-235 219zM588 -18q-267 0 -471 108l26 86q200 -104 439 -104q172 0 274 77.5t102 212.5q0 71 -28.5 124t-76.5 85.5t-110 57t-130.5 43.5t-137.5 39.5t-131 51t-110 72t-76.5 108t-28.5 153.5q0 158 128 257t335 99
q117 0 217 -21.5t203 -84.5l-27 -86q-164 104 -389 104q-165 0 -267 -73.5t-102 -192.5q0 -73 28.5 -127t76.5 -87.5t110 -58t131 -44t138 -39.5t131 -50t110 -70t76.5 -105.5t28.5 -151.5q0 -176 -128.5 -279.5t-340.5 -103.5z" />
    <glyph glyph-name="scircumflex" unicode="&#x15d;" horiz-adv-x="903" 
d="M215 1182l-49 51l250 242h69l250 -242l-49 -51l-235 219zM451 -18q-203 0 -347 112l27 76q134 -109 313 -109q118 0 188 58t70 160q0 64 -32 105t-83 60t-112.5 31t-123.5 27t-113 38.5t-83 73.5t-32 125q0 134 103 210.5t255 76.5q165 0 303 -106l-30 -74
q-125 102 -265 102q-116 0 -193 -54t-77 -153q0 -58 32 -94.5t83.5 -53t113.5 -27.5t124 -27t113.5 -42t83.5 -81t32 -137q0 -136 -96 -216.5t-254 -80.5z" />
    <glyph glyph-name="Scedilla" unicode="&#x15e;" horiz-adv-x="1173" 
d="M1057 365q0 -163 -112 -265t-300 -116l-22 -115q68 -8 111.5 -52.5t43.5 -105.5q0 -70 -59.5 -116t-149.5 -46q-91 0 -176 33l23 64q82 -29 145 -29q57 0 94 28.5t37 73.5q0 46 -37.5 73.5t-97.5 27.5h-20l28 162q-252 4 -448 108l26 86q200 -104 439 -104
q172 0 274 77.5t102 212.5q0 71 -28.5 124t-76.5 85.5t-110 57t-130.5 43.5t-137.5 39.5t-131 51t-110 72t-76.5 108t-28.5 153.5q0 158 128 257t335 99q117 0 217 -21.5t203 -84.5l-27 -86q-164 104 -389 104q-165 0 -267 -73.5t-102 -192.5q0 -73 28.5 -127t76.5 -87.5
t110 -58t131 -44t138 -39.5t131 -50t110 -70t76.5 -105.5t28.5 -151.5z" />
    <glyph glyph-name="scedilla" unicode="&#x15f;" horiz-adv-x="903" 
d="M801 279q0 -125 -83 -204t-222 -91l-21 -115q68 -8 112 -52.5t44 -105.5q0 -70 -59.5 -116t-149.5 -46q-91 0 -176 33l22 64q82 -29 146 -29q57 0 94 28.5t37 73.5q0 46 -37.5 73.5t-97.5 27.5h-21l29 162q-178 7 -314 112l27 76q134 -109 313 -109q118 0 188 58t70 160
q0 64 -32 105t-83 60t-112.5 31t-123.5 27t-113 38.5t-83 73.5t-32 125q0 134 103 210.5t255 76.5q165 0 303 -106l-30 -74q-125 102 -265 102q-116 0 -193 -54t-77 -153q0 -58 32 -94.5t83.5 -53t113.5 -27.5t124 -27t113.5 -42t83.5 -81t32 -137z" />
    <glyph glyph-name="Scaron" unicode="&#x160;" horiz-adv-x="1173" 
d="M553 1573l-250 244l49 47l236 -215l235 215l47 -47l-249 -244h-68zM588 -18q-267 0 -471 108l26 86q200 -104 439 -104q172 0 274 77.5t102 212.5q0 71 -28.5 124t-76.5 85.5t-110 57t-130.5 43.5t-137.5 39.5t-131 51t-110 72t-76.5 108t-28.5 153.5q0 158 128 257
t335 99q117 0 217 -21.5t203 -84.5l-27 -86q-164 104 -389 104q-165 0 -267 -73.5t-102 -192.5q0 -73 28.5 -127t76.5 -87.5t110 -58t131 -44t138 -39.5t131 -50t110 -70t76.5 -105.5t28.5 -151.5q0 -176 -128.5 -279.5t-340.5 -103.5z" />
    <glyph glyph-name="scaron" unicode="&#x161;" horiz-adv-x="903" 
d="M416 1190l-250 242l49 49l236 -217l235 217l49 -49l-250 -242h-69zM451 -18q-203 0 -347 112l27 76q134 -109 313 -109q118 0 188 58t70 160q0 64 -32 105t-83 60t-112.5 31t-123.5 27t-113 38.5t-83 73.5t-32 125q0 134 103 210.5t255 76.5q165 0 303 -106l-30 -74
q-125 102 -265 102q-116 0 -193 -54t-77 -153q0 -58 32 -94.5t83.5 -53t113.5 -27.5t124 -27t113.5 -42t83.5 -81t32 -137q0 -136 -96 -216.5t-254 -80.5z" />
    <glyph glyph-name="uni0162" unicode="&#x162;" horiz-adv-x="1187" 
d="M545 0v1343h-484v91h1065v-91h-481v-1343h-100zM502 -553l-31 43q126 94 129 225q-34 -4 -56 15t-22 51t20 53t52 21q37 0 59.5 -29.5t22.5 -81.5q0 -90 -45 -167.5t-129 -129.5z" />
    <glyph glyph-name="uni0163" unicode="&#x163;" horiz-adv-x="626" 
d="M420 -18q-219 0 -219 284v660h-172v82h172v280h98v-280h258v-82h-258v-652q0 -107 29.5 -159t109.5 -52q50 0 123 23l12 -74q-40 -19 -71.5 -24.5t-81.5 -5.5zM311 -553l-30 43q126 94 129 225q-34 -4 -56 15t-22 51q0 33 19.5 53.5t51.5 20.5q37 0 59.5 -29.5
t22.5 -81.5q0 -90 -45 -167.5t-129 -129.5z" />
    <glyph glyph-name="Tcaron" unicode="&#x164;" horiz-adv-x="1187" 
d="M559 1573l-250 244l49 47l236 -215l235 215l48 -47l-250 -244h-68zM545 0v1343h-484v91h1065v-91h-481v-1343h-100z" />
    <glyph glyph-name="tcaron" unicode="&#x165;" horiz-adv-x="626" 
d="M530 1130l-67 25l129 334l80 -29zM420 -18q-219 0 -219 284v660h-172v82h172v280h98v-280h258v-82h-258v-652q0 -107 29.5 -159t109.5 -52q50 0 123 23l12 -74q-40 -19 -71.5 -24.5t-81.5 -5.5z" />
    <glyph glyph-name="Tbar" unicode="&#x166;" horiz-adv-x="1187" 
d="M1126 1343h-481v-628h295v-80h-295v-635h-100v635h-297v80h297v628h-484v91h1065v-91z" />
    <glyph glyph-name="tbar" unicode="&#x167;" horiz-adv-x="626" 
d="M561 86l12 -74q-40 -19 -71.5 -24.5t-81.5 -5.5q-219 0 -219 284v256h-172v78h172v326h-172v82h172v280h98v-280h258v-82h-258v-326h258v-78h-258v-248q0 -107 29.5 -159t109.5 -52q50 0 123 23z" />
    <glyph glyph-name="Utilde" unicode="&#x168;" horiz-adv-x="1521" 
d="M543 1640l-68 21q15 59 57.5 96t98.5 37q46 0 134.5 -40t121.5 -40q32 0 57 21t37 59l68 -25q-15 -58 -57.5 -93.5t-98.5 -35.5q-46 0 -134.5 40t-121.5 40q-32 0 -57 -21.5t-37 -58.5zM762 -18q-162 0 -291 69t-202.5 196t-73.5 290v897h100v-887q0 -209 133 -342
t334 -133t333 133t132 342v887h100v-897q0 -163 -73.5 -290t-202 -196t-289.5 -69z" />
    <glyph glyph-name="utilde" unicode="&#x169;" horiz-adv-x="1163" 
d="M461 1335q-32 0 -57 -21.5t-37 -58.5l-68 21q15 59 57.5 96t98.5 37q46 0 134.5 -40t121.5 -40q32 0 57 21.5t37 58.5l67 -23q-15 -59 -57 -95t-98 -36q-46 0 -134.5 40t-121.5 40zM893 1006h98v-1006h-80l-12 186q-51 -96 -139 -150t-207 -54q-173 0 -282 113.5
t-109 297.5v613h98v-590q0 -162 85.5 -256t227.5 -94q140 0 230 109t90 276v555z" />
    <glyph glyph-name="Umacron" unicode="&#x16a;" horiz-adv-x="1521" 
d="M473 1679v74h578v-74h-578zM762 -18q-162 0 -291 69t-202.5 196t-73.5 290v897h100v-887q0 -209 133 -342t334 -133t333 133t132 342v887h100v-897q0 -163 -73.5 -290t-202 -196t-289.5 -69z" />
    <glyph glyph-name="umacron" unicode="&#x16b;" horiz-adv-x="1163" 
d="M874 1370v-76h-577v76h577zM893 1006h98v-1006h-80l-12 186q-51 -96 -139 -150t-207 -54q-173 0 -282 113.5t-109 297.5v613h98v-590q0 -162 85.5 -256t227.5 -94q140 0 230 109t90 276v555z" />
    <glyph glyph-name="Ubreve" unicode="&#x16c;" horiz-adv-x="1521" 
d="M762 1556q-119 0 -199 75.5t-86 195.5h72q6 -86 65 -140.5t148 -54.5q88 0 147.5 54.5t63.5 140.5h71q-6 -120 -85.5 -195.5t-196.5 -75.5zM762 -18q-162 0 -291 69t-202.5 196t-73.5 290v897h100v-887q0 -209 133 -342t334 -133t333 133t132 342v887h100v-897
q0 -163 -73.5 -290t-202 -196t-289.5 -69z" />
    <glyph glyph-name="ubreve" unicode="&#x16d;" horiz-adv-x="1163" 
d="M586 1174q-118 0 -198.5 74.5t-86.5 193.5h74q4 -86 63.5 -140.5t147.5 -54.5t147.5 54.5t63.5 140.5h73q-6 -119 -86 -193.5t-198 -74.5zM893 1006h98v-1006h-80l-12 186q-51 -96 -139 -150t-207 -54q-173 0 -282 113.5t-109 297.5v613h98v-590q0 -162 85.5 -256
t227.5 -94q140 0 230 109t90 276v555z" />
    <glyph glyph-name="Uring" unicode="&#x16e;" horiz-adv-x="1521" 
d="M766 1528q-86 0 -140.5 52.5t-54.5 135.5q0 85 52.5 137t138.5 52t138 -52t52 -137q0 -84 -51 -136t-135 -52zM766 1583q58 0 93.5 36.5t35.5 96.5q0 59 -37 95t-96 36q-60 0 -96.5 -35.5t-36.5 -95.5t38.5 -96.5t98.5 -36.5zM762 -18q-162 0 -291 69t-202.5 196
t-73.5 290v897h100v-887q0 -209 133 -342t334 -133t333 133t132 342v887h100v-897q0 -163 -73.5 -290t-202 -196t-289.5 -69z" />
    <glyph glyph-name="uring" unicode="&#x16f;" horiz-adv-x="1163" 
d="M590 1143q-86 0 -140.5 52.5t-54.5 135.5q0 85 52.5 137t138.5 52t138 -52t52 -137q0 -84 -51 -136t-135 -52zM586 1464q-60 0 -96.5 -36.5t-36.5 -96.5t38.5 -96.5t98.5 -36.5q58 0 93.5 36.5t35.5 96.5t-37 96.5t-96 36.5zM893 1006h98v-1006h-80l-12 186
q-51 -96 -139 -150t-207 -54q-173 0 -282 113.5t-109 297.5v613h98v-590q0 -162 85.5 -256t227.5 -94q140 0 230 109t90 276v555z" />
    <glyph glyph-name="Uhungarumlaut" unicode="&#x170;" horiz-adv-x="1521" 
d="M553 1552l-51 54l282 290l60 -59zM915 1552l-49 54l281 290l59 -59zM762 -18q-162 0 -291 69t-202.5 196t-73.5 290v897h100v-887q0 -209 133 -342t334 -133t333 133t132 342v887h100v-897q0 -163 -73.5 -290t-202 -196t-289.5 -69z" />
    <glyph glyph-name="uhungarumlaut" unicode="&#x171;" horiz-adv-x="1163" 
d="M668 1452l-291 -283l-51 52l282 290zM1030 1452l-291 -283l-49 52l281 290zM893 451v555h98v-1006h-80l-12 186q-51 -96 -139 -150t-207 -54q-173 0 -282 113.5t-109 297.5v613h98v-590q0 -162 85.5 -256t227.5 -94q140 0 230 109t90 276z" />
    <glyph glyph-name="Uogonek" unicode="&#x172;" horiz-adv-x="1521" 
d="M1327 537q0 -75 -13 -137t-39.5 -112.5t-52.5 -85.5t-67 -79q-115 -122 -170 -204.5t-55 -166.5q0 -64 33.5 -99.5t97.5 -35.5q47 0 90 21l16 -64q-64 -25 -127 -25q-85 0 -137.5 51.5t-52.5 135.5q0 127 129 287q-100 -41 -217 -41q-162 0 -291 69t-202.5 196t-73.5 290
v897h100v-887q0 -209 133 -342t334 -133t333 133t132 342v887h100v-897z" />
    <glyph glyph-name="uogonek" unicode="&#x173;" horiz-adv-x="1163" 
d="M993 -362l17 -64q-64 -25 -127 -25q-72 0 -121 44.5t-49 117.5q0 146 198 295l-12 180q-51 -96 -139 -150t-207 -54q-173 0 -282 113.5t-109 297.5v613h98v-590q0 -162 85.5 -256t227.5 -94q140 0 230 109t90 276v555h98v-1006q-198 -154 -198 -276q0 -48 31.5 -77.5
t78.5 -29.5t90 21z" />
    <glyph glyph-name="Wcircumflex" unicode="&#x174;" horiz-adv-x="1988" 
d="M995 1786l-235 -219l-49 51l250 242h67l250 -242l-47 -51zM1845 1434h103l-457 -1434h-102l-394 1290l-393 -1290h-102l-459 1434h104l408 -1301l393 1301h98l394 -1303z" />
    <glyph glyph-name="wcircumflex" unicode="&#x175;" horiz-adv-x="1439" 
d="M721 1401l-236 -219l-49 51l250 242h70l250 -242l-50 -51zM1321 1008h100l-325 -1008h-99l-278 891l-277 -891h-98l-326 1008h101l276 -893l277 893h96l276 -889z" />
    <glyph glyph-name="Ycircumflex" unicode="&#x176;" horiz-adv-x="1214" 
d="M608 1786l-235 -219l-49 51l249 242h68l250 -242l-47 -51zM1055 1434h108l-504 -850v-584h-102v584l-508 850h113l446 -754z" />
    <glyph glyph-name="ycircumflex" unicode="&#x177;" horiz-adv-x="948" 
d="M238 1182l-50 51l250 242h70l250 -242l-49 -51l-236 219zM260 -430l174 436l-416 1002h103l358 -891l346 891h105l-576 -1438h-94z" />
    <glyph glyph-name="Ydieresis" unicode="&#x178;" horiz-adv-x="1214" 
d="M403 1645q-32 0 -51.5 19.5t-19.5 51.5q0 33 19.5 53.5t51.5 20.5t52 -21t20 -53t-20 -51.5t-52 -19.5zM813 1645q-32 0 -52 19.5t-20 51.5t20 53t52 21t52 -21t20 -53t-20 -51.5t-52 -19.5zM1055 1434h108l-504 -850v-584h-102v584l-508 850h113l446 -754z" />
    <glyph glyph-name="Zacute" unicode="&#x179;" horiz-adv-x="1271" 
d="M907 1778l-336 -213l-41 55l330 227zM258 90h897v-90h-1038v61l893 1282h-850v91h989v-64z" />
    <glyph glyph-name="zacute" unicode="&#x17a;" horiz-adv-x="968" 
d="M754 1395l-336 -215l-41 55l330 227zM233 80h629v-80h-756v59l613 867h-594v82h723v-60z" />
    <glyph glyph-name="Zdotaccent" unicode="&#x17b;" horiz-adv-x="1271" 
d="M637 1642q-34 0 -55 20t-21 54q0 33 21.5 54.5t54.5 21.5t54.5 -21.5t21.5 -54.5q0 -34 -21 -54t-55 -20zM258 90h897v-90h-1038v61l893 1282h-850v91h989v-64z" />
    <glyph glyph-name="zdotaccent" unicode="&#x17c;" horiz-adv-x="968" 
d="M483 1257q-34 0 -54.5 20t-20.5 54t20.5 55t54.5 21t55 -21t21 -55t-21 -54t-55 -20zM233 80h629v-80h-756v59l613 867h-594v82h723v-60z" />
    <glyph glyph-name="Zcaron" unicode="&#x17d;" horiz-adv-x="1271" 
d="M670 1573h-68l-250 244l49 47l236 -215l235 215l48 -47zM258 90h897v-90h-1038v61l893 1282h-850v91h989v-64z" />
    <glyph glyph-name="zcaron" unicode="&#x17e;" horiz-adv-x="968" 
d="M518 1190h-69l-250 242l49 49l235 -217l236 217l49 -49zM233 80h629v-80h-756v59l613 867h-594v82h723v-60z" />
    <glyph glyph-name="florin" unicode="&#x192;" horiz-adv-x="882" 
d="M639 1370q-73 0 -110 -51.5t-37 -142.5v-189h247v-82h-247v-655q0 -122 -59 -195t-169 -73q-82 0 -168 45l17 73q67 -37 131 -37q73 0 111 52.5t38 142.5v647h-182v82h182v197q0 122 58.5 195t166.5 73q82 0 168 -45l-16 -74q-67 37 -131 37z" />
    <glyph glyph-name="uni01CD" unicode="&#x1cd;" horiz-adv-x="1378" 
d="M723 1573h-68l-249 244l49 47l235 -215l236 215l47 -47zM1227 0l-187 459h-700l-188 -459h-105l592 1434h100l592 -1434h-104zM375 547h629l-314 770z" />
    <glyph glyph-name="uni01CE" unicode="&#x1ce;" horiz-adv-x="1032" 
d="M553 1190h-70l-250 242l50 49l235 -217l236 217l49 -49zM492 1026q167 0 271.5 -93.5t104.5 -250.5v-682h-80l-12 158q-106 -176 -336 -176q-154 0 -254 82.5t-100 216.5q0 143 119 227t327 84q131 0 244 -31v113q0 119 -82.5 190.5t-212.5 71.5q-176 0 -307 -105l-27 82
q143 113 345 113zM455 63q143 0 232 94t89 236v88q-111 31 -229 31q-171 0 -267 -62t-96 -165q0 -97 77 -159.5t194 -62.5z" />
    <glyph glyph-name="AEacute" unicode="&#x1fc;" horiz-adv-x="2041" 
d="M1655 1769l-336 -213l-41 56l330 227zM1135 90h774v-90h-875v459h-577l-305 -459h-105l938 1434h891v-91h-741v-571h675v-90h-675v-592zM516 547h518v778z" />
    <glyph glyph-name="aeacute" unicode="&#x1fd;" horiz-adv-x="1757" 
d="M1147 1395l-336 -215l-41 55l330 227zM1669 524q0 -37 -2 -51h-790q9 -181 120 -291t285 -110q161 0 303 110l35 -76q-155 -124 -346 -124q-150 0 -268 74t-177 202q-41 -134 -147.5 -205t-241.5 -71q-154 0 -254 82.5t-100 216.5q0 143 119 227t327 84q131 0 244 -31
v113q0 119 -82.5 190.5t-212.5 71.5q-176 0 -307 -105l-27 82q143 113 345 113q133 0 229 -61t131 -168q61 107 162.5 168t224.5 61q185 0 307.5 -141.5t122.5 -360.5zM1237 936q-141 0 -241 -105.5t-117 -269.5h690q-3 163 -98 269t-234 106zM455 63q143 0 232 94t89 236
v88q-111 31 -229 31q-172 0 -267.5 -62t-95.5 -165q0 -97 77 -159.5t194 -62.5z" />
    <glyph glyph-name="Oslashacute" unicode="&#x1fe;" horiz-adv-x="1665" 
d="M1104 1778l-336 -213l-41 55l330 227zM1272 1313q134 -100 210.5 -255t76.5 -341q0 -208 -94.5 -376.5t-260.5 -263.5t-370 -95q-201 0 -373 96l-107 -164l-73 35l114 174q-134 100 -210 254t-76 340q0 208 94 376.5t260 263.5t371 95q200 0 372 -96l107 162l71 -33z
M211 717q0 -159 63 -292.5t175 -221.5l704 1073q-144 86 -319 86q-131 0 -247 -49t-198.5 -134.5t-130 -205.5t-47.5 -256zM834 72q131 0 246.5 49.5t198 134.5t130 205t47.5 256q0 158 -63 292t-174 222l-705 -1073q144 -86 320 -86z" />
    <glyph glyph-name="oslashacute" unicode="&#x1ff;" horiz-adv-x="1140" 
d="M840 1382l-336 -215l-41 56l330 227zM883 899q79 -72 123.5 -175.5t44.5 -225.5q0 -222 -137 -369t-343 -147q-142 0 -252 69l-88 -131l-63 33l94 141q-81 70 -126.5 175t-45.5 229q0 223 137 369.5t344 146.5q137 0 252 -72l84 125l64 -35zM188 498q0 -200 127 -324
l457 690q-92 60 -201 60q-164 0 -273.5 -121.5t-109.5 -304.5zM571 72q163 0 272 121.5t109 304.5q0 197 -125 319l-456 -686q86 -59 200 -59z" />
    <glyph glyph-name="uni0218" unicode="&#x218;" horiz-adv-x="1173" 
d="M588 -18q-267 0 -471 108l26 86q200 -104 439 -104q172 0 274 77.5t102 212.5q0 71 -28.5 124t-76.5 85.5t-110 57t-130.5 43.5t-137.5 39.5t-131 51t-110 72t-76.5 108t-28.5 153.5q0 158 128 257t335 99q117 0 217 -21.5t203 -84.5l-27 -86q-164 104 -389 104
q-165 0 -267 -73.5t-102 -192.5q0 -73 28.5 -127t76.5 -87.5t110 -58t131 -44t138 -39.5t131 -50t110 -70t76.5 -105.5t28.5 -151.5q0 -176 -128.5 -279.5t-340.5 -103.5zM500 -553l-31 43q126 94 129 225q-34 -4 -56 15t-22 51t20 53t52 21q37 0 59.5 -29.5t22.5 -81.5
q0 -90 -45 -167.5t-129 -129.5z" />
    <glyph glyph-name="uni0219" unicode="&#x219;" horiz-adv-x="903" 
d="M451 -18q-203 0 -347 112l27 76q134 -109 313 -109q118 0 188 58t70 160q0 64 -32 105t-83 60t-112.5 31t-123.5 27t-113 38.5t-83 73.5t-32 125q0 134 103 210.5t255 76.5q165 0 303 -106l-30 -74q-125 102 -265 102q-116 0 -193 -54t-77 -153q0 -58 32 -94.5t83.5 -53
t113.5 -27.5t124 -27t113.5 -42t83.5 -81t32 -137q0 -136 -96 -216.5t-254 -80.5zM352 -553l-30 43q126 94 129 225q-34 -4 -56 15t-22 51q0 33 19.5 53.5t51.5 20.5q37 0 59.5 -29.5t22.5 -81.5q0 -90 -45 -167.5t-129 -129.5z" />
    <glyph glyph-name="uni021A" unicode="&#x21a;" horiz-adv-x="1187" 
d="M545 0v1343h-484v91h1065v-91h-481v-1343h-100zM502 -553l-31 43q126 94 129 225q-34 -4 -56 15t-22 51t20 53t52 21q37 0 59.5 -29.5t22.5 -81.5q0 -90 -45 -167.5t-129 -129.5z" />
    <glyph glyph-name="uni021B" unicode="&#x21b;" horiz-adv-x="626" 
d="M420 -18q-219 0 -219 284v660h-172v82h172v280h98v-280h258v-82h-258v-652q0 -107 29.5 -159t109.5 -52q50 0 123 23l12 -74q-40 -19 -71.5 -24.5t-81.5 -5.5zM311 -553l-30 43q126 94 129 225q-34 -4 -56 15t-22 51q0 33 19.5 53.5t51.5 20.5q37 0 59.5 -29.5
t22.5 -81.5q0 -90 -45 -167.5t-129 -129.5z" />
    <glyph glyph-name="uni0237" unicode="&#x237;" horiz-adv-x="473" 
d="M39 -449q-128 0 -213 66l29 78q72 -62 165 -62q75 0 125 52t50 125v1198h98v-1205q0 -107 -71.5 -179.5t-182.5 -72.5z" />
    <glyph glyph-name="circumflex" unicode="&#x2c6;" horiz-adv-x="745" 
d="M137 1161l-49 51l250 242h70l249 -242l-49 -51l-235 219z" />
    <glyph glyph-name="caron" unicode="&#x2c7;" horiz-adv-x="745" 
d="M338 1169l-250 242l49 49l236 -217l235 217l49 -49l-249 -242h-70z" />
    <glyph glyph-name="breve" unicode="&#x2d8;" horiz-adv-x="745" 
d="M373 1153q-118 0 -198.5 74.5t-86.5 193.5h74q4 -86 63.5 -140t147.5 -54t147.5 54t63.5 140h73q-6 -119 -86 -193.5t-198 -74.5z" />
    <glyph glyph-name="dotaccent" unicode="&#x2d9;" horiz-adv-x="329" 
d="M166 1237q-34 0 -56 20.5t-22 53.5t22 54t56 21q33 0 54.5 -21t21.5 -54t-21.5 -53.5t-54.5 -20.5z" />
    <glyph glyph-name="ring" unicode="&#x2da;" horiz-adv-x="561" 
d="M285 1122q-86 0 -141.5 53t-55.5 136q0 85 53.5 136.5t139.5 51.5q85 0 137.5 -51.5t52.5 -136.5q0 -84 -51 -136.5t-135 -52.5zM285 1178q57 0 92 36.5t35 96.5t-36 96.5t-95 36.5q-60 0 -97 -36.5t-37 -96.5q0 -59 38.5 -96t99.5 -37z" />
    <glyph glyph-name="ogonek" unicode="&#x2db;" horiz-adv-x="475" 
d="M260 -451q-73 0 -122.5 44.5t-49.5 117.5q0 153 227 316l52 -27q-199 -157 -199 -276q0 -48 32 -77.5t79 -29.5q45 0 92 21l16 -64q-64 -25 -127 -25z" />
    <glyph glyph-name="tilde" unicode="&#x2dc;" horiz-adv-x="749" 
d="M158 1235l-70 20q15 60 57.5 97t98.5 37q46 0 134.5 -40t121.5 -40q32 0 57 21.5t37 58.5l68 -23q-15 -59 -57.5 -95t-98.5 -36q-46 0 -134.5 40t-121.5 40q-32 0 -56.5 -21.5t-35.5 -58.5z" />
    <glyph glyph-name="hungarumlaut" unicode="&#x2dd;" horiz-adv-x="882" 
d="M141 1149l-53 51l285 291l59 -59zM504 1149l-51 51l282 291l60 -59z" />
    <glyph glyph-name="gravecomb" unicode="&#x300;" 
d="M-174 1159l-336 215l47 68l330 -228z" />
    <glyph glyph-name="acutecomb" unicode="&#x301;" 
d="M-311 1159l-41 55l329 228l48 -68z" />
    <glyph glyph-name="uni0302" unicode="&#x302;" 
d="M-481 1161l-49 51l249 242h70l250 -242l-49 -51l-236 219z" />
    <glyph glyph-name="tildecomb" unicode="&#x303;" 
d="M-465 1235l-67 20q15 60 57 97t98 37q46 0 134.5 -40t121.5 -40q32 0 57 21.5t37 58.5l68 -23q-15 -59 -57.5 -95t-98.5 -36q-46 0 -134.5 40t-121.5 40q-32 0 -57 -21.5t-37 -58.5z" />
    <glyph glyph-name="uni0304" unicode="&#x304;" 
d="M-535 1274v76h578v-76h-578z" />
    <glyph glyph-name="uni0306" unicode="&#x306;" 
d="M-246 1153q-118 0 -198 74.5t-86 193.5h73q4 -86 63.5 -140t147.5 -54t147.5 54t63.5 140h74q-6 -119 -86.5 -193.5t-198.5 -74.5z" />
    <glyph glyph-name="uni0307" unicode="&#x307;" 
d="M-246 1237q-34 0 -55 20t-21 54t21 54.5t55 20.5t55 -20.5t21 -54.5t-21 -54t-55 -20z" />
    <glyph glyph-name="uni0308" unicode="&#x308;" 
d="M-451 1239q-32 0 -51.5 20t-19.5 52t19.5 52.5t51.5 20.5t52 -20.5t20 -52.5t-20 -52t-52 -20zM-41 1239q-32 0 -52 20t-20 52t20 52.5t52 20.5t52 -20.5t20 -52.5t-20 -52t-52 -20z" />
    <glyph glyph-name="uni030A" unicode="&#x30a;" 
d="M-242 1122q-86 0 -140 53t-54 136q0 85 52 136.5t138 51.5t138.5 -51.5t52.5 -136.5q0 -84 -51.5 -136.5t-135.5 -52.5zM-242 1178q58 0 93.5 36.5t35.5 96.5t-37 96.5t-96 36.5q-60 0 -96.5 -36.5t-36.5 -96.5t38.5 -96.5t98.5 -36.5z" />
    <glyph glyph-name="uni030B" unicode="&#x30b;" 
d="M-455 1149l-51 51l283 291l59 -59zM-92 1149l-49 51l280 291l60 -59z" />
    <glyph glyph-name="uni030C" unicode="&#x30c;" 
d="M-281 1169l-249 242l49 49l235 -217l236 217l49 -49l-250 -242h-70z" />
    <glyph glyph-name="uni0326" unicode="&#x326;" 
d="M-338 -553l-31 43q126 94 129 225q-33 -4 -55 14.5t-22 51.5t19.5 53.5t51.5 20.5q37 0 59.5 -29.5t22.5 -81.5q0 -90 -45 -167.5t-129 -129.5z" />
    <glyph glyph-name="uni0327" unicode="&#x327;" 
d="M-268 -451q-91 0 -176 33l22 64q82 -29 146 -29q57 0 94 28.5t37 73.5t-38 73t-98 28h-20l33 180h78l-25 -131q68 -8 112 -52.5t44 -105.5q0 -70 -59.5 -116t-149.5 -46z" />
    <glyph glyph-name="uni0328" unicode="&#x328;" 
d="M-305 -451q-72 0 -121 44.5t-49 117.5q0 155 227 316l51 -27q-198 -154 -198 -276q0 -48 31.5 -77.5t78.5 -29.5t90 21l17 -64q-64 -25 -127 -25z" />
    <glyph glyph-name="uni0394" unicode="&#x394;" horiz-adv-x="1382" 
d="M76 0v59l567 1375h96l570 -1375v-59h-1233zM184 84h1014l-506 1227z" />
    <glyph glyph-name="Pi" unicode="&#x3a0;" horiz-adv-x="1495" 
d="M195 0v1434h1105v-1434h-100v1350h-903v-1350h-102z" />
    <glyph glyph-name="uni03A9" unicode="&#x3a9;" horiz-adv-x="1591" 
d="M121 0v84h403q-368 240 -368 680q0 309 177 498.5t462 189.5q189 0 334.5 -85t226 -242t80.5 -361q0 -217 -94 -389t-275 -291h406v-84h-541v72q403 251 403 686q0 275 -148.5 442.5t-391.5 167.5q-242 0 -390.5 -167.5t-148.5 -442.5q0 -437 406 -686v-72h-541z" />
    <glyph glyph-name="uni03BC" unicode="&#x3bc;" horiz-adv-x="1220" 
d="M1165 72l13 -82q-54 -8 -88 -8q-75 0 -121.5 43t-50.5 116v58q-51 -102 -144 -159.5t-207 -57.5q-97 0 -173.5 42.5t-117.5 120.5v-575h-98v1438h98v-654q0 -128 82.5 -208t212.5 -80q146 0 242 101t96 259v582h99v-840q0 -48 27.5 -76.5t76.5 -28.5q17 0 53 9z" />
    <glyph glyph-name="pi" unicode="&#x3c0;" horiz-adv-x="1251" 
d="M1079 -18q-89 0 -141.5 50t-52.5 140v754h-518v-926h-99v926h-219v82h1151v-82h-217v-746q0 -55 31 -86t84 -31q27 0 69 11l11 -82q-55 -10 -99 -10z" />
    <glyph glyph-name="Wgrave" unicode="&#x1e80;" horiz-adv-x="1988" 
d="M1108 1620l-41 -55l-336 213l47 69zM1845 1434h103l-457 -1434h-102l-394 1290l-393 -1290h-102l-459 1434h104l408 -1301l393 1301h98l394 -1303z" />
    <glyph glyph-name="wgrave" unicode="&#x1e81;" horiz-adv-x="1439" 
d="M834 1235l-41 -55l-336 215l47 67zM1321 1008h100l-325 -1008h-99l-278 891l-277 -891h-98l-326 1008h101l276 -893l277 893h96l276 -889z" />
    <glyph glyph-name="Wacute" unicode="&#x1e82;" horiz-adv-x="1988" 
d="M1266 1778l-336 -213l-41 55l330 227zM1845 1434h103l-457 -1434h-102l-394 1290l-393 -1290h-102l-459 1434h104l408 -1301l393 1301h98l394 -1303z" />
    <glyph glyph-name="wacute" unicode="&#x1e83;" horiz-adv-x="1439" 
d="M991 1395l-336 -215l-41 55l330 227zM1321 1008h100l-325 -1008h-99l-278 891l-277 -891h-98l-326 1008h101l276 -893l277 893h96l276 -889z" />
    <glyph glyph-name="Wdieresis" unicode="&#x1e84;" horiz-adv-x="1988" 
d="M791 1645q-32 0 -52 19.5t-20 51.5t20 53t52 21t51.5 -20.5t19.5 -53.5q0 -32 -19.5 -51.5t-51.5 -19.5zM1200 1645q-32 0 -52 19.5t-20 51.5t20 53t52 21t52 -21t20 -53t-20 -51.5t-52 -19.5zM1845 1434h103l-457 -1434h-102l-394 1290l-393 -1290h-102l-459 1434h104
l408 -1301l393 1301h98l394 -1303z" />
    <glyph glyph-name="wdieresis" unicode="&#x1e85;" horiz-adv-x="1439" 
d="M516 1260q-32 0 -52 19.5t-20 51.5t20 53t52 21t52 -21t20 -53t-20 -51.5t-52 -19.5zM926 1260q-32 0 -52 19.5t-20 51.5t20 53t52 21t51.5 -20.5t19.5 -53.5q0 -32 -19.5 -51.5t-51.5 -19.5zM1321 1008h100l-325 -1008h-99l-278 891l-277 -891h-98l-326 1008h101
l276 -893l277 893h96l276 -889z" />
    <glyph glyph-name="uni1E9E" unicode="&#x1e9e;" horiz-adv-x="1404" 
d="M864 801q192 -12 309 -122t117 -284q0 -180 -125.5 -296.5t-320.5 -116.5q-236 0 -387 108l41 84q136 -104 338 -104q157 0 255.5 90t98.5 235q0 149 -107 239.5t-280 90.5h-41l-17 55l406 563h-858v-1343h-98v1434h1081v-64z" />
    <glyph glyph-name="Ygrave" unicode="&#x1ef2;" horiz-adv-x="1214" 
d="M721 1620l-41 -55l-336 213l47 69zM1055 1434h108l-504 -850v-584h-102v584l-508 850h113l446 -754z" />
    <glyph glyph-name="ygrave" unicode="&#x1ef3;" horiz-adv-x="948" 
d="M545 1180l-336 215l47 67l330 -227zM260 -430l174 436l-416 1002h103l358 -891l346 891h105l-576 -1438h-94z" />
    <glyph glyph-name="uni2002" unicode="&#x2002;" horiz-adv-x="983" 
 />
    <glyph glyph-name="uni2003" unicode="&#x2003;" horiz-adv-x="1966" 
 />
    <glyph glyph-name="uni2009" unicode="&#x2009;" horiz-adv-x="245" 
 />
    <glyph glyph-name="uni200A" unicode="&#x200a;" horiz-adv-x="122" 
 />
    <glyph glyph-name="endash" unicode="&#x2013;" horiz-adv-x="983" 
d="M59 465v82h865v-82h-865z" />
    <glyph glyph-name="emdash" unicode="&#x2014;" horiz-adv-x="1966" 
d="M59 465v82h1848v-82h-1848z" />
    <glyph glyph-name="quoteleft" unicode="&#x2018;" horiz-adv-x="483" 
d="M350 1450l35 -49q-152 -98 -152 -234q37 5 64 -17t27 -58q0 -35 -23.5 -58.5t-58.5 -23.5q-43 0 -67.5 35t-24.5 94q0 91 52.5 172.5t147.5 138.5z" />
    <glyph glyph-name="quoteright" unicode="&#x2019;" horiz-adv-x="483" 
d="M133 1014l-35 47q152 98 152 233q-37 -5 -64.5 17.5t-27.5 58.5q0 35 23.5 58.5t58.5 23.5q44 0 69 -34t25 -93q0 -92 -53 -173.5t-148 -137.5z" />
    <glyph glyph-name="quotesinglbase" unicode="&#x201a;" horiz-adv-x="483" 
d="M133 -295l-35 47q152 101 152 236q-37 -5 -64.5 17t-27.5 58q0 35 23.5 58.5t58.5 23.5q44 0 69 -35t25 -94q0 -91 -53 -172.5t-148 -138.5z" />
    <glyph glyph-name="quotedblleft" unicode="&#x201c;" horiz-adv-x="845" 
d="M350 1450l35 -49q-152 -98 -152 -234q37 5 64 -17t27 -58q0 -35 -23.5 -58.5t-58.5 -23.5q-43 0 -67.5 35t-24.5 94q0 91 52.5 172.5t147.5 138.5zM713 1450l35 -49q-152 -98 -152 -234q37 5 64.5 -17t27.5 -58q0 -35 -23.5 -58.5t-58.5 -23.5q-44 0 -69 35t-25 94
q0 91 53 172.5t148 138.5z" />
    <glyph glyph-name="quotedblright" unicode="&#x201d;" horiz-adv-x="845" 
d="M133 1014l-35 47q152 98 152 233q-37 -5 -64.5 17.5t-27.5 58.5q0 35 23.5 58.5t58.5 23.5q44 0 69 -34t25 -93q0 -92 -53 -173.5t-148 -137.5zM496 1014l-35 47q151 98 151 233q-37 -5 -63.5 17.5t-26.5 58.5t23 59t59 23q43 0 67.5 -34t24.5 -93q0 -92 -52.5 -174
t-147.5 -137z" />
    <glyph glyph-name="quotedblbase" unicode="&#x201e;" horiz-adv-x="845" 
d="M133 -295l-35 47q152 101 152 236q-37 -5 -64.5 17t-27.5 58q0 35 23.5 58.5t58.5 23.5q44 0 69 -35t25 -94q0 -91 -53 -172.5t-148 -138.5zM496 -295l-35 47q151 101 151 236q-37 -5 -63.5 17t-26.5 58t23 59t59 23q43 0 67.5 -35t24.5 -94q0 -91 -52.5 -172.5
t-147.5 -138.5z" />
    <glyph glyph-name="dagger" unicode="&#x2020;" horiz-adv-x="993" 
d="M457 0v989h-365v78h365v367h82v-367h364v-78h-364v-989h-82z" />
    <glyph glyph-name="daggerdbl" unicode="&#x2021;" horiz-adv-x="993" 
d="M457 0v367h-365v77h365v545h-365v78h365v367h82v-367h364v-78h-364v-545h364v-77h-364v-367h-82z" />
    <glyph glyph-name="bullet" unicode="&#x2022;" horiz-adv-x="983" 
d="M492 295q-123 0 -209 86t-86 209t86 209t209 86t208.5 -86t85.5 -209t-85.5 -209t-208.5 -86z" />
    <glyph glyph-name="ellipsis" unicode="&#x2026;" horiz-adv-x="1325" 
d="M242 -18q-36 0 -59 22.5t-23 58.5q0 35 23.5 58.5t58.5 23.5q36 0 59 -23t23 -59q0 -37 -22.5 -59t-59.5 -22zM659 -18q-34 0 -57.5 22.5t-23.5 58.5q0 35 23.5 58.5t57.5 23.5q36 0 59 -23t23 -59q0 -37 -22.5 -59t-59.5 -22zM1081 -18q-36 0 -59 22.5t-23 58.5
q0 35 23.5 58.5t58.5 23.5q36 0 59 -23t23 -59q0 -37 -22.5 -59t-59.5 -22z" />
    <glyph glyph-name="perthousand" unicode="&#x2030;" horiz-adv-x="2631" 
d="M446 715q-155 0 -253.5 102.5t-98.5 265.5q0 162 98.5 265.5t253.5 103.5q154 0 253.5 -104t99.5 -265q0 -162 -99.5 -265t-253.5 -103zM414 -10l-56 41l1033 1376l55 -41zM446 788q121 0 198 82t77 213t-77 213t-198 82t-197.5 -82t-76.5 -213t76.5 -213t197.5 -82z
M1358 -18q-154 0 -253 103t-99 265q0 161 99 265t253 104q155 0 252.5 -103.5t97.5 -265.5q0 -163 -97.5 -265.5t-252.5 -102.5zM2185 -18q-155 0 -253.5 102.5t-98.5 265.5q0 162 98.5 265.5t253.5 103.5t252.5 -103.5t97.5 -265.5q0 -163 -97.5 -265.5t-252.5 -102.5z
M1358 55q121 0 196.5 81t75.5 214q0 130 -76 212.5t-196 82.5q-122 0 -198.5 -82.5t-76.5 -212.5q0 -133 76.5 -214t198.5 -81zM2185 55q121 0 197 81t76 214q0 130 -76.5 212.5t-196.5 82.5q-121 0 -197.5 -82t-76.5 -213q0 -133 76 -214t198 -81z" />
    <glyph glyph-name="guilsinglleft" unicode="&#x2039;" horiz-adv-x="614" 
d="M467 35l-404 446v51l404 449l59 -49l-364 -426l364 -424z" />
    <glyph glyph-name="guilsinglright" unicode="&#x203a;" horiz-adv-x="614" 
d="M145 35l-57 47l365 424l-365 426l57 49l406 -449v-51z" />
    <glyph glyph-name="fraction" unicode="&#x2044;" horiz-adv-x="393" 
d="M-291 -20l-57 40l1032 1377l57 -41z" />
    <glyph glyph-name="uni2074" unicode="&#x2074;" horiz-adv-x="761" 
d="M481 786v207h-422v54l418 591h74v-583h139v-62h-139v-207h-70zM141 1055h340v481z" />
    <glyph glyph-name="Euro" unicode="&#x20ac;" horiz-adv-x="1710" 
d="M1556 207l43 -80q-213 -145 -475 -145q-270 0 -461.5 149.5t-250.5 392.5h-336v72h321q-8 82 -8 125q0 64 8 113h-321v71h334q56 246 247 396.5t461 150.5q261 0 477 -145l-45 -82q-90 66 -201.5 101.5t-222.5 35.5q-229 0 -393 -125.5t-219 -331.5h727v-71h-741
q-8 -49 -8 -113q0 -57 10 -125h739v-72h-723q56 -204 220.5 -328t394.5 -124q109 0 220 35.5t203 99.5z" />
    <glyph glyph-name="uni2113" unicode="&#x2113;" horiz-adv-x="751" 
d="M451 -18q-119 0 -196 75t-77 193v899q0 134 71.5 218.5t186.5 84.5q110 0 182 -85t72 -216q0 -168 -111.5 -332t-308.5 -291v-274q0 -84 54.5 -137.5t140.5 -53.5q66 0 149 25l17 -82q-91 -24 -180 -24zM270 623q163 115 252.5 248.5t89.5 271.5q0 98 -48.5 161.5
t-123.5 63.5t-122.5 -62.5t-47.5 -162.5v-520z" />
    <glyph glyph-name="uni2116" unicode="&#x2116;" horiz-adv-x="2312" 
d="M1843 1452q143 0 234.5 -96t91.5 -248q0 -153 -91.5 -249.5t-234.5 -96.5t-234 96.5t-91 249.5q0 152 91 248t234 96zM1219 152v1282h96v-1434h-103l-921 1284v-1284h-96v1434h102zM1843 829q108 0 177 78t69 201q0 124 -69 201t-177 77q-109 0 -177.5 -77t-68.5 -201
q0 -123 68.5 -201t177.5 -78z" />
    <glyph glyph-name="trademark" unicode="&#x2122;" horiz-adv-x="1155" 
d="M217 922v467h-180v45h416v-45h-183v-467h-53zM573 922v512h54l190 -256l191 256h53v-512h-49v440l-195 -266l-196 266v-440h-48z" />
    <glyph glyph-name="uni2126" unicode="&#x2126;" horiz-adv-x="1591" 
d="M121 0v84h403q-368 240 -368 680q0 309 177 498.5t462 189.5q189 0 334.5 -85t226 -242t80.5 -361q0 -217 -94 -389t-275 -291h406v-84h-541v72q403 251 403 686q0 275 -148.5 442.5t-391.5 167.5q-242 0 -390.5 -167.5t-148.5 -442.5q0 -437 406 -686v-72h-541z" />
    <glyph glyph-name="estimated" unicode="&#x212e;" horiz-adv-x="1966" 
d="M983 -18q-160 0 -305.5 57t-250.5 153.5t-167.5 230t-62.5 279.5t62.5 279.5t167.5 230t250.5 154t305.5 57.5t305.5 -57.5t250.5 -154t167.5 -230t62.5 -279.5q0 -22 -2 -32h-1275v-402q91 -104 218 -162.5t273 -58.5q147 0 276.5 60.5t221.5 168.5h135
q-109 -136 -275.5 -215t-357.5 -79zM492 735h983v402q-93 103 -221 162t-271 59q-145 0 -272.5 -59t-218.5 -162v-402z" />
    <glyph glyph-name="arrowleft" unicode="&#x2190;" horiz-adv-x="1966" 
d="M707 -51l-641 641l641 641l65 -66l-539 -528h1668v-94h-1668l539 -529z" />
    <glyph glyph-name="arrowup" unicode="&#x2191;" horiz-adv-x="1966" 
d="M936 -328v1665l-528 -536l-66 65l641 641l641 -641l-65 -65l-529 536v-1665h-94z" />
    <glyph glyph-name="arrowright" unicode="&#x2192;" horiz-adv-x="1966" 
d="M1260 -51l-66 65l537 529h-1665v94h1665l-537 528l66 66l641 -641z" />
    <glyph glyph-name="arrowdown" unicode="&#x2193;" horiz-adv-x="1966" 
d="M983 -328l-641 641l66 66l528 -537v1665h94v-1665l529 537l65 -66z" />
    <glyph glyph-name="uni2196" unicode="&#x2196;" horiz-adv-x="1966" 
d="M1597 -92l-1175 1177l6 -753l-94 2v905h905l2 -94l-754 6l1178 -1176z" />
    <glyph glyph-name="uni2197" unicode="&#x2197;" horiz-adv-x="1966" 
d="M369 -92l-68 67l1180 1178l-756 -8l2 94h905v-905l-94 -2l8 755z" />
    <glyph glyph-name="uni2198" unicode="&#x2198;" horiz-adv-x="1966" 
d="M727 -59l-2 94l756 -8l-1180 1177l68 68l1177 -1180l-8 756l94 -2v-905h-905z" />
    <glyph glyph-name="uni2199" unicode="&#x2199;" horiz-adv-x="1966" 
d="M334 -59v905l94 2l-8 -756l1177 1180l68 -68l-1180 -1177l756 8l-2 -94h-905z" />
    <glyph glyph-name="partialdiff" unicode="&#x2202;" horiz-adv-x="1171" 
d="M535 1452q253 0 384.5 -200.5t131.5 -628.5q0 -295 -130 -468t-348 -173q-207 0 -338 148t-131 380q0 214 128 350.5t325 136.5q123 0 223.5 -44.5t163.5 -131.5q-17 263 -123.5 401t-290.5 138q-136 0 -290 -74l-35 82q164 84 330 84zM575 68q166 0 271.5 137t105.5 354
q0 151 -106 250.5t-271 99.5q-167 0 -271.5 -111.5t-104.5 -293.5q0 -191 105.5 -313.5t270.5 -122.5z" />
    <glyph glyph-name="uni2206" unicode="&#x2206;" horiz-adv-x="1382" 
d="M76 0v59l567 1375h96l570 -1375v-59h-1233zM184 84h1014l-506 1227z" />
    <glyph glyph-name="product" unicode="&#x220f;" horiz-adv-x="1591" 
d="M223 -426v1860h1143v-1860h-100v1776h-940v-1776h-103z" />
    <glyph glyph-name="summation" unicode="&#x2211;" horiz-adv-x="1284" 
d="M100 -430v65l695 885l-662 848v66h1061v-84h-926l625 -803v-55l-657 -838h991v-84h-1127z" />
    <glyph glyph-name="minus" unicode="&#x2212;" horiz-adv-x="1179" 
d="M121 547v86h938v-86h-938z" />
    <glyph glyph-name="uni2215" unicode="&#x2215;" horiz-adv-x="393" 
d="M-291 -20l-57 40l1032 1377l57 -41z" />
    <glyph glyph-name="radical" unicode="&#x221a;" horiz-adv-x="1335" 
d="M635 -430l-252 735l-348 -110l-25 81l430 138l242 -721l514 1757l84 -23l-543 -1857h-102z" />
    <glyph glyph-name="infinity" unicode="&#x221e;" horiz-adv-x="1591" 
d="M418 213q-149 0 -239.5 105.5t-90.5 271.5q0 165 90.5 271t239.5 106q120 0 205.5 -71.5t171.5 -231.5q86 160 172 231.5t204 71.5q150 0 242 -105.5t92 -271.5q0 -165 -92.5 -271t-241.5 -106q-118 0 -204 71.5t-172 231.5q-86 -160 -171.5 -231.5t-205.5 -71.5z
M428 299q98 0 171 68.5t151 222.5q-78 154 -151 222.5t-171 68.5q-113 0 -181.5 -81.5t-68.5 -209.5q0 -129 68.5 -210t181.5 -81zM1161 299q114 0 182 81.5t68 209.5q0 129 -68 210t-182 81q-98 0 -170.5 -68.5t-148.5 -222.5q76 -154 148.5 -222.5t170.5 -68.5z" />
    <glyph glyph-name="integral" unicode="&#x222b;" horiz-adv-x="804" 
d="M338 -449q-68 0 -148 25l27 82q50 -23 109 -23q75 0 124.5 66t49.5 168q0 99 -30.5 231t-73.5 262t-86.5 261t-74 266.5t-30.5 240.5q0 141 73 231.5t187 90.5q70 0 147 -25l-22 -81q-54 22 -111 22q-77 0 -125.5 -65t-48.5 -168q0 -99 30 -231t73.5 -262.5t86.5 -261.5
t73 -266.5t30 -240.5q0 -141 -72.5 -231.5t-187.5 -90.5z" />
    <glyph glyph-name="approxequal" unicode="&#x2248;" horiz-adv-x="1179" 
d="M793 707q-71 0 -140 24.5t-135 49t-131 24.5q-124 0 -231 -94l-50 71q124 109 281 109q71 0 140 -24.5t135 -49t131 -24.5q125 0 231 90l49 -70q-121 -106 -280 -106zM793 289q-71 0 -140 24.5t-135 49t-131 24.5q-121 0 -231 -90l-50 70q121 106 281 106q71 0 140 -24.5
t135 -49t131 -24.5q124 0 231 94l49 -72q-123 -108 -280 -108z" />
    <glyph glyph-name="notequal" unicode="&#x2260;" horiz-adv-x="1179" 
d="M1059 756h-338l-164 -332h502v-86h-545l-154 -311l-77 39l135 272h-297v86h338l164 332h-502v86h545l153 311l78 -39l-135 -272h297v-86z" />
    <glyph glyph-name="lessequal" unicode="&#x2264;" horiz-adv-x="1179" 
d="M1034 260l-913 426v86l913 426l35 -82l-833 -387l833 -387zM121 0v86h938v-86h-938z" />
    <glyph glyph-name="greaterequal" unicode="&#x2265;" horiz-adv-x="1179" 
d="M145 260l-34 82l833 387l-833 387l34 82l914 -426v-86zM121 0v86h938v-86h-938z" />
    <glyph glyph-name="dotmath" unicode="&#x22c5;" horiz-adv-x="483" 
d="M242 424q-35 0 -58.5 23.5t-23.5 58.5t23.5 58.5t58.5 23.5q36 0 59 -23t23 -59t-23 -59t-59 -23z" />
    <glyph glyph-name="lozenge" unicode="&#x25ca;" horiz-adv-x="1179" 
d="M547 0l-441 688l441 688h86l440 -688l-440 -688h-86zM590 90l379 598l-379 594l-379 -594z" />
    <glyph glyph-name="uniF8FF" unicode="&#xf8ff;" horiz-adv-x="1198" 
d="M260 1217q-26 0 -43.5 17.5t-17.5 45.5q0 26 17.5 43.5t43.5 17.5q28 0 46 -17.5t18 -43.5q0 -28 -18 -45.5t-46 -17.5zM395 1217q-26 0 -43.5 17.5t-17.5 45.5q0 26 17.5 43.5t43.5 17.5q28 0 46 -17.5t18 -43.5q0 -28 -18 -45.5t-46 -17.5zM530 1217q-26 0 -43.5 17.5
t-17.5 45.5q0 26 17.5 43.5t43.5 17.5q28 0 46 -17.5t18 -43.5q0 -28 -18 -45.5t-46 -17.5zM666 1217q-26 0 -44 17.5t-18 45.5q0 26 18 43.5t44 17.5q28 0 45.5 -17.5t17.5 -43.5q0 -28 -17.5 -45.5t-45.5 -17.5zM801 1217q-27 0 -44.5 17.5t-17.5 45.5q0 26 18 43.5
t44 17.5q28 0 45.5 -17.5t17.5 -43.5q0 -28 -17.5 -45.5t-45.5 -17.5zM936 1217q-26 0 -44 17.5t-18 45.5q0 26 18 43.5t44 17.5q28 0 45.5 -17.5t17.5 -43.5q0 -28 -17.5 -45.5t-45.5 -17.5zM260 1081q-26 0 -43.5 18t-17.5 46q0 26 17.5 43.5t43.5 17.5q28 0 46 -17.5
t18 -43.5q0 -28 -18 -46t-46 -18zM260 946q-26 0 -43.5 18t-17.5 46q0 26 17.5 43.5t43.5 17.5q28 0 46 -17.5t18 -43.5q0 -28 -18 -46t-46 -18zM530 946q-26 0 -43.5 18t-17.5 46q0 26 17.5 43.5t43.5 17.5q28 0 46 -17.5t18 -43.5q0 -28 -18 -46t-46 -18zM666 946
q-26 0 -44 18t-18 46q0 26 18 43.5t44 17.5q28 0 45.5 -17.5t17.5 -43.5q0 -28 -17.5 -46t-45.5 -18zM801 946q-26 0 -44 18t-18 46q0 26 18 43.5t44 17.5q28 0 45.5 -17.5t17.5 -43.5q0 -28 -17.5 -46t-45.5 -18zM936 946q-26 0 -44 18t-18 46q0 26 18 43.5t44 17.5
q28 0 45.5 -17.5t17.5 -43.5q0 -28 -17.5 -46t-45.5 -18zM260 811q-26 0 -43.5 17.5t-17.5 45.5q0 26 17.5 44t43.5 18q28 0 46 -18t18 -44q0 -28 -18 -45.5t-46 -17.5zM530 811q-26 0 -43.5 17.5t-17.5 45.5q0 26 17.5 44t43.5 18q28 0 46 -18t18 -44q0 -28 -18 -45.5
t-46 -17.5zM260 676q-26 0 -43.5 17.5t-17.5 45.5q0 26 17.5 44t43.5 18q28 0 46 -18t18 -44q0 -28 -18 -45.5t-46 -17.5zM530 676q-26 0 -43.5 17.5t-17.5 45.5q0 26 17.5 44t43.5 18q28 0 46 -18t18 -44q0 -28 -18 -45.5t-46 -17.5zM666 676q-26 0 -44 18t-18 45
q0 26 18 44t44 18q28 0 45.5 -17.5t17.5 -44.5q0 -28 -17.5 -45.5t-45.5 -17.5zM801 676q-27 0 -44.5 18t-17.5 45q0 26 18 44t44 18q27 0 45 -17.5t18 -44.5q0 -28 -17.5 -45.5t-45.5 -17.5zM936 676q-26 0 -44 18t-18 45q0 26 18 44t44 18q28 0 45.5 -17.5t17.5 -44.5
q0 -28 -17.5 -45.5t-45.5 -17.5zM260 541q-26 0 -43.5 17.5t-17.5 45.5q0 26 17.5 44t43.5 18q28 0 46 -18t18 -44q0 -28 -18 -45.5t-46 -17.5zM936 541q-26 0 -44 17.5t-18 45.5q0 26 18 44t44 18q28 0 45.5 -18t17.5 -44q0 -28 -17.5 -45.5t-45.5 -17.5zM260 406
q-26 0 -43.5 17.5t-17.5 45.5q0 26 17.5 43.5t43.5 17.5q28 0 46 -17.5t18 -43.5q0 -28 -18 -45.5t-46 -17.5zM530 406q-26 0 -43.5 17.5t-17.5 45.5q0 26 17.5 43.5t43.5 17.5q28 0 46 -17.5t18 -43.5q0 -28 -18 -45.5t-46 -17.5zM666 406q-26 0 -44 18t-18 45
q0 26 18 43.5t44 17.5q28 0 45.5 -17.5t17.5 -43.5q0 -28 -17.5 -45.5t-45.5 -17.5zM801 406q-27 0 -44.5 18t-17.5 45q0 26 18 43.5t44 17.5q28 0 45.5 -17.5t17.5 -43.5q0 -28 -17.5 -45.5t-45.5 -17.5zM936 406q-26 0 -44 18t-18 45q0 26 18 43.5t44 17.5
q28 0 45.5 -17.5t17.5 -43.5q0 -28 -17.5 -45.5t-45.5 -17.5zM260 270q-26 0 -43.5 18t-17.5 46q0 26 17.5 43.5t43.5 17.5q28 0 46 -17.5t18 -43.5q0 -28 -18 -46t-46 -18zM260 135q-26 0 -43.5 18t-17.5 46q0 26 17.5 43.5t43.5 17.5q28 0 46 -17.5t18 -43.5
q0 -28 -18 -46t-46 -18zM530 135q-26 0 -43.5 18t-17.5 46q0 26 17.5 43.5t43.5 17.5q28 0 46 -17.5t18 -43.5q0 -28 -18 -46t-46 -18zM260 0q-26 0 -43.5 17.5t-17.5 45.5q0 26 17.5 44t43.5 18q28 0 46 -18t18 -44q0 -28 -18 -45.5t-46 -17.5zM395 0q-26 0 -43.5 17.5
t-17.5 45.5q0 26 17.5 44t43.5 18q28 0 46 -18t18 -44q0 -28 -18 -45.5t-46 -17.5zM530 0q-26 0 -43.5 17.5t-17.5 45.5q0 26 17.5 44t43.5 18q28 0 46 -18t18 -44q0 -28 -18 -45.5t-46 -17.5z" />
    <glyph glyph-name="Iacute_J.loclNLD" horiz-adv-x="1386" 
d="M182 1565l-41 55l330 227l47 -69zM1047 1565l-41 55l329 227l47 -69zM195 0v1434h100v-1434h-100zM801 -25q-118 0 -252 35l16 82q118 -31 219 -31q129 0 204 68t75 213v1092h100v-1100q0 -179 -97.5 -269t-264.5 -90z" />
    <glyph glyph-name="Cacute.loclPLK" horiz-adv-x="1429" 
d="M825 1542l-69 25l112 311l80 -31zM844 -18q-214 0 -382.5 96.5t-260.5 265t-92 377.5q0 208 92 374.5t258.5 261.5t378.5 95q261 0 477 -145l-45 -82q-90 66 -201.5 101.5t-222.5 35.5q-185 0 -330.5 -83.5t-225 -229.5t-79.5 -328q0 -110 29.5 -209t86 -179t134 -138.5
t178 -90.5t213.5 -32q109 0 220.5 35.5t201.5 99.5l45 -80q-213 -145 -475 -145z" />
    <glyph glyph-name="Nacute.loclPLK" horiz-adv-x="1509" 
d="M852 1847l-123 -305l-70 25l113 311zM1219 1434h96v-1434h-103l-921 1284v-1284h-96v1434h102l922 -1282v1282z" />
    <glyph glyph-name="Oacute.loclPLK" horiz-adv-x="1665" 
d="M813 1542l-70 25l113 311l80 -31zM834 -18q-205 0 -371 95t-260 263.5t-94 376.5t94 376.5t260 263.5t371 95q204 0 370 -95t260.5 -263.5t94.5 -376.5t-94.5 -376.5t-260.5 -263.5t-370 -95zM834 72q131 0 246.5 49.5t198 134.5t130 205t47.5 256t-47.5 256t-130 205
t-198 134.5t-246.5 49.5t-247 -49t-198.5 -134.5t-130 -205.5t-47.5 -256t47.5 -256t130 -205.5t198.5 -134.5t247 -49z" />
    <glyph glyph-name="Sacute.loclPLK" horiz-adv-x="1173" 
d="M567 1542l-69 25l112 311l80 -31zM588 -18q-267 0 -471 108l26 86q200 -104 439 -104q172 0 274 77.5t102 212.5q0 71 -28.5 124t-76.5 85.5t-110 57t-130.5 43.5t-137.5 39.5t-131 51t-110 72t-76.5 108t-28.5 153.5q0 158 128 257t335 99q117 0 217 -21.5t203 -84.5
l-27 -86q-164 104 -389 104q-165 0 -267 -73.5t-102 -192.5q0 -73 28.5 -127t76.5 -87.5t110 -58t131 -44t138 -39.5t131 -50t110 -70t76.5 -105.5t28.5 -151.5q0 -176 -128.5 -279.5t-340.5 -103.5z" />
    <glyph glyph-name="Zacute.loclPLK" horiz-adv-x="1271" 
d="M739 1847l-123 -305l-69 25l112 311zM258 90h897v-90h-1038v61l893 1282h-850v91h989v-64z" />
    <glyph glyph-name="i.loclTRK" horiz-adv-x="456" 
d="M227 1260q-34 0 -54.5 19.5t-20.5 53.5t20.5 55t54.5 21t55 -21t21 -55q0 -33 -21 -53t-55 -20zM178 0v1008h98v-1008h-98z" />
    <glyph glyph-name="germandbls.calt" horiz-adv-x="1404" 
d="M864 801q192 -12 309 -122t117 -284q0 -180 -125.5 -296.5t-320.5 -116.5q-236 0 -387 108l41 84q136 -104 338 -104q157 0 255.5 90t98.5 235q0 149 -107 239.5t-280 90.5h-41l-17 55l406 563h-858v-1343h-98v1434h1081v-64z" />
    <glyph glyph-name="iacute_j.loclNLD" horiz-adv-x="929" 
d="M162 1182l-41 55l330 227l47 -67zM627 1180l-41 55l329 227l48 -67zM178 0v1008h98v-1008h-98zM496 -449q-128 0 -213 66l28 78q72 -62 166 -62q75 0 124.5 52t49.5 125v1198h99v-1205q0 -107 -71.5 -179.5t-182.5 -72.5z" />
    <glyph glyph-name="cacute.loclPLK" horiz-adv-x="1015" 
d="M582 1157l-70 25l113 313l80 -31zM580 -18q-217 0 -354.5 145.5t-137.5 372.5q0 230 138.5 378t355.5 148q189 0 329 -129l-47 -76q-124 115 -278 115q-172 0 -285 -121.5t-113 -312.5t112.5 -310.5t287.5 -119.5q146 0 276 106l47 -74q-150 -122 -331 -122z" />
    <glyph glyph-name="nacute.loclPLK" horiz-adv-x="1165" 
d="M717 1464l-123 -307l-70 25l113 313zM612 1026q174 0 283 -115.5t109 -300.5v-610h-99v594q0 159 -84.5 252.5t-226.5 93.5q-141 0 -232.5 -108t-91.5 -271v-561h-98v1006h80l12 -189q53 98 141.5 153.5t206.5 55.5z" />
    <glyph glyph-name="oacute.loclPLK" horiz-adv-x="1140" 
d="M584 1145l-70 24l113 314l80 -31zM571 -18q-207 0 -344 146.5t-137 369.5t137 369.5t344 146.5q206 0 343 -147t137 -369t-137 -369t-343 -147zM571 72q163 0 272 121.5t109 304.5t-109 304.5t-272 121.5q-164 0 -273.5 -121.5t-109.5 -304.5t109.5 -304.5t273.5 -121.5z
" />
    <glyph glyph-name="sacute.loclPLK" horiz-adv-x="903" 
d="M465 1157l-70 25l113 313l80 -31zM451 -18q-203 0 -347 112l27 76q134 -109 313 -109q118 0 188 58t70 160q0 64 -32 105t-83 60t-112.5 31t-123.5 27t-113 38.5t-83 73.5t-32 125q0 134 103 210.5t255 76.5q165 0 303 -106l-30 -74q-125 102 -265 102q-116 0 -193 -54
t-77 -153q0 -58 32 -94.5t83.5 -53t113.5 -27.5t124 -27t113.5 -42t83.5 -81t32 -137q0 -136 -96 -216.5t-254 -80.5z" />
    <glyph glyph-name="zacute.loclPLK" horiz-adv-x="968" 
d="M621 1464l-123 -307l-70 25l113 313zM233 80h629v-80h-756v59l613 867h-594v82h723v-60z" />
    <glyph glyph-name="zero.tf" horiz-adv-x="1153" 
d="M578 -18q-230 0 -373.5 204t-143.5 531t143.5 531t373.5 204q150 0 267 -92.5t182 -260t65 -382.5t-65 -382.5t-182 -260t-267 -92.5zM578 72q183 0 297 179t114 466t-114 466t-297 179q-123 0 -217 -81t-145.5 -227.5t-51.5 -336.5t51.5 -336.5t145.5 -227.5t217 -81z
" />
    <glyph glyph-name="one.tf" horiz-adv-x="1153" 
d="M645 1434h86v-1434h-100v1323l-377 -219l-45 78z" />
    <glyph glyph-name="two.tf" horiz-adv-x="1153" 
d="M211 90h754v-90h-863q0 61 14.5 118.5t34.5 102.5t58 93t69.5 81t84.5 75.5t86 66.5t92 65q70 49 121 92t99.5 99t73.5 120t25 134q0 142 -91.5 228.5t-240.5 86.5q-202 0 -358 -141l-41 75q169 156 414 156q185 0 299 -110.5t114 -282.5q0 -85 -28 -161t-82 -140.5
t-109.5 -113.5t-132.5 -103q-67 -47 -108.5 -78.5t-96.5 -79.5t-88.5 -89.5t-61.5 -95t-38 -108.5z" />
    <glyph glyph-name="three.tf" horiz-adv-x="1153" 
d="M666 735q137 -38 216 -132.5t79 -233.5q0 -178 -120.5 -282.5t-334.5 -104.5q-235 0 -408 122l37 82q153 -114 357 -114q168 0 266 82.5t98 224.5q0 138 -109.5 224.5t-289.5 86.5h-74v84h74q170 0 278.5 86t108.5 223q0 118 -89.5 198.5t-252.5 80.5q-175 0 -320 -96
l-35 82q157 104 377 104q198 0 309 -102t111 -254q0 -128 -77 -226t-201 -135z" />
    <glyph glyph-name="four.tf" horiz-adv-x="1153" 
d="M1104 481v-90h-270v-391h-101v391h-688v80l688 963h101v-953h270zM739 1298l-585 -821h585v821z" />
    <glyph glyph-name="five.tf" horiz-adv-x="1153" 
d="M561 879q200 0 316 -122t116 -321q0 -213 -128 -333.5t-351 -120.5q-236 0 -412 120l37 84q156 -114 363 -114q176 0 284.5 96.5t108.5 271.5q0 163 -94 259t-260 96q-167 0 -267 -76l-88 33l56 682h731v-91h-641l-43 -526q113 62 272 62z" />
    <glyph glyph-name="six.tf" horiz-adv-x="1153" 
d="M582 874q194 0 313 -122t119 -318q0 -193 -125.5 -322.5t-310.5 -129.5q-234 0 -361 164t-127 468q0 838 537 838q185 0 329 -115l-43 -73q-69 55 -132 77.5t-150 22.5q-455 0 -445 -723q44 106 152.5 169.5t243.5 63.5zM573 70q144 0 242 104.5t98 255.5
q0 159 -94 256.5t-250 97.5q-153 0 -257.5 -93.5t-104.5 -227.5q0 -171 102 -282t264 -111z" />
    <glyph glyph-name="seven.tf" horiz-adv-x="1153" 
d="M74 1434h835v-66l-592 -1368h-104l586 1343h-725v91z" />
    <glyph glyph-name="eight.tf" horiz-adv-x="1153" 
d="M778 768q129 -38 203 -139t74 -236q0 -182 -127.5 -296.5t-331.5 -114.5q-205 0 -333 114.5t-128 296.5q0 134 74.5 234.5t202.5 140.5q-109 35 -172.5 121.5t-63.5 202.5q0 159 116.5 259.5t303.5 100.5t302.5 -100.5t115.5 -259.5q0 -115 -63 -201t-173 -123zM272 1087
q0 -123 90 -200.5t234 -77.5q142 0 232 77.5t90 200.5q0 124 -89.5 202.5t-232.5 78.5q-144 0 -234 -78t-90 -203zM596 66q160 0 260 91.5t100 237.5t-100 238t-260 92q-162 0 -262.5 -91.5t-100.5 -238.5t100.5 -238t262.5 -91z" />
    <glyph glyph-name="nine.tf" horiz-adv-x="1153" 
d="M555 1450q233 0 360 -164.5t127 -468.5q0 -837 -536 -837q-188 0 -330 114l43 74q69 -55 132.5 -77.5t150.5 -22.5q454 0 444 723q-44 -107 -152.5 -170.5t-242.5 -63.5q-193 0 -312.5 122.5t-119.5 319.5q0 192 125.5 321.5t310.5 129.5zM565 647q153 0 257 94t104 228
q0 171 -102.5 282t-264.5 111q-144 0 -242 -104t-98 -257q0 -159 94.5 -256.5t251.5 -97.5z" />
    <glyph glyph-name="exclamdown.case" horiz-adv-x="516" 
d="M258 1452q36 0 59 -23t23 -59q0 -35 -23.5 -58.5t-58.5 -23.5q-36 0 -59 23t-23 59q0 37 22.5 59.5t59.5 22.5zM299 1022l8 -1022h-100l8 1022h84z" />
    <glyph glyph-name="questiondown.case" horiz-adv-x="927" 
d="M514 1452q36 0 59 -23t23 -59q0 -35 -23.5 -58.5t-58.5 -23.5q-36 0 -59 23t-23 59q0 37 22.5 59.5t59.5 22.5zM555 1022v-23q0 -55 -18.5 -105.5t-48 -91t-65 -80.5t-71 -80.5t-65 -82.5t-48 -96.5t-18.5 -114.5q0 -122 79.5 -200t215.5 -78q78 0 155 36.5t132 118.5
l51 -69q-67 -89 -160.5 -131.5t-195.5 -42.5q-93 0 -167 30.5t-119 81.5t-68 114t-23 132q0 92 36 171.5t87 137t102 110.5t87 114.5t36 127.5v21h86z" />
    <glyph glyph-name="periodcentered.case" horiz-adv-x="483" 
d="M242 621q-35 0 -58.5 23t-23.5 58t23.5 58.5t58.5 23.5q36 0 59 -23t23 -59t-23 -58.5t-59 -22.5z" />
    <glyph glyph-name="bullet.case" horiz-adv-x="983" 
d="M492 393q-123 0 -209 86t-86 209t86 209t209 86t208.5 -86t85.5 -209t-85.5 -209t-208.5 -86z" />
    <glyph glyph-name="parenleft.case" horiz-adv-x="673" 
d="M522 -199q-168 179 -256 406.5t-88 480.5q0 251 88 478.5t256 408.5l70 -51q-158 -169 -240 -384t-82 -452t82 -451t240 -384z" />
    <glyph glyph-name="parenright.case" horiz-adv-x="673" 
d="M150 -199l-70 52q159 168 240 382t81 453q0 240 -81 454t-240 382l70 51q168 -179 256 -406.5t88 -480.5q0 -251 -88 -478.5t-256 -408.5z" />
    <glyph glyph-name="braceleft.case" horiz-adv-x="673" 
d="M535 -170q-114 0 -190.5 77t-76.5 197q0 58 14.5 175t14.5 174q0 84 -51 139t-133 55h-33v82h33q81 0 132.5 55t51.5 140q0 54 -14.5 172t-14.5 176q0 120 76.5 197t190.5 77h53v-82h-33q-84 0 -138.5 -56.5t-54.5 -147.5q0 -52 14.5 -167.5t14.5 -174.5
q0 -81 -39.5 -143.5t-111.5 -86.5q72 -24 111.5 -86t39.5 -143q0 -57 -14.5 -172.5t-14.5 -169.5q0 -91 54.5 -148t138.5 -57h33v-82h-53z" />
    <glyph glyph-name="braceright.case" horiz-adv-x="673" 
d="M88 -170v82h33q83 0 136.5 57t53.5 148q0 52 -13 167.5t-13 174.5q0 82 38.5 143.5t110.5 85.5q-72 24 -110.5 86t-38.5 144q0 57 13 172.5t13 169.5q0 91 -53.5 147.5t-136.5 56.5h-33v82h49q116 0 191 -76.5t75 -197.5q0 -58 -14 -174t-14 -174q0 -84 51.5 -139.5
t132.5 -55.5h33v-82h-33q-80 0 -132 -54.5t-52 -139.5q0 -54 14 -172.5t14 -176.5q0 -121 -75 -197.5t-191 -76.5h-49z" />
    <glyph glyph-name="bracketleft.case" horiz-adv-x="673" 
d="M238 -170v1716h350v-82h-258v-1552h258v-82h-350z" />
    <glyph glyph-name="bracketright.case" horiz-adv-x="673" 
d="M88 -170v82h254v1552h-254v82h346v-1716h-346z" />
    <glyph glyph-name="hyphen.case" horiz-adv-x="655" 
d="M59 664v81h537v-81h-537z" />
    <glyph glyph-name="uni00AD.case" horiz-adv-x="655" 
d="M59 664v81h537v-81h-537z" />
    <glyph glyph-name="endash.case" horiz-adv-x="983" 
d="M59 664v81h865v-81h-865z" />
    <glyph glyph-name="emdash.case" horiz-adv-x="1966" 
d="M59 664v81h1848v-81h-1848z" />
    <glyph glyph-name="guillemotleft.case" horiz-adv-x="1042" 
d="M467 195l-404 448v49l404 449l59 -49l-364 -424l364 -424zM895 195l-403 448v49l403 449l59 -49l-364 -424l364 -424z" />
    <glyph glyph-name="guillemotright.case" horiz-adv-x="1042" 
d="M145 195l-57 49l365 424l-365 424l57 49l406 -449v-49zM575 195l-59 49l365 424l-365 424l59 49l404 -449v-49z" />
    <glyph glyph-name="guilsinglleft.case" horiz-adv-x="614" 
d="M467 195l-404 448v49l404 449l59 -49l-364 -424l364 -424z" />
    <glyph glyph-name="guilsinglright.case" horiz-adv-x="614" 
d="M145 195l-57 49l365 422l-365 426l57 49l406 -449v-49z" />
    <glyph glyph-name="arrowup.case" horiz-adv-x="1966" 
d="M936 -229v1665l-528 -537l-66 66l641 641l641 -641l-65 -66l-529 537v-1665h-94z" />
    <glyph glyph-name="uni2197.case" horiz-adv-x="1966" 
d="M369 6l-68 68l1180 1177l-756 -8l2 94h905v-905l-94 -2l8 756z" />
    <glyph glyph-name="arrowright.case" horiz-adv-x="1966" 
d="M1260 47l-66 66l537 528h-1665v94h1665l-537 529l66 65l641 -641z" />
    <glyph glyph-name="uni2198.case" horiz-adv-x="1966" 
d="M727 39l-2 94l756 -8l-1180 1178l68 67l1177 -1180l-8 756l94 -2v-905h-905z" />
    <glyph glyph-name="arrowdown.case" horiz-adv-x="1966" 
d="M983 -229l-641 641l66 65l528 -536v1665h94v-1665l529 536l65 -65z" />
    <glyph glyph-name="uni2199.case" horiz-adv-x="1966" 
d="M334 39v905l94 2l-8 -756l1177 1180l68 -67l-1180 -1178l756 8l-2 -94h-905z" />
    <glyph glyph-name="arrowleft.case" horiz-adv-x="1966" 
d="M707 47l-641 641l641 641l65 -65l-539 -529h1668v-94h-1668l539 -528z" />
    <glyph glyph-name="uni2196.case" horiz-adv-x="1966" 
d="M1597 6l-1175 1178l6 -754l-94 2v905h905l2 -94l-754 6l1178 -1175z" />
    <glyph glyph-name="uni0308.case" 
d="M-451 1626q-32 0 -51.5 20t-19.5 52q0 33 19.5 53.5t51.5 20.5t52 -21t20 -53t-20 -52t-52 -20zM-41 1626q-32 0 -52 20t-20 52t20 53t52 21t52 -21t20 -53t-20 -52t-52 -20z" />
    <glyph glyph-name="uni0307.case" 
d="M-246 1624q-34 0 -55 20t-21 54q0 33 21.5 54.5t54.5 21.5t54.5 -21.5t21.5 -54.5q0 -34 -21 -54t-55 -20z" />
    <glyph glyph-name="gravecomb.case" 
d="M-174 1546l-336 213l47 70l330 -227z" />
    <glyph glyph-name="acutecomb.case" 
d="M-311 1546l-41 56l329 227l48 -70z" />
    <glyph glyph-name="uni030B.case" 
d="M-455 1534l-51 53l283 291l59 -59zM-92 1534l-49 53l280 291l60 -59z" />
    <glyph glyph-name="uni0302.case" 
d="M-481 1548l-49 51l249 242h68l250 -242l-47 -51l-236 219z" />
    <glyph glyph-name="uni030C.case" 
d="M-281 1554l-249 244l49 47l235 -215l236 215l47 -47l-250 -244h-68z" />
    <glyph glyph-name="uni0306.case" 
d="M-246 1538q-119 0 -198.5 75t-85.5 195h71q6 -86 65 -140t148 -54q88 0 147.5 54t63.5 140h72q-6 -119 -85.5 -194.5t-197.5 -75.5z" />
    <glyph glyph-name="uni030A.case" 
d="M-242 1509q-86 0 -140 53t-54 136q0 85 52 136.5t138 51.5t138.5 -51.5t52.5 -136.5q0 -84 -51.5 -136.5t-135.5 -52.5zM-242 1565q58 0 93.5 36.5t35.5 96.5q0 59 -37 95t-96 36q-60 0 -96.5 -35.5t-36.5 -95.5t38.5 -96.5t98.5 -36.5z" />
    <glyph glyph-name="tildecomb.case" 
d="M-465 1622l-67 20q15 60 57 97t98 37q46 0 134.5 -40t121.5 -40q32 0 57 21t37 59l68 -25q-15 -58 -57.5 -93.5t-98.5 -35.5q-46 0 -134.5 40t-121.5 40q-32 0 -57 -21.5t-37 -58.5z" />
    <glyph glyph-name="uni0304.case" 
d="M-535 1661v74h578v-74h-578z" />
    <glyph glyph-name="acute.case" horiz-adv-x="552" 
d="M129 1546l-41 56l330 227l47 -70z" />
    <glyph glyph-name="breve.case" horiz-adv-x="745" 
d="M373 1538q-118 0 -198.5 75.5t-86.5 194.5h74q4 -86 63.5 -140t147.5 -54t147.5 54t63.5 140h73q-6 -119 -86 -194.5t-198 -75.5z" />
    <glyph glyph-name="caron.case" horiz-adv-x="745" 
d="M338 1554l-250 244l49 47l236 -215l235 215l49 -47l-249 -244h-70z" />
    <glyph glyph-name="circumflex.case" horiz-adv-x="745" 
d="M137 1548l-49 51l250 242h70l249 -242l-49 -51l-235 219z" />
    <glyph glyph-name="dieresis.case" horiz-adv-x="733" 
d="M162 1626q-32 0 -53 20t-21 52t21 53t53 21t51.5 -20.5t19.5 -53.5q0 -32 -19.5 -52t-51.5 -20zM571 1626q-32 0 -51.5 20t-19.5 52q0 33 19.5 53.5t51.5 20.5t52 -21t20 -53t-20 -52t-52 -20z" />
    <glyph glyph-name="dotaccent.case" horiz-adv-x="329" 
d="M166 1624q-34 0 -56 20.5t-22 53.5q0 32 22 54t56 22q32 0 54 -22t22 -54q0 -33 -21.5 -53.5t-54.5 -20.5z" />
    <glyph glyph-name="grave.case" horiz-adv-x="552" 
d="M424 1546l-336 213l49 70l328 -227z" />
    <glyph glyph-name="hungarumlaut.case" horiz-adv-x="882" 
d="M141 1534l-53 53l285 291l59 -59zM504 1534l-51 53l282 291l60 -59z" />
    <glyph glyph-name="macron.case" horiz-adv-x="757" 
d="M88 1661v74h580v-74h-580z" />
    <glyph glyph-name="ring.case" horiz-adv-x="561" 
d="M285 1509q-86 0 -141.5 53t-55.5 136q0 85 53.5 136.5t139.5 51.5q85 0 137.5 -51.5t52.5 -136.5q0 -84 -51 -136.5t-135 -52.5zM285 1565q57 0 92 36.5t35 96.5t-36 95.5t-95 35.5q-60 0 -97 -35.5t-37 -95.5q0 -59 38.5 -96t99.5 -37z" />
    <glyph glyph-name="tilde.case" horiz-adv-x="749" 
d="M158 1622l-70 20q15 60 57.5 97t98.5 37q46 0 134.5 -40t121.5 -40q32 0 57 21t37 59l68 -25q-15 -58 -57.5 -93.5t-98.5 -35.5q-46 0 -134.5 40t-121.5 40q-32 0 -56.5 -21.5t-35.5 -58.5z" />
    <glyph glyph-name="acutecomb.loclPLK" 
d="M-266 1137l-70 24l113 314l80 -31z" />
    <glyph glyph-name="acutecomb.case.loclPLK" 
d="M-266 1524l-70 24l113 312l80 -31z" />
    </font>
</defs>
</svg>
