<?xml version="1.0" standalone="no"?>
<!DOCTYPE svg PUBLIC "-//W3C//DTD SVG 1.1//EN" "http://www.w3.org/Graphics/SVG/1.1/DTD/svg11.dtd" >
<svg xmlns="http://www.w3.org/2000/svg" xmlns:xlink="http://www.w3.org/1999/xlink" version="1.1">
<metadata>
Created by FontForge 20170731 at Mon Nov  2 19:35:56 2020
 By Aleksey,,,
Copyright (c) 2020 by Fontsmith Ltd. All rights reserved. This font may not be altered in any way without prior permission of Fontsmith Ltd.
</metadata>
<defs>
<font id="CognizantSans-Regular" horiz-adv-x="0" >
  <font-face 
    font-family="Cognizant Sans"
    font-weight="400"
    font-stretch="normal"
    units-per-em="2048"
    panose-1="2 1 5 3 3 2 2 2 2 4"
    ascent="1526"
    descent="-522"
    x-height="1010"
    cap-height="1434"
    bbox="-555 -582 2546 1946"
    underline-thickness="122"
    underline-position="-327"
    unicode-range="U+000D-FB03"
  />
<missing-glyph horiz-adv-x="1071" 
d="M47 0v1376h975v-1376h-975zM535 778l331 500h-663zM145 188l332 500l-332 500v-1000zM924 188v1000l-332 -500zM203 98h663l-331 500z" />
    <glyph glyph-name="f_f.liga" unicode="ff" horiz-adv-x="1259" 
d="M1128 1327q-69 0 -105 -46.5t-36 -127.5v-143h236v-123h-236v-887h-156v887h-460v-887h-156v887h-174v123h174v157q0 131 67 210t189 79q89 0 186 -47l-22 -115q-57 33 -123 33q-70 0 -105.5 -46t-35.5 -128v-143h460v157q0 131 67 210t189 79q93 0 187 -47l-21 -115
q-59 33 -125 33z" />
    <glyph glyph-name="fi" unicode="fi" horiz-adv-x="1112" 
d="M215 0v887h-174v123h174v98q0 156 101.5 252t261.5 96t307 -82l-35 -117q-116 70 -250 70q-101 0 -165 -61.5t-64 -163.5v-92h602v-1010h-156v887h-446v-887h-156z" />
    <glyph glyph-name="f_f_i.liga" unicode="ffi" horiz-adv-x="1730" 
d="M989 1010h602v-1010h-155v887h-447v-887h-155v887h-463v-887h-156v887h-174v123h174v157q0 131 67 210t189 79q89 0 186 -47l-22 -115q-57 33 -123 33q-70 0 -105.5 -46t-35.5 -128v-143h463v98q0 156 101.5 252t260.5 96q160 0 307 -82l-35 -117q-116 70 -249 70
q-101 0 -165.5 -61.5t-64.5 -163.5v-92z" />
    <glyph glyph-name="f_f_j.liga" unicode="ffj" horiz-adv-x="1730" 
d="M989 1010h602v-1188q0 -118 -78.5 -196.5t-201.5 -78.5q-128 0 -224 66l33 117q69 -54 156 -54q70 0 115 46t45 114v1051h-447v-887h-155v887h-463v-887h-156v887h-174v123h174v157q0 131 67 210t189 79q89 0 186 -47l-22 -115q-57 33 -123 33q-70 0 -105.5 -46
t-35.5 -128v-143h463v98q0 156 101.5 252t260.5 96q160 0 307 -82l-35 -117q-116 70 -249 70q-101 0 -165.5 -61.5t-64.5 -163.5v-92z" />
    <glyph glyph-name="f_j.liga" unicode="fj" horiz-adv-x="1112" 
d="M973 1010v-1188q0 -118 -79 -196.5t-204 -78.5t-221 66l33 117q69 -54 155 -54q70 0 115 46t45 114v1051h-446v-887h-156v887h-174v123h174v98q0 156 101.5 252t261.5 96t307 -82l-35 -117q-116 70 -250 70q-101 0 -165 -61.5t-64 -163.5v-92h602z" />
    <glyph glyph-name=".notdef" horiz-adv-x="1071" 
d="M47 0v1376h975v-1376h-975zM535 778l331 500h-663zM145 188l332 500l-332 500v-1000zM924 188v1000l-332 -500zM203 98h663l-331 500z" />
    <glyph glyph-name=".null" 
 />
    <glyph glyph-name="nonmarkingreturn" horiz-adv-x="682" 
 />
    <glyph glyph-name="CR" unicode="&#xd;" horiz-adv-x="491" 
 />
    <glyph glyph-name="space" unicode=" " horiz-adv-x="491" 
 />
    <glyph glyph-name="exclam" unicode="!" horiz-adv-x="536" 
d="M205 426l-15 1008h158l-14 -1008h-129zM268 -23q-47 0 -78.5 32t-31.5 79q0 49 31 80t79 31q50 0 80.5 -30.5t30.5 -80.5q0 -48 -31 -79.5t-80 -31.5z" />
    <glyph glyph-name="quotedbl" unicode="&#x22;" horiz-adv-x="821" 
d="M160 983l-15 451h148l-14 -451h-119zM545 983l-15 451h146l-14 -451h-117z" />
    <glyph glyph-name="numbersign" unicode="#" horiz-adv-x="1333" 
d="M334 -14l-119 14l70 387h-252v123h278l74 391h-254v123h277l84 422l120 -14l-77 -408h387l84 422l118 -14l-77 -408h253v-123h-276l-76 -391h254v-123h-276l-78 -401l-119 14l72 387h-389zM434 510h389l76 391h-391z" />
    <glyph glyph-name="dollar" unicode="$" horiz-adv-x="1185" 
d="M1079 375q0 -165 -116 -270.5t-308 -120.5v-236h-133v236q-225 11 -418 106l41 133q179 -86 377 -100v543q-72 20 -121 38t-107.5 51t-93.5 72.5t-59 102t-24 141.5q0 152 110.5 253t294.5 118v237h133v-235q203 -7 379 -101l-41 -137q-156 90 -338 97v-519
q55 -16 90 -27t84.5 -31t81 -39.5t66.5 -51t55 -67t33.5 -85t13.5 -108.5zM274 1077q0 -54 18.5 -96t54.5 -72t76.5 -49.5t98.5 -38.5v477q-114 -15 -181 -74.5t-67 -146.5zM655 125q124 14 195.5 78.5t71.5 167.5q0 56 -20 98.5t-59.5 72t-82.5 49t-105 38.5v-504z" />
    <glyph glyph-name="percent" unicode="%" horiz-adv-x="1796" 
d="M444 719q-158 0 -258 102.5t-100 265.5q0 162 100 265.5t258 103.5q157 0 259 -104t102 -265q0 -162 -102 -265t-259 -103zM424 -20l-84 63l1032 1376l84 -63zM444 829q108 0 175 71t67 187q0 115 -67.5 187t-174.5 72q-106 0 -172.5 -72t-66.5 -187q0 -116 66.5 -187
t172.5 -71zM1352 -23q-158 0 -259.5 104t-101.5 265t101.5 265t259.5 104t258 -103.5t100 -265.5t-100 -265.5t-258 -103.5zM1352 88q106 0 172.5 71.5t66.5 186.5t-66.5 186.5t-172.5 71.5t-174 -71.5t-68 -186.5t68 -186.5t174 -71.5z" />
    <glyph glyph-name="ampersand" unicode="&#x26;" horiz-adv-x="1361" 
d="M1343 0h-196l-160 172q-87 -92 -196.5 -143.5t-229.5 -51.5q-209 0 -341 115t-132 289q0 251 318 416q-89 99 -133 177.5t-44 166.5q0 141 103.5 228t263.5 87q159 0 257.5 -85.5t98.5 -219.5q0 -105 -77.5 -194t-249.5 -183l348 -375q74 145 74 301h149
q-3 -221 -121 -411zM594 1327q-94 0 -154.5 -52t-60.5 -140q0 -66 34.5 -118.5t133.5 -156.5q132 75 195 141t63 140q0 81 -58 133.5t-153 52.5zM567 115q188 0 324 159l-399 431q-120 -69 -179 -144t-59 -168q0 -117 88.5 -197.5t224.5 -80.5z" />
    <glyph glyph-name="quotesingle" unicode="'" horiz-adv-x="438" 
d="M160 983l-15 451h148l-14 -451h-119z" />
    <glyph glyph-name="parenleft" unicode="(" horiz-adv-x="688" 
d="M514 -311q-171 183 -260.5 413.5t-89.5 487.5q0 256 89.5 486.5t260.5 414.5l109 -76q-156 -169 -236 -380t-80 -445q0 -233 80.5 -445t235.5 -381z" />
    <glyph glyph-name="parenright" unicode=")" horiz-adv-x="688" 
d="M176 -311l-110 75q156 168 235.5 380t79.5 446q0 235 -79.5 446t-235.5 379l110 76q170 -183 259 -413.5t89 -487.5q0 -255 -89 -486t-259 -415z" />
    <glyph glyph-name="asterisk" unicode="*" horiz-adv-x="1005" 
d="M303 649l-88 64l199 274l-324 109l35 102l321 -104v340h111v-340l324 104l34 -102l-325 -109l203 -274l-91 -64l-198 279z" />
    <glyph glyph-name="plus" unicode="+" horiz-adv-x="1179" 
d="M524 109v415h-415v131h415v416h131v-416h416v-131h-416v-415h-131z" />
    <glyph glyph-name="comma" unicode="," horiz-adv-x="503" 
d="M147 -303l-49 67q144 97 150 222q-44 -2 -75.5 28t-31.5 74q0 48 31 79.5t80 31.5q54 0 86.5 -42.5t32.5 -111.5q0 -102 -59 -193.5t-165 -154.5z" />
    <glyph glyph-name="hyphen" unicode="-" horiz-adv-x="655" 
d="M53 449v120h549v-120h-549z" />
    <glyph glyph-name="period" unicode="." horiz-adv-x="503" 
d="M252 -23q-47 0 -79 32t-32 79q0 49 31.5 80t79.5 31q49 0 79.5 -30.5t30.5 -80.5q0 -48 -30.5 -79.5t-79.5 -31.5z" />
    <glyph glyph-name="slash" unicode="/" horiz-adv-x="786" 
d="M147 -186l-127 41l619 1716l127 -41z" />
    <glyph glyph-name="zero" unicode="0" horiz-adv-x="1298" 
d="M651 -23q-158 0 -280.5 93t-190 261.5t-67.5 385.5t67.5 385t190 261t280.5 93q157 0 279 -93t190 -261.5t68 -384.5t-68 -385t-190 -262t-279 -93zM651 125q166 0 268.5 163.5t102.5 428.5t-102.5 428.5t-268.5 163.5q-167 0 -271 -163.5t-104 -428.5t104 -428.5
t271 -163.5z" />
    <glyph glyph-name="one" unicode="1" horiz-adv-x="888" 
d="M502 1434h137v-1434h-162v1257l-346 -198l-70 121z" />
    <glyph glyph-name="two" unicode="2" horiz-adv-x="1071" 
d="M250 141h704v-141h-888q0 66 14.5 127t35.5 109.5t58.5 98t70.5 84.5t84.5 77t86 67.5t90.5 63.5q65 44 111.5 84t89.5 90t65.5 108t22.5 121q0 129 -83 206t-216 77q-190 0 -342 -135l-64 114q99 92 202.5 128t231.5 36q189 0 306.5 -113t117.5 -288q0 -89 -27 -167.5
t-79 -143.5t-106 -113.5t-128 -100.5q-59 -41 -95 -68t-85 -69t-79.5 -77t-58 -81.5t-40.5 -93.5z" />
    <glyph glyph-name="three" unicode="3" horiz-adv-x="1107" 
d="M702 735q124 -39 196.5 -132t72.5 -224q0 -184 -125.5 -293t-343.5 -109q-115 0 -219 28t-211 104l53 129q153 -115 352 -115q150 0 239 71.5t89 196.5q0 122 -98 197.5t-263 75.5h-82v133h82q155 0 249.5 75t94.5 193q0 105 -81.5 175.5t-227.5 70.5q-170 0 -309 -97
l-53 127q168 115 403 115q199 0 315.5 -103.5t116.5 -258.5q0 -122 -69 -218.5t-181 -140.5z" />
    <glyph glyph-name="four" unicode="4" horiz-adv-x="1243" 
d="M1161 508v-143h-256v-365h-162v365h-671v129l667 940h166v-926h256zM758 1233l-522 -733h522v733z" />
    <glyph glyph-name="five" unicode="5" horiz-adv-x="1159" 
d="M594 887q203 0 319.5 -122.5t116.5 -324.5q0 -215 -131 -339t-354 -124q-242 0 -436 123l53 133q161 -114 362 -114q157 0 256 86.5t99 243.5q0 143 -86 227t-232 84q-150 0 -244 -70l-131 45l58 699h755v-142h-616l-37 -454q109 49 248 49z" />
    <glyph glyph-name="six" unicode="6" horiz-adv-x="1165" 
d="M631 885q196 0 317 -125t121 -322q0 -198 -131 -329.5t-326 -131.5q-162 0 -275.5 82.5t-168.5 228t-55 343.5q0 146 17 266.5t57 226t103.5 177.5t160.5 113.5t223 41.5q96 0 192 -33t172 -96l-80 -113q-72 56 -134.5 78.5t-145.5 22.5q-108 0 -186 -40t-125.5 -119
t-71.5 -182.5t-31 -244.5q50 70 149 113t218 43zM608 117q129 0 215 92.5t86 224.5q0 137 -82.5 223t-220.5 86q-136 0 -226.5 -82.5t-90.5 -201.5q0 -148 89 -245t230 -97z" />
    <glyph glyph-name="seven" unicode="7" horiz-adv-x="1013" 
d="M68 1434h864v-101l-572 -1333h-165l563 1292h-690v142z" />
    <glyph glyph-name="eight" unicode="8" horiz-adv-x="1175" 
d="M813 762q119 -44 184.5 -142t65.5 -225q0 -183 -130.5 -300.5t-342.5 -117.5t-344.5 118t-132.5 302q0 128 67 225t185 140q-99 42 -156 125t-57 192q0 165 121.5 271t316.5 106q193 0 313.5 -105.5t120.5 -269.5q0 -110 -55 -194t-156 -125zM590 1323
q-128 0 -207.5 -69.5t-79.5 -178.5t79.5 -178.5t207.5 -69.5q125 0 203.5 69.5t78.5 178.5t-78.5 178.5t-203.5 69.5zM590 111q142 0 230.5 81.5t88.5 210.5q0 128 -88.5 209.5t-230.5 81.5q-145 0 -234.5 -81.5t-89.5 -209.5q0 -130 89 -211t235 -81z" />
    <glyph glyph-name="nine" unicode="9" horiz-adv-x="1181" 
d="M561 1454q252 0 380 -171t128 -480q0 -152 -19 -277.5t-60.5 -228.5t-105 -173t-155.5 -108.5t-209 -38.5q-205 0 -356 125l57 117q73 -56 138 -79t149 -23q112 0 192 43t127.5 126t69.5 195t21 260q-49 -90 -147.5 -142t-219.5 -52q-196 0 -317 124.5t-121 321.5
q0 198 128 329.5t320 131.5zM575 688q135 0 226.5 83.5t91.5 201.5q0 147 -90.5 244.5t-231.5 97.5q-128 0 -213.5 -92t-85.5 -224q0 -138 82.5 -224.5t220.5 -86.5z" />
    <glyph glyph-name="colon" unicode=":" horiz-adv-x="503" 
d="M252 791q-48 0 -79.5 30.5t-31.5 79.5t31.5 80t79.5 31q49 0 79.5 -30.5t30.5 -80.5q0 -49 -30 -79.5t-80 -30.5zM252 -23q-47 0 -79 32t-32 79q0 49 31.5 80t79.5 31q49 0 79.5 -30.5t30.5 -80.5q0 -48 -30.5 -79.5t-79.5 -31.5z" />
    <glyph glyph-name="semicolon" unicode=";" horiz-adv-x="505" 
d="M252 791q-48 0 -79.5 30.5t-31.5 79.5t31.5 80t79.5 31q49 0 79.5 -30.5t30.5 -80.5q0 -49 -30 -79.5t-80 -30.5zM150 -307l-50 67q141 94 150 224q-46 -2 -77.5 27.5t-31.5 74.5q0 47 32 79t79 32q55 0 88 -42.5t33 -111.5q0 -103 -58.5 -195t-164.5 -155z" />
    <glyph glyph-name="less" unicode="&#x3c;" horiz-adv-x="1179" 
d="M1032 98l-923 426v131l923 426l53 -125l-796 -366l796 -367z" />
    <glyph glyph-name="equal" unicode="=" horiz-adv-x="1179" 
d="M109 741v136h962v-136h-962zM109 303v135h962v-135h-962z" />
    <glyph glyph-name="greater" unicode="&#x3e;" horiz-adv-x="1179" 
d="M147 98l-53 125l797 367l-797 366l53 125l924 -426v-131z" />
    <glyph glyph-name="question" unicode="?" horiz-adv-x="940" 
d="M371 426v29q0 74 32 140.5t77.5 117.5t90.5 101.5t77 116t32 138.5q0 109 -70 178.5t-188 69.5q-71 0 -143.5 -35t-126.5 -111l-74 109q142 176 377 176q93 0 168 -30t122 -81t72 -116t25 -137q0 -67 -18.5 -127.5t-48.5 -106t-66 -87t-72 -78.5t-66 -73.5t-48.5 -79
t-18.5 -87.5v-27h-133zM436 -23q-47 0 -78.5 32t-31.5 79q0 49 31 80t79 31q50 0 80.5 -30.5t30.5 -80.5q0 -48 -31 -79.5t-80 -31.5z" />
    <glyph glyph-name="at" unicode="@" horiz-adv-x="1988" 
d="M1020 -418q-199 0 -369.5 68t-291 188t-189 290t-68.5 368q0 265 117 474.5t326.5 326t474.5 116.5q249 0 446 -103t307.5 -288.5t110.5 -419.5q0 -247 -108.5 -400t-284.5 -153q-87 0 -148.5 47t-78.5 123q-52 -80 -133 -125t-181 -45q-167 0 -277 127t-110 320
q0 194 109.5 320t277.5 126q95 0 168.5 -40.5t116.5 -115.5l18 136h127v-611q0 -65 34.5 -104t92.5 -39q109 0 177.5 116t68.5 306q0 204 -94 364.5t-261 249t-378 88.5q-170 0 -315.5 -59t-248 -163.5t-160.5 -252.5t-58 -321q0 -172 58 -319.5t160.5 -251.5t248 -163
t315.5 -59q231 0 504 147l61 -104q-302 -164 -565 -164zM985 174q111 0 177.5 73t66.5 185v129q0 114 -66.5 187t-177.5 73q-117 0 -191.5 -91t-74.5 -234q0 -141 74.5 -231.5t191.5 -90.5z" />
    <glyph glyph-name="A" unicode="A" horiz-adv-x="1417" 
d="M1210 0l-170 424h-665l-172 -424h-164l590 1434h159l588 -1434h-166zM428 559h559l-278 694z" />
    <glyph glyph-name="B" unicode="B" horiz-adv-x="1304" 
d="M942 733q121 -34 190.5 -129t69.5 -225q0 -171 -117.5 -275t-302.5 -104h-598v1434h566q179 0 291 -101.5t112 -271.5q0 -117 -56 -202.5t-155 -125.5zM344 1311v-529h379q120 0 194 72.5t74 192.5q0 123 -74 193.5t-194 70.5h-379zM752 123q128 0 207 73.5t79 194.5
q0 126 -79 203.5t-207 77.5h-408v-549h408z" />
    <glyph glyph-name="C" unicode="C" horiz-adv-x="1441" 
d="M846 -23q-215 0 -385.5 97t-264.5 266.5t-94 378.5q0 210 93 378t262.5 263.5t384.5 95.5q123 0 252 -38.5t237 -110.5l-67 -131q-88 64 -195.5 98.5t-214.5 34.5q-261 0 -423.5 -166t-162.5 -424q0 -169 72.5 -304t209.5 -213.5t314 -78.5q102 0 209 34t197 97l65 -127
q-225 -150 -489 -150z" />
    <glyph glyph-name="D" unicode="D" horiz-adv-x="1460" 
d="M184 0v1434h400q358 0 566 -198.5t208 -524.5q0 -157 -53.5 -288t-152 -225t-244.5 -146t-324 -52h-400zM344 141h229q288 0 455.5 157t167.5 413q0 261 -167.5 421t-455.5 160h-229v-1151z" />
    <glyph glyph-name="E" unicode="E" horiz-adv-x="1216" 
d="M184 0v1434h881v-142h-721v-497h655v-140h-655v-514h754v-141h-914z" />
    <glyph glyph-name="F" unicode="F" horiz-adv-x="1169" 
d="M184 0v1434h877v-142h-715v-575h649v-142h-649v-575h-162z" />
    <glyph glyph-name="G" unicode="G" horiz-adv-x="1529" 
d="M852 590v123h498v-619q-106 -56 -236.5 -86.5t-259.5 -30.5q-168 0 -309.5 57t-238 156t-150.5 235.5t-54 293.5t55.5 293.5t154 234t239 153.5t305.5 56q125 0 256 -36.5t238 -106.5l-70 -129q-89 60 -200 92.5t-220 32.5q-175 0 -311 -76.5t-209.5 -210.5t-73.5 -303
q0 -170 70 -304t206.5 -213t319.5 -79q178 0 338 65v402h-348z" />
    <glyph glyph-name="H" unicode="H" horiz-adv-x="1501" 
d="M1157 1434h162v-1434h-162v649h-813v-649h-160v1434h160v-643h813v643z" />
    <glyph glyph-name="I" unicode="I" horiz-adv-x="528" 
d="M184 0v1434h160v-1434h-160z" />
    <glyph glyph-name="J" unicode="J" horiz-adv-x="907" 
d="M315 -25q-123 0 -266 35l23 127q115 -28 209 -28q121 0 190.5 62.5t69.5 197.5v1065h159v-1080q0 -187 -104 -283t-281 -96z" />
    <glyph glyph-name="K" unicode="K" horiz-adv-x="1359" 
d="M184 0v1434h160v-752l735 752h201l-659 -674l679 -760h-198l-594 657l-164 -163v-494h-160z" />
    <glyph glyph-name="L" unicode="L" horiz-adv-x="1103" 
d="M184 0v1434h160v-1293h692v-141h-852z" />
    <glyph glyph-name="M" unicode="M" horiz-adv-x="1689" 
d="M1348 1434h157v-1434h-149v1198l-510 -838l-512 838v-1198h-150v1434h158l504 -813z" />
    <glyph glyph-name="N" unicode="N" horiz-adv-x="1527" 
d="M1194 1434h152v-1434h-160l-852 1192v-1192h-150v1434h158l852 -1190v1190z" />
    <glyph glyph-name="O" unicode="O" horiz-adv-x="1683" 
d="M842 -23q-208 0 -377.5 96.5t-266 266t-96.5 377.5t96.5 377.5t266 265.5t377.5 96q156 0 293 -56.5t235 -154.5t154.5 -235t56.5 -293q0 -208 -96 -377.5t-265.5 -266t-377.5 -96.5zM842 125q162 0 293.5 77t206.5 212.5t75 302.5t-75 302.5t-206.5 212.5t-293.5 77
t-294 -77t-207 -212.5t-75 -302.5t75 -302.5t207 -212.5t294 -77z" />
    <glyph glyph-name="P" unicode="P" horiz-adv-x="1253" 
d="M184 0v1434h523q211 0 334.5 -120t123.5 -319q0 -200 -124 -324t-334 -124h-363v-547h-160zM344 690h338q152 0 238 81t86 224q0 142 -85.5 219.5t-238.5 77.5h-338v-602z" />
    <glyph glyph-name="Q" unicode="Q" horiz-adv-x="1683" 
d="M1581 717q0 -210 -99.5 -381t-269.5 -266l177 -254h-195l-133 192q-105 -31 -219 -31q-208 0 -377.5 96.5t-266 266t-96.5 377.5t96.5 377.5t266 265.5t377.5 96q156 0 293 -56.5t235 -154.5t154.5 -235t56.5 -293zM842 125q72 0 129 14l-248 359h192l209 -301
q135 75 214 212t79 308q0 167 -75 302.5t-206.5 212.5t-293.5 77t-294 -77t-207 -212.5t-75 -302.5t75 -302.5t207 -212.5t294 -77z" />
    <glyph glyph-name="R" unicode="R" horiz-adv-x="1366" 
d="M1071 0l-364 520h-363v-520h-160v1434h580q194 0 319 -129.5t125 -325.5q0 -166 -93.5 -290.5t-242.5 -147.5l381 -541h-182zM344 1292v-630h397q136 0 222 87t86 228q0 140 -86 227.5t-222 87.5h-397z" />
    <glyph glyph-name="S" unicode="S" horiz-adv-x="1185" 
d="M594 -18q-272 0 -490 108l41 133q209 -102 437 -102q157 0 248.5 66.5t91.5 185.5q0 64 -27.5 112t-74 77t-107 51t-127.5 40t-133.5 38t-127 51t-107 72.5t-74 108.5t-27.5 154q0 169 132.5 273t346.5 104q250 0 438 -100l-41 -140q-171 101 -387 101q-150 0 -241 -63.5
t-91 -166.5q0 -65 27.5 -113.5t74 -78.5t107 -52t127.5 -40t133.5 -38t127 -50.5t107 -71.5t74 -108t27.5 -154q0 -182 -133.5 -289.5t-351.5 -107.5z" />
    <glyph glyph-name="T" unicode="T" horiz-adv-x="1202" 
d="M520 0v1292h-463v142h1088v-142h-463v-1292h-162z" />
    <glyph glyph-name="U" unicode="U" horiz-adv-x="1540" 
d="M772 -23q-256 0 -422 158.5t-166 413.5v885h160v-865q0 -196 121 -320t307 -124q184 0 304 123.5t120 320.5v865h162v-885q0 -169 -76 -300t-209 -201.5t-301 -70.5z" />
    <glyph glyph-name="V" unicode="V" horiz-adv-x="1378" 
d="M1180 1434h168l-582 -1434h-152l-583 1434h170l489 -1237z" />
    <glyph glyph-name="W" unicode="W" horiz-adv-x="2009" 
d="M1817 1434h161l-450 -1434h-160l-362 1212l-363 -1212h-160l-452 1434h162l372 -1231l365 1231h153l361 -1237z" />
    <glyph glyph-name="X" unicode="X" horiz-adv-x="1376" 
d="M37 0l549 735l-525 699h181l446 -594l442 594h181l-520 -699l548 -735h-184l-467 631l-469 -631h-182z" />
    <glyph glyph-name="Y" unicode="Y" horiz-adv-x="1245" 
d="M1034 1434h174l-503 -865v-569h-162v569l-506 865h176l410 -717z" />
    <glyph glyph-name="Z" unicode="Z" horiz-adv-x="1284" 
d="M326 141h852v-141h-1074v94l842 1198h-803v142h1024v-95z" />
    <glyph glyph-name="bracketleft" unicode="[" horiz-adv-x="688" 
d="M217 -274v1728h397v-129h-254v-1470h254v-129h-397z" />
    <glyph glyph-name="backslash" unicode="\" horiz-adv-x="786" 
d="M639 -186l-619 1716l127 41l619 -1716z" />
    <glyph glyph-name="bracketright" unicode="]" horiz-adv-x="688" 
d="M76 -274v129h252v1470h-252v129h395v-1728h-395z" />
    <glyph glyph-name="asciicircum" unicode="^" horiz-adv-x="1179" 
d="M223 395l-125 47l426 934h131l426 -934l-125 -47l-366 801z" />
    <glyph glyph-name="underscore" unicode="_" horiz-adv-x="983" 
d="M0 -324v123h983v-123h-983z" />
    <glyph glyph-name="grave" unicode="`" horiz-adv-x="587" 
d="M442 1147l-356 223l70 103l348 -240z" />
    <glyph glyph-name="a" unicode="a" horiz-adv-x="1052" 
d="M504 1032q176 0 287.5 -98.5t111.5 -261.5v-672h-125l-16 123q-111 -146 -326 -146q-155 0 -256.5 86.5t-101.5 223.5q0 146 120 229.5t332 83.5q120 0 228 -27v80q0 106 -76.5 172t-196.5 66q-166 0 -307 -103l-41 132q159 112 367 112zM469 109q125 0 207 85t82 199v53
q-104 29 -207 29q-149 0 -232 -48.5t-83 -131.5q0 -81 66.5 -133.5t166.5 -52.5z" />
    <glyph glyph-name="b" unicode="b" horiz-adv-x="1224" 
d="M678 1032q129 0 235 -68t166 -188.5t60 -267.5q0 -227 -131.5 -379t-329.5 -152q-259 0 -373 189l-20 -166h-125v1434h155v-586q109 184 363 184zM647 121q142 0 237 110.5t95 274.5t-95 274.5t-237 110.5q-141 0 -236.5 -110.5t-95.5 -274.5t95.5 -274.5t236.5 -110.5z
" />
    <glyph glyph-name="c" unicode="c" horiz-adv-x="1026" 
d="M584 -23q-151 0 -265.5 69.5t-173.5 187.5t-59 266q0 149 62 270t179 191.5t267 70.5q194 0 342 -125l-74 -123q-116 107 -262 107q-155 0 -255.5 -111t-100.5 -280q0 -167 99.5 -273t258.5 -106q131 0 262 98l70 -119q-159 -123 -350 -123z" />
    <glyph glyph-name="d" unicode="d" horiz-adv-x="1222" 
d="M907 1434h156v-1434h-125l-23 160q-114 -183 -370 -183q-129 0 -234.5 68.5t-165 189.5t-59.5 269q0 227 131 377.5t328 150.5q245 0 362 -170v572zM575 119q142 0 237 110.5t95 274.5q0 166 -94.5 275.5t-237.5 109.5q-141 0 -236 -110t-95 -275q0 -164 95 -274.5
t236 -110.5z" />
    <glyph glyph-name="e" unicode="e" horiz-adv-x="1097" 
d="M1016 526q0 -41 -4 -77h-766q17 -155 117 -241.5t255 -86.5q154 0 297 102l52 -121q-160 -125 -363 -125q-227 0 -372.5 149t-145.5 380q0 225 138.5 375.5t344.5 150.5q191 0 319 -143.5t128 -362.5zM563 889q-120 0 -205.5 -83.5t-107.5 -217.5h606q-9 132 -91.5 216.5
t-201.5 84.5z" />
    <glyph glyph-name="f" unicode="f" horiz-adv-x="655" 
d="M215 0v887h-174v123h174v143q0 148 72 225.5t202 77.5q106 0 181 -41l-43 -115q-52 29 -111 29q-69 0 -107 -48.5t-38 -133.5v-137h235v-123h-235v-887h-156z" />
    <glyph glyph-name="g" unicode="g" horiz-adv-x="1222" 
d="M938 1010h125v-985q0 -134 -60.5 -243t-171.5 -172t-251 -63q-127 0 -225.5 31.5t-207.5 104.5l46 118q100 -70 183 -99.5t189 -29.5q152 0 247 99t95 249v134q-58 -80 -150 -125t-212 -45q-199 0 -329 146t-130 374q0 149 59.5 269.5t164.5 189.5t235 69
q126 0 220 -49.5t150 -136.5zM575 125q142 0 237 109.5t95 273.5q0 163 -95 272t-237 109q-141 0 -236 -109t-95 -272q0 -164 95 -273.5t236 -109.5z" />
    <glyph glyph-name="h" unicode="h" horiz-adv-x="1191" 
d="M643 1032q176 0 287.5 -115t111.5 -301v-616h-155v586q0 145 -76.5 230t-204.5 85t-209.5 -96.5t-81.5 -245.5v-559h-155v1434h157v-549q115 147 326 147z" />
    <glyph glyph-name="i" unicode="i" horiz-adv-x="489" 
d="M244 1214q-45 0 -75 28t-30 71q0 44 30 71t75 27q46 0 76 -27t30 -71q0 -43 -30 -71t-76 -28zM166 0v1010h156v-1010h-156z" />
    <glyph glyph-name="j" unicode="j" horiz-adv-x="501" 
d="M258 1214q-46 0 -76 28t-30 71q0 44 30 71t76 27t75 -27t29 -71q0 -43 -29 -71t-75 -28zM53 -453q-125 0 -221 66l31 115q64 -50 155 -50q71 0 116.5 45t45.5 113v1174h156v-1188q0 -118 -79.5 -196.5t-203.5 -78.5z" />
    <glyph glyph-name="k" unicode="k" horiz-adv-x="1056" 
d="M809 0l-375 459l-119 -121v-338h-155v1434h155v-916l480 492h182l-445 -451l461 -559h-184z" />
    <glyph glyph-name="l" unicode="l" horiz-adv-x="475" 
d="M160 0v1434h155v-1434h-155z" />
    <glyph glyph-name="m" unicode="m" horiz-adv-x="1837" 
d="M1315 1032q163 0 268 -109t105 -294v-629h-156v598q0 143 -70.5 223t-191.5 80q-119 0 -194 -90.5t-75 -237.5v-573h-155v598q0 143 -70.5 223t-191.5 80q-119 0 -194 -90.5t-75 -237.5v-573h-155v1010h125l16 -138q110 160 326 160q113 0 199 -52t132 -149
q52 96 143.5 148.5t213.5 52.5z" />
    <glyph glyph-name="n" unicode="n" horiz-adv-x="1191" 
d="M643 1032q176 0 287.5 -115t111.5 -301v-616h-155v586q0 145 -76.5 230t-204.5 85t-209.5 -96.5t-81.5 -245.5v-559h-155v1010h125l16 -146q119 168 342 168z" />
    <glyph glyph-name="o" unicode="o" horiz-adv-x="1167" 
d="M584 -23q-214 0 -356 151t-142 378q0 226 141.5 376t356.5 150q141 0 254.5 -68.5t178 -189t64.5 -268.5q0 -227 -141.5 -378t-355.5 -151zM584 121q146 0 243 109.5t97 275.5q0 164 -97 273.5t-243 109.5t-243 -109.5t-97 -273.5q0 -166 97 -275.5t243 -109.5z" />
    <glyph glyph-name="p" unicode="p" horiz-adv-x="1222" 
d="M676 1032q198 0 329.5 -150t131.5 -376q0 -227 -131 -378t-328 -151q-246 0 -363 170v-577h-155v1440h125l22 -160q114 182 369 182zM647 121q140 0 236 110t96 275q0 164 -95.5 274.5t-236.5 110.5q-142 0 -237 -110.5t-95 -274.5q0 -166 94.5 -275.5t237.5 -109.5z" />
    <glyph glyph-name="q" unicode="q" horiz-adv-x="1224" 
d="M940 1010h125v-1440h-156v592q-110 -185 -362 -185q-129 0 -235 68.5t-166 189t-60 267.5q0 227 131.5 378.5t329.5 151.5q257 0 371 -186zM578 119q141 0 236 110.5t95 274.5t-95 274.5t-236 110.5q-142 0 -237 -110.5t-95 -274.5t95 -274.5t237 -110.5z" />
    <glyph glyph-name="r" unicode="r" horiz-adv-x="778" 
d="M614 1032q62 0 127 -18l-18 -125q-59 16 -113 16q-131 0 -213 -96t-82 -248v-561h-155v1010h125l14 -133q46 73 129 114t186 41z" />
    <glyph glyph-name="s" unicode="s" horiz-adv-x="917" 
d="M459 -23q-209 0 -367 113l39 117q140 -109 315 -109q104 0 166 49.5t62 137.5q0 55 -31 90.5t-80.5 52.5t-109.5 29t-120.5 28.5t-110 42t-80.5 78t-31 129.5q0 136 106.5 216.5t263.5 80.5q180 0 326 -102l-41 -113q-127 96 -272 96q-100 0 -166 -46t-66 -130
q0 -39 19.5 -66.5t52 -43t75 -26t89 -20t93.5 -20.5t89.5 -31.5t75 -50t52 -78.5t19.5 -114q0 -140 -101.5 -225t-266.5 -85z" />
    <glyph glyph-name="t" unicode="t" horiz-adv-x="677" 
d="M453 -23q-128 0 -192 80.5t-64 223.5v606h-170v123h170v286h155v-286h252v-123h-252v-594q0 -93 30 -140t103 -47q57 0 119 21l19 -115q-79 -35 -170 -35z" />
    <glyph glyph-name="u" unicode="u" horiz-adv-x="1185" 
d="M870 1010h156v-1010h-125l-16 141q-115 -164 -340 -164q-173 0 -284 114t-111 296v623h155v-578q0 -152 76 -239t205 -87q127 0 205.5 98.5t78.5 254.5v551z" />
    <glyph glyph-name="v" unicode="v" horiz-adv-x="995" 
d="M815 1010h162l-408 -1010h-143l-410 1010h164l318 -832z" />
    <glyph glyph-name="w" unicode="w" horiz-adv-x="1486" 
d="M1313 1010h155l-323 -1010h-152l-250 834l-249 -834h-152l-326 1010h158l248 -834l248 834h147l248 -828z" />
    <glyph glyph-name="x" unicode="x" horiz-adv-x="993" 
d="M20 0l375 516l-358 494h174l285 -394l286 394h174l-358 -494l375 -516h-176l-301 418l-297 -418h-179z" />
    <glyph glyph-name="y" unicode="y" horiz-adv-x="995" 
d="M256 -430l174 438l-414 1002h164l322 -830l313 830h162l-569 -1440h-152z" />
    <glyph glyph-name="z" unicode="z" horiz-adv-x="983" 
d="M301 123h584v-123h-785v88l572 799h-553v123h755v-88z" />
    <glyph glyph-name="braceleft" unicode="{" horiz-adv-x="688" 
d="M547 -274q-130 0 -215.5 83.5t-85.5 213.5q0 56 12 164.5t12 160.5q0 76 -49 127t-123 51h-32v127h32q75 0 123.5 50t48.5 128q0 50 -12 159.5t-12 166.5q0 130 85.5 213.5t215.5 83.5h67v-129h-32q-84 0 -137.5 -54t-53.5 -141q0 -50 13.5 -154t13.5 -157
q0 -83 -41 -144t-115 -85q74 -24 115 -85.5t41 -144.5q0 -51 -13.5 -156t-13.5 -155q0 -86 53.5 -140t137.5 -54h32v-129h-67z" />
    <glyph glyph-name="bar" unicode="|" horiz-adv-x="491" 
d="M180 -459v1966h131v-1966h-131z" />
    <glyph glyph-name="braceright" unicode="}" horiz-adv-x="688" 
d="M76 -274v129h33q83 0 135.5 53.5t52.5 140.5q0 50 -12.5 154.5t-12.5 156.5q0 83 40 144.5t114 85.5q-74 24 -114 85t-40 144q0 51 12.5 156t12.5 155q0 86 -53 140.5t-135 54.5h-33v129h67q130 0 215.5 -83.5t85.5 -213.5q0 -56 -13 -165t-13 -161q0 -76 49 -127
t123 -51h33v-127h-33q-75 0 -123.5 -50t-48.5 -128q0 -50 13 -159t13 -166q0 -130 -85.5 -213.5t-215.5 -83.5h-67z" />
    <glyph glyph-name="asciitilde" unicode="~" horiz-adv-x="1179" 
d="M799 475q-74 0 -145 24.5t-139 49t-134 24.5q-118 0 -221 -90l-74 111q132 111 295 111q59 0 117 -15.5t98 -34t95 -34t108 -15.5q119 0 221 92l74 -112q-132 -111 -295 -111z" />
    <glyph glyph-name="uni00A0" unicode="&#xa0;" horiz-adv-x="491" 
 />
    <glyph glyph-name="exclamdown" unicode="&#xa1;" horiz-adv-x="536" 
d="M268 1012q48 0 79.5 -31t31.5 -80q0 -47 -32 -78.5t-79 -31.5q-49 0 -79.5 31t-30.5 79q0 50 30.5 80.5t79.5 30.5zM332 563l14 -1007h-158l13 1007h131z" />
    <glyph glyph-name="cent" unicode="&#xa2;" horiz-adv-x="1026" 
d="M864 444l70 -118q-144 -112 -311 -121v-287h-134v293q-186 30 -294.5 171.5t-108.5 342.5q0 200 109.5 344.5t293.5 177.5v269h134v-259q176 -10 313 -124l-74 -123q-115 106 -262 106q-155 0 -255.5 -111t-100.5 -280q0 -167 99.5 -273t258.5 -106q131 0 262 98z" />
    <glyph glyph-name="sterling" unicode="&#xa3;" horiz-adv-x="1179" 
d="M141 0v135h207v496h-174v135h174v248q0 202 111 322t299 120q181 0 315 -92l-53 -127q-100 76 -234 76q-133 0 -204.5 -83.5t-71.5 -225.5v-238h387v-135h-387v-496h561v-135h-930z" />
    <glyph glyph-name="currency" unicode="&#xa4;" horiz-adv-x="1179" 
d="M203 209l-92 92l163 166q-67 92 -67 221q0 127 65 221l-161 166l92 92l166 -163q89 67 221 67q129 0 221 -67l166 163l92 -92l-164 -166q68 -93 68 -221t-68 -221l164 -166l-92 -92l-166 164q-98 -68 -221 -68t-221 68zM590 428q116 0 189 72.5t73 187.5q0 116 -73 189
t-189 73t-189 -73t-73 -189q0 -115 73 -187.5t189 -72.5z" />
    <glyph glyph-name="yen" unicode="&#xa5;" horiz-adv-x="1245" 
d="M1208 1434l-456 -783h315v-102h-362v-207h362v-102h-362v-240h-162v240h-369v102h369v207h-369v102h322l-459 783h176l410 -717l411 717h174z" />
    <glyph glyph-name="brokenbar" unicode="&#xa6;" horiz-adv-x="491" 
d="M180 723v786h131v-786h-131zM180 -461v787h131v-787h-131z" />
    <glyph glyph-name="section" unicode="&#xa7;" horiz-adv-x="1081" 
d="M524 -297q-197 0 -426 90l37 125q219 -88 377 -88q130 0 205.5 55.5t75.5 149.5q0 55 -29.5 96.5t-78 64.5t-110 45t-126 38.5t-126 44.5t-110 62.5t-78 94t-29.5 137.5q0 85 46 153.5t129 105.5q-142 86 -142 253q0 145 116 235.5t302 90.5q172 0 389 -86l-39 -123
q-188 78 -338 78q-125 0 -198.5 -53.5t-73.5 -141.5q0 -48 23.5 -84.5t63.5 -60t91.5 -42t108.5 -35t114 -34.5t108.5 -45t91.5 -63t63.5 -92t23.5 -127q0 -84 -43.5 -151t-122.5 -109q133 -89 133 -252q0 -151 -118 -241.5t-310 -90.5zM678 352q69 25 108 75t39 114
q0 46 -18.5 82.5t-44.5 59t-71.5 43t-81 31.5t-93 27t-88.5 27q-75 -20 -119.5 -70t-44.5 -116q0 -46 19 -82t47.5 -58t74 -42.5t85 -32t96 -28t92.5 -30.5z" />
    <glyph glyph-name="dieresis" unicode="&#xa8;" horiz-adv-x="788" 
d="M180 1217q-43 0 -68.5 26.5t-25.5 69.5t26 70.5t68 27.5q43 0 69.5 -27.5t26.5 -70.5t-26.5 -69.5t-69.5 -26.5zM608 1217q-43 0 -69.5 26.5t-26.5 69.5t26.5 70.5t69.5 27.5t70 -27.5t27 -70.5t-27 -69.5t-70 -26.5z" />
    <glyph glyph-name="copyright" unicode="&#xa9;" horiz-adv-x="1703" 
d="M852 -23q-217 0 -389.5 94t-268.5 263t-96 383q0 160 56.5 298t155.5 234.5t239 151.5t303 55t303 -55t239 -151.5t155.5 -234.5t56.5 -298q0 -214 -96 -383t-268.5 -263t-389.5 -94zM852 41q197 0 353 85t244.5 239.5t88.5 351.5t-88.5 351.5t-244.5 239.5t-353 85
t-353 -85t-244.5 -239.5t-88.5 -351.5t88.5 -351.5t244.5 -239.5t353 -85zM877 293q-179 0 -289.5 118t-110.5 310t110.5 310t289.5 118q142 0 272 -86l-35 -55q-110 75 -235 75q-148 0 -241 -99t-93 -263t93 -264.5t241 -100.5q120 0 235 78l35 -55q-134 -86 -272 -86z" />
    <glyph glyph-name="ordfeminine" unicode="&#xaa;" horiz-adv-x="772" 
d="M360 1456q118 0 198.5 -65.5t80.5 -176.5v-430h-86l-12 93q-37 -54 -97 -84.5t-133 -30.5q-100 0 -166.5 57t-66.5 144q0 101 81.5 158t223.5 57q45 0 145 -17v56q0 71 -48 112t-122 41q-115 0 -221 -78l-31 80q112 84 254 84zM528 1032v58q-79 14 -135 14
q-95 0 -149 -35t-54 -100q0 -52 42 -86.5t104 -34.5q83 0 137.5 52t54.5 132z" />
    <glyph glyph-name="guillemotleft" unicode="&#xab;" horiz-adv-x="1093" 
d="M465 23l-404 450v72l404 450l92 -73l-344 -414l344 -410zM926 23l-406 450v72l406 450l92 -73l-346 -414l346 -410z" />
    <glyph glyph-name="logicalnot" unicode="&#xac;" horiz-adv-x="1179" 
d="M938 109v415h-829v131h962v-546h-133z" />
    <glyph glyph-name="uni00AD" unicode="&#xad;" horiz-adv-x="655" 
d="M98 449v120h547v-120h-547z" />
    <glyph glyph-name="registered" unicode="&#xae;" horiz-adv-x="749" 
d="M375 793q-146 0 -239 91.5t-93 233.5t93 234t239 92t239 -92t93 -234t-93 -233.5t-239 -91.5zM375 834q128 0 208.5 79t80.5 205t-80.5 205.5t-208.5 79.5t-208.5 -79.5t-80.5 -205.5t80.5 -205t208.5 -79zM258 938v362h137q52 0 85.5 -30.5t33.5 -79.5q0 -40 -25 -69.5
t-65 -35.5l102 -147h-53l-96 141h-72v-141h-47zM305 1118h84q35 0 55.5 19.5t20.5 52.5q0 32 -21 52t-55 20h-84v-144z" />
    <glyph glyph-name="macron" unicode="&#xaf;" horiz-adv-x="770" 
d="M86 1260v108h600v-108h-600z" />
    <glyph glyph-name="degree" unicode="&#xb0;" horiz-adv-x="679" 
d="M340 969q-107 0 -175.5 68t-68.5 175q0 106 68.5 175t175.5 69q106 0 175 -69t69 -175q0 -107 -69 -175t-175 -68zM340 1057q68 0 110 43t42 112t-42 111.5t-110 42.5t-111 -42.5t-43 -111.5t43 -112t111 -43z" />
    <glyph glyph-name="plusminus" unicode="&#xb1;" horiz-adv-x="1179" 
d="M524 287v413h-415v131h415v416h131v-416h416v-131h-416v-413h-131zM109 0v133h962v-133h-962z" />
    <glyph glyph-name="uni00B2" unicode="&#xb2;" horiz-adv-x="698" 
d="M51 786v76l326 328q100 100 100 194q0 75 -47 121.5t-123 46.5q-95 0 -209 -71l-45 88q139 86 275 86q118 0 192 -70.5t74 -183.5q0 -136 -121 -254l-262 -264h393v-97h-553z" />
    <glyph glyph-name="uni00B3" unicode="&#xb3;" horiz-adv-x="698" 
d="M332 770q-146 0 -285 68l41 86q116 -58 223 -58q80 0 129 42.5t49 111.5q0 71 -57.5 115.5t-150.5 44.5h-58v86h58q85 0 137.5 41.5t52.5 107.5q0 65 -43 104.5t-115 39.5q-103 0 -211 -54l-39 88q130 62 269 62q114 0 186 -64t72 -164q0 -72 -40 -126t-108 -74
q75 -25 121.5 -84t46.5 -135q0 -104 -77.5 -171t-200.5 -67z" />
    <glyph glyph-name="acute" unicode="&#xb4;" horiz-adv-x="587" 
d="M145 1147l-59 86l346 240l70 -103z" />
    <glyph glyph-name="uni00B5" unicode="&#xb5;" horiz-adv-x="1241" 
d="M1190 113l14 -123q-76 -13 -106 -13q-81 0 -133.5 45.5t-61.5 122.5v25q-52 -91 -137 -139.5t-186 -48.5q-86 0 -154.5 33.5t-106.5 97.5v-541h-155v1438h155v-639q0 -116 74.5 -189t190.5 -73q133 0 219 90.5t86 234.5v576h155v-813q0 -41 25 -66t68 -25q22 0 53 7z" />
    <glyph glyph-name="paragraph" unicode="&#xb6;" horiz-adv-x="1191" 
d="M852 -270v1570h-217v-710h-90q-200 0 -329.5 119t-129.5 303t129.5 303t329.5 119h440v-1704h-133z" />
    <glyph glyph-name="periodcentered" unicode="&#xb7;" horiz-adv-x="503" 
d="M252 397q-48 0 -79.5 31t-31.5 80q0 47 32 78.5t79 31.5q49 0 79.5 -31t30.5 -79q0 -50 -30.5 -80.5t-79.5 -30.5z" />
    <glyph glyph-name="cedilla" unicode="&#xb8;" horiz-adv-x="587" 
d="M270 -459q-99 0 -184 35l29 94q77 -30 141 -30q51 0 84 25.5t33 66.5q0 40 -33.5 64t-89.5 24h-23l33 180h111l-21 -117q66 -9 109 -56t43 -110q0 -78 -65 -127t-167 -49z" />
    <glyph glyph-name="uni00B9" unicode="&#xb9;" horiz-adv-x="555" 
d="M285 786v734l-211 -123l-45 84l276 157h96v-852h-116z" />
    <glyph glyph-name="ordmasculine" unicode="&#xba;" horiz-adv-x="845" 
d="M432 762q-148 0 -244 97.5t-96 250.5q0 152 96 249t244 97q151 0 246.5 -97t95.5 -249q0 -154 -95.5 -251t-246.5 -97zM432 860q97 0 158 70t61 180t-61 180t-158 70q-95 0 -156 -70t-61 -180t61 -180t156 -70z" />
    <glyph glyph-name="guillemotright" unicode="&#xbb;" horiz-adv-x="1093" 
d="M170 23l-94 75l346 410l-346 414l94 73l403 -450v-72zM629 23l-92 75l346 410l-346 414l92 73l405 -450v-72z" />
    <glyph glyph-name="onequarter" unicode="&#xbc;" horiz-adv-x="1966" 
d="M401 582v731l-213 -121l-43 82l275 160h96v-852h-115zM508 -31l-82 62l1032 1376l82 -61zM1659 0v195h-414v81l408 576h110v-567h129v-90h-129v-195h-104zM1358 285h301v428z" />
    <glyph glyph-name="onehalf" unicode="&#xbd;" horiz-adv-x="1966" 
d="M401 582v733l-213 -123l-43 84l275 158h96v-852h-115zM508 -31l-82 62l1032 1376l82 -61zM1274 0v76l325 327q101 101 101 195q0 76 -46 122t-124 46q-92 0 -207 -72l-47 88q139 86 274 86q118 0 192.5 -70.5t74.5 -183.5q0 -136 -121 -254l-262 -264h393v-96h-553z" />
    <glyph glyph-name="threequarters" unicode="&#xbe;" horiz-adv-x="1966" 
d="M377 565q-149 0 -285 68l41 86q111 -57 221 -57q80 0 129 42t49 111q0 71 -57 115.5t-149 44.5h-60v86h60q84 0 136 41.5t52 107.5q0 65 -43 104.5t-115 39.5q-103 0 -211 -54l-36 89q125 61 268 61q114 0 185 -63.5t71 -163.5q0 -72 -39.5 -126.5t-108.5 -74.5
q76 -25 122 -83.5t46 -135.5q0 -104 -77.5 -171t-198.5 -67zM508 -31l-82 62l1032 1376l82 -61zM1659 0v195h-414v81l408 576h110v-567h129v-90h-129v-195h-104zM1358 285h301v428z" />
    <glyph glyph-name="questiondown" unicode="&#xbf;" horiz-adv-x="940" 
d="M502 1012q49 0 79.5 -30.5t30.5 -80.5q0 -48 -30.5 -79t-79.5 -31q-47 0 -79 31.5t-32 78.5q0 49 31.5 80t79.5 31zM567 563v-26q0 -63 -22.5 -121t-57 -100t-74 -89t-74 -88.5t-57 -99t-22.5 -119.5q0 -108 70 -177t188 -69q72 0 144 34.5t126 111.5l72 -111
q-138 -174 -375 -174q-93 0 -168.5 30t-122.5 81t-72.5 115.5t-25.5 136.5q0 67 19 127.5t48.5 106t66 87t73 79t66 74t48.5 79.5t19 88v24h131z" />
    <glyph glyph-name="Agrave" unicode="&#xc0;" horiz-adv-x="1417" 
d="M848 1657l-62 -86l-356 223l72 102zM1210 0l-170 424h-665l-172 -424h-164l590 1434h159l588 -1434h-166zM428 559h559l-278 694z" />
    <glyph glyph-name="Aacute" unicode="&#xc1;" horiz-adv-x="1417" 
d="M999 1794l-356 -223l-61 86l346 239zM1210 0l-170 424h-665l-172 -424h-164l590 1434h159l588 -1434h-166zM428 559h559l-278 694z" />
    <glyph glyph-name="Acircumflex" unicode="&#xc2;" horiz-adv-x="1417" 
d="M709 1782l-232 -209l-71 76l251 243h101l252 -243l-70 -76zM1210 0l-170 424h-665l-172 -424h-164l590 1434h159l588 -1434h-166zM428 559h559l-278 694z" />
    <glyph glyph-name="Atilde" unicode="&#xc3;" horiz-adv-x="1417" 
d="M590 1720q-31 0 -54.5 -19.5t-33.5 -55.5l-101 30q15 70 63.5 114t113.5 44q51 0 136 -39t113 -39q66 0 88 78l101 -33q-15 -70 -63 -112.5t-113 -42.5q-51 0 -136.5 37.5t-113.5 37.5zM1210 0l-170 424h-665l-172 -424h-164l590 1434h159l588 -1434h-166zM428 559h559
l-278 694z" />
    <glyph glyph-name="Adieresis" unicode="&#xc4;" horiz-adv-x="1417" 
d="M496 1640q-43 0 -70 27t-27 70t27 70.5t70 27.5t69.5 -27.5t26.5 -70.5t-26.5 -70t-69.5 -27zM922 1640q-43 0 -70 27t-27 70t27 70.5t70 27.5t69.5 -27.5t26.5 -70.5t-26.5 -70t-69.5 -27zM1210 0l-170 424h-665l-172 -424h-164l590 1434h159l588 -1434h-166zM428 559
h559l-278 694z" />
    <glyph glyph-name="Aring" unicode="&#xc5;" horiz-adv-x="1417" 
d="M711 1540q-89 0 -147 55.5t-58 141.5q0 87 56.5 141.5t146.5 54.5t146 -54.5t56 -141.5t-55 -142t-145 -55zM709 1858q-54 0 -86.5 -33.5t-32.5 -87.5q0 -53 34 -86t87 -33t84.5 32.5t31.5 86.5t-32.5 87.5t-85.5 33.5zM1210 0l-170 424h-665l-172 -424h-164l590 1434
h159l588 -1434h-166zM428 559h559l-278 694z" />
    <glyph glyph-name="AE" unicode="&#xc6;" horiz-adv-x="2058" 
d="M1186 141h753v-141h-915v424h-543l-276 -424h-166l909 1434h959v-142h-721v-497h655v-140h-655v-514zM569 559h455v701z" />
    <glyph glyph-name="Ccedilla" unicode="&#xc7;" horiz-adv-x="1441" 
d="M891 -117q66 -9 108.5 -56t42.5 -110q0 -78 -64.5 -127t-166.5 -49q-99 0 -184 35l28 94q77 -30 142 -30q51 0 83.5 25.5t32.5 66.5q0 40 -33.5 64t-88.5 24h-23l29 160q-203 11 -362 110t-246 263.5t-87 365.5q0 210 93 378t262.5 263.5t384.5 95.5q123 0 252 -38.5
t237 -110.5l-67 -131q-88 64 -195.5 98.5t-214.5 34.5q-261 0 -423.5 -166t-162.5 -424q0 -169 72.5 -304t209.5 -213.5t314 -78.5q102 0 209 34t197 97l65 -127q-198 -132 -428 -147z" />
    <glyph glyph-name="Egrave" unicode="&#xc8;" horiz-adv-x="1216" 
d="M672 1571l-357 223l72 102l346 -239zM184 0v1434h881v-142h-721v-497h655v-140h-655v-514h754v-141h-914z" />
    <glyph glyph-name="Eacute" unicode="&#xc9;" horiz-adv-x="1216" 
d="M528 1571l-61 86l346 239l72 -102zM184 0v1434h881v-142h-721v-497h655v-140h-655v-514h754v-141h-914z" />
    <glyph glyph-name="Ecircumflex" unicode="&#xca;" horiz-adv-x="1216" 
d="M362 1573l-71 76l252 243h100l252 -243l-70 -76l-231 209zM184 0v1434h881v-142h-721v-497h655v-140h-655v-514h754v-141h-914z" />
    <glyph glyph-name="Edieresis" unicode="&#xcb;" horiz-adv-x="1216" 
d="M381 1640q-43 0 -69.5 27t-26.5 70t26.5 70.5t69.5 27.5t69.5 -27.5t26.5 -70.5t-26.5 -70t-69.5 -27zM807 1640q-43 0 -69.5 27t-26.5 70t26.5 70.5t69.5 27.5t69.5 -27.5t26.5 -70.5t-26.5 -70t-69.5 -27zM184 0v1434h881v-142h-721v-497h655v-140h-655v-514h754v-141
h-914z" />
    <glyph glyph-name="Igrave" unicode="&#xcc;" horiz-adv-x="528" 
d="M344 1571l-356 223l71 102l347 -239zM184 0v1434h160v-1434h-160z" />
    <glyph glyph-name="Iacute" unicode="&#xcd;" horiz-adv-x="528" 
d="M201 1571l-62 86l346 239l72 -102zM184 0v1434h160v-1434h-160z" />
    <glyph glyph-name="Icircumflex" unicode="&#xce;" horiz-adv-x="528" 
d="M35 1573l-72 76l252 243h100l252 -243l-69 -76l-232 209zM184 0v1434h160v-1434h-160z" />
    <glyph glyph-name="Idieresis" unicode="&#xcf;" horiz-adv-x="528" 
d="M53 1640q-43 0 -69.5 27t-26.5 70t26.5 70.5t69.5 27.5t70 -27.5t27 -70.5t-27 -70t-70 -27zM479 1640q-43 0 -69.5 27t-26.5 70t26.5 70.5t69.5 27.5t69.5 -27.5t26.5 -70.5t-26.5 -70t-69.5 -27zM184 0v1434h160v-1434h-160z" />
    <glyph glyph-name="Eth" unicode="&#xd0;" horiz-adv-x="1460" 
d="M584 1434q358 0 566 -198.5t208 -524.5q0 -157 -53.5 -288t-152 -225t-244.5 -146t-324 -52h-400v645h-176v121h176v668h400zM573 141q288 0 455.5 157t167.5 413q0 261 -167.5 421t-455.5 160h-229v-526h373v-121h-373v-504h229z" />
    <glyph glyph-name="Ntilde" unicode="&#xd1;" horiz-adv-x="1527" 
d="M643 1720q-31 0 -54.5 -19.5t-33.5 -55.5l-100 30q15 70 63 114t113 44q51 0 136.5 -39t113.5 -39q66 0 88 78l100 -33q-15 -70 -63 -112.5t-113 -42.5q-51 0 -136.5 37.5t-113.5 37.5zM1194 1434h152v-1434h-160l-852 1192v-1192h-150v1434h158l852 -1190v1190z" />
    <glyph glyph-name="Ograve" unicode="&#xd2;" horiz-adv-x="1683" 
d="M920 1571l-357 223l72 102l346 -239zM842 -23q-208 0 -377.5 96.5t-266 266t-96.5 377.5t96.5 377.5t266 265.5t377.5 96q156 0 293 -56.5t235 -154.5t154.5 -235t56.5 -293q0 -208 -96 -377.5t-265.5 -266t-377.5 -96.5zM842 125q162 0 293.5 77t206.5 212.5t75 302.5
t-75 302.5t-206.5 212.5t-293.5 77t-294 -77t-207 -212.5t-75 -302.5t75 -302.5t207 -212.5t294 -77z" />
    <glyph glyph-name="Oacute" unicode="&#xd3;" horiz-adv-x="1683" 
d="M776 1571l-61 86l346 239l72 -102zM842 -23q-208 0 -377.5 96.5t-266 266t-96.5 377.5t96.5 377.5t266 265.5t377.5 96q156 0 293 -56.5t235 -154.5t154.5 -235t56.5 -293q0 -208 -96 -377.5t-265.5 -266t-377.5 -96.5zM842 125q162 0 293.5 77t206.5 212.5t75 302.5
t-75 302.5t-206.5 212.5t-293.5 77t-294 -77t-207 -212.5t-75 -302.5t75 -302.5t207 -212.5t294 -77z" />
    <glyph glyph-name="Ocircumflex" unicode="&#xd4;" horiz-adv-x="1683" 
d="M610 1573l-71 76l252 243h100l252 -243l-70 -76l-231 209zM842 -23q-208 0 -377.5 96.5t-266 266t-96.5 377.5t96.5 377.5t266 265.5t377.5 96q156 0 293 -56.5t235 -154.5t154.5 -235t56.5 -293q0 -208 -96 -377.5t-265.5 -266t-377.5 -96.5zM842 125q162 0 293.5 77
t206.5 212.5t75 302.5t-75 302.5t-206.5 212.5t-293.5 77t-294 -77t-207 -212.5t-75 -302.5t75 -302.5t207 -212.5t294 -77z" />
    <glyph glyph-name="Otilde" unicode="&#xd5;" horiz-adv-x="1683" 
d="M635 1645l-100 30q15 70 63 114t113 44q51 0 136.5 -39t113.5 -39q66 0 88 78l100 -33q-15 -70 -63 -112.5t-113 -42.5q-51 0 -136.5 37.5t-113.5 37.5q-31 0 -54.5 -19.5t-33.5 -55.5zM842 -23q-208 0 -377.5 96.5t-266 266t-96.5 377.5t96.5 377.5t266 265.5t377.5 96
q156 0 293 -56.5t235 -154.5t154.5 -235t56.5 -293q0 -208 -96 -377.5t-265.5 -266t-377.5 -96.5zM842 125q162 0 293.5 77t206.5 212.5t75 302.5t-75 302.5t-206.5 212.5t-293.5 77t-294 -77t-207 -212.5t-75 -302.5t75 -302.5t207 -212.5t294 -77z" />
    <glyph glyph-name="Odieresis" unicode="&#xd6;" horiz-adv-x="1683" 
d="M629 1640q-43 0 -70 27t-27 70t27 70.5t70 27.5t69.5 -27.5t26.5 -70.5t-26.5 -70t-69.5 -27zM1055 1640q-43 0 -70 27t-27 70t27 70.5t70 27.5t69.5 -27.5t26.5 -70.5t-26.5 -70t-69.5 -27zM842 -23q-208 0 -377.5 96.5t-266 266t-96.5 377.5t96.5 377.5t266 265.5
t377.5 96q156 0 293 -56.5t235 -154.5t154.5 -235t56.5 -293q0 -208 -96 -377.5t-265.5 -266t-377.5 -96.5zM842 125q162 0 293.5 77t206.5 212.5t75 302.5t-75 302.5t-206.5 212.5t-293.5 77t-294 -77t-207 -212.5t-75 -302.5t75 -302.5t207 -212.5t294 -77z" />
    <glyph glyph-name="multiply" unicode="&#xd7;" horiz-adv-x="1179" 
d="M250 156l-94 94l340 340l-340 340l94 94l340 -340l340 340l94 -94l-340 -340l340 -340l-94 -94l-340 340z" />
    <glyph glyph-name="Oslash" unicode="&#xd8;" horiz-adv-x="1683" 
d="M1300 1305q133 -101 207 -253.5t74 -334.5q0 -208 -96 -377.5t-265.5 -266t-377.5 -96.5q-196 0 -359 86l-106 -161l-113 53l117 176q-131 101 -205 253.5t-74 332.5q0 208 96.5 377.5t266 265.5t377.5 96q195 0 358 -86l107 162l110 -51zM266 717q0 -139 53 -256.5
t148 -200.5l649 983q-132 66 -274 66q-162 0 -294 -77t-207 -212.5t-75 -302.5zM842 125q162 0 293.5 77t206.5 212.5t75 302.5q0 139 -54 257.5t-149 199.5l-647 -981q130 -68 275 -68z" />
    <glyph glyph-name="Ugrave" unicode="&#xd9;" horiz-adv-x="1540" 
d="M850 1571l-356 223l71 102l346 -239zM772 -23q-256 0 -422 158.5t-166 413.5v885h160v-865q0 -196 121 -320t307 -124q184 0 304 123.5t120 320.5v865h162v-885q0 -169 -76 -300t-209 -201.5t-301 -70.5z" />
    <glyph glyph-name="Uacute" unicode="&#xda;" horiz-adv-x="1540" 
d="M707 1571l-62 86l346 239l72 -102zM772 -23q-256 0 -422 158.5t-166 413.5v885h160v-865q0 -196 121 -320t307 -124q184 0 304 123.5t120 320.5v865h162v-885q0 -169 -76 -300t-209 -201.5t-301 -70.5z" />
    <glyph glyph-name="Ucircumflex" unicode="&#xdb;" horiz-adv-x="1540" 
d="M541 1573l-72 76l252 243h100l252 -243l-69 -76l-232 209zM772 -23q-256 0 -422 158.5t-166 413.5v885h160v-865q0 -196 121 -320t307 -124q184 0 304 123.5t120 320.5v865h162v-885q0 -169 -76 -300t-209 -201.5t-301 -70.5z" />
    <glyph glyph-name="Udieresis" unicode="&#xdc;" horiz-adv-x="1540" 
d="M559 1640q-43 0 -69.5 27t-26.5 70t26.5 70.5t69.5 27.5t69.5 -27.5t26.5 -70.5t-26.5 -70t-69.5 -27zM985 1640q-43 0 -69.5 27t-26.5 70t26.5 70.5t69.5 27.5t69.5 -27.5t26.5 -70.5t-26.5 -70t-69.5 -27zM772 -23q-256 0 -422 158.5t-166 413.5v885h160v-865
q0 -196 121 -320t307 -124q184 0 304 123.5t120 320.5v865h162v-885q0 -169 -76 -300t-209 -201.5t-301 -70.5z" />
    <glyph glyph-name="Yacute" unicode="&#xdd;" horiz-adv-x="1245" 
d="M915 1794l-356 -223l-61 86l346 239zM1034 1434h174l-503 -865v-569h-162v569l-506 865h176l410 -717z" />
    <glyph glyph-name="Thorn" unicode="&#xde;" horiz-adv-x="1253" 
d="M707 1149q211 0 334.5 -119.5t123.5 -318.5q0 -202 -124 -325.5t-334 -123.5h-363v-262h-160v1434h160v-285h363zM682 403q152 0 238 81.5t86 226.5q0 140 -85.5 217.5t-238.5 77.5h-338v-603h338z" />
    <glyph glyph-name="germandbls" unicode="&#xdf;" horiz-adv-x="1261" 
d="M836 -23q-142 0 -295 72l41 113q133 -62 241 -62q95 0 154 44t59 118q0 44 -22 78.5t-57 58.5t-77.5 46t-85.5 47t-78 55.5t-57 78t-22 107.5q0 48 18 91t43.5 76t51 65.5t43.5 74.5t18 88q0 89 -64.5 147t-168.5 58q-117 0 -189 -72.5t-72 -195.5v-1065h-153v1071
q0 174 116.5 279.5t303.5 105.5q167 0 275 -91.5t108 -229.5q0 -56 -18 -104.5t-43.5 -82.5t-51 -66t-43.5 -68t-18 -73q0 -44 21.5 -78t56 -57.5t76 -45t83.5 -47t76.5 -57t56 -81t21.5 -113.5q0 -129 -96.5 -207t-251.5 -78z" />
    <glyph glyph-name="agrave" unicode="&#xe0;" horiz-adv-x="1052" 
d="M664 1253l-62 -86l-356 224l71 102zM504 1032q176 0 287.5 -98.5t111.5 -261.5v-672h-125l-16 123q-111 -146 -326 -146q-155 0 -256.5 86.5t-101.5 223.5q0 146 120 229.5t332 83.5q120 0 228 -27v80q0 106 -76.5 172t-196.5 66q-166 0 -307 -103l-41 132
q159 112 367 112zM469 109q125 0 207 85t82 199v53q-104 29 -207 29q-149 0 -232 -48.5t-83 -131.5q0 -81 66.5 -133.5t166.5 -52.5z" />
    <glyph glyph-name="aacute" unicode="&#xe1;" horiz-adv-x="1052" 
d="M815 1391l-356 -224l-62 86l346 240zM504 1032q176 0 287.5 -98.5t111.5 -261.5v-672h-125l-16 123q-111 -146 -326 -146q-155 0 -256.5 86.5t-101.5 223.5q0 146 120 229.5t332 83.5q120 0 228 -27v80q0 106 -76.5 172t-196.5 66q-166 0 -307 -103l-41 132
q159 112 367 112zM469 109q125 0 207 85t82 199v53q-104 29 -207 29q-149 0 -232 -48.5t-83 -131.5q0 -81 66.5 -133.5t166.5 -52.5z" />
    <glyph glyph-name="acircumflex" unicode="&#xe2;" horiz-adv-x="1052" 
d="M524 1376l-231 -207l-70 76l252 244h98l252 -244l-69 -76zM504 1032q176 0 287.5 -98.5t111.5 -261.5v-672h-125l-16 123q-111 -146 -326 -146q-155 0 -256.5 86.5t-101.5 223.5q0 146 120 229.5t332 83.5q120 0 228 -27v80q0 106 -76.5 172t-196.5 66q-166 0 -307 -103
l-41 132q159 112 367 112zM469 109q125 0 207 85t82 199v53q-104 29 -207 29q-149 0 -232 -48.5t-83 -131.5q0 -81 66.5 -133.5t166.5 -52.5z" />
    <glyph glyph-name="atilde" unicode="&#xe3;" horiz-adv-x="1052" 
d="M406 1317q-31 0 -55 -20.5t-34 -55.5l-100 31q15 70 63 112.5t113 42.5q51 0 136.5 -37.5t113.5 -37.5q66 0 88 75l100 -30q-15 -70 -63 -113t-113 -43q-51 0 -136 38t-113 38zM504 1032q176 0 287.5 -98.5t111.5 -261.5v-672h-125l-16 123q-111 -146 -326 -146
q-155 0 -256.5 86.5t-101.5 223.5q0 146 120 229.5t332 83.5q120 0 228 -27v80q0 106 -76.5 172t-196.5 66q-166 0 -307 -103l-41 132q159 112 367 112zM469 109q125 0 207 85t82 199v53q-104 29 -207 29q-149 0 -232 -48.5t-83 -131.5q0 -81 66.5 -133.5t166.5 -52.5z" />
    <glyph glyph-name="adieresis" unicode="&#xe4;" horiz-adv-x="1052" 
d="M311 1237q-43 0 -69.5 26.5t-26.5 69.5t27 71t69 28q43 0 70 -28t27 -71t-27 -69.5t-70 -26.5zM737 1237q-43 0 -69.5 26.5t-26.5 69.5t27 71t69 28q43 0 70 -28t27 -71t-27 -69.5t-70 -26.5zM504 1032q176 0 287.5 -98.5t111.5 -261.5v-672h-125l-16 123
q-111 -146 -326 -146q-155 0 -256.5 86.5t-101.5 223.5q0 146 120 229.5t332 83.5q120 0 228 -27v80q0 106 -76.5 172t-196.5 66q-166 0 -307 -103l-41 132q159 112 367 112zM469 109q125 0 207 85t82 199v53q-104 29 -207 29q-149 0 -232 -48.5t-83 -131.5
q0 -81 66.5 -133.5t166.5 -52.5z" />
    <glyph glyph-name="aring" unicode="&#xe5;" horiz-adv-x="1052" 
d="M526 1137q-89 0 -146.5 55t-57.5 141q0 88 56.5 142.5t145.5 54.5q90 0 146.5 -55t56.5 -142t-55.5 -141.5t-145.5 -54.5zM524 1452q-54 0 -86 -32.5t-32 -86.5t33.5 -86.5t86.5 -32.5t85 32.5t32 86.5t-33 86.5t-86 32.5zM504 1032q176 0 287.5 -98.5t111.5 -261.5v-672
h-125l-16 123q-111 -146 -326 -146q-155 0 -256.5 86.5t-101.5 223.5q0 146 120 229.5t332 83.5q120 0 228 -27v80q0 106 -76.5 172t-196.5 66q-166 0 -307 -103l-41 132q159 112 367 112zM469 109q125 0 207 85t82 199v53q-104 29 -207 29q-149 0 -232 -48.5t-83 -131.5
q0 -81 66.5 -133.5t166.5 -52.5z" />
    <glyph glyph-name="ae" unicode="&#xe6;" horiz-adv-x="1769" 
d="M1688 526q0 -32 -5 -77h-765q17 -155 117 -241.5t255 -86.5q154 0 297 102l51 -121q-160 -125 -362 -125q-144 0 -259.5 64t-182.5 176q-54 -104 -160 -172t-238 -68q-155 0 -256.5 86.5t-101.5 223.5q0 146 120 229.5t332 83.5q120 0 228 -27v80q0 106 -76.5 172
t-196.5 66q-166 0 -307 -103l-41 132q159 112 367 112q124 0 218 -50t142 -140q65 90 163 140t214 50q191 0 319 -143.5t128 -362.5zM1235 889q-120 0 -205.5 -83.5t-107.5 -217.5h606q-9 132 -91.5 216.5t-201.5 84.5zM469 109q125 0 207 85t82 199v53q-104 29 -207 29
q-150 0 -232.5 -48.5t-82.5 -131.5q0 -81 66.5 -133.5t166.5 -52.5z" />
    <glyph glyph-name="ccedilla" unicode="&#xe7;" horiz-adv-x="1026" 
d="M934 100q-139 -107 -303 -120l-17 -97q66 -9 109 -56t43 -110q0 -78 -64.5 -127t-166.5 -49q-100 0 -185 35l29 94q77 -30 141 -30q51 0 84 25.5t33 66.5q0 40 -33.5 64t-89.5 24h-22l28 162q-199 21 -316.5 165t-117.5 353q0 149 62 270t179 191.5t267 70.5
q194 0 342 -125l-74 -123q-116 107 -262 107q-155 0 -255.5 -111t-100.5 -280q0 -167 99.5 -273t258.5 -106q131 0 262 98z" />
    <glyph glyph-name="egrave" unicode="&#xe8;" horiz-adv-x="1097" 
d="M715 1253l-62 -86l-356 224l72 102zM1016 526q0 -41 -4 -77h-766q17 -155 117 -241.5t255 -86.5q154 0 297 102l52 -121q-160 -125 -363 -125q-227 0 -372.5 149t-145.5 380q0 225 138.5 375.5t344.5 150.5q191 0 319 -143.5t128 -362.5zM563 889q-120 0 -205.5 -83.5
t-107.5 -217.5h606q-9 132 -91.5 216.5t-201.5 84.5z" />
    <glyph glyph-name="eacute" unicode="&#xe9;" horiz-adv-x="1097" 
d="M866 1391l-356 -224l-61 86l346 240zM1016 526q0 -41 -4 -77h-766q17 -155 117 -241.5t255 -86.5q154 0 297 102l52 -121q-160 -125 -363 -125q-227 0 -372.5 149t-145.5 380q0 225 138.5 375.5t344.5 150.5q191 0 319 -143.5t128 -362.5zM563 889q-120 0 -205.5 -83.5
t-107.5 -217.5h606q-9 132 -91.5 216.5t-201.5 84.5z" />
    <glyph glyph-name="ecircumflex" unicode="&#xea;" horiz-adv-x="1097" 
d="M575 1376l-231 -207l-70 76l252 244h99l252 -244l-70 -76zM1016 526q0 -41 -4 -77h-766q17 -155 117 -241.5t255 -86.5q154 0 297 102l52 -121q-160 -125 -363 -125q-227 0 -372.5 149t-145.5 380q0 225 138.5 375.5t344.5 150.5q191 0 319 -143.5t128 -362.5zM563 889
q-120 0 -205.5 -83.5t-107.5 -217.5h606q-9 132 -91.5 216.5t-201.5 84.5z" />
    <glyph glyph-name="edieresis" unicode="&#xeb;" horiz-adv-x="1097" 
d="M362 1237q-43 0 -69.5 26.5t-26.5 69.5t27 71t69 28q43 0 70 -28t27 -71t-27 -69.5t-70 -26.5zM788 1237q-43 0 -69.5 26.5t-26.5 69.5t27 71t69 28q43 0 70 -28t27 -71t-27 -69.5t-70 -26.5zM1016 526q0 -41 -4 -77h-766q17 -155 117 -241.5t255 -86.5q154 0 297 102
l52 -121q-160 -125 -363 -125q-227 0 -372.5 149t-145.5 380q0 225 138.5 375.5t344.5 150.5q191 0 319 -143.5t128 -362.5zM563 889q-120 0 -205.5 -83.5t-107.5 -217.5h606q-9 132 -91.5 216.5t-201.5 84.5z" />
    <glyph glyph-name="igrave" unicode="&#xec;" horiz-adv-x="483" 
d="M319 1169l-356 224l72 102l346 -240zM164 0v1010h155v-1010h-155z" />
    <glyph glyph-name="iacute" unicode="&#xed;" horiz-adv-x="483" 
d="M176 1169l-61 86l346 240l71 -102zM164 0v1010h155v-1010h-155z" />
    <glyph glyph-name="icircumflex" unicode="&#xee;" horiz-adv-x="483" 
d="M10 1171l-69 76l252 244h98l252 -244l-70 -76l-231 207zM164 0v1010h155v-1010h-155z" />
    <glyph glyph-name="idieresis" unicode="&#xef;" horiz-adv-x="483" 
d="M29 1239q-43 0 -70 26.5t-27 69.5t27 71t70 28q42 0 69 -28t27 -71t-26.5 -69.5t-69.5 -26.5zM455 1239q-43 0 -70 26.5t-27 69.5t27 71t70 28q42 0 69 -28t27 -71t-26.5 -69.5t-69.5 -26.5zM164 0v1010h155v-1010h-155z" />
    <glyph glyph-name="eth" unicode="&#xf0;" horiz-adv-x="1159" 
d="M565 -18q-211 0 -345 144.5t-134 373.5q0 220 130 358.5t333 138.5q94 0 167.5 -30.5t139.5 -100.5q-69 213 -270 361l-267 -131l-45 86l205 98q-73 43 -172 80l39 108q161 -50 275 -118l235 118l45 -86l-188 -92q160 -125 252.5 -292t105.5 -365q3 -65 0 -127
q-12 -232 -152.5 -378t-353.5 -146zM571 111q153 0 250 109.5t97 285.5q0 159 -97 259.5t-250 100.5q-148 0 -240.5 -103t-92.5 -269q0 -170 92.5 -276.5t240.5 -106.5z" />
    <glyph glyph-name="ntilde" unicode="&#xf1;" horiz-adv-x="1191" 
d="M475 1317q-31 0 -54 -20.5t-34 -55.5l-100 31q15 70 63 112.5t113 42.5q51 0 136.5 -37.5t113.5 -37.5q66 0 88 75l100 -30q-15 -70 -63 -113t-113 -43q-51 0 -136.5 38t-113.5 38zM643 1032q176 0 287.5 -115t111.5 -301v-616h-155v586q0 145 -76.5 230t-204.5 85
t-209.5 -96.5t-81.5 -245.5v-559h-155v1010h125l16 -146q119 168 342 168z" />
    <glyph glyph-name="ograve" unicode="&#xf2;" horiz-adv-x="1167" 
d="M659 1167l-356 224l72 102l346 -240zM584 -23q-214 0 -356 151t-142 378q0 226 141.5 376t356.5 150q141 0 254.5 -68.5t178 -189t64.5 -268.5q0 -227 -141.5 -378t-355.5 -151zM584 121q146 0 243 109.5t97 275.5q0 164 -97 273.5t-243 109.5t-243 -109.5t-97 -273.5
q0 -166 97 -275.5t243 -109.5z" />
    <glyph glyph-name="oacute" unicode="&#xf3;" horiz-adv-x="1167" 
d="M516 1167l-61 86l346 240l71 -102zM584 -23q-214 0 -356 151t-142 378q0 226 141.5 376t356.5 150q141 0 254.5 -68.5t178 -189t64.5 -268.5q0 -227 -141.5 -378t-355.5 -151zM584 121q146 0 243 109.5t97 275.5q0 164 -97 273.5t-243 109.5t-243 -109.5t-97 -273.5
q0 -166 97 -275.5t243 -109.5z" />
    <glyph glyph-name="ocircumflex" unicode="&#xf4;" horiz-adv-x="1167" 
d="M350 1169l-69 76l251 244h99l252 -244l-70 -76l-231 207zM584 -23q-214 0 -356 151t-142 378q0 226 141.5 376t356.5 150q141 0 254.5 -68.5t178 -189t64.5 -268.5q0 -227 -141.5 -378t-355.5 -151zM584 121q146 0 243 109.5t97 275.5q0 164 -97 273.5t-243 109.5
t-243 -109.5t-97 -273.5q0 -166 97 -275.5t243 -109.5z" />
    <glyph glyph-name="otilde" unicode="&#xf5;" horiz-adv-x="1167" 
d="M375 1241l-101 31q15 70 63.5 112.5t113.5 42.5q51 0 136 -37.5t113 -37.5q66 0 88 75l101 -30q-15 -70 -63 -113t-113 -43q-51 0 -136.5 38t-113.5 38q-31 0 -54 -20.5t-34 -55.5zM584 -23q-214 0 -356 151t-142 378q0 226 141.5 376t356.5 150q141 0 254.5 -68.5
t178 -189t64.5 -268.5q0 -227 -141.5 -378t-355.5 -151zM584 121q146 0 243 109.5t97 275.5q0 164 -97 273.5t-243 109.5t-243 -109.5t-97 -273.5q0 -166 97 -275.5t243 -109.5z" />
    <glyph glyph-name="odieresis" unicode="&#xf6;" horiz-adv-x="1167" 
d="M369 1237q-43 0 -70 26.5t-27 69.5t27 71t70 28q42 0 69 -28t27 -71t-26.5 -69.5t-69.5 -26.5zM795 1237q-43 0 -70 26.5t-27 69.5t27 71t70 28q42 0 69 -28t27 -71t-26.5 -69.5t-69.5 -26.5zM584 -23q-214 0 -356 151t-142 378q0 226 141.5 376t356.5 150
q141 0 254.5 -68.5t178 -189t64.5 -268.5q0 -227 -141.5 -378t-355.5 -151zM584 121q146 0 243 109.5t97 275.5q0 164 -97 273.5t-243 109.5t-243 -109.5t-97 -273.5q0 -166 97 -275.5t243 -109.5z" />
    <glyph glyph-name="divide" unicode="&#xf7;" horiz-adv-x="1179" 
d="M590 891q-40 0 -66 26t-26 66t26 66t66 26t66 -25t26 -67q0 -40 -26 -66t-66 -26zM109 528v123h962v-123h-962zM590 104q-40 0 -66 26.5t-26 66.5t26 66t66 26t66 -26t26 -66t-26 -66.5t-66 -26.5z" />
    <glyph glyph-name="oslash" unicode="&#xf8;" horiz-adv-x="1167" 
d="M920 903q76 -73 118.5 -175.5t42.5 -221.5q0 -227 -141.5 -378t-355.5 -151q-137 0 -248 66l-88 -129l-90 47l96 141q-80 73 -124 177.5t-44 226.5q0 226 141.5 376t356.5 150q137 0 252 -67l79 118l91 -53zM244 506q0 -164 96 -275l412 611q-74 47 -168 47
q-146 0 -243 -109.5t-97 -273.5zM584 121q146 0 243 109.5t97 275.5q0 157 -93 268l-413 -608q76 -45 166 -45z" />
    <glyph glyph-name="ugrave" unicode="&#xf9;" horiz-adv-x="1185" 
d="M733 1253l-61 -86l-357 224l72 102zM870 1010h156v-1010h-125l-16 141q-115 -164 -340 -164q-173 0 -284 114t-111 296v623h155v-578q0 -152 76 -239t205 -87q127 0 205.5 98.5t78.5 254.5v551z" />
    <glyph glyph-name="uacute" unicode="&#xfa;" horiz-adv-x="1185" 
d="M885 1391l-357 -224l-61 86l346 240zM870 1010h156v-1010h-125l-16 141q-115 -164 -340 -164q-173 0 -284 114t-111 296v623h155v-578q0 -152 76 -239t205 -87q127 0 205.5 98.5t78.5 254.5v551z" />
    <glyph glyph-name="ucircumflex" unicode="&#xfb;" horiz-adv-x="1185" 
d="M594 1376l-232 -207l-69 76l252 244h98l252 -244l-70 -76zM870 1010h156v-1010h-125l-16 141q-115 -164 -340 -164q-173 0 -284 114t-111 296v623h155v-578q0 -152 76 -239t205 -87q127 0 205.5 98.5t78.5 254.5v551z" />
    <glyph glyph-name="udieresis" unicode="&#xfc;" horiz-adv-x="1185" 
d="M381 1237q-43 0 -69.5 26.5t-26.5 69.5t27 71t69 28t69 -28t27 -71t-26.5 -69.5t-69.5 -26.5zM807 1237q-43 0 -69.5 26.5t-26.5 69.5t27 71t69 28t69 -28t27 -71t-26.5 -69.5t-69.5 -26.5zM870 1010h156v-1010h-125l-16 141q-115 -164 -340 -164q-173 0 -284 114
t-111 296v623h155v-578q0 -152 76 -239t205 -87q127 0 205.5 98.5t78.5 254.5v551z" />
    <glyph glyph-name="yacute" unicode="&#xfd;" horiz-adv-x="995" 
d="M432 1167l-61 86l346 240l71 -102zM256 -430l174 438l-414 1002h164l322 -830l313 830h162l-569 -1440h-152z" />
    <glyph glyph-name="thorn" unicode="&#xfe;" horiz-adv-x="1222" 
d="M678 1032q129 0 234.5 -68.5t165 -189t59.5 -268.5q0 -227 -131 -378t-328 -151q-246 0 -363 170v-577h-155v1864h155v-570q118 168 363 168zM647 121q141 0 236.5 110t95.5 275q0 164 -95.5 274.5t-236.5 110.5q-142 0 -237 -110.5t-95 -274.5q0 -166 94.5 -275.5
t237.5 -109.5z" />
    <glyph glyph-name="ydieresis" unicode="&#xff;" horiz-adv-x="995" 
d="M285 1237q-43 0 -70 26.5t-27 69.5t27 71t70 28q42 0 69 -28t27 -71t-26.5 -69.5t-69.5 -26.5zM711 1237q-43 0 -70 26.5t-27 69.5t27 71t70 28q42 0 69 -28t27 -71t-26.5 -69.5t-69.5 -26.5zM256 -430l174 438l-414 1002h164l322 -830l313 830h162l-569 -1440h-152z" />
    <glyph glyph-name="Amacron" unicode="&#x100;" horiz-adv-x="1417" 
d="M1010 1794v-111h-602v111h602zM1210 0l-170 424h-665l-172 -424h-164l590 1434h159l588 -1434h-166zM428 559h559l-278 694z" />
    <glyph glyph-name="amacron" unicode="&#x101;" horiz-adv-x="1052" 
d="M825 1389v-109h-602v109h602zM504 1032q176 0 287.5 -98.5t111.5 -261.5v-672h-125l-16 123q-111 -146 -326 -146q-155 0 -256.5 86.5t-101.5 223.5q0 146 120 229.5t332 83.5q120 0 228 -27v80q0 106 -76.5 172t-196.5 66q-166 0 -307 -103l-41 132q159 112 367 112z
M469 109q125 0 207 85t82 199v53q-104 29 -207 29q-149 0 -232 -48.5t-83 -131.5q0 -81 66.5 -133.5t166.5 -52.5z" />
    <glyph glyph-name="Abreve" unicode="&#x102;" horiz-adv-x="1417" 
d="M709 1569q-127 0 -212 80t-91 211h106q4 -81 59.5 -131t137.5 -50t136 50t58 131h107q-6 -131 -90.5 -211t-210.5 -80zM1210 0l-170 424h-665l-172 -424h-164l590 1434h159l588 -1434h-166zM428 559h559l-278 694z" />
    <glyph glyph-name="abreve" unicode="&#x103;" horiz-adv-x="1052" 
d="M524 1163q-127 0 -211 81t-90 212h105q6 -81 60 -130.5t136 -49.5t136.5 49.5t60.5 130.5h104q-6 -131 -90 -212t-211 -81zM504 1032q176 0 287.5 -98.5t111.5 -261.5v-672h-125l-16 123q-111 -146 -326 -146q-155 0 -256.5 86.5t-101.5 223.5q0 146 120 229.5t332 83.5
q120 0 228 -27v80q0 106 -76.5 172t-196.5 66q-166 0 -307 -103l-41 132q159 112 367 112zM469 109q125 0 207 85t82 199v53q-104 29 -207 29q-149 0 -232 -48.5t-83 -131.5q0 -81 66.5 -133.5t166.5 -52.5z" />
    <glyph glyph-name="Aogonek" unicode="&#x104;" horiz-adv-x="1417" 
d="M1376 -342l21 -92q-70 -25 -140 -25q-81 0 -134.5 47t-53.5 125q0 145 188 287h-47l-170 424h-665l-172 -424h-164l590 1434h159l588 -1434q-186 -146 -186 -262q0 -45 29 -71.5t73 -26.5q35 0 84 18zM428 559h559l-278 694z" />
    <glyph glyph-name="aogonek" unicode="&#x105;" horiz-adv-x="1052" 
d="M903 -342l21 -92q-70 -25 -140 -25q-81 0 -134.5 47t-53.5 125q0 145 188 287h-6l-16 123q-111 -146 -326 -146q-155 0 -256.5 86.5t-101.5 223.5q0 146 120 229.5t332 83.5q120 0 228 -27v80q0 106 -76.5 172t-196.5 66q-166 0 -307 -103l-41 132q159 112 367 112
q176 0 287.5 -98.5t111.5 -261.5v-672q-186 -146 -186 -262q0 -45 29 -71.5t73 -26.5q35 0 84 18zM469 109q125 0 207 85t82 199v53q-104 29 -207 29q-149 0 -232 -48.5t-83 -131.5q0 -81 66.5 -133.5t166.5 -52.5z" />
    <glyph glyph-name="Cacute" unicode="&#x106;" horiz-adv-x="1441" 
d="M791 1571l-62 86l346 239l72 -102zM846 -23q-215 0 -385.5 97t-264.5 266.5t-94 378.5q0 210 93 378t262.5 263.5t384.5 95.5q123 0 252 -38.5t237 -110.5l-67 -131q-88 64 -195.5 98.5t-214.5 34.5q-261 0 -423.5 -166t-162.5 -424q0 -169 72.5 -304t209.5 -213.5
t314 -78.5q102 0 209 34t197 97l65 -127q-225 -150 -489 -150z" />
    <glyph glyph-name="cacute" unicode="&#x107;" horiz-adv-x="1026" 
d="M514 1167l-61 86l346 240l71 -102zM584 -23q-151 0 -265.5 69.5t-173.5 187.5t-59 266q0 149 62 270t179 191.5t267 70.5q194 0 342 -125l-74 -123q-116 107 -262 107q-155 0 -255.5 -111t-100.5 -280q0 -167 99.5 -273t258.5 -106q131 0 262 98l70 -119
q-159 -123 -350 -123z" />
    <glyph glyph-name="Ccircumflex" unicode="&#x108;" horiz-adv-x="1441" 
d="M625 1573l-72 76l252 243h100l252 -243l-70 -76l-231 209zM846 -23q-215 0 -385.5 97t-264.5 266.5t-94 378.5q0 210 93 378t262.5 263.5t384.5 95.5q123 0 252 -38.5t237 -110.5l-67 -131q-88 64 -195.5 98.5t-214.5 34.5q-261 0 -423.5 -166t-162.5 -424
q0 -169 72.5 -304t209.5 -213.5t314 -78.5q102 0 209 34t197 97l65 -127q-225 -150 -489 -150z" />
    <glyph glyph-name="ccircumflex" unicode="&#x109;" horiz-adv-x="1026" 
d="M348 1169l-69 76l251 244h99l252 -244l-70 -76l-231 207zM584 -23q-151 0 -265.5 69.5t-173.5 187.5t-59 266q0 149 62 270t179 191.5t267 70.5q194 0 342 -125l-74 -123q-116 107 -262 107q-155 0 -255.5 -111t-100.5 -280q0 -167 99.5 -273t258.5 -106q131 0 262 98
l70 -119q-159 -123 -350 -123z" />
    <glyph glyph-name="Cdotaccent" unicode="&#x10a;" horiz-adv-x="1441" 
d="M856 1636q-44 0 -73 28.5t-29 72.5q0 46 29 75t73 29t73 -29t29 -75q0 -44 -29 -72.5t-73 -28.5zM846 -23q-215 0 -385.5 97t-264.5 266.5t-94 378.5q0 210 93 378t262.5 263.5t384.5 95.5q123 0 252 -38.5t237 -110.5l-67 -131q-88 64 -195.5 98.5t-214.5 34.5
q-261 0 -423.5 -166t-162.5 -424q0 -169 72.5 -304t209.5 -213.5t314 -78.5q102 0 209 34t197 97l65 -127q-225 -150 -489 -150z" />
    <glyph glyph-name="cdotaccent" unicode="&#x10b;" horiz-adv-x="1026" 
d="M580 1233q-45 0 -74 28t-29 72t29.5 73.5t73.5 29.5t73 -29.5t29 -73.5t-29 -72t-73 -28zM584 -23q-151 0 -265.5 69.5t-173.5 187.5t-59 266q0 149 62 270t179 191.5t267 70.5q194 0 342 -125l-74 -123q-116 107 -262 107q-155 0 -255.5 -111t-100.5 -280
q0 -167 99.5 -273t258.5 -106q131 0 262 98l70 -119q-159 -123 -350 -123z" />
    <glyph glyph-name="Ccaron" unicode="&#x10c;" horiz-adv-x="1441" 
d="M805 1585l-252 242l72 76l231 -207l231 207l70 -76l-252 -242h-100zM846 -23q-215 0 -385.5 97t-264.5 266.5t-94 378.5q0 210 93 378t262.5 263.5t384.5 95.5q123 0 252 -38.5t237 -110.5l-67 -131q-88 64 -195.5 98.5t-214.5 34.5q-261 0 -423.5 -166t-162.5 -424
q0 -169 72.5 -304t209.5 -213.5t314 -78.5q102 0 209 34t197 97l65 -127q-225 -150 -489 -150z" />
    <glyph glyph-name="ccaron" unicode="&#x10d;" horiz-adv-x="1026" 
d="M530 1180l-251 243l69 74l232 -205l231 205l70 -74l-252 -243h-99zM584 -23q-151 0 -265.5 69.5t-173.5 187.5t-59 266q0 149 62 270t179 191.5t267 70.5q194 0 342 -125l-74 -123q-116 107 -262 107q-155 0 -255.5 -111t-100.5 -280q0 -167 99.5 -273t258.5 -106
q131 0 262 98l70 -119q-159 -123 -350 -123z" />
    <glyph glyph-name="Dcaron" unicode="&#x10e;" horiz-adv-x="1460" 
d="M664 1585l-252 242l71 76l232 -207l231 207l70 -76l-252 -242h-100zM184 0v1434h400q358 0 566 -198.5t208 -524.5q0 -157 -53.5 -288t-152 -225t-244.5 -146t-324 -52h-400zM344 141h229q288 0 455.5 157t167.5 413q0 261 -167.5 421t-455.5 160h-229v-1151z" />
    <glyph glyph-name="dcaron" unicode="&#x10f;" horiz-adv-x="1349" 
d="M1419 1501l119 -41l-143 -342l-105 35zM907 862v572h156v-1434h-125l-23 160q-114 -183 -370 -183q-129 0 -234.5 68.5t-165 189.5t-59.5 269q0 227 131 377.5t328 150.5q245 0 362 -170zM575 119q142 0 237 110.5t95 274.5q0 166 -94.5 275.5t-237.5 109.5
q-141 0 -236 -110t-95 -275q0 -164 95 -274.5t236 -110.5z" />
    <glyph glyph-name="Dcroat" unicode="&#x110;" horiz-adv-x="1503" 
d="M584 1434q358 0 566 -198.5t208 -524.5q0 -157 -53.5 -288t-152 -225t-244.5 -146t-324 -52h-400v645h-176v121h176v668h400zM573 141q288 0 455.5 157t167.5 413q0 261 -167.5 421t-455.5 160h-229v-526h373v-121h-373v-504h229z" />
    <glyph glyph-name="dcroat" unicode="&#x111;" horiz-adv-x="1222" 
d="M1268 1268v-115h-205v-1153h-125l-23 160q-114 -183 -370 -183q-129 0 -234.5 68.5t-165 189.5t-59.5 269q0 227 131 377.5t328 150.5q245 0 362 -170v291h-289v115h289v166h156v-166h205zM575 119q142 0 237 110.5t95 274.5q0 166 -94.5 275.5t-237.5 109.5
q-141 0 -236 -110t-95 -275q0 -164 95 -274.5t236 -110.5z" />
    <glyph glyph-name="Emacron" unicode="&#x112;" horiz-adv-x="1216" 
d="M293 1683v111h602v-111h-602zM184 0v1434h881v-142h-721v-497h655v-140h-655v-514h754v-141h-914z" />
    <glyph glyph-name="emacron" unicode="&#x113;" horiz-adv-x="1097" 
d="M877 1389v-109h-603v109h603zM1016 526q0 -41 -4 -77h-766q17 -155 117 -241.5t255 -86.5q154 0 297 102l52 -121q-160 -125 -363 -125q-227 0 -372.5 149t-145.5 380q0 225 138.5 375.5t344.5 150.5q191 0 319 -143.5t128 -362.5zM563 889q-120 0 -205.5 -83.5
t-107.5 -217.5h606q-9 132 -91.5 216.5t-201.5 84.5z" />
    <glyph glyph-name="Ebreve" unicode="&#x114;" horiz-adv-x="1216" 
d="M594 1569q-127 0 -212 80t-91 211h106q4 -81 59.5 -131t137.5 -50t136 50t58 131h107q-6 -131 -90.5 -211t-210.5 -80zM184 0v1434h881v-142h-721v-497h655v-140h-655v-514h754v-141h-914z" />
    <glyph glyph-name="ebreve" unicode="&#x115;" horiz-adv-x="1097" 
d="M575 1163q-127 0 -211 81t-90 212h105q6 -81 60 -130.5t136 -49.5t136.5 49.5t60.5 130.5h105q-6 -131 -90.5 -212t-211.5 -81zM1016 526q0 -41 -4 -77h-766q17 -155 117 -241.5t255 -86.5q154 0 297 102l52 -121q-160 -125 -363 -125q-227 0 -372.5 149t-145.5 380
q0 225 138.5 375.5t344.5 150.5q191 0 319 -143.5t128 -362.5zM563 889q-120 0 -205.5 -83.5t-107.5 -217.5h606q-9 132 -91.5 216.5t-201.5 84.5z" />
    <glyph glyph-name="Edotaccent" unicode="&#x116;" horiz-adv-x="1216" 
d="M594 1636q-44 0 -73 28.5t-29 72.5q0 46 29 75t73 29t73 -29t29 -75q0 -44 -29 -72.5t-73 -28.5zM184 0v1434h881v-142h-721v-497h655v-140h-655v-514h754v-141h-914z" />
    <glyph glyph-name="edotaccent" unicode="&#x117;" horiz-adv-x="1097" 
d="M575 1233q-44 0 -73 28t-29 72t29 73.5t73 29.5t73.5 -29.5t29.5 -73.5t-29 -72t-74 -28zM1016 526q0 -41 -4 -77h-766q17 -155 117 -241.5t255 -86.5q154 0 297 102l52 -121q-160 -125 -363 -125q-227 0 -372.5 149t-145.5 380q0 225 138.5 375.5t344.5 150.5
q191 0 319 -143.5t128 -362.5zM563 889q-120 0 -205.5 -83.5t-107.5 -217.5h606q-9 132 -91.5 216.5t-201.5 84.5z" />
    <glyph glyph-name="Eogonek" unicode="&#x118;" horiz-adv-x="1216" 
d="M1098 -342l20 -92q-70 -25 -139 -25q-81 0 -134.5 47t-53.5 125q0 145 188 287h-795v1434h881v-142h-721v-497h655v-140h-655v-514h754v-141q-187 -146 -187 -262q0 -45 29.5 -71.5t73.5 -26.5q35 0 84 18z" />
    <glyph glyph-name="eogonek" unicode="&#x119;" horiz-adv-x="1097" 
d="M1016 526q0 -41 -4 -77h-766q17 -155 117 -241.5t255 -86.5q152 0 297 92l52 -121q-119 -107 -166 -186t-47 -148q0 -45 29.5 -71.5t74.5 -26.5q32 0 84 18l21 -92q-67 -24 -140 -24q-83 0 -136.5 47t-53.5 125q0 127 117 260q-83 -17 -146 -17q-227 0 -372.5 149
t-145.5 380q0 225 138.5 375.5t344.5 150.5q191 0 319 -143.5t128 -362.5zM563 889q-120 0 -205.5 -83.5t-107.5 -217.5h606q-9 132 -91.5 216.5t-201.5 84.5z" />
    <glyph glyph-name="Ecaron" unicode="&#x11a;" horiz-adv-x="1216" 
d="M543 1585l-252 242l71 76l232 -207l231 207l70 -76l-252 -242h-100zM184 0v1434h881v-142h-721v-497h655v-140h-655v-514h754v-141h-914z" />
    <glyph glyph-name="ecaron" unicode="&#x11b;" horiz-adv-x="1097" 
d="M625 1180h-99l-252 243l70 74l231 -205l232 205l70 -74zM1016 526q0 -41 -4 -77h-766q17 -155 117 -241.5t255 -86.5q154 0 297 102l52 -121q-160 -125 -363 -125q-227 0 -372.5 149t-145.5 380q0 225 138.5 375.5t344.5 150.5q191 0 319 -143.5t128 -362.5zM563 889
q-120 0 -205.5 -83.5t-107.5 -217.5h606q-9 132 -91.5 216.5t-201.5 84.5z" />
    <glyph glyph-name="Gcircumflex" unicode="&#x11c;" horiz-adv-x="1529" 
d="M834 1782l-232 -209l-72 76l252 243h101l252 -243l-70 -76zM852 590v123h498v-619q-106 -56 -236.5 -86.5t-259.5 -30.5q-168 0 -309.5 57t-238 156t-150.5 235.5t-54 293.5t55.5 293.5t154 234t239 153.5t305.5 56q125 0 256 -36.5t238 -106.5l-70 -129
q-89 60 -200 92.5t-220 32.5q-175 0 -311 -76.5t-209.5 -210.5t-73.5 -303q0 -170 70 -304t206.5 -213t319.5 -79q178 0 338 65v402h-348z" />
    <glyph glyph-name="gcircumflex" unicode="&#x11d;" horiz-adv-x="1222" 
d="M600 1376l-231 -207l-70 76l252 244h98l252 -244l-70 -76zM938 1010h125v-985q0 -134 -60.5 -243t-171.5 -172t-251 -63q-127 0 -225.5 31.5t-207.5 104.5l46 118q100 -70 183 -99.5t189 -29.5q152 0 247 99t95 249v134q-58 -80 -150 -125t-212 -45q-199 0 -329 146
t-130 374q0 149 59.5 269.5t164.5 189.5t235 69q126 0 220 -49.5t150 -136.5zM575 125q142 0 237 109.5t95 273.5q0 163 -95 272t-237 109q-141 0 -236 -109t-95 -272q0 -164 95 -273.5t236 -109.5z" />
    <glyph glyph-name="Gbreve" unicode="&#x11e;" horiz-adv-x="1529" 
d="M834 1569q-127 0 -212.5 80t-91.5 211h107q4 -81 59.5 -131t137.5 -50t136 50t58 131h107q-6 -131 -90.5 -211t-210.5 -80zM852 590v123h498v-619q-106 -56 -236.5 -86.5t-259.5 -30.5q-168 0 -309.5 57t-238 156t-150.5 235.5t-54 293.5t55.5 293.5t154 234t239 153.5
t305.5 56q125 0 256 -36.5t238 -106.5l-70 -129q-89 60 -200 92.5t-220 32.5q-175 0 -311 -76.5t-209.5 -210.5t-73.5 -303q0 -170 70 -304t206.5 -213t319.5 -79q178 0 338 65v402h-348z" />
    <glyph glyph-name="gbreve" unicode="&#x11f;" horiz-adv-x="1222" 
d="M600 1163q-127 0 -211 81t-90 212h104q6 -81 60.5 -130.5t136.5 -49.5t136.5 49.5t60.5 130.5h104q-6 -131 -90 -212t-211 -81zM938 1010h125v-985q0 -134 -60.5 -243t-171.5 -172t-251 -63q-127 0 -225.5 31.5t-207.5 104.5l46 118q100 -70 183 -99.5t189 -29.5
q152 0 247 99t95 249v134q-58 -80 -150 -125t-212 -45q-199 0 -329 146t-130 374q0 149 59.5 269.5t164.5 189.5t235 69q126 0 220 -49.5t150 -136.5zM575 125q142 0 237 109.5t95 273.5q0 163 -95 272t-237 109q-141 0 -236 -109t-95 -272q0 -164 95 -273.5t236 -109.5z
" />
    <glyph glyph-name="Gdotaccent" unicode="&#x120;" horiz-adv-x="1529" 
d="M834 1636q-44 0 -73.5 28.5t-29.5 72.5q0 45 29.5 74.5t73.5 29.5t73 -29t29 -75q0 -44 -29 -72.5t-73 -28.5zM852 590v123h498v-619q-106 -56 -236.5 -86.5t-259.5 -30.5q-168 0 -309.5 57t-238 156t-150.5 235.5t-54 293.5t55.5 293.5t154 234t239 153.5t305.5 56
q125 0 256 -36.5t238 -106.5l-70 -129q-89 60 -200 92.5t-220 32.5q-175 0 -311 -76.5t-209.5 -210.5t-73.5 -303q0 -170 70 -304t206.5 -213t319.5 -79q178 0 338 65v402h-348z" />
    <glyph glyph-name="gdotaccent" unicode="&#x121;" horiz-adv-x="1222" 
d="M600 1233q-44 0 -73 28t-29 72t29 73.5t73 29.5t73 -29.5t29 -73.5t-29 -72t-73 -28zM938 1010h125v-985q0 -134 -60.5 -243t-171.5 -172t-251 -63q-127 0 -225.5 31.5t-207.5 104.5l46 118q100 -70 183 -99.5t189 -29.5q152 0 247 99t95 249v134q-58 -80 -150 -125
t-212 -45q-199 0 -329 146t-130 374q0 149 59.5 269.5t164.5 189.5t235 69q126 0 220 -49.5t150 -136.5zM575 125q142 0 237 109.5t95 273.5q0 163 -95 272t-237 109q-141 0 -236 -109t-95 -272q0 -164 95 -273.5t236 -109.5z" />
    <glyph glyph-name="uni0122" unicode="&#x122;" horiz-adv-x="1529" 
d="M852 590v123h498v-619q-106 -56 -236.5 -86.5t-259.5 -30.5q-168 0 -309.5 57t-238 156t-150.5 235.5t-54 293.5t55.5 293.5t154 234t239 153.5t305.5 56q125 0 256 -36.5t238 -106.5l-70 -129q-89 60 -200 92.5t-220 32.5q-175 0 -311 -76.5t-209.5 -210.5t-73.5 -303
q0 -170 70 -304t206.5 -213t319.5 -79q178 0 338 65v402h-348zM834 -131q47 0 75.5 -35.5t28.5 -95.5q0 -96 -49 -179.5t-141 -140.5l-46 62q116 90 125 207q-38 -3 -64 22t-26 62q0 43 27 70.5t70 27.5z" />
    <glyph glyph-name="uni0123" unicode="&#x123;" horiz-adv-x="1191" 
d="M596 1118q-47 0 -75.5 36t-28.5 95q0 96 49 179.5t141 140.5l45 -60q-116 -90 -125 -209q38 3 64 -21.5t26 -61.5q0 -43 -27 -71t-69 -28zM938 1010h125v-985q0 -134 -60.5 -243t-171.5 -172t-251 -63q-127 0 -225.5 31.5t-207.5 104.5l46 118q100 -70 183 -99.5
t189 -29.5q152 0 247 99t95 249v134q-58 -80 -150 -125t-212 -45q-199 0 -329 146t-130 374q0 149 59.5 269.5t164.5 189.5t235 69q126 0 220 -49.5t150 -136.5zM575 125q142 0 237 109.5t95 273.5q0 163 -95 272t-237 109q-141 0 -236 -109t-95 -272q0 -164 95 -273.5
t236 -109.5z" />
    <glyph glyph-name="Hcircumflex" unicode="&#x124;" horiz-adv-x="1501" 
d="M758 1782l-232 -209l-71 76l252 243h100l252 -243l-70 -76zM1157 1434h162v-1434h-162v649h-813v-649h-160v1434h160v-643h813v643z" />
    <glyph glyph-name="hcircumflex" unicode="&#x125;" horiz-adv-x="1191" 
d="M471 1573l-231 209l-232 -209l-71 76l251 243h101l252 -243zM643 1032q176 0 287.5 -115t111.5 -301v-616h-155v586q0 145 -76.5 230t-204.5 85t-209.5 -96.5t-81.5 -245.5v-559h-155v1434h157v-549q115 147 326 147z" />
    <glyph glyph-name="Hbar" unicode="&#x126;" horiz-adv-x="1501" 
d="M1470 1161v-121h-151v-1040h-162v649h-813v-649h-160v1040h-153v121h153v273h160v-273h813v273h162v-273h151zM1157 791v249h-813v-249h813z" />
    <glyph glyph-name="hbar" unicode="&#x127;" horiz-adv-x="1191" 
d="M643 1032q176 0 287.5 -115t111.5 -301v-616h-155v586q0 145 -76.5 230t-204.5 85t-209.5 -96.5t-81.5 -245.5v-559h-155v1153h-205v115h205v166h157v-166h287v-115h-287v-268q115 147 326 147z" />
    <glyph glyph-name="Itilde" unicode="&#x128;" horiz-adv-x="528" 
d="M59 1645l-100 30q15 70 63 114t113 44q51 0 136.5 -39t113.5 -39q66 0 88 78l100 -33q-15 -70 -63 -112.5t-113 -42.5q-51 0 -136.5 37.5t-113.5 37.5q-31 0 -54.5 -19.5t-33.5 -55.5zM184 0v1434h160v-1434h-160z" />
    <glyph glyph-name="itilde" unicode="&#x129;" horiz-adv-x="483" 
d="M35 1243l-101 31q15 70 63.5 113t113.5 43q51 0 136 -38t113 -38q66 0 89 76l100 -31q-15 -70 -63 -113t-113 -43q-51 0 -136.5 38t-113.5 38q-31 0 -54 -20.5t-34 -55.5zM164 0v1010h155v-1010h-155z" />
    <glyph glyph-name="Imacron" unicode="&#x12a;" horiz-adv-x="528" 
d="M-35 1683v111h602v-111h-602zM184 0v1434h160v-1434h-160z" />
    <glyph glyph-name="imacron" unicode="&#x12b;" horiz-adv-x="483" 
d="M-59 1282v109h602v-109h-602zM164 0v1010h155v-1010h-155z" />
    <glyph glyph-name="Ibreve" unicode="&#x12c;" horiz-adv-x="528" 
d="M266 1569q-127 0 -212 80t-91 211h107q4 -81 59 -131t137 -50t136.5 50t58.5 131h106q-6 -131 -90.5 -211t-210.5 -80zM184 0v1434h160v-1434h-160z" />
    <glyph glyph-name="ibreve" unicode="&#x12d;" horiz-adv-x="483" 
d="M242 1165q-127 0 -211 81t-90 212h104q6 -81 60.5 -130.5t136.5 -49.5t136 49.5t60 130.5h105q-6 -131 -90 -212t-211 -81zM164 0v1010h155v-1010h-155z" />
    <glyph glyph-name="Iogonek" unicode="&#x12e;" horiz-adv-x="528" 
d="M344 -342l21 -92q-70 -25 -140 -25q-81 0 -134.5 47t-53.5 125q0 145 188 287h-41v1434h160v-1434q-186 -146 -186 -262q0 -45 29 -71.5t73 -26.5q35 0 84 18z" />
    <glyph glyph-name="iogonek" unicode="&#x12f;" horiz-adv-x="489" 
d="M244 1214q-45 0 -75 28t-30 71q0 44 30 71t75 27q46 0 76 -27t30 -71q0 -43 -30 -71t-76 -28zM238 -360q35 0 84 18l20 -92q-70 -25 -139 -25q-81 0 -135 47t-54 125q0 144 189 287h-37v1010h156v-1010q-187 -146 -187 -262q0 -45 29.5 -71.5t73.5 -26.5z" />
    <glyph glyph-name="Idotaccent" unicode="&#x130;" horiz-adv-x="528" 
d="M266 1636q-44 0 -73 28.5t-29 72.5q0 46 29 75t73 29t73.5 -29.5t29.5 -74.5q0 -44 -29.5 -72.5t-73.5 -28.5zM184 0v1434h160v-1434h-160z" />
    <glyph glyph-name="dotlessi" unicode="&#x131;" horiz-adv-x="483" 
d="M164 0v1010h155v-1010h-155z" />
    <glyph glyph-name="IJ" unicode="&#x132;" horiz-adv-x="1433" 
d="M184 0v1434h160v-1434h-160zM844 -25q-123 0 -266 35l22 127q115 -28 209 -28q121 0 190.5 62.5t69.5 197.5v1065h160v-1080q0 -187 -104 -283t-281 -96z" />
    <glyph glyph-name="ij" unicode="&#x133;" horiz-adv-x="991" 
d="M244 1214q-45 0 -75 28t-30 71q0 44 30 71t75 27q46 0 76 -27t30 -71q0 -43 -30 -71t-76 -28zM748 1214q-46 0 -76.5 28t-30.5 71q0 44 30.5 71t76.5 27t75 -27t29 -71q0 -43 -29 -71t-75 -28zM166 0v1010h156v-1010h-156zM543 -453q-125 0 -221 66l30 115
q64 -50 156 -50q71 0 116.5 45t45.5 113v1174h155v-1188q0 -118 -79.5 -196.5t-202.5 -78.5z" />
    <glyph glyph-name="Jcircumflex" unicode="&#x134;" horiz-adv-x="907" 
d="M389 1573l-72 76l252 243h101l252 -243l-70 -76l-231 209zM315 -25q-123 0 -266 35l23 127q115 -28 209 -28q121 0 190.5 62.5t69.5 197.5v1065h159v-1080q0 -187 -104 -283t-281 -96z" />
    <glyph glyph-name="jcircumflex" unicode="&#x135;" horiz-adv-x="499" 
d="M18 1169l-69 76l252 244h98l252 -244l-70 -76l-231 207zM53 -453q-125 0 -221 66l31 117q69 -54 155 -54q71 0 116.5 46t45.5 114v1174h156v-1188q0 -118 -79.5 -196.5t-203.5 -78.5z" />
    <glyph glyph-name="uni0136" unicode="&#x136;" horiz-adv-x="1359" 
d="M184 0v1434h160v-752l735 752h201l-659 -674l679 -760h-198l-594 657l-164 -163v-494h-160zM590 -582l-45 62q116 90 125 207q-38 -3 -64 22t-26 62q0 43 26.5 70.5t69.5 27.5q47 0 75.5 -35.5t28.5 -95.5q0 -96 -49 -179.5t-141 -140.5z" />
    <glyph glyph-name="uni0137" unicode="&#x137;" horiz-adv-x="1056" 
d="M532 559l461 -559h-184l-375 459l-119 -121v-338h-155v1434h155v-916l480 492h182zM520 -131q47 0 76 -35.5t29 -95.5q0 -96 -49.5 -179.5t-141.5 -140.5l-45 62q116 90 125 207q-38 -3 -64 22t-26 62q0 43 26.5 70.5t69.5 27.5z" />
    <glyph glyph-name="kgreenlandic" unicode="&#x138;" horiz-adv-x="1056" 
d="M809 0l-375 459l-119 -121v-338h-155v997h155v-479l480 492h182l-445 -451l461 -559h-184z" />
    <glyph glyph-name="Lacute" unicode="&#x139;" horiz-adv-x="1103" 
d="M201 1571l-62 86l346 239l72 -102zM184 0v1434h160v-1293h692v-141h-852z" />
    <glyph glyph-name="lacute" unicode="&#x13a;" horiz-adv-x="475" 
d="M172 1571l-61 86l346 239l71 -102zM160 0v1434h155v-1434h-155z" />
    <glyph glyph-name="uni013B" unicode="&#x13b;" horiz-adv-x="1103" 
d="M184 0v1434h160v-1293h692v-141h-852zM502 -582l-45 62q116 90 125 207q-38 -3 -64 22t-26 62q0 43 26.5 70.5t69.5 27.5q47 0 75.5 -35.5t28.5 -95.5q0 -96 -49 -179.5t-141 -140.5z" />
    <glyph glyph-name="uni013C" unicode="&#x13c;" horiz-adv-x="475" 
d="M160 0v1434h155v-1434h-155zM152 -582l-46 62q116 90 125 207q-38 -3 -64 22t-26 62q0 43 27 70.5t70 27.5q47 0 75.5 -35.5t28.5 -95.5q0 -96 -49 -179.5t-141 -140.5z" />
    <glyph glyph-name="Lcaron" unicode="&#x13d;" horiz-adv-x="1103" 
d="M633 1118l-105 35l129 348l119 -41zM184 0v1434h160v-1293h692v-141h-852z" />
    <glyph glyph-name="lcaron" unicode="&#x13e;" horiz-adv-x="602" 
d="M541 1118l-105 35l129 348l119 -41zM160 0v1434h155v-1434h-155z" />
    <glyph glyph-name="Ldot" unicode="&#x13f;" horiz-adv-x="1124" 
d="M184 0v1434h160v-1293h692v-141h-852zM793 639q-45 0 -74 28t-29 72q0 46 29.5 75.5t73.5 29.5t73 -29.5t29 -75.5q0 -44 -29 -72t-73 -28z" />
    <glyph glyph-name="ldot" unicode="&#x140;" horiz-adv-x="694" 
d="M160 0v1434h155v-1434h-155zM600 575q-47 0 -79 32t-32 79q0 49 31.5 80t79.5 31q50 0 80.5 -30.5t30.5 -80.5q0 -48 -31 -79.5t-80 -31.5z" />
    <glyph glyph-name="Lslash" unicode="&#x141;" horiz-adv-x="1103" 
d="M344 141h692v-141h-852v592l-166 -74l-49 105l215 96v715h160v-643l272 122l48 -108l-320 -141v-523z" />
    <glyph glyph-name="lslash" unicode="&#x142;" horiz-adv-x="475" 
d="M516 786l-201 -120v-666h-155v571l-158 -96l-47 80l205 125v754h155v-658l156 94z" />
    <glyph glyph-name="Nacute" unicode="&#x143;" horiz-adv-x="1527" 
d="M1053 1794l-357 -223l-61 86l346 239zM1194 1434h152v-1434h-160l-852 1192v-1192h-150v1434h158l852 -1190v1190z" />
    <glyph glyph-name="nacute" unicode="&#x144;" horiz-adv-x="1191" 
d="M885 1391l-357 -224l-61 86l346 240zM643 1032q176 0 287.5 -115t111.5 -301v-616h-155v586q0 145 -76.5 230t-204.5 85t-209.5 -96.5t-81.5 -245.5v-559h-155v1010h125l16 -146q119 168 342 168z" />
    <glyph glyph-name="uni0145" unicode="&#x145;" horiz-adv-x="1527" 
d="M1194 1434h152v-1434h-160l-852 1192v-1192h-150v1434h158l852 -1190v1190zM762 -131q47 0 75.5 -35.5t28.5 -95.5q0 -96 -49 -179.5t-141 -140.5l-45 62q116 90 125 207q-38 -3 -64 22t-26 62q0 43 26.5 70.5t69.5 27.5z" />
    <glyph glyph-name="uni0146" unicode="&#x146;" horiz-adv-x="1191" 
d="M643 1032q176 0 287.5 -115t111.5 -301v-616h-155v586q0 145 -76.5 230t-204.5 85t-209.5 -96.5t-81.5 -245.5v-559h-155v1010h125l16 -146q119 168 342 168zM600 -131q47 0 76 -35.5t29 -95.5q0 -96 -49.5 -179.5t-141.5 -140.5l-45 62q116 90 125 207q-38 -3 -64 22
t-26 62q0 43 26.5 70.5t69.5 27.5z" />
    <glyph glyph-name="Ncaron" unicode="&#x147;" horiz-adv-x="1527" 
d="M811 1585h-100l-252 242l71 76l232 -207l231 207l70 -76zM1194 1434h152v-1434h-160l-852 1192v-1192h-150v1434h158l852 -1190v1190z" />
    <glyph glyph-name="ncaron" unicode="&#x148;" horiz-adv-x="1191" 
d="M643 1180h-98l-252 243l69 74l232 -205l231 205l70 -74zM643 1032q176 0 287.5 -115t111.5 -301v-616h-155v586q0 145 -76.5 230t-204.5 85t-209.5 -96.5t-81.5 -245.5v-559h-155v1010h125l16 -146q119 168 342 168z" />
    <glyph glyph-name="Eng" unicode="&#x14a;" horiz-adv-x="1527" 
d="M1194 1434h152v-1508q0 -187 -104 -283t-281 -96q-131 0 -267 37l23 127q111 -30 209 -30q122 0 195 63t73 197v49l-860 1202v-1192h-150v1434h158l852 -1190v1190z" />
    <glyph glyph-name="eng" unicode="&#x14b;" horiz-adv-x="1191" 
d="M643 1032q176 0 287.5 -115t111.5 -301v-794q0 -118 -79.5 -196.5t-202.5 -78.5q-125 0 -221 66l30 117q69 -54 156 -54q71 0 116.5 46t45.5 114v750q0 145 -76.5 230t-204.5 85t-209.5 -96.5t-81.5 -245.5v-559h-155v1010h125l16 -146q119 168 342 168z" />
    <glyph glyph-name="Omacron" unicode="&#x14c;" horiz-adv-x="1683" 
d="M541 1683v111h602v-111h-602zM842 -23q-208 0 -377.5 96.5t-266 266t-96.5 377.5t96.5 377.5t266 265.5t377.5 96q156 0 293 -56.5t235 -154.5t154.5 -235t56.5 -293q0 -208 -96 -377.5t-265.5 -266t-377.5 -96.5zM842 125q162 0 293.5 77t206.5 212.5t75 302.5
t-75 302.5t-206.5 212.5t-293.5 77t-294 -77t-207 -212.5t-75 -302.5t75 -302.5t207 -212.5t294 -77z" />
    <glyph glyph-name="omacron" unicode="&#x14d;" horiz-adv-x="1167" 
d="M281 1280v109h602v-109h-602zM584 -23q-214 0 -356 151t-142 378q0 226 141.5 376t356.5 150q141 0 254.5 -68.5t178 -189t64.5 -268.5q0 -227 -141.5 -378t-355.5 -151zM584 121q146 0 243 109.5t97 275.5q0 164 -97 273.5t-243 109.5t-243 -109.5t-97 -273.5
q0 -166 97 -275.5t243 -109.5z" />
    <glyph glyph-name="Obreve" unicode="&#x14e;" horiz-adv-x="1683" 
d="M842 1569q-127 0 -212 80t-91 211h106q4 -81 59.5 -131t137.5 -50t136 50t58 131h107q-6 -131 -90.5 -211t-210.5 -80zM842 -23q-208 0 -377.5 96.5t-266 266t-96.5 377.5t96.5 377.5t266 265.5t377.5 96q156 0 293 -56.5t235 -154.5t154.5 -235t56.5 -293
q0 -208 -96 -377.5t-265.5 -266t-377.5 -96.5zM842 125q162 0 293.5 77t206.5 212.5t75 302.5t-75 302.5t-206.5 212.5t-293.5 77t-294 -77t-207 -212.5t-75 -302.5t75 -302.5t207 -212.5t294 -77z" />
    <glyph glyph-name="obreve" unicode="&#x14f;" horiz-adv-x="1167" 
d="M582 1163q-127 0 -211 81t-90 212h104q6 -81 60.5 -130.5t136.5 -49.5t136 49.5t60 130.5h105q-6 -131 -90 -212t-211 -81zM584 -23q-214 0 -356 151t-142 378q0 226 141.5 376t356.5 150q141 0 254.5 -68.5t178 -189t64.5 -268.5q0 -227 -141.5 -378t-355.5 -151z
M584 121q146 0 243 109.5t97 275.5q0 164 -97 273.5t-243 109.5t-243 -109.5t-97 -273.5q0 -166 97 -275.5t243 -109.5z" />
    <glyph glyph-name="Ohungarumlaut" unicode="&#x150;" horiz-adv-x="1683" 
d="M621 1563l-82 79l295 304l90 -91zM1014 1563l-80 79l293 304l90 -91zM842 -23q-208 0 -377.5 96.5t-266 266t-96.5 377.5t96.5 377.5t266 265.5t377.5 96q156 0 293 -56.5t235 -154.5t154.5 -235t56.5 -293q0 -208 -96 -377.5t-265.5 -266t-377.5 -96.5zM842 125
q162 0 293.5 77t206.5 212.5t75 302.5t-75 302.5t-206.5 212.5t-293.5 77t-294 -77t-207 -212.5t-75 -302.5t75 -302.5t207 -212.5t294 -77z" />
    <glyph glyph-name="ohungarumlaut" unicode="&#x151;" horiz-adv-x="1167" 
d="M360 1157l-81 82l294 303l91 -90zM754 1157l-80 82l293 303l90 -90zM584 -23q-214 0 -356 151t-142 378q0 226 141.5 376t356.5 150q141 0 254.5 -68.5t178 -189t64.5 -268.5q0 -227 -141.5 -378t-355.5 -151zM584 121q146 0 243 109.5t97 275.5q0 164 -97 273.5
t-243 109.5t-243 -109.5t-97 -273.5q0 -166 97 -275.5t243 -109.5z" />
    <glyph glyph-name="OE" unicode="&#x152;" horiz-adv-x="2285" 
d="M1413 141h754v-141h-914v78q-194 -101 -407 -101q-215 0 -385.5 97t-264.5 266.5t-94 378.5q0 210 93 378t262.5 263.5t384.5 95.5q216 0 411 -104v82h881v-142h-721v-497h655v-140h-655v-514zM864 123q204 0 389 121v940q-183 125 -399 125q-261 0 -423.5 -166
t-162.5 -424q0 -169 72.5 -304t209.5 -213.5t314 -78.5z" />
    <glyph glyph-name="oe" unicode="&#x153;" horiz-adv-x="1935" 
d="M1855 526q0 -41 -4 -77h-766q17 -155 117 -241.5t256 -86.5q154 0 297 102l51 -121q-160 -125 -362 -125q-144 0 -258.5 62.5t-181.5 173.5q-66 -109 -176.5 -172.5t-243.5 -63.5q-214 0 -356 151t-142 378q0 226 141.5 376t356.5 150q133 0 243 -62t177 -171
q64 109 170 171t235 62q191 0 318.5 -143.5t127.5 -362.5zM584 121q146 0 243 109.5t97 275.5q0 164 -97 273.5t-243 109.5t-243 -109.5t-97 -273.5q0 -166 97 -275.5t243 -109.5zM1403 889q-120 0 -205.5 -83.5t-107.5 -217.5h606q-9 132 -91.5 216.5t-201.5 84.5z" />
    <glyph glyph-name="Racute" unicode="&#x154;" horiz-adv-x="1366" 
d="M967 1794l-357 -223l-61 86l346 239zM1071 0l-364 520h-363v-520h-160v1434h580q194 0 319 -129.5t125 -325.5q0 -166 -93.5 -290.5t-242.5 -147.5l381 -541h-182zM344 1292v-630h397q136 0 222 87t86 228q0 140 -86 227.5t-222 87.5h-397z" />
    <glyph glyph-name="racute" unicode="&#x155;" horiz-adv-x="778" 
d="M680 1391l-356 -224l-62 86l346 240zM614 1032q62 0 127 -18l-18 -125q-59 16 -113 16q-131 0 -213 -96t-82 -248v-561h-155v1010h125l14 -133q46 73 129 114t186 41z" />
    <glyph glyph-name="uni0156" unicode="&#x156;" horiz-adv-x="1366" 
d="M872 541l381 -541h-182l-364 520h-363v-520h-160v1434h580q194 0 319 -129.5t125 -325.5q0 -166 -93.5 -290.5t-242.5 -147.5zM344 1292v-630h397q136 0 222 87t86 228q0 140 -86 227.5t-222 87.5h-397zM657 -131q47 0 76 -35.5t29 -95.5q0 -96 -49.5 -179.5
t-141.5 -140.5l-45 62q116 90 125 207q-38 -3 -64 22t-26 62q0 43 26.5 70.5t69.5 27.5z" />
    <glyph glyph-name="uni0157" unicode="&#x157;" horiz-adv-x="778" 
d="M614 1032q62 0 127 -18l-18 -125q-59 16 -113 16q-131 0 -213 -96t-82 -248v-561h-155v1010h125l14 -133q46 73 129 114t186 41zM238 -131q47 0 75.5 -35.5t28.5 -95.5q0 -96 -49 -179.5t-141 -140.5l-46 62q116 90 125 207q-38 -3 -64 22t-26 62q0 43 27 70.5t70 27.5z
" />
    <glyph glyph-name="Rcaron" unicode="&#x158;" horiz-adv-x="1366" 
d="M725 1585h-100l-252 242l71 76l232 -207l231 207l70 -76zM1071 0l-364 520h-363v-520h-160v1434h580q194 0 319 -129.5t125 -325.5q0 -166 -93.5 -290.5t-242.5 -147.5l381 -541h-182zM344 1292v-630h397q136 0 222 87t86 228q0 140 -86 227.5t-222 87.5h-397z" />
    <glyph glyph-name="rcaron" unicode="&#x159;" horiz-adv-x="778" 
d="M438 1180h-98l-252 243l70 74l231 -205l232 205l69 -74zM614 1032q62 0 127 -18l-18 -125q-59 16 -113 16q-131 0 -213 -96t-82 -248v-561h-155v1010h125l14 -133q46 73 129 114t186 41z" />
    <glyph glyph-name="Sacute" unicode="&#x15a;" horiz-adv-x="1185" 
d="M528 1571l-61 86l346 239l72 -102zM594 -18q-272 0 -490 108l41 133q209 -102 437 -102q157 0 248.5 66.5t91.5 185.5q0 64 -27.5 112t-74 77t-107 51t-127.5 40t-133.5 38t-127 51t-107 72.5t-74 108.5t-27.5 154q0 169 132.5 273t346.5 104q250 0 438 -100l-41 -140
q-171 101 -387 101q-150 0 -241 -63.5t-91 -166.5q0 -65 27.5 -113.5t74 -78.5t107 -52t127.5 -40t133.5 -38t127 -50.5t107 -71.5t74 -108t27.5 -154q0 -182 -133.5 -289.5t-351.5 -107.5z" />
    <glyph glyph-name="sacute" unicode="&#x15b;" horiz-adv-x="917" 
d="M393 1167l-61 86l346 240l72 -102zM459 -23q-209 0 -367 113l39 117q140 -109 315 -109q104 0 166 49.5t62 137.5q0 55 -31 90.5t-80.5 52.5t-109.5 29t-120.5 28.5t-110 42t-80.5 78t-31 129.5q0 136 106.5 216.5t263.5 80.5q180 0 326 -102l-41 -113q-127 96 -272 96
q-100 0 -166 -46t-66 -130q0 -39 19.5 -66.5t52 -43t75 -26t89 -20t93.5 -20.5t89.5 -31.5t75 -50t52 -78.5t19.5 -114q0 -140 -101.5 -225t-266.5 -85z" />
    <glyph glyph-name="Scircumflex" unicode="&#x15c;" horiz-adv-x="1185" 
d="M362 1573l-71 76l252 243h100l252 -243l-70 -76l-231 209zM594 -18q-272 0 -490 108l41 133q209 -102 437 -102q157 0 248.5 66.5t91.5 185.5q0 64 -27.5 112t-74 77t-107 51t-127.5 40t-133.5 38t-127 51t-107 72.5t-74 108.5t-27.5 154q0 169 132.5 273t346.5 104
q250 0 438 -100l-41 -140q-171 101 -387 101q-150 0 -241 -63.5t-91 -166.5q0 -65 27.5 -113.5t74 -78.5t107 -52t127.5 -40t133.5 -38t127 -50.5t107 -71.5t74 -108t27.5 -154q0 -182 -133.5 -289.5t-351.5 -107.5z" />
    <glyph glyph-name="scircumflex" unicode="&#x15d;" horiz-adv-x="917" 
d="M227 1169l-69 76l252 244h98l252 -244l-70 -76l-231 207zM459 -23q-209 0 -367 113l39 117q140 -109 315 -109q104 0 166 49.5t62 137.5q0 55 -31 90.5t-80.5 52.5t-109.5 29t-120.5 28.5t-110 42t-80.5 78t-31 129.5q0 136 106.5 216.5t263.5 80.5q180 0 326 -102
l-41 -113q-127 96 -272 96q-100 0 -166 -46t-66 -130q0 -39 19.5 -66.5t52 -43t75 -26t89 -20t93.5 -20.5t89.5 -31.5t75 -50t52 -78.5t19.5 -114q0 -140 -101.5 -225t-266.5 -85z" />
    <glyph glyph-name="Scedilla" unicode="&#x15e;" horiz-adv-x="1185" 
d="M1079 379q0 -166 -112 -271t-301 -122l-19 -103q66 -9 109 -56t43 -110q0 -78 -65 -127t-167 -49q-99 0 -184 35l29 94q76 -30 141 -30q51 0 84 25.5t33 66.5q0 40 -33.5 64t-89.5 24h-23l29 162q-245 7 -449 108l41 133q209 -102 437 -102q157 0 248.5 66.5t91.5 185.5
q0 64 -27.5 112t-74 77t-107 51t-127.5 40t-133.5 38t-127 51t-107 72.5t-74 108.5t-27.5 154q0 169 132.5 273t346.5 104q250 0 438 -100l-41 -140q-171 101 -387 101q-150 0 -241 -63.5t-91 -166.5q0 -65 27.5 -113.5t74 -78.5t107 -52t127.5 -40t133.5 -38t127 -50.5
t107 -71.5t74 -108t27.5 -154z" />
    <glyph glyph-name="scedilla" unicode="&#x15f;" horiz-adv-x="917" 
d="M827 287q0 -128 -86 -210.5t-229 -96.5l-16 -97q66 -9 108.5 -56t42.5 -110q0 -78 -64.5 -127t-166.5 -49q-100 0 -185 35l29 94q76 -30 141 -30q51 0 84 25.5t33 66.5q0 40 -33.5 64t-89.5 24h-22l28 160q-170 11 -309 110l39 117q140 -109 315 -109q104 0 166 49.5
t62 137.5q0 55 -31 90.5t-80.5 52.5t-109.5 29t-120.5 28.5t-110 42t-80.5 78t-31 129.5q0 136 106.5 216.5t263.5 80.5q180 0 326 -102l-41 -113q-127 96 -272 96q-100 0 -166 -46t-66 -130q0 -39 19.5 -66.5t52 -43t75 -26t89 -20t93.5 -20.5t89.5 -31.5t75 -50t52 -78.5
t19.5 -114z" />
    <glyph glyph-name="Scaron" unicode="&#x160;" horiz-adv-x="1185" 
d="M543 1585l-252 242l71 76l232 -207l231 207l70 -76l-252 -242h-100zM594 -18q-272 0 -490 108l41 133q209 -102 437 -102q157 0 248.5 66.5t91.5 185.5q0 64 -27.5 112t-74 77t-107 51t-127.5 40t-133.5 38t-127 51t-107 72.5t-74 108.5t-27.5 154q0 169 132.5 273
t346.5 104q250 0 438 -100l-41 -140q-171 101 -387 101q-150 0 -241 -63.5t-91 -166.5q0 -65 27.5 -113.5t74 -78.5t107 -52t127.5 -40t133.5 -38t127 -50.5t107 -71.5t74 -108t27.5 -154q0 -182 -133.5 -289.5t-351.5 -107.5z" />
    <glyph glyph-name="scaron" unicode="&#x161;" horiz-adv-x="917" 
d="M410 1180l-252 243l69 74l232 -205l231 205l70 -74l-252 -243h-98zM459 -23q-209 0 -367 113l39 117q140 -109 315 -109q104 0 166 49.5t62 137.5q0 55 -31 90.5t-80.5 52.5t-109.5 29t-120.5 28.5t-110 42t-80.5 78t-31 129.5q0 136 106.5 216.5t263.5 80.5
q180 0 326 -102l-41 -113q-127 96 -272 96q-100 0 -166 -46t-66 -130q0 -39 19.5 -66.5t52 -43t75 -26t89 -20t93.5 -20.5t89.5 -31.5t75 -50t52 -78.5t19.5 -114q0 -140 -101.5 -225t-266.5 -85z" />
    <glyph glyph-name="uni0162" unicode="&#x162;" horiz-adv-x="1202" 
d="M520 0v1292h-463v142h1088v-142h-463v-1292h-162zM516 -582l-45 62q116 90 125 207q-38 -3 -64 22t-26 62q0 43 26.5 70.5t69.5 27.5q47 0 76 -35.5t29 -95.5q0 -96 -49.5 -179.5t-141.5 -140.5z" />
    <glyph glyph-name="uni0163" unicode="&#x163;" horiz-adv-x="677" 
d="M453 -23q-128 0 -192 80.5t-64 223.5v606h-170v123h170v286h155v-286h252v-123h-252v-594q0 -93 30 -140t103 -47q57 0 119 21l19 -115q-79 -35 -170 -35zM336 -582l-45 62q116 90 125 207q-38 -3 -64 22t-26 62q0 43 26.5 70.5t69.5 27.5q47 0 75.5 -35.5t28.5 -95.5
q0 -96 -49 -179.5t-141 -140.5z" />
    <glyph glyph-name="Tcaron" unicode="&#x164;" horiz-adv-x="1202" 
d="M551 1585l-252 242l72 76l231 -207l232 207l69 -76l-252 -242h-100zM520 0v1292h-463v142h1088v-142h-463v-1292h-162z" />
    <glyph glyph-name="tcaron" unicode="&#x165;" horiz-adv-x="677" 
d="M604 1118l-102 35l129 348l119 -41zM453 -23q-128 0 -192 80.5t-64 223.5v606h-170v123h170v286h155v-286h252v-123h-252v-594q0 -93 30 -140t103 -47q57 0 119 21l19 -115q-79 -35 -170 -35z" />
    <glyph glyph-name="Tbar" unicode="&#x166;" horiz-adv-x="1202" 
d="M1145 1292h-463v-567h272v-121h-272v-604h-162v604h-274v121h274v567h-463v142h1088v-142z" />
    <glyph glyph-name="tbar" unicode="&#x167;" horiz-adv-x="677" 
d="M604 127l19 -115q-79 -35 -170 -35q-128 0 -192 80.5t-64 223.5v213h-170v112h170v281h-170v123h170v286h155v-286h252v-123h-252v-281h252v-112h-252v-201q0 -93 30 -140t103 -47q57 0 119 21z" />
    <glyph glyph-name="Utilde" unicode="&#x168;" horiz-adv-x="1540" 
d="M565 1645l-100 30q15 70 63 114t113 44q51 0 136.5 -39t113.5 -39q66 0 88 78l100 -33q-15 -70 -63 -112.5t-113 -42.5q-51 0 -136.5 37.5t-113.5 37.5q-31 0 -54.5 -19.5t-33.5 -55.5zM772 -23q-256 0 -422 158.5t-166 413.5v885h160v-865q0 -196 121 -320t307 -124
q184 0 304 123.5t120 320.5v865h162v-885q0 -169 -76 -300t-209 -201.5t-301 -70.5z" />
    <glyph glyph-name="utilde" unicode="&#x169;" horiz-adv-x="1185" 
d="M475 1317q-31 0 -54 -20.5t-34 -55.5l-100 31q15 70 63 112.5t113 42.5q51 0 136.5 -37.5t113.5 -37.5q66 0 88 75l100 -30q-15 -70 -63 -113t-113 -43q-51 0 -136.5 38t-113.5 38zM870 1010h156v-1010h-125l-16 141q-115 -164 -340 -164q-173 0 -284 114t-111 296v623
h155v-578q0 -152 76 -239t205 -87q127 0 205.5 98.5t78.5 254.5v551z" />
    <glyph glyph-name="Umacron" unicode="&#x16a;" horiz-adv-x="1540" 
d="M471 1683v111h602v-111h-602zM772 -23q-256 0 -422 158.5t-166 413.5v885h160v-865q0 -196 121 -320t307 -124q184 0 304 123.5t120 320.5v865h162v-885q0 -169 -76 -300t-209 -201.5t-301 -70.5z" />
    <glyph glyph-name="umacron" unicode="&#x16b;" horiz-adv-x="1185" 
d="M895 1389v-109h-602v109h602zM870 1010h156v-1010h-125l-16 141q-115 -164 -340 -164q-173 0 -284 114t-111 296v623h155v-578q0 -152 76 -239t205 -87q127 0 205.5 98.5t78.5 254.5v551z" />
    <glyph glyph-name="Ubreve" unicode="&#x16c;" horiz-adv-x="1540" 
d="M772 1569q-127 0 -212 80t-91 211h106q4 -81 59.5 -131t137.5 -50t136.5 50t58.5 131h106q-6 -131 -90.5 -211t-210.5 -80zM772 -23q-256 0 -422 158.5t-166 413.5v885h160v-865q0 -196 121 -320t307 -124q184 0 304 123.5t120 320.5v865h162v-885q0 -169 -76 -300
t-209 -201.5t-301 -70.5z" />
    <glyph glyph-name="ubreve" unicode="&#x16d;" horiz-adv-x="1185" 
d="M594 1163q-127 0 -211 81t-90 212h104q6 -81 60.5 -130.5t136.5 -49.5t136.5 49.5t60.5 130.5h104q-6 -131 -90 -212t-211 -81zM870 1010h156v-1010h-125l-16 141q-115 -164 -340 -164q-173 0 -284 114t-111 296v623h155v-578q0 -152 76 -239t205 -87q127 0 205.5 98.5
t78.5 254.5v551z" />
    <glyph glyph-name="Uring" unicode="&#x16e;" horiz-adv-x="1540" 
d="M774 1540q-89 0 -147 55.5t-58 141.5q0 87 56.5 141.5t146.5 54.5t146.5 -54.5t56.5 -141.5t-55.5 -142t-145.5 -55zM774 1618q53 0 85 32.5t32 86.5t-33 87.5t-86 33.5q-54 0 -86.5 -33.5t-32.5 -87.5q0 -53 34 -86t87 -33zM772 -23q-256 0 -422 158.5t-166 413.5v885
h160v-865q0 -196 121 -320t307 -124q184 0 304 123.5t120 320.5v865h162v-885q0 -169 -76 -300t-209 -201.5t-301 -70.5z" />
    <glyph glyph-name="uring" unicode="&#x16f;" horiz-adv-x="1185" 
d="M596 1137q-89 0 -147 55t-58 141q0 87 56.5 142t146.5 55t146.5 -55t56.5 -142t-55.5 -141.5t-145.5 -54.5zM594 1452q-54 0 -86.5 -32.5t-32.5 -86.5q0 -53 34 -86t87 -33t85 32.5t32 86.5t-33 86.5t-86 32.5zM870 1010h156v-1010h-125l-16 141q-115 -164 -340 -164
q-173 0 -284 114t-111 296v623h155v-578q0 -152 76 -239t205 -87q127 0 205.5 98.5t78.5 254.5v551z" />
    <glyph glyph-name="Uhungarumlaut" unicode="&#x170;" horiz-adv-x="1540" 
d="M551 1563l-82 79l295 304l90 -91zM944 1563l-80 79l293 304l90 -91zM772 -23q-256 0 -422 158.5t-166 413.5v885h160v-865q0 -196 121 -320t307 -124q184 0 304 123.5t120 320.5v865h162v-885q0 -169 -76 -300t-209 -201.5t-301 -70.5z" />
    <glyph glyph-name="uhungarumlaut" unicode="&#x171;" horiz-adv-x="1185" 
d="M676 1452l-303 -295l-82 82l295 303zM1069 1452l-303 -295l-80 82l293 303zM870 459v551h156v-1010h-125l-16 141q-115 -164 -340 -164q-173 0 -284 114t-111 296v623h155v-578q0 -152 76 -239t205 -87q127 0 205.5 98.5t78.5 254.5z" />
    <glyph glyph-name="Uogonek" unicode="&#x172;" horiz-adv-x="1540" 
d="M1358 549q0 -142 -45 -238.5t-129 -185.5q-105 -107 -162 -195t-57 -168q0 -58 29.5 -90t88.5 -32q35 0 84 18l23 -92q-73 -25 -141 -25q-91 0 -148 53t-57 140q0 121 114 274q-88 -31 -186 -31q-256 0 -422 158.5t-166 413.5v885h160v-865q0 -196 121 -320t307 -124
q184 0 304 123.5t120 320.5v865h162v-885z" />
    <glyph glyph-name="uogonek" unicode="&#x173;" horiz-adv-x="1185" 
d="M1026 -342l21 -92q-70 -25 -140 -25q-81 0 -134.5 47t-53.5 125q0 145 188 287h-6l-16 141q-115 -164 -340 -164q-173 0 -284 114t-111 296v623h155v-578q0 -152 76 -239t205 -87q127 0 205.5 98.5t78.5 254.5v551h156v-1010q-186 -146 -186 -262q0 -45 29 -71.5
t73 -26.5q35 0 84 18z" />
    <glyph glyph-name="Wcircumflex" unicode="&#x174;" horiz-adv-x="2009" 
d="M1006 1782l-232 -209l-72 76l252 243h101l252 -243l-70 -76zM1817 1434h161l-450 -1434h-160l-362 1212l-363 -1212h-160l-452 1434h162l372 -1231l365 1231h153l361 -1237z" />
    <glyph glyph-name="wcircumflex" unicode="&#x175;" horiz-adv-x="1486" 
d="M743 1376l-231 -207l-70 76l252 244h99l251 -244l-69 -76zM1313 1010h155l-323 -1010h-152l-250 834l-249 -834h-152l-326 1010h158l248 -834l248 834h147l248 -828z" />
    <glyph glyph-name="Ycircumflex" unicode="&#x176;" horiz-adv-x="1245" 
d="M625 1782l-232 -209l-71 76l251 243h101l252 -243l-70 -76zM1034 1434h174l-503 -865v-569h-162v569l-506 865h176l410 -717z" />
    <glyph glyph-name="ycircumflex" unicode="&#x177;" horiz-adv-x="995" 
d="M266 1169l-69 76l252 244h98l252 -244l-70 -76l-231 207zM256 -430l174 438l-414 1002h164l322 -830l313 830h162l-569 -1440h-152z" />
    <glyph glyph-name="Ydieresis" unicode="&#x178;" horiz-adv-x="1245" 
d="M412 1640q-43 0 -70 27t-27 70t27 70.5t70 27.5t69.5 -27.5t26.5 -70.5t-26.5 -70t-69.5 -27zM838 1640q-43 0 -70 27t-27 70t27 70.5t70 27.5t69.5 -27.5t26.5 -70.5t-26.5 -70t-69.5 -27zM1034 1434h174l-503 -865v-569h-162v569l-506 865h176l410 -717z" />
    <glyph glyph-name="Zacute" unicode="&#x179;" horiz-adv-x="1284" 
d="M934 1794l-356 -223l-62 86l346 239zM326 141h852v-141h-1074v94l842 1198h-803v142h1024v-95z" />
    <glyph glyph-name="zacute" unicode="&#x17a;" horiz-adv-x="983" 
d="M782 1391l-356 -224l-61 86l346 240zM301 123h584v-123h-785v88l572 799h-553v123h755v-88z" />
    <glyph glyph-name="Zdotaccent" unicode="&#x17b;" horiz-adv-x="1284" 
d="M643 1636q-44 0 -73 28.5t-29 72.5q0 46 29 75t73 29t73 -29t29 -75q0 -44 -29 -72.5t-73 -28.5zM326 141h852v-141h-1074v94l842 1198h-803v142h1024v-95z" />
    <glyph glyph-name="zdotaccent" unicode="&#x17c;" horiz-adv-x="983" 
d="M492 1233q-45 0 -74 28t-29 72t29.5 73.5t73.5 29.5t73 -29.5t29 -73.5t-29 -72t-73 -28zM301 123h584v-123h-785v88l572 799h-553v123h755v-88z" />
    <glyph glyph-name="Zcaron" unicode="&#x17d;" horiz-adv-x="1284" 
d="M692 1585h-100l-252 242l72 76l231 -207l231 207l70 -76zM326 141h852v-141h-1074v94l842 1198h-803v142h1024v-95z" />
    <glyph glyph-name="zcaron" unicode="&#x17e;" horiz-adv-x="983" 
d="M541 1180h-99l-252 243l70 74l232 -205l231 205l70 -74zM301 123h584v-123h-785v88l572 799h-553v123h755v-88z" />
    <glyph glyph-name="florin" unicode="&#x192;" horiz-adv-x="905" 
d="M672 1327q-70 0 -106 -45.5t-36 -128.5v-164h236v-123h-236v-600q0 -131 -67 -210t-189 -79q-90 0 -186 48l23 114q57 -33 122 -33q69 0 105.5 46t36.5 129v585h-174v123h174v178q0 131 67 210t189 79q92 0 186 -47l-22 -115q-57 33 -123 33z" />
    <glyph glyph-name="uni01CD" unicode="&#x1cd;" horiz-adv-x="1417" 
d="M758 1585h-101l-251 242l71 76l232 -207l231 207l70 -76zM1210 0l-170 424h-665l-172 -424h-164l590 1434h159l588 -1434h-166zM428 559h559l-278 694z" />
    <glyph glyph-name="uni01CE" unicode="&#x1ce;" horiz-adv-x="1052" 
d="M573 1180h-98l-252 243l70 74l231 -205l232 205l69 -74zM504 1032q176 0 287.5 -98.5t111.5 -261.5v-672h-125l-16 123q-111 -146 -326 -146q-155 0 -256.5 86.5t-101.5 223.5q0 146 120 229.5t332 83.5q120 0 228 -27v80q0 106 -76.5 172t-196.5 66q-166 0 -307 -103
l-41 132q159 112 367 112zM469 109q125 0 207 85t82 199v53q-104 29 -207 29q-149 0 -232 -48.5t-83 -131.5q0 -81 66.5 -133.5t166.5 -52.5z" />
    <glyph glyph-name="AEacute" unicode="&#x1fc;" horiz-adv-x="2058" 
d="M1647 1774l-357 -224l-61 86l346 240zM1186 141h753v-141h-915v424h-543l-276 -424h-166l909 1434h959v-142h-721v-497h655v-140h-655v-514zM569 559h455v701z" />
    <glyph glyph-name="aeacute" unicode="&#x1fd;" horiz-adv-x="1769" 
d="M1171 1391l-356 -224l-61 86l346 240zM1688 526q0 -32 -5 -77h-765q17 -155 117 -241.5t255 -86.5q154 0 297 102l51 -121q-160 -125 -362 -125q-144 0 -259.5 64t-182.5 176q-54 -104 -160 -172t-238 -68q-155 0 -256.5 86.5t-101.5 223.5q0 146 120 229.5t332 83.5
q120 0 228 -27v80q0 106 -76.5 172t-196.5 66q-166 0 -307 -103l-41 132q159 112 367 112q124 0 218 -50t142 -140q65 90 163 140t214 50q191 0 319 -143.5t128 -362.5zM1235 889q-120 0 -205.5 -83.5t-107.5 -217.5h606q-9 132 -91.5 216.5t-201.5 84.5zM469 109
q125 0 207 85t82 199v53q-104 29 -207 29q-150 0 -232.5 -48.5t-82.5 -131.5q0 -81 66.5 -133.5t166.5 -52.5z" />
    <glyph glyph-name="Oslashacute" unicode="&#x1fe;" horiz-adv-x="1683" 
d="M1133 1794l-357 -223l-61 86l346 239zM1300 1305q133 -101 207 -253.5t74 -334.5q0 -208 -96 -377.5t-265.5 -266t-377.5 -96.5q-196 0 -359 86l-106 -161l-113 53l117 176q-131 101 -205 253.5t-74 332.5q0 208 96.5 377.5t266 265.5t377.5 96q195 0 358 -86l107 162
l110 -51zM266 717q0 -139 53 -256.5t148 -200.5l649 983q-132 66 -274 66q-162 0 -294 -77t-207 -212.5t-75 -302.5zM842 125q162 0 293.5 77t206.5 212.5t75 302.5q0 139 -54 257.5t-149 199.5l-647 -981q130 -68 275 -68z" />
    <glyph glyph-name="oslashacute" unicode="&#x1ff;" horiz-adv-x="1167" 
d="M872 1391l-356 -224l-61 86l346 240zM920 903q76 -73 118.5 -175.5t42.5 -221.5q0 -227 -141.5 -378t-355.5 -151q-137 0 -248 66l-88 -129l-90 47l96 141q-80 73 -124 177.5t-44 226.5q0 226 141.5 376t356.5 150q137 0 252 -67l79 118l91 -53zM244 506q0 -164 96 -275
l412 611q-74 47 -168 47q-146 0 -243 -109.5t-97 -273.5zM584 121q146 0 243 109.5t97 275.5q0 157 -93 268l-413 -608q76 -45 166 -45z" />
    <glyph glyph-name="uni0218" unicode="&#x218;" horiz-adv-x="1185" 
d="M594 -18q-272 0 -490 108l41 133q209 -102 437 -102q157 0 248.5 66.5t91.5 185.5q0 64 -27.5 112t-74 77t-107 51t-127.5 40t-133.5 38t-127 51t-107 72.5t-74 108.5t-27.5 154q0 169 132.5 273t346.5 104q250 0 438 -100l-41 -140q-171 101 -387 101q-150 0 -241 -63.5
t-91 -166.5q0 -65 27.5 -113.5t74 -78.5t107 -52t127.5 -40t133.5 -38t127 -50.5t107 -71.5t74 -108t27.5 -154q0 -182 -133.5 -289.5t-351.5 -107.5zM510 -582l-45 62q116 90 125 207q-38 -3 -64 22t-26 62q0 43 26.5 70.5t69.5 27.5q47 0 75.5 -35.5t28.5 -95.5
q0 -96 -49 -179.5t-141 -140.5z" />
    <glyph glyph-name="uni0219" unicode="&#x219;" horiz-adv-x="917" 
d="M459 -23q-209 0 -367 113l39 117q140 -109 315 -109q104 0 166 49.5t62 137.5q0 55 -31 90.5t-80.5 52.5t-109.5 29t-120.5 28.5t-110 42t-80.5 78t-31 129.5q0 136 106.5 216.5t263.5 80.5q180 0 326 -102l-41 -113q-127 96 -272 96q-100 0 -166 -46t-66 -130
q0 -39 19.5 -66.5t52 -43t75 -26t89 -20t93.5 -20.5t89.5 -31.5t75 -50t52 -78.5t19.5 -114q0 -140 -101.5 -225t-266.5 -85zM358 -582l-45 62q116 90 125 207q-38 -3 -64 22t-26 62q0 43 26.5 70.5t69.5 27.5q47 0 76 -35.5t29 -95.5q0 -96 -49.5 -179.5t-141.5 -140.5z
" />
    <glyph glyph-name="uni021A" unicode="&#x21a;" horiz-adv-x="1202" 
d="M520 0v1292h-463v142h1088v-142h-463v-1292h-162zM516 -582l-45 62q116 90 125 207q-38 -3 -64 22t-26 62q0 43 26.5 70.5t69.5 27.5q47 0 76 -35.5t29 -95.5q0 -96 -49.5 -179.5t-141.5 -140.5z" />
    <glyph glyph-name="uni021B" unicode="&#x21b;" horiz-adv-x="677" 
d="M453 -23q-128 0 -192 80.5t-64 223.5v606h-170v123h170v286h155v-286h252v-123h-252v-594q0 -93 30 -140t103 -47q57 0 119 21l19 -115q-79 -35 -170 -35zM336 -582l-45 62q116 90 125 207q-38 -3 -64 22t-26 62q0 43 26.5 70.5t69.5 27.5q47 0 75.5 -35.5t28.5 -95.5
q0 -96 -49 -179.5t-141 -140.5z" />
    <glyph glyph-name="uni0237" unicode="&#x237;" horiz-adv-x="499" 
d="M53 -453q-125 0 -221 66l31 117q69 -54 155 -54q71 0 116.5 46t45.5 114v1174h156v-1188q0 -118 -79.5 -196.5t-203.5 -78.5z" />
    <glyph glyph-name="circumflex" unicode="&#x2c6;" horiz-adv-x="774" 
d="M156 1149l-70 76l252 243h98l252 -243l-70 -76l-231 207z" />
    <glyph glyph-name="caron" unicode="&#x2c7;" horiz-adv-x="774" 
d="M338 1159l-252 244l70 74l231 -205l231 205l70 -74l-252 -244h-98z" />
    <glyph glyph-name="breve" unicode="&#x2d8;" horiz-adv-x="774" 
d="M387 1143q-127 0 -211 81t-90 212h104q6 -81 60.5 -131t136.5 -50t136.5 50t60.5 131h104q-6 -131 -90 -212t-211 -81z" />
    <glyph glyph-name="dotaccent" unicode="&#x2d9;" horiz-adv-x="376" 
d="M188 1212q-44 0 -73 28.5t-29 72.5t29 73t73 29t73.5 -29t29.5 -73t-29.5 -72.5t-73.5 -28.5z" />
    <glyph glyph-name="ring" unicode="&#x2da;" horiz-adv-x="573" 
d="M289 1116q-89 0 -146 55.5t-57 141.5q0 88 56 142t145 54q91 0 146.5 -54t55.5 -142q0 -87 -55 -142t-145 -55zM289 1194q54 0 86.5 32.5t32.5 86.5q0 53 -34 86t-87 33q-54 0 -86.5 -32.5t-32.5 -86.5q0 -53 34 -86t87 -33z" />
    <glyph glyph-name="ogonek" unicode="&#x2db;" horiz-adv-x="499" 
d="M274 -459q-83 0 -135.5 47t-52.5 125t58.5 159.5t164.5 154.5l84 -27q-188 -147 -188 -262q0 -45 29.5 -71.5t74.5 -26.5q32 0 84 18l21 -92q-70 -25 -140 -25z" />
    <glyph glyph-name="tilde" unicode="&#x2dc;" horiz-adv-x="784" 
d="M184 1221l-98 30q15 70 62 113t112 43q50 0 136 -38t116 -38q62 0 88 76l98 -31q-15 -70 -62 -112.5t-114 -42.5q-49 0 -134.5 37.5t-115.5 37.5q-31 0 -54.5 -20t-33.5 -55z" />
    <glyph glyph-name="hungarumlaut" unicode="&#x2dd;" horiz-adv-x="948" 
d="M166 1137l-80 82l293 303l90 -90zM559 1137l-78 82l291 303l92 -90z" />
    <glyph glyph-name="gravecomb" unicode="&#x300;" 
d="M-168 1147l-356 223l71 103l347 -240z" />
    <glyph glyph-name="acutecomb" unicode="&#x301;" 
d="M-311 1147l-62 86l346 240l72 -103z" />
    <glyph glyph-name="uni0302" unicode="&#x302;" 
d="M-477 1149l-70 76l252 243h98l252 -243l-69 -76l-232 207z" />
    <glyph glyph-name="tildecomb" unicode="&#x303;" 
d="M-453 1221l-100 30q15 70 63 113t113 43q51 0 136.5 -38t113.5 -38q65 0 88 76l100 -31q-15 -70 -63 -112.5t-113 -42.5q-51 0 -136.5 37.5t-113.5 37.5q-31 0 -54.5 -20t-33.5 -55z" />
    <glyph glyph-name="uni0304" unicode="&#x304;" 
d="M-547 1260v108h602v-108h-602z" />
    <glyph glyph-name="uni0306" unicode="&#x306;" 
d="M-246 1143q-127 0 -211 81t-90 212h105q6 -82 60 -131.5t136 -49.5t136.5 50t60.5 131h104q-6 -131 -90 -212t-211 -81z" />
    <glyph glyph-name="uni0307" unicode="&#x307;" 
d="M-246 1212q-44 0 -73 28.5t-29 72.5t29 73t73 29t73.5 -29t29.5 -73t-29.5 -72.5t-73.5 -28.5z" />
    <glyph glyph-name="uni0308" unicode="&#x308;" 
d="M-459 1217q-43 0 -69.5 26.5t-26.5 69.5t26.5 70.5t69.5 27.5t70 -27.5t27 -70.5t-27 -69.5t-70 -26.5zM-33 1217q-43 0 -69.5 26.5t-26.5 69.5t26.5 70.5t69.5 27.5t69.5 -27.5t26.5 -70.5t-26.5 -69.5t-69.5 -26.5z" />
    <glyph glyph-name="uni030A" unicode="&#x30a;" 
d="M-244 1116q-89 0 -147 55.5t-58 141.5q0 87 56.5 141.5t146.5 54.5t146.5 -54.5t56.5 -141.5t-55.5 -142t-145.5 -55zM-244 1194q53 0 85 32.5t32 86.5t-33 86.5t-86 32.5q-54 0 -86.5 -32.5t-32.5 -86.5q0 -53 34 -86t87 -33z" />
    <glyph glyph-name="uni030B" unicode="&#x30b;" 
d="M-467 1137l-82 82l295 303l90 -90zM-74 1137l-80 82l293 303l90 -90z" />
    <glyph glyph-name="uni030C" unicode="&#x30c;" 
d="M-295 1159l-252 244l70 74l231 -205l232 205l69 -74l-252 -244h-98z" />
    <glyph glyph-name="uni0326" unicode="&#x326;" 
d="M-332 -582l-45 62q116 90 125 207q-38 -3 -64 22t-26 62q0 43 26.5 70.5t69.5 27.5q47 0 76 -35.5t29 -95.5q0 -96 -49.5 -179.5t-141.5 -140.5z" />
    <glyph glyph-name="uni0327" unicode="&#x327;" 
d="M-274 -459q-100 0 -185 35l29 94q76 -30 141 -30q51 0 84 25.5t33 66.5q0 40 -33.5 64t-89.5 24h-22l32 180h111l-21 -117q66 -9 109 -56t43 -110q0 -78 -64.5 -127t-166.5 -49z" />
    <glyph glyph-name="uni0328" unicode="&#x328;" 
d="M-287 -459q-81 0 -134.5 47t-53.5 125q0 79 59 160t166 154l82 -27q-186 -146 -186 -262q0 -45 29 -71.5t73 -26.5q35 0 84 18l21 -92q-70 -25 -140 -25z" />
    <glyph glyph-name="uni0394" unicode="&#x394;" horiz-adv-x="1390" 
d="M68 0v92l553 1342h149l553 -1342v-92h-1255zM238 127h915l-459 1120z" />
    <glyph glyph-name="Pi" unicode="&#x3a0;" horiz-adv-x="1521" 
d="M184 0v1434h1155v-1434h-161v1307h-832v-1307h-162z" />
    <glyph glyph-name="uni03A9" unicode="&#x3a9;" horiz-adv-x="1607" 
d="M111 0v127h368q-332 238 -332 643q0 305 182 495.5t476 190.5q193 0 342.5 -86.5t231 -242.5t81.5 -357q0 -407 -332 -643h371v-127h-569v109q368 243 368 651q0 254 -134.5 409.5t-358.5 155.5q-226 0 -361 -155.5t-135 -409.5q0 -408 371 -651v-109h-569z" />
    <glyph glyph-name="uni03BC" unicode="&#x3bc;" horiz-adv-x="1241" 
d="M1190 113l14 -123q-76 -13 -106 -13q-81 0 -133.5 45.5t-61.5 122.5v25q-52 -91 -137 -139.5t-186 -48.5q-86 0 -154.5 33.5t-106.5 97.5v-541h-155v1438h155v-639q0 -116 74.5 -189t190.5 -73q133 0 219 90.5t86 234.5v576h155v-813q0 -41 25 -66t68 -25q22 0 53 7z" />
    <glyph glyph-name="pi" unicode="&#x3c0;" horiz-adv-x="1277" 
d="M1090 -23q-104 0 -164 57.5t-60 160.5v692h-454v-887h-156v887h-209v123h1184v-123h-209v-680q0 -47 28 -74t74 -27q35 0 62 9l16 -125q-84 -13 -112 -13z" />
    <glyph glyph-name="Wgrave" unicode="&#x1e80;" horiz-adv-x="2009" 
d="M1145 1657l-62 -86l-356 223l72 102zM1817 1434h161l-450 -1434h-160l-362 1212l-363 -1212h-160l-452 1434h162l372 -1231l365 1231h153l361 -1237z" />
    <glyph glyph-name="wgrave" unicode="&#x1e81;" horiz-adv-x="1486" 
d="M883 1253l-62 -86l-356 224l72 102zM1313 1010h155l-323 -1010h-152l-250 834l-249 -834h-152l-326 1010h158l248 -834l248 834h147l248 -828z" />
    <glyph glyph-name="Wacute" unicode="&#x1e82;" horiz-adv-x="2009" 
d="M1296 1794l-356 -223l-61 86l346 239zM1817 1434h161l-450 -1434h-160l-362 1212l-363 -1212h-160l-452 1434h162l372 -1231l365 1231h153l361 -1237z" />
    <glyph glyph-name="wacute" unicode="&#x1e83;" horiz-adv-x="1486" 
d="M1034 1391l-356 -224l-62 86l347 240zM1313 1010h155l-323 -1010h-152l-250 834l-249 -834h-152l-326 1010h158l248 -834l248 834h147l248 -828z" />
    <glyph glyph-name="Wdieresis" unicode="&#x1e84;" horiz-adv-x="2009" 
d="M793 1640q-43 0 -70 27t-27 70t27 70.5t70 27.5t69.5 -27.5t26.5 -70.5t-26.5 -70t-69.5 -27zM1219 1640q-43 0 -70 27t-27 70t27 70.5t70 27.5t69.5 -27.5t26.5 -70.5t-26.5 -70t-69.5 -27zM1817 1434h161l-450 -1434h-160l-362 1212l-363 -1212h-160l-452 1434h162
l372 -1231l365 1231h153l361 -1237z" />
    <glyph glyph-name="wdieresis" unicode="&#x1e85;" horiz-adv-x="1486" 
d="M530 1237q-43 0 -69.5 26.5t-26.5 69.5t27 71t69 28q43 0 70 -28t27 -71t-27 -69.5t-70 -26.5zM956 1237q-43 0 -69.5 26.5t-26.5 69.5t27 71t69 28q43 0 70 -28t27 -71t-27 -69.5t-70 -26.5zM1313 1010h155l-323 -1010h-152l-250 834l-249 -834h-152l-326 1010h158
l248 -834l248 834h147l248 -828z" />
    <glyph glyph-name="uni1E9E" unicode="&#x1e9e;" horiz-adv-x="1452" 
d="M950 813q181 -22 288.5 -132.5t107.5 -277.5q0 -185 -130.5 -303t-334.5 -118q-236 0 -394 110l58 129q143 -104 323 -104q142 0 230 79t88 207q0 133 -96.5 214t-253.5 81h-43l-25 82l362 512h-790v-1292h-156v1434h1139v-95z" />
    <glyph glyph-name="Ygrave" unicode="&#x1ef2;" horiz-adv-x="1245" 
d="M764 1657l-62 -86l-356 223l72 102zM1034 1434h174l-503 -865v-569h-162v569l-506 865h176l410 -717z" />
    <glyph glyph-name="ygrave" unicode="&#x1ef3;" horiz-adv-x="995" 
d="M575 1167l-356 224l72 102l346 -240zM256 -430l174 438l-414 1002h164l322 -830l313 830h162l-569 -1440h-152z" />
    <glyph glyph-name="uni2002" unicode="&#x2002;" horiz-adv-x="983" 
 />
    <glyph glyph-name="uni2003" unicode="&#x2003;" horiz-adv-x="1966" 
 />
    <glyph glyph-name="uni2009" unicode="&#x2009;" horiz-adv-x="245" 
 />
    <glyph glyph-name="uni200A" unicode="&#x200a;" horiz-adv-x="122" 
 />
    <glyph glyph-name="endash" unicode="&#x2013;" horiz-adv-x="983" 
d="M53 449v120h877v-120h-877z" />
    <glyph glyph-name="emdash" unicode="&#x2014;" horiz-adv-x="1966" 
d="M53 449v120h1860v-120h-1860z" />
    <glyph glyph-name="quoteleft" unicode="&#x2018;" horiz-adv-x="503" 
d="M354 1448l52 -66q-144 -101 -150 -223q44 2 75 -28t31 -74q0 -48 -30.5 -79.5t-79.5 -31.5q-54 0 -86.5 42.5t-32.5 111.5q0 103 57.5 194t163.5 154z" />
    <glyph glyph-name="quoteright" unicode="&#x2019;" horiz-adv-x="503" 
d="M147 952l-49 68q144 97 150 223q-45 -2 -76 28t-31 75q0 48 31 79t80 31q54 0 86.5 -42.5t32.5 -113.5q0 -101 -59 -193t-165 -155z" />
    <glyph glyph-name="quotesinglbase" unicode="&#x201a;" horiz-adv-x="503" 
d="M147 -303l-49 67q144 97 150 222q-44 -2 -75.5 28t-31.5 74q0 48 31 79.5t80 31.5q54 0 86.5 -42.5t32.5 -111.5q0 -102 -59 -193.5t-165 -154.5z" />
    <glyph glyph-name="quotedblleft" unicode="&#x201c;" horiz-adv-x="899" 
d="M354 1448l52 -66q-144 -101 -150 -223q44 2 75 -28t31 -74q0 -48 -30.5 -79.5t-79.5 -31.5q-54 0 -86.5 42.5t-32.5 111.5q0 103 57.5 194t163.5 154zM750 1448l51 -66q-143 -98 -152 -223q46 1 77.5 -28.5t31.5 -73.5q0 -47 -32 -79t-79 -32q-55 0 -87 42t-32 112
q0 103 58 194t164 154z" />
    <glyph glyph-name="quotedblright" unicode="&#x201d;" horiz-adv-x="897" 
d="M147 952l-49 68q144 97 150 223q-45 -2 -76 28t-31 75q0 48 31 79t80 31q54 0 86.5 -42.5t32.5 -113.5q0 -101 -59 -193t-165 -155zM543 952l-51 68q142 93 151 223q-46 -2 -77 27.5t-31 75.5q0 47 31.5 78.5t78.5 31.5q55 0 87 -42.5t32 -113.5q0 -102 -58 -193.5
t-163 -154.5z" />
    <glyph glyph-name="quotedblbase" unicode="&#x201e;" horiz-adv-x="897" 
d="M147 -303l-49 67q144 97 150 222q-44 -2 -75.5 28t-31.5 74q0 48 31 79.5t80 31.5q54 0 86.5 -42.5t32.5 -111.5q0 -102 -59 -193.5t-165 -154.5zM543 -303l-51 67q142 93 151 222q-46 -1 -77 28.5t-31 73.5q0 47 31.5 79t78.5 32q55 0 87 -42t32 -112q0 -103 -57.5 -194
t-163.5 -154z" />
    <glyph glyph-name="dagger" unicode="&#x2020;" horiz-adv-x="1005" 
d="M442 0v958h-356v121h356v355h123v-355h353v-121h-353v-958h-123z" />
    <glyph glyph-name="daggerdbl" unicode="&#x2021;" horiz-adv-x="1005" 
d="M442 0v354h-356v121h356v483h-356v121h356v355h123v-355h353v-121h-353v-483h353v-121h-353v-354h-123z" />
    <glyph glyph-name="bullet" unicode="&#x2022;" horiz-adv-x="983" 
d="M492 295q-123 0 -209 86t-86 209t86 209t209 86t208.5 -86t85.5 -209t-85.5 -209t-208.5 -86z" />
    <glyph glyph-name="ellipsis" unicode="&#x2026;" horiz-adv-x="1411" 
d="M252 -23q-47 0 -79 32t-32 79q0 49 31.5 80t79.5 31q49 0 79.5 -30.5t30.5 -80.5q0 -48 -30.5 -79.5t-79.5 -31.5zM705 -23q-47 0 -79 32t-32 79q0 49 31.5 80t79.5 31q49 0 79.5 -30.5t30.5 -80.5q0 -48 -30.5 -79.5t-79.5 -31.5zM1159 -23q-47 0 -78.5 32t-31.5 79
q0 49 31 80t79 31q49 0 80 -30.5t31 -80.5q0 -48 -31 -79.5t-80 -31.5z" />
    <glyph glyph-name="perthousand" unicode="&#x2030;" horiz-adv-x="2631" 
d="M444 719q-158 0 -258 102.5t-100 265.5q0 162 100 265.5t258 103.5q157 0 259 -104t102 -265q0 -162 -102 -265t-259 -103zM424 -20l-84 63l1032 1376l84 -63zM444 829q108 0 175 71t67 187q0 115 -67.5 187t-174.5 72q-106 0 -172.5 -72t-66.5 -187q0 -116 66.5 -187
t172.5 -71zM1352 -23q-158 0 -259.5 104t-101.5 265t101.5 265t259.5 104t258 -103.5t100 -265.5t-100 -265.5t-258 -103.5zM2187 -23q-157 0 -257.5 104t-100.5 265t100.5 265t257.5 104q158 0 258.5 -103.5t100.5 -265.5t-100.5 -265.5t-258.5 -103.5zM1352 88
q106 0 172.5 71.5t66.5 186.5t-66.5 186.5t-172.5 71.5t-174 -71.5t-68 -186.5t68 -186.5t174 -71.5zM2187 88q106 0 173 71.5t67 186.5t-67 186.5t-173 71.5t-172.5 -71.5t-66.5 -186.5t66.5 -186.5t172.5 -71.5z" />
    <glyph glyph-name="guilsinglleft" unicode="&#x2039;" horiz-adv-x="634" 
d="M465 23l-404 450v72l404 450l92 -73l-344 -414l344 -410z" />
    <glyph glyph-name="guilsinglright" unicode="&#x203a;" horiz-adv-x="634" 
d="M170 23l-94 75l346 410l-346 414l94 73l403 -450v-72z" />
    <glyph glyph-name="fraction" unicode="&#x2044;" horiz-adv-x="393" 
d="M-279 -31l-81 62l1032 1376l82 -61z" />
    <glyph glyph-name="uni2074" unicode="&#x2074;" horiz-adv-x="770" 
d="M469 786v195h-412v82l406 575h112v-567h127v-90h-127v-195h-106zM168 1071h301v428z" />
    <glyph glyph-name="Euro" unicode="&#x20ac;" horiz-adv-x="1689" 
d="M1516 254l67 -127q-225 -150 -489 -150q-266 0 -458.5 146t-256.5 383h-309v102h288q-8 49 -8 111q0 49 6 96h-286v103h303q61 243 253.5 390.5t463.5 147.5q123 0 252 -38.5t237 -110.5l-68 -131q-89 64 -195.5 98.5t-213.5 34.5q-205 0 -352.5 -106.5t-204.5 -284.5
h663v-103h-686q-6 -47 -6 -96q0 -64 8 -111h684v-102h-657q58 -174 206.5 -278.5t354.5 -104.5q102 0 209 34.5t195 96.5z" />
    <glyph glyph-name="uni2113" unicode="&#x2113;" horiz-adv-x="778" 
d="M459 -23q-129 0 -212 81t-83 208v869q0 142 79.5 231.5t205.5 89.5q119 0 195.5 -88.5t76.5 -224.5q0 -168 -108.5 -331t-305.5 -294v-242q0 -75 48.5 -122.5t125.5 -47.5q55 0 148 21l22 -121q-110 -29 -192 -29zM307 662q293 215 293 464q0 88 -40.5 144.5t-104.5 56.5
q-66 0 -107 -55.5t-41 -143.5v-466z" />
    <glyph glyph-name="uni2116" unicode="&#x2116;" horiz-adv-x="2351" 
d="M1888 1456q149 0 244.5 -97t95.5 -249q0 -154 -95.5 -251t-244.5 -97q-150 0 -246 97.5t-96 250.5q0 152 96 249t246 97zM1194 244v1190h152v-1434h-160l-852 1192v-1192h-150v1434h158zM1888 860q95 0 156 70t61 180t-61 180t-156 70q-97 0 -158 -70t-61 -180t61 -180
t158 -70z" />
    <glyph glyph-name="trademark" unicode="&#x2122;" horiz-adv-x="1163" 
d="M219 922v456h-180v56h424v-56h-178v-456h-66zM573 922v512h68l180 -244l185 244h67v-512h-61v424l-189 -256l-190 256v-424h-60z" />
    <glyph glyph-name="uni2126" unicode="&#x2126;" horiz-adv-x="1607" 
d="M111 0v127h368q-332 238 -332 643q0 305 182 495.5t476 190.5q193 0 342.5 -86.5t231 -242.5t81.5 -357q0 -407 -332 -643h371v-127h-569v109q368 243 368 651q0 254 -134.5 409.5t-358.5 155.5q-226 0 -361 -155.5t-135 -409.5q0 -408 371 -651v-109h-569z" />
    <glyph glyph-name="estimated" unicode="&#x212e;" horiz-adv-x="1966" 
d="M983 -23q-160 0 -305.5 57.5t-250.5 154t-167.5 230t-62.5 279.5t62.5 279.5t167.5 230t250.5 154t305.5 57.5t305.5 -57.5t250.5 -154t167.5 -230t62.5 -279.5q0 -22 -2 -32h-1275v-402q91 -104 218 -162.5t273 -58.5q147 0 276.5 60.5t221.5 168.5h135
q-110 -136 -276 -215.5t-357 -79.5zM492 731h983v402q-93 103 -221 162t-271 59q-145 0 -272.5 -59t-218.5 -162v-402z" />
    <glyph glyph-name="arrowleft" unicode="&#x2190;" horiz-adv-x="1966" 
d="M721 -66l-655 656l655 655l106 -100l-495 -481h1569v-148h-1569l495 -481z" />
    <glyph glyph-name="arrowup" unicode="&#x2191;" horiz-adv-x="1966" 
d="M909 -328v1567l-481 -494l-100 107l655 655l655 -655l-100 -107l-481 494v-1567h-148z" />
    <glyph glyph-name="arrowright" unicode="&#x2192;" horiz-adv-x="1966" 
d="M1245 -66l-106 101l493 481h-1566v148h1566l-493 481l106 100l656 -655z" />
    <glyph glyph-name="arrowdown" unicode="&#x2193;" horiz-adv-x="1966" 
d="M983 -328l-655 656l100 106l481 -493v1566h148v-1566l481 493l100 -106z" />
    <glyph glyph-name="uni2196" unicode="&#x2196;" horiz-adv-x="1966" 
d="M1581 -111l-1108 1110l6 -692l-145 4v928h928l4 -145l-693 6l1110 -1108z" />
    <glyph glyph-name="uni2197" unicode="&#x2197;" horiz-adv-x="1966" 
d="M385 -111l-102 103l1110 1110l-693 -8l5 145h927v-928l-145 -4l8 692z" />
    <glyph glyph-name="uni2198" unicode="&#x2198;" horiz-adv-x="1966" 
d="M705 -59l-5 145l693 -8l-1110 1110l102 102l1110 -1110l-8 692l145 -4v-927h-927z" />
    <glyph glyph-name="uni2199" unicode="&#x2199;" horiz-adv-x="1966" 
d="M334 -59v927l145 4l-8 -692l1110 1110l102 -102l-1110 -1110l693 8l-4 -145h-928z" />
    <glyph glyph-name="partialdiff" unicode="&#x2202;" horiz-adv-x="1191" 
d="M547 1456q259 0 396.5 -203t137.5 -616q0 -306 -136 -483t-365 -177q-215 0 -351.5 149.5t-136.5 383.5q0 213 130 349t329 136q232 0 367 -141q-17 219 -117 336t-264 117q-131 0 -285 -74l-55 135q175 88 350 88zM584 115q150 0 246 120.5t96 309.5q0 135 -96 223
t-246 88t-246 -97.5t-96 -256.5q0 -169 96.5 -278t245.5 -109z" />
    <glyph glyph-name="uni2206" unicode="&#x2206;" horiz-adv-x="1390" 
d="M68 0v92l553 1342h149l553 -1342v-92h-1255zM238 127h915l-459 1120z" />
    <glyph glyph-name="product" unicode="&#x220f;" horiz-adv-x="1605" 
d="M207 -426v1860h1194v-1860h-162v1733h-872v-1733h-160z" />
    <glyph glyph-name="summation" unicode="&#x2211;" horiz-adv-x="1290" 
d="M86 -430v98l672 850l-639 817v99h1089v-127h-876l581 -748v-80l-614 -782h942v-127h-1155z" />
    <glyph glyph-name="minus" unicode="&#x2212;" horiz-adv-x="1179" 
d="M109 524v131h962v-131h-962z" />
    <glyph glyph-name="uni2215" unicode="&#x2215;" horiz-adv-x="393" 
d="M-279 -31l-83 62l1032 1376l84 -61z" />
    <glyph glyph-name="radical" unicode="&#x221a;" horiz-adv-x="1355" 
d="M618 -430l-239 698l-334 -108l-41 125l463 149l227 -676l488 1700l129 -35l-533 -1853h-160z" />
    <glyph glyph-name="infinity" unicode="&#x221e;" horiz-adv-x="1605" 
d="M426 199q-157 0 -253.5 109.5t-96.5 281.5q0 171 96.5 281t253.5 110q119 0 205.5 -66.5t171.5 -214.5q85 148 171.5 214.5t205.5 66.5q157 0 254.5 -109.5t97.5 -281.5q0 -170 -97.5 -280.5t-254.5 -110.5q-119 0 -205.5 66t-171.5 214q-85 -148 -171.5 -214t-205.5 -66
zM444 330q89 0 154.5 62t134.5 198q-69 136 -134.5 198t-154.5 62q-100 0 -161.5 -73t-61.5 -187q0 -115 61.5 -187.5t161.5 -72.5zM1161 330q101 0 162 73t61 187q0 115 -60.5 187.5t-162.5 72.5q-89 0 -154.5 -62t-134.5 -198q69 -136 134.5 -198t154.5 -62z" />
    <glyph glyph-name="integral" unicode="&#x222b;" horiz-adv-x="819" 
d="M336 -453q-73 0 -162 29l33 123q53 -21 106 -21q72 0 118 59t46 154q0 92 -30 217t-73.5 250t-86.5 252t-73 258.5t-30 233.5q0 155 83.5 254.5t215.5 99.5q72 0 164 -29l-33 -122q-53 20 -108 20q-71 0 -117.5 -59.5t-46.5 -153.5q0 -112 46 -279t100.5 -313t100.5 -320
t46 -298q0 -156 -83.5 -255.5t-215.5 -99.5z" />
    <glyph glyph-name="approxequal" unicode="&#x2248;" horiz-adv-x="1179" 
d="M799 692q-59 0 -117 15.5t-98 34t-95 34t-108 15.5q-117 0 -221 -91l-74 113q138 113 295 113q59 0 117 -15.5t98 -34t95 -34t108 -15.5q120 0 221 88l74 -110q-134 -113 -295 -113zM799 254q-74 0 -145 24.5t-139 49t-134 24.5q-120 0 -221 -88l-74 111q133 112 295 112
q74 0 145 -24.5t139 -49t134 -24.5q118 0 221 90l74 -112q-138 -113 -295 -113z" />
    <glyph glyph-name="notequal" unicode="&#x2260;" horiz-adv-x="1179" 
d="M1071 741h-334l-147 -303h481v-135h-547l-147 -303l-121 59l119 244h-266v135h331l148 303h-479v136h544l150 305l121 -60l-119 -245h266v-136z" />
    <glyph glyph-name="lessequal" unicode="&#x2264;" horiz-adv-x="1179" 
d="M1032 274l-923 426v131l923 426l53 -124l-796 -367l796 -367zM109 0v133h962v-133h-962z" />
    <glyph glyph-name="greaterequal" unicode="&#x2265;" horiz-adv-x="1179" 
d="M147 274l-53 125l797 367l-797 367l53 124l924 -426v-131zM109 0v133h962v-133h-962z" />
    <glyph glyph-name="dotmath" unicode="&#x22c5;" horiz-adv-x="503" 
d="M252 397q-48 0 -79.5 31t-31.5 80q0 47 32 78.5t79 31.5q49 0 79.5 -31t30.5 -79q0 -50 -30.5 -80.5t-79.5 -30.5z" />
    <glyph glyph-name="lozenge" unicode="&#x25ca;" horiz-adv-x="1179" 
d="M524 0l-438 688l438 688h131l439 -688l-439 -688h-131zM590 143l344 545l-344 543l-344 -543z" />
    <glyph glyph-name="uniF8FF" unicode="&#xf8ff;" horiz-adv-x="1181" 
d="M252 1217q-26 0 -44 17.5t-18 45.5q0 26 18 43.5t44 17.5q28 0 45.5 -17.5t17.5 -43.5q0 -28 -17.5 -45.5t-45.5 -17.5zM387 1217q-26 0 -43.5 17.5t-17.5 45.5q0 26 17.5 43.5t43.5 17.5q28 0 46 -17.5t18 -43.5q0 -28 -18 -45.5t-46 -17.5zM522 1217q-26 0 -43.5 17.5
t-17.5 45.5q0 26 17.5 43.5t43.5 17.5q28 0 46 -17.5t18 -43.5q0 -28 -18 -45.5t-46 -17.5zM657 1217q-26 0 -43.5 17.5t-17.5 45.5q0 26 17.5 43.5t43.5 17.5q28 0 46 -17.5t18 -43.5q0 -28 -18 -45.5t-46 -17.5zM793 1217q-27 0 -44.5 17.5t-17.5 45.5q0 26 18 43.5
t44 17.5q28 0 45.5 -17.5t17.5 -43.5q0 -28 -17.5 -45.5t-45.5 -17.5zM928 1217q-26 0 -44 17.5t-18 45.5q0 26 18 43.5t44 17.5q28 0 45.5 -17.5t17.5 -43.5q0 -28 -17.5 -45.5t-45.5 -17.5zM252 1081q-26 0 -44 18t-18 46q0 26 18 43.5t44 17.5q28 0 45.5 -17.5
t17.5 -43.5q0 -28 -17.5 -46t-45.5 -18zM252 946q-26 0 -44 18t-18 46q0 26 18 43.5t44 17.5q28 0 45.5 -17.5t17.5 -43.5q0 -28 -17.5 -46t-45.5 -18zM522 946q-26 0 -43.5 18t-17.5 46q0 26 17.5 43.5t43.5 17.5q28 0 46 -17.5t18 -43.5q0 -28 -18 -46t-46 -18zM657 946
q-26 0 -43.5 18t-17.5 46q0 26 17.5 43.5t43.5 17.5q28 0 46 -17.5t18 -43.5q0 -28 -18 -46t-46 -18zM793 946q-26 0 -44 18t-18 46q0 26 18 43.5t44 17.5q28 0 45.5 -17.5t17.5 -43.5q0 -28 -17.5 -46t-45.5 -18zM928 946q-26 0 -44 18t-18 46q0 26 18 43.5t44 17.5
q28 0 45.5 -17.5t17.5 -43.5q0 -28 -17.5 -46t-45.5 -18zM252 811q-26 0 -44 17.5t-18 45.5q0 26 18 44t44 18q28 0 45.5 -18t17.5 -44q0 -28 -17.5 -45.5t-45.5 -17.5zM522 811q-26 0 -43.5 17.5t-17.5 45.5q0 26 17.5 44t43.5 18q28 0 46 -18t18 -44q0 -28 -18 -45.5
t-46 -17.5zM252 676q-26 0 -44 18t-18 45q0 26 18 44t44 18q28 0 45.5 -17.5t17.5 -44.5q0 -28 -17.5 -45.5t-45.5 -17.5zM522 676q-26 0 -43.5 17.5t-17.5 45.5q0 26 17.5 44t43.5 18q28 0 46 -18t18 -44q0 -28 -18 -45.5t-46 -17.5zM657 676q-26 0 -43.5 17.5t-17.5 45.5
q0 26 17.5 44t43.5 18q28 0 46 -18t18 -44q0 -28 -18 -45.5t-46 -17.5zM793 676q-27 0 -44.5 18t-17.5 45q0 26 18 44t44 18q27 0 45 -17.5t18 -44.5q0 -28 -17.5 -45.5t-45.5 -17.5zM928 676q-26 0 -44 18t-18 45q0 26 18 44t44 18q28 0 45.5 -17.5t17.5 -44.5
q0 -28 -17.5 -45.5t-45.5 -17.5zM252 541q-26 0 -44 17.5t-18 45.5q0 26 18 44t44 18q28 0 45.5 -18t17.5 -44q0 -28 -17.5 -45.5t-45.5 -17.5zM928 541q-26 0 -44 17.5t-18 45.5q0 26 18 44t44 18q28 0 45.5 -18t17.5 -44q0 -28 -17.5 -45.5t-45.5 -17.5zM252 406
q-26 0 -44 18t-18 45q0 26 18 43.5t44 17.5q28 0 45.5 -17.5t17.5 -43.5q0 -28 -17.5 -45.5t-45.5 -17.5zM522 406q-26 0 -43.5 17.5t-17.5 45.5q0 26 17.5 43.5t43.5 17.5q28 0 46 -17.5t18 -43.5q0 -28 -18 -45.5t-46 -17.5zM657 406q-26 0 -43.5 17.5t-17.5 45.5
q0 26 17.5 43.5t43.5 17.5q28 0 46 -17.5t18 -43.5q0 -28 -18 -45.5t-46 -17.5zM793 406q-27 0 -44.5 18t-17.5 45q0 26 18 43.5t44 17.5q28 0 45.5 -17.5t17.5 -43.5q0 -28 -17.5 -45.5t-45.5 -17.5zM928 406q-26 0 -44 18t-18 45q0 26 18 43.5t44 17.5q28 0 45.5 -17.5
t17.5 -43.5q0 -28 -17.5 -45.5t-45.5 -17.5zM252 270q-26 0 -44 18t-18 46q0 26 18 43.5t44 17.5q28 0 45.5 -17.5t17.5 -43.5q0 -28 -17.5 -46t-45.5 -18zM252 135q-26 0 -44 18t-18 46q0 26 18 43.5t44 17.5q28 0 45.5 -17.5t17.5 -43.5q0 -28 -17.5 -46t-45.5 -18z
M522 135q-26 0 -43.5 18t-17.5 46q0 26 17.5 43.5t43.5 17.5q28 0 46 -17.5t18 -43.5q0 -28 -18 -46t-46 -18zM252 0q-26 0 -44 18t-18 45q0 26 18 44t44 18q28 0 45.5 -17.5t17.5 -44.5q0 -28 -17.5 -45.5t-45.5 -17.5zM387 0q-26 0 -43.5 17.5t-17.5 45.5q0 26 17.5 44
t43.5 18q28 0 46 -18t18 -44q0 -28 -18 -45.5t-46 -17.5zM522 0q-26 0 -43.5 17.5t-17.5 45.5q0 26 17.5 44t43.5 18q28 0 46 -18t18 -44q0 -28 -18 -45.5t-46 -17.5z" />
    <glyph glyph-name="Iacute_J.loclNLD" horiz-adv-x="1433" 
d="M201 1571l-62 86l346 239l72 -102zM1083 1571l-61 86l346 239l72 -102zM184 0v1434h160v-1434h-160zM844 -25q-123 0 -266 35l22 127q115 -28 209 -28q121 0 190.5 62.5t69.5 197.5v1065h160v-1080q0 -187 -104 -283t-281 -96z" />
    <glyph glyph-name="Cacute.loclPLK" horiz-adv-x="1441" 
d="M858 1552l-104 37l110 326l123 -45zM846 -23q-215 0 -385.5 97t-264.5 266.5t-94 378.5q0 210 93 378t262.5 263.5t384.5 95.5q123 0 252 -38.5t237 -110.5l-67 -131q-88 64 -195.5 98.5t-214.5 34.5q-261 0 -423.5 -166t-162.5 -424q0 -169 72.5 -304t209.5 -213.5
t314 -78.5q102 0 209 34t197 97l65 -127q-225 -150 -489 -150z" />
    <glyph glyph-name="Nacute.loclPLK" horiz-adv-x="1527" 
d="M893 1870l-129 -318l-105 37l111 326zM1194 1434h152v-1434h-160l-852 1192v-1192h-150v1434h158l852 -1190v1190z" />
    <glyph glyph-name="Oacute.loclPLK" horiz-adv-x="1683" 
d="M844 1552l-105 37l111 326l123 -45zM842 -23q-208 0 -377.5 96.5t-266 266t-96.5 377.5t96.5 377.5t266 265.5t377.5 96q156 0 293 -56.5t235 -154.5t154.5 -235t56.5 -293q0 -208 -96 -377.5t-265.5 -266t-377.5 -96.5zM842 125q162 0 293.5 77t206.5 212.5t75 302.5
t-75 302.5t-206.5 212.5t-293.5 77t-294 -77t-207 -212.5t-75 -302.5t75 -302.5t207 -212.5t294 -77z" />
    <glyph glyph-name="Sacute.loclPLK" horiz-adv-x="1185" 
d="M596 1552l-104 37l110 326l123 -45zM594 -18q-272 0 -490 108l41 133q209 -102 437 -102q157 0 248.5 66.5t91.5 185.5q0 64 -27.5 112t-74 77t-107 51t-127.5 40t-133.5 38t-127 51t-107 72.5t-74 108.5t-27.5 154q0 169 132.5 273t346.5 104q250 0 438 -100l-41 -140
q-171 101 -387 101q-150 0 -241 -63.5t-91 -166.5q0 -65 27.5 -113.5t74 -78.5t107 -52t127.5 -40t133.5 -38t127 -50.5t107 -71.5t74 -108t27.5 -154q0 -182 -133.5 -289.5t-351.5 -107.5z" />
    <glyph glyph-name="Zacute.loclPLK" horiz-adv-x="1284" 
d="M774 1870l-129 -318l-104 37l110 326zM326 141h852v-141h-1074v94l842 1198h-803v142h1024v-95z" />
    <glyph glyph-name="i.loclTRK" horiz-adv-x="483" 
d="M242 1235q-45 0 -74 28t-29 72t29.5 73.5t73.5 29.5t73 -29.5t29 -73.5t-29 -72t-73 -28zM164 0v1010h155v-1010h-155z" />
    <glyph glyph-name="germandbls.calt" horiz-adv-x="1452" 
d="M950 813q181 -22 288.5 -132.5t107.5 -277.5q0 -185 -130.5 -303t-334.5 -118q-236 0 -394 110l58 129q143 -104 323 -104q142 0 230 79t88 207q0 133 -96.5 214t-253.5 81h-43l-25 82l362 512h-790v-1292h-156v1434h1139v-95z" />
    <glyph glyph-name="iacute_j.loclNLD" horiz-adv-x="980" 
d="M176 1169l-61 86l346 240l71 -102zM668 1167l-62 86l346 240l72 -102zM164 0v1010h155v-1010h-155zM537 -453q-126 0 -222 66l31 117q69 -54 156 -54q71 0 116.5 46t45.5 114v1174h155v-1188q0 -118 -79.5 -196.5t-202.5 -78.5z" />
    <glyph glyph-name="cacute.loclPLK" horiz-adv-x="1026" 
d="M608 1151l-104 37l110 323l123 -43zM584 -23q-151 0 -265.5 69.5t-173.5 187.5t-59 266q0 149 62 270t179 191.5t267 70.5q194 0 342 -125l-74 -123q-116 107 -262 107q-155 0 -255.5 -111t-100.5 -280q0 -167 99.5 -273t258.5 -106q131 0 262 98l70 -119
q-159 -123 -350 -123z" />
    <glyph glyph-name="nacute.loclPLK" horiz-adv-x="1191" 
d="M752 1468l-129 -317l-105 37l111 323zM643 1032q176 0 287.5 -115t111.5 -301v-616h-155v586q0 145 -76.5 230t-204.5 85t-209.5 -96.5t-81.5 -245.5v-559h-155v1010h125l16 -146q119 168 342 168z" />
    <glyph glyph-name="oacute.loclPLK" horiz-adv-x="1167" 
d="M610 1151l-104 37l110 323l123 -43zM584 -23q-214 0 -356 151t-142 378q0 226 141.5 376t356.5 150q141 0 254.5 -68.5t178 -189t64.5 -268.5q0 -227 -141.5 -378t-355.5 -151zM584 121q146 0 243 109.5t97 275.5q0 164 -97 273.5t-243 109.5t-243 -109.5t-97 -273.5
q0 -166 97 -275.5t243 -109.5z" />
    <glyph glyph-name="sacute.loclPLK" horiz-adv-x="917" 
d="M487 1151l-104 37l111 323l122 -43zM459 -23q-209 0 -367 113l39 117q140 -109 315 -109q104 0 166 49.5t62 137.5q0 55 -31 90.5t-80.5 52.5t-109.5 29t-120.5 28.5t-110 42t-80.5 78t-31 129.5q0 136 106.5 216.5t263.5 80.5q180 0 326 -102l-41 -113q-127 96 -272 96
q-100 0 -166 -46t-66 -130q0 -39 19.5 -66.5t52 -43t75 -26t89 -20t93.5 -20.5t89.5 -31.5t75 -50t52 -78.5t19.5 -114q0 -140 -101.5 -225t-266.5 -85z" />
    <glyph glyph-name="zacute.loclPLK" horiz-adv-x="983" 
d="M649 1468l-129 -317l-104 37l110 323zM301 123h584v-123h-785v88l572 799h-553v123h755v-88z" />
    <glyph glyph-name="zero.tf" horiz-adv-x="1183" 
d="M594 -23q-239 0 -389 206t-150 534t150 533.5t389 205.5q157 0 279 -93t189.5 -261.5t67.5 -384.5q0 -217 -67.5 -385.5t-189.5 -261.5t-279 -93zM594 125q166 0 268.5 163.5t102.5 428.5t-102.5 428.5t-268.5 163.5q-167 0 -271 -163.5t-104 -428.5t104 -428.5
t271 -163.5z" />
    <glyph glyph-name="one.tf" horiz-adv-x="1183" 
d="M647 1434h137v-1434h-161v1257l-347 -198l-69 121z" />
    <glyph glyph-name="two.tf" horiz-adv-x="1183" 
d="M295 141h704v-141h-886q0 66 14.5 127t35.5 109.5t58 98t70 84.5t83.5 77t86 67.5t90.5 63.5q65 44 111.5 84t89.5 90t65.5 108t22.5 121q0 129 -83 206t-216 77q-190 0 -342 -135l-64 114q99 92 202.5 128t231.5 36q189 0 307.5 -113t118.5 -288q0 -72 -19.5 -138.5
t-50 -118t-77.5 -102.5t-92 -88t-103 -78q-59 -41 -95 -68t-85 -69t-79.5 -77t-58 -81.5t-40.5 -93.5z" />
    <glyph glyph-name="three.tf" horiz-adv-x="1183" 
d="M741 735q124 -39 196.5 -132t72.5 -224q0 -184 -126.5 -293t-344.5 -109q-244 0 -428 132l53 129q153 -115 352 -115q150 0 239 71.5t89 196.5q0 122 -98 197.5t-265 75.5h-82v133h82q157 0 251.5 75t94.5 193q0 105 -81.5 175.5t-227.5 70.5q-170 0 -309 -97l-53 127
q168 115 403 115q199 0 314.5 -103.5t115.5 -258.5q0 -123 -68 -219.5t-180 -139.5z" />
    <glyph glyph-name="four.tf" horiz-adv-x="1183" 
d="M1145 508v-143h-258v-365h-160v365h-672v129l666 940h166v-926h258zM739 1231l-522 -731h522v731z" />
    <glyph glyph-name="five.tf" horiz-adv-x="1183" 
d="M600 887q202 0 319 -122.5t117 -324.5q0 -215 -131 -339t-354 -124q-244 0 -436 123l53 133q158 -114 360 -114q158 0 256.5 86t98.5 244q0 143 -85.5 227t-232.5 84q-146 0 -243 -70l-132 45l60 699h756v-142h-619l-37 -454q109 49 250 49z" />
    <glyph glyph-name="six.tf" horiz-adv-x="1183" 
d="M621 885q196 0 317 -125t121 -322q0 -198 -128.5 -329.5t-320.5 -131.5q-251 0 -379.5 172.5t-128.5 481.5q0 152 19 276.5t60.5 227.5t105 173.5t155.5 109t209 38.5q207 0 357 -127l-58 -117q-73 57 -137.5 80t-148.5 23q-217 0 -314.5 -161t-95.5 -462q49 89 148 141
t219 52zM600 117q128 0 213.5 92t85.5 225q0 137 -82.5 223t-220.5 86q-136 0 -226.5 -82.5t-90.5 -199.5q0 -149 90 -246.5t231 -97.5z" />
    <glyph glyph-name="seven.tf" horiz-adv-x="1183" 
d="M92 1434h864v-101l-573 -1333h-164l563 1292h-690v142z" />
    <glyph glyph-name="eight.tf" horiz-adv-x="1183" 
d="M844 764q119 -45 184.5 -143.5t65.5 -225.5q0 -183 -132 -300.5t-344 -117.5t-343.5 118t-131.5 302q0 128 66.5 225t183.5 140q-99 42 -156 125t-57 192q0 165 122 271t316 106q195 0 316 -105.5t121 -269.5q0 -110 -55.5 -194t-155.5 -123zM618 1323
q-127 0 -205.5 -69.5t-78.5 -178.5t78.5 -178.5t205.5 -69.5t205 69.5t78 178.5t-78 178.5t-205 69.5zM618 111q144 0 233 81t89 211q0 128 -89 209.5t-233 81.5t-233.5 -81.5t-89.5 -209.5q0 -129 89.5 -210.5t233.5 -81.5z" />
    <glyph glyph-name="nine.tf" horiz-adv-x="1183" 
d="M578 1454q251 0 379 -171t128 -480q0 -191 -30.5 -339.5t-95 -259t-171 -169t-251.5 -58.5q-206 0 -357 125l58 117q73 -56 137.5 -79t148.5 -23q112 0 192 43t127.5 126t69.5 195t21 260q-49 -90 -147.5 -142t-219.5 -52q-196 0 -317 124.5t-121 321.5
q0 198 128.5 329.5t320.5 131.5zM592 688q135 0 226 83.5t91 201.5q0 148 -90 245t-231 97q-128 0 -213.5 -92t-85.5 -224q0 -138 82.5 -224.5t220.5 -86.5z" />
    <glyph glyph-name="exclamdown.case" horiz-adv-x="536" 
d="M268 1456q47 0 79 -31.5t32 -78.5q0 -49 -31.5 -80t-79.5 -31q-49 0 -79.5 30.5t-30.5 80.5q0 48 30.5 79t79.5 31zM332 1008l14 -1008h-158l13 1008h131z" />
    <glyph glyph-name="questiondown.case" horiz-adv-x="940" 
d="M518 1456q49 0 80 -31t31 -79q0 -50 -30.5 -80.5t-80.5 -30.5q-48 0 -79 31t-31 80q0 47 31.5 78.5t78.5 31.5zM584 1008v-29q0 -63 -23 -120.5t-57 -99.5t-74 -88.5t-74 -88t-57 -98.5t-23 -119q0 -109 70.5 -178.5t188.5 -69.5q71 0 143.5 34.5t126.5 110.5l72 -108
q-140 -177 -375 -177q-93 0 -168.5 30.5t-122.5 82t-72.5 116t-25.5 136.5q0 67 19 127.5t48.5 106t66 87t73 78.5t66 73.5t48.5 79t19 87.5v27h131z" />
    <glyph glyph-name="periodcentered.case" horiz-adv-x="503" 
d="M252 592q-48 0 -79.5 30.5t-31.5 79.5q0 47 32 79t79 32q49 0 79.5 -31.5t30.5 -79.5q0 -50 -30 -80t-80 -30z" />
    <glyph glyph-name="bullet.case" horiz-adv-x="983" 
d="M492 393q-123 0 -209 86t-86 209t86 209t209 86t208.5 -86t85.5 -209t-85.5 -209t-208.5 -86z" />
    <glyph glyph-name="parenleft.case" horiz-adv-x="688" 
d="M514 -213q-171 183 -260.5 413.5t-89.5 487.5q0 256 89.5 486.5t260.5 414.5l109 -76q-156 -169 -236 -380t-80 -445q0 -232 80.5 -444t235.5 -381z" />
    <glyph glyph-name="parenright.case" horiz-adv-x="688" 
d="M176 -213l-110 76q156 168 235.5 379.5t79.5 445.5q0 235 -79.5 446t-235.5 379l110 76q170 -183 259 -413.5t89 -487.5q0 -255 -89 -486t-259 -415z" />
    <glyph glyph-name="braceleft.case" horiz-adv-x="688" 
d="M547 -176q-130 0 -215.5 83.5t-85.5 213.5q0 56 12 164.5t12 160.5q0 76 -49 127.5t-123 51.5h-32v127h32q75 0 123.5 50t48.5 128q0 50 -12 159t-12 166q0 130 85.5 213.5t215.5 83.5h67v-129h-32q-84 0 -137.5 -53.5t-53.5 -140.5q0 -49 13.5 -154t13.5 -157
q0 -83 -41 -144.5t-115 -85.5q74 -24 115 -85t41 -144q0 -51 -13.5 -156.5t-13.5 -155.5q0 -86 53.5 -140t137.5 -54h32v-129h-67z" />
    <glyph glyph-name="braceright.case" horiz-adv-x="688" 
d="M76 -176v129h33q83 0 135.5 53.5t52.5 140.5q0 49 -12.5 154t-12.5 158q0 83 40 144t114 85q-74 24 -114 85.5t-40 144.5q0 51 12.5 156t12.5 155q0 86 -53 140t-135 54h-33v129h67q130 0 215.5 -83.5t85.5 -213.5q0 -56 -13 -164.5t-13 -160.5q0 -76 49 -127t123 -51h33
v-127h-33q-75 0 -123.5 -50.5t-48.5 -128.5q0 -50 13 -159t13 -166q0 -130 -85.5 -213.5t-215.5 -83.5h-67z" />
    <glyph glyph-name="bracketleft.case" horiz-adv-x="688" 
d="M217 -176v1728h397v-129h-254v-1470h254v-129h-397z" />
    <glyph glyph-name="bracketright.case" horiz-adv-x="688" 
d="M76 -176v129h252v1470h-252v129h395v-1728h-395z" />
    <glyph glyph-name="hyphen.case" horiz-adv-x="655" 
d="M53 643v123h549v-123h-549z" />
    <glyph glyph-name="uni00AD.case" horiz-adv-x="655" 
d="M53 643v123h549v-123h-549z" />
    <glyph glyph-name="endash.case" horiz-adv-x="983" 
d="M53 643v123h877v-123h-877z" />
    <glyph glyph-name="emdash.case" horiz-adv-x="1966" 
d="M53 643v123h1860v-123h-1860z" />
    <glyph glyph-name="guillemotleft.case" horiz-adv-x="1093" 
d="M465 184l-404 451v72l404 450l92 -74l-344 -413l344 -410zM926 184l-406 451v72l406 450l92 -74l-346 -413l346 -410z" />
    <glyph glyph-name="guillemotright.case" horiz-adv-x="1093" 
d="M170 184l-94 76l346 410l-346 413l94 74l403 -450v-72zM629 184l-92 76l346 410l-346 413l92 74l405 -450v-72z" />
    <glyph glyph-name="guilsinglleft.case" horiz-adv-x="634" 
d="M465 184l-404 451v72l404 450l92 -74l-344 -413l344 -410z" />
    <glyph glyph-name="guilsinglright.case" horiz-adv-x="634" 
d="M170 184l-94 74l346 412l-346 413l94 74l403 -450v-72z" />
    <glyph glyph-name="arrowup.case" horiz-adv-x="1966" 
d="M909 -229v1566l-481 -493l-100 106l655 656l655 -656l-100 -106l-481 493v-1566h-148z" />
    <glyph glyph-name="uni2197.case" horiz-adv-x="1966" 
d="M387 -12l-102 102l1110 1110l-695 -8l5 145h927v-927l-145 -4l8 692z" />
    <glyph glyph-name="arrowright.case" horiz-adv-x="1966" 
d="M1245 33l-106 100l493 481h-1566v148h1566l-493 481l106 100l656 -655z" />
    <glyph glyph-name="uni2198.case" horiz-adv-x="1966" 
d="M705 39l-5 145l695 -8l-1110 1110l102 103l1108 -1110l-8 692l145 -4v-928h-927z" />
    <glyph glyph-name="arrowdown.case" horiz-adv-x="1966" 
d="M983 -229l-655 655l100 106l481 -493v1567h148v-1567l481 493l100 -106z" />
    <glyph glyph-name="uni2199.case" horiz-adv-x="1966" 
d="M334 39v928l145 4l-8 -692l1110 1110l102 -103l-1110 -1110l693 8l-4 -145h-928z" />
    <glyph glyph-name="arrowleft.case" horiz-adv-x="1966" 
d="M721 33l-655 655l655 655l106 -100l-495 -481h1569v-148h-1569l495 -481z" />
    <glyph glyph-name="uni2196.case" horiz-adv-x="1966" 
d="M1581 -12l-1108 1110l6 -692l-145 4v927h928l4 -145l-693 6l1110 -1108z" />
    <glyph glyph-name="uni0308.case" 
d="M-459 1597q-43 0 -69.5 27t-26.5 70t26.5 70.5t69.5 27.5t70 -27.5t27 -70.5t-27 -70t-70 -27zM-33 1597q-43 0 -69.5 27t-26.5 70t26.5 70.5t69.5 27.5t69.5 -27.5t26.5 -70.5t-26.5 -70t-69.5 -27z" />
    <glyph glyph-name="uni0307.case" 
d="M-246 1593q-44 0 -73 28.5t-29 72.5q0 46 29 75t73 29t73.5 -29t29.5 -75q0 -44 -29.5 -72.5t-73.5 -28.5z" />
    <glyph glyph-name="gravecomb.case" 
d="M-168 1528l-356 223l71 102l347 -239z" />
    <glyph glyph-name="acutecomb.case" 
d="M-311 1528l-62 86l346 239l72 -102z" />
    <glyph glyph-name="uni030B.case" 
d="M-467 1520l-82 79l295 304l90 -91zM-74 1520l-80 79l293 304l90 -91z" />
    <glyph glyph-name="uni0302.case" 
d="M-477 1530l-72 76l252 243h100l252 -243l-69 -76l-232 209z" />
    <glyph glyph-name="uni030C.case" 
d="M-297 1542l-252 242l72 76l231 -207l232 207l69 -76l-252 -242h-100z" />
    <glyph glyph-name="uni0306.case" 
d="M-246 1526q-127 0 -212 80t-91 211h107q4 -81 59 -131t137 -50t136.5 50t58.5 131h106q-6 -131 -90.5 -211t-210.5 -80z" />
    <glyph glyph-name="uni030A.case" 
d="M-244 1497q-89 0 -147 55.5t-58 141.5q0 87 56.5 141.5t146.5 54.5t146.5 -54.5t56.5 -141.5t-55.5 -142t-145.5 -55zM-244 1575q53 0 85 32.5t32 86.5t-33 87.5t-86 33.5q-54 0 -86.5 -33.5t-32.5 -87.5q0 -53 34 -86t87 -33z" />
    <glyph glyph-name="tildecomb.case" 
d="M-453 1602l-100 30q15 70 63 114t113 44q51 0 136.5 -39t113.5 -39q66 0 88 78l100 -33q-15 -70 -63 -112.5t-113 -42.5q-51 0 -136.5 37.5t-113.5 37.5q-31 0 -54.5 -19.5t-33.5 -55.5z" />
    <glyph glyph-name="uni0304.case" 
d="M-547 1640v111h602v-111h-602z" />
    <glyph glyph-name="acute.case" horiz-adv-x="587" 
d="M145 1528l-59 86l346 239l70 -102z" />
    <glyph glyph-name="breve.case" horiz-adv-x="774" 
d="M387 1526q-127 0 -211 80t-90 211h104q6 -81 60.5 -131t136.5 -50t136.5 50t60.5 131h104q-6 -131 -90 -211t-211 -80z" />
    <glyph glyph-name="caron.case" horiz-adv-x="774" 
d="M338 1542l-252 242l70 76l231 -207l231 207l70 -76l-252 -242h-98z" />
    <glyph glyph-name="circumflex.case" horiz-adv-x="774" 
d="M156 1530l-70 76l252 243h98l252 -243l-70 -76l-231 209z" />
    <glyph glyph-name="dieresis.case" horiz-adv-x="788" 
d="M180 1597q-42 0 -68 27t-26 70t26 70.5t68 27.5q43 0 69.5 -27.5t26.5 -70.5t-26.5 -70t-69.5 -27zM608 1597q-43 0 -69.5 27t-26.5 70t26.5 70.5t69.5 27.5t70 -27.5t27 -70.5t-27 -70t-70 -27z" />
    <glyph glyph-name="dotaccent.case" horiz-adv-x="376" 
d="M188 1593q-44 0 -73 28.5t-29 72.5q0 46 29 75t73 29t73.5 -29t29.5 -75q0 -44 -29.5 -72.5t-73.5 -28.5z" />
    <glyph glyph-name="grave.case" horiz-adv-x="587" 
d="M442 1528l-356 223l70 102l348 -239z" />
    <glyph glyph-name="hungarumlaut.case" horiz-adv-x="948" 
d="M166 1520l-80 79l293 304l90 -91zM559 1520l-78 79l291 304l92 -91z" />
    <glyph glyph-name="macron.case" horiz-adv-x="770" 
d="M86 1640v111h600v-111h-600z" />
    <glyph glyph-name="ring.case" horiz-adv-x="573" 
d="M289 1497q-89 0 -146 55.5t-57 141.5q0 88 56 142t145 54q91 0 146.5 -54t55.5 -142q0 -87 -55 -142t-145 -55zM289 1575q54 0 86.5 32.5t32.5 86.5t-34 87.5t-87 33.5q-54 0 -86.5 -33.5t-32.5 -87.5q0 -53 34 -86t87 -33z" />
    <glyph glyph-name="tilde.case" horiz-adv-x="784" 
d="M184 1602l-98 30q15 70 62 114t112 44q50 0 136 -39t116 -39q63 0 88 78l98 -33q-15 -70 -62 -112.5t-114 -42.5q-49 0 -134.5 37.5t-115.5 37.5q-31 0 -54.5 -19.5t-33.5 -55.5z" />
    <glyph glyph-name="acutecomb.loclPLK" 
d="M-244 1130l-104 37l110 324l123 -43z" />
    <glyph glyph-name="acutecomb.case.loclPLK" 
d="M-244 1509l-104 37l110 326l123 -45z" />
    </font>
</defs>
</svg>
