<?xml version="1.0" standalone="no"?>
<!DOCTYPE svg PUBLIC "-//W3C//DTD SVG 1.1//EN" "http://www.w3.org/Graphics/SVG/1.1/DTD/svg11.dtd" >
<svg xmlns="http://www.w3.org/2000/svg" xmlns:xlink="http://www.w3.org/1999/xlink" version="1.1">
<metadata>
Created by FontForge 20170731 at Mon Nov  2 19:35:55 2020
 By Aleksey,,,
Copyright (c) 2020 by Fontsmith Ltd. All rights reserved. This font may not be altered in any way without prior permission of Fontsmith Ltd.
</metadata>
<defs>
<font id="CognizantSans-BoldItalic" horiz-adv-x="0" >
  <font-face 
    font-family="Cognizant Sans Bold Italic"
    font-weight="700"
    font-style="italic"
    font-stretch="normal"
    units-per-em="2048"
    panose-1="2 1 5 3 3 2 2 2 2 4"
    ascent="1526"
    descent="-522"
    x-height="1018"
    cap-height="1434"
    bbox="-846 -637 2558 2036"
    underline-thickness="198"
    underline-position="-403"
    slope="-12"
    unicode-range="U+000D-FB01"
  />
<missing-glyph horiz-adv-x="1359" 
d="M231 0v1376h975v-1376h-975zM719 778l332 500h-664zM330 188l332 500l-332 500v-1000zM1108 188v1000l-332 -500zM387 98h664l-332 500z" />
    <glyph glyph-name="f_f.liga" unicode="ff" horiz-adv-x="1398" 
d="M1487 1251q-68 0 -115.5 -43.5t-62.5 -115.5l-17 -74h211l-41 -201h-211l-174 -817h-262l174 817h-457l-174 -817h-262l176 817h-163l43 201h163l27 129q29 146 123.5 229.5t234.5 83.5q125 0 220 -45l-52 -184q-41 20 -100 20q-68 0 -115.5 -43.5t-62.5 -115.5l-17 -74
h459l27 129q31 146 125.5 229.5t234.5 83.5q121 0 219 -45l-51 -184q-41 20 -100 20z" />
    <glyph glyph-name="fi" unicode="fi" horiz-adv-x="1222" 
d="M96 0l174 817h-161l43 201h159l17 69q43 173 173.5 273t309.5 100q172 0 340 -76l-76 -190q-111 57 -233 57q-97 0 -167.5 -47.5t-88.5 -132.5l-13 -53h644l-218 -1018h-262l174 817h-379l-174 -817h-262z" />
    <glyph glyph-name="f_f_i.liga" unicode="ffi" horiz-adv-x="1884" 
d="M1235 1018h643l-217 -1018h-262l174 817h-379l-174 -817h-262l174 817h-397l-175 -817h-262l174 817h-163l43 201h161l29 129q34 147 127.5 230t232.5 83q114 0 218 -49l-52 -180q-39 20 -98 20q-69 0 -117 -40.5t-61 -110.5l-17 -82h398l16 69q42 174 173 273.5
t311 99.5q171 0 339 -76l-73 -190q-114 57 -236 57q-98 0 -168 -47t-88 -133z" />
    <glyph glyph-name="f_f_j.liga" unicode="ffj" horiz-adv-x="1882" 
d="M1235 1018h641l-246 -1168q-31 -140 -135.5 -223.5t-247.5 -83.5q-126 0 -233 62l63 186q54 -39 121 -39q64 0 115 42.5t63 103.5l197 919h-381l-174 -817h-262l174 817h-398l-174 -817h-262l174 817h-161l43 201h159l31 129q33 147 126 230t232 83q114 0 218 -49
l-50 -180q-41 20 -100 20q-68 0 -113 -40t-63 -111l-19 -82h400l16 69q35 172 167.5 272.5t313.5 100.5q174 0 342 -76l-75 -190q-114 57 -234 57q-99 0 -168.5 -47t-87.5 -133z" />
    <glyph glyph-name="f_j.liga" unicode="fj" horiz-adv-x="1222" 
d="M1217 1018l-248 -1168q-29 -140 -133.5 -223.5t-247.5 -83.5q-126 0 -236 62l66 186q54 -39 119 -39t116.5 42.5t63.5 103.5l194 919h-379l-174 -817h-262l174 817h-161l43 201h159l17 72q39 172 171 271t312 99q172 0 340 -76l-76 -190q-111 57 -233 57q-97 0 -166 -47
t-90 -133l-13 -53h644z" />
    <glyph glyph-name=".notdef" horiz-adv-x="1359" 
d="M231 0v1376h975v-1376h-975zM719 778l332 500h-664zM330 188l332 500l-332 500v-1000zM1108 188v1000l-332 -500zM387 98h664l-332 500z" />
    <glyph glyph-name=".null" 
 />
    <glyph glyph-name="nonmarkingreturn" horiz-adv-x="682" 
 />
    <glyph glyph-name="CR" unicode="&#xd;" horiz-adv-x="491" 
 />
    <glyph glyph-name="space" unicode=" " horiz-adv-x="491" 
 />
    <glyph glyph-name="exclam" unicode="!" horiz-adv-x="579" 
d="M172 457l184 977h262l-229 -977h-217zM190 -27q-61 0 -103 37.5t-42 106.5q0 83 55 133.5t127 50.5q62 0 105 -38t43 -107q0 -83 -56 -133t-129 -50z" />
    <glyph glyph-name="quotedbl" unicode="&#x22;" horiz-adv-x="909" 
d="M233 936l82 498h244l-129 -498h-197zM666 936l82 498h243l-129 -498h-196z" />
    <glyph glyph-name="numbersign" unicode="#" horiz-adv-x="1351" 
d="M262 -27l-194 27l135 340h-203l41 201h244l135 333h-205l41 201h242l159 379l193 -27l-143 -352h325l158 379l192 -27l-141 -352h201l-43 -201h-242l-135 -333h205l-43 -201h-242l-147 -367l-195 27l135 340h-325zM489 541h328l135 333h-327z" />
    <glyph glyph-name="dollar" unicode="$" horiz-adv-x="1200" 
d="M784 1212q-136 0 -226.5 -51t-90.5 -149q0 -26 8 -47t28.5 -38.5t37 -29t54 -25.5t56.5 -20.5t66 -20.5q49 -14 81.5 -25t77.5 -30.5t75 -39t63.5 -50t52.5 -65.5t32 -83t13 -104q0 -125 -72.5 -225t-196 -157.5t-276.5 -65.5l-51 -246h-217l53 258q-166 26 -348 121
l96 213q104 -54 220 -84.5t217 -30.5q133 0 218 53.5t85 151.5q0 36 -15 66t-36.5 50.5t-60 39.5t-70.5 30.5t-83 26.5q-50 15 -77 23.5t-73.5 26.5t-73 34t-60 43.5t-51.5 58t-30.5 73.5t-12.5 93q0 182 130 302t335 149l55 264h217l-55 -260q169 -17 352 -107l-96 -223
q-155 100 -351 100z" />
    <glyph glyph-name="percent" unicode="%" horiz-adv-x="1794" 
d="M512 737q-155 0 -241.5 86.5t-86.5 220.5q0 76 30 150t83 133.5t135 96t178 36.5q154 0 240 -86.5t86 -220.5q0 -76 -29.5 -150t-82 -133.5t-134.5 -96t-178 -36.5zM334 -35l-117 101l1319 1376l119 -101zM526 889q96 0 154.5 79t58.5 175q0 74 -37 120t-104 46
q-64 0 -115 -39.5t-76.5 -97t-25.5 -117.5q0 -73 39.5 -119.5t105.5 -46.5zM1280 -27q-155 0 -242.5 87t-87.5 221q0 76 30 149.5t83.5 133t136 96t178.5 36.5q154 0 240 -86.5t86 -220.5q0 -76 -29.5 -150t-82 -133.5t-134.5 -96t-178 -36.5zM1294 125q96 0 154.5 79
t58.5 175q0 74 -37 120t-104 46q-64 0 -115 -39.5t-76.5 -97t-25.5 -117.5q0 -73 39.5 -119.5t105.5 -46.5z" />
    <glyph glyph-name="ampersand" unicode="&#x26;" horiz-adv-x="1466" 
d="M1337 0h-325l-76 104q-196 -131 -440 -131q-204 0 -325.5 99.5t-121.5 261.5q0 154 105 276.5t280 202.5q-88 145 -88 262q0 115 66 204.5t171.5 135t229.5 45.5q172 0 272.5 -80t100.5 -219q0 -74 -30.5 -139t-87 -117t-122 -92.5t-151.5 -79.5l184 -250q76 117 100 230
h246q-57 -245 -199 -428zM799 1247q-78 0 -136.5 -46.5t-58.5 -121.5q0 -79 64 -174q115 36 194.5 97t79.5 128q0 56 -39 86.5t-104 30.5zM545 199q131 0 258 92l-250 352q-96 -47 -151.5 -119t-55.5 -155q0 -74 52 -122t147 -48z" />
    <glyph glyph-name="quotesingle" unicode="'" horiz-adv-x="477" 
d="M233 936l82 498h244l-129 -498h-197z" />
    <glyph glyph-name="parenleft" unicode="(" horiz-adv-x="722" 
d="M326 -334q-201 286 -201 660q0 326 156.5 645.5t425.5 556.5l167 -139q-238 -214 -376 -496.5t-138 -564.5q0 -311 162 -555z" />
    <glyph glyph-name="parenright" unicode=")" horiz-adv-x="722" 
d="M55 -348l-170 139q239 214 377.5 496.5t138.5 564.5q0 314 -163 555l198 106q201 -283 201 -657q0 -326 -156.5 -646.5t-425.5 -557.5z" />
    <glyph glyph-name="asterisk" unicode="*" horiz-adv-x="1024" 
d="M354 592l-125 106l236 252l-277 101l91 166l278 -95l68 312h176l-66 -312l314 95l22 -166l-319 -101l133 -252l-160 -106l-127 260z" />
    <glyph glyph-name="plus" unicode="+" horiz-adv-x="1179" 
d="M395 90l82 391h-391l47 217h391l82 392h219l-82 -392h390l-46 -217h-391l-82 -391h-219z" />
    <glyph glyph-name="comma" unicode="," horiz-adv-x="538" 
d="M209 301q62 0 104.5 -41.5t42.5 -118.5q0 -133 -98 -258t-246 -202l-67 114q81 46 127 91.5t75 109.5q-56 -6 -87 31.5t-31 95.5q0 69 47 123.5t133 54.5z" />
    <glyph glyph-name="hyphen" unicode="-" horiz-adv-x="655" 
d="M27 414l43 198h567l-43 -198h-567z" />
    <glyph glyph-name="period" unicode="." horiz-adv-x="542" 
d="M174 -27q-61 0 -103 37.5t-42 106.5q0 83 55 133.5t127 50.5q62 0 104.5 -38t42.5 -107q0 -83 -55.5 -133t-128.5 -50z" />
    <glyph glyph-name="slash" unicode="/" horiz-adv-x="788" 
d="M59 -203l-211 72l967 1724l209 -71z" />
    <glyph glyph-name="zero" unicode="0" horiz-adv-x="1378" 
d="M641 -27q-126 0 -223.5 49.5t-155.5 135t-87.5 191t-29.5 226.5q0 106 18.5 210.5t54.5 204t94.5 184.5t132 149t173 100.5t213.5 36.5q101 0 184 -32.5t139.5 -89t95.5 -133t57 -163.5t18 -182q0 -128 -25.5 -253t-81 -240t-134.5 -202.5t-193.5 -139.5t-249.5 -52z
M664 219q85 0 159.5 58.5t123 151.5t76.5 204.5t28 220.5q0 98 -26 178t-82 131t-134 51q-86 0 -161 -58t-124 -150.5t-76.5 -204t-27.5 -221.5q0 -98 26 -178t82.5 -131.5t135.5 -51.5z" />
    <glyph glyph-name="one" unicode="1" horiz-adv-x="972" 
d="M707 1434h233l-305 -1434h-275l240 1133l-315 -162l-78 207z" />
    <glyph glyph-name="two" unicode="2" horiz-adv-x="1159" 
d="M715 506q-126 -75 -206.5 -136t-131.5 -132h620l-51 -238h-946l16 86q16 91 65 174t167.5 189t306.5 219q71 44 114 72.5t93 69t77 74.5t45.5 78t18.5 91q0 84 -59 128t-162 44q-170 0 -336 -119l-84 186q199 168 467 168q197 0 316.5 -95t119.5 -275q0 -63 -15 -122
t-38.5 -105.5t-61.5 -92.5t-73 -79.5t-85.5 -70t-87.5 -60t-89 -54.5z" />
    <glyph glyph-name="three" unicode="3" horiz-adv-x="1155" 
d="M1124 1100q0 -128 -78.5 -228.5t-228.5 -148.5q88 -40 138.5 -114t50.5 -177q0 -217 -158 -338t-414 -121t-446 148l116 205q56 -51 146 -80t194 -29q124 0 208.5 58t84.5 163q0 83 -68 131.5t-192 48.5h-94l47 220h86q138 0 231 59t93 162q0 76 -61.5 117t-160.5 41
q-155 0 -305 -91l-51 211q202 123 432 123q185 0 307.5 -93.5t122.5 -266.5z" />
    <glyph glyph-name="four" unicode="4" horiz-adv-x="1294" 
d="M1235 555l-49 -238h-234l-67 -317h-273l64 317h-639l43 215l823 902h287l-186 -879h231zM360 541h394l118 563z" />
    <glyph glyph-name="five" unicode="5" horiz-adv-x="1187" 
d="M1137 1196h-559l-97 -319q83 22 162 22q190 0 303 -111t113 -288q0 -249 -155.5 -389t-414.5 -140q-129 0 -255 39.5t-220 110.5l117 198q74 -53 165 -81.5t181 -28.5q147 0 238.5 71.5t91.5 198.5q0 102 -64.5 158.5t-169.5 56.5q-109 0 -188 -57l-205 55l209 742h797z
" />
    <glyph glyph-name="six" unicode="6" horiz-adv-x="1239" 
d="M743 905q183 0 286.5 -110.5t103.5 -278.5q0 -79 -21 -156.5t-65.5 -147.5t-107 -124t-151.5 -85.5t-192 -31.5q-221 0 -343 133t-122 359q0 162 28 309t86 273.5t142 219t202.5 145t260.5 52.5q240 0 395 -149l-115 -191q-53 53 -128.5 82t-155.5 29q-92 0 -166.5 -34
t-127 -96.5t-87 -142.5t-53.5 -180q144 125 331 125zM600 205q114 0 189 80t75 184q0 87 -56 143t-151 56q-125 0 -195.5 -76.5t-70.5 -177.5q0 -86 54.5 -147.5t154.5 -61.5z" />
    <glyph glyph-name="seven" unicode="7" horiz-adv-x="1079" 
d="M274 1434h918l-33 -166l-809 -1268h-280l770 1196h-617z" />
    <glyph glyph-name="eight" unicode="8" horiz-adv-x="1206" 
d="M926 748q74 -47 114.5 -125t40.5 -181q0 -110 -46.5 -201t-123.5 -148.5t-171.5 -88.5t-194.5 -31q-89 0 -170 26t-145.5 74.5t-103 127.5t-38.5 178q0 144 72.5 244t199.5 153q-122 86 -122 250q0 102 42.5 186t114.5 137t163 82t190 29q118 0 214 -40t156 -121.5
t60 -192.5q0 -123 -67.5 -212.5t-184.5 -145.5zM733 1241q-106 0 -170.5 -63.5t-64.5 -153.5q0 -73 51.5 -120.5t138.5 -47.5q105 0 168.5 64t63.5 153q0 74 -50.5 121t-136.5 47zM563 195q107 0 183.5 68t76.5 181q0 85 -58.5 140t-150.5 55q-117 0 -191.5 -70t-74.5 -178
q0 -89 62 -142.5t153 -53.5z" />
    <glyph glyph-name="nine" unicode="9" horiz-adv-x="1239" 
d="M729 1460q221 0 343 -131.5t122 -357.5q0 -162 -28 -309.5t-86 -274t-142 -219t-202.5 -145t-260.5 -52.5q-110 0 -212.5 37.5t-180.5 110.5l115 192q52 -53 127.5 -82.5t156.5 -29.5q93 0 169 35.5t128.5 100t87 148t52.5 187.5q-138 -144 -334 -144q-183 0 -287 112
t-104 280q0 79 21 156t65.5 147t106.5 123t151 84.5t192 31.5zM670 766q118 0 192 78t74 180q0 90 -56.5 146.5t-154.5 56.5q-114 0 -189 -79.5t-75 -182.5q0 -87 57 -143t152 -56z" />
    <glyph glyph-name="colon" unicode=":" horiz-adv-x="542" 
d="M330 696q-61 0 -103.5 38.5t-42.5 107.5q0 83 55 132.5t128 49.5q62 0 104.5 -37t42.5 -106q0 -83 -56 -134t-128 -51zM174 -27q-61 0 -103 37.5t-42 106.5q0 83 55 133.5t127 50.5q62 0 104.5 -38t42.5 -107q0 -83 -55.5 -133t-128.5 -50z" />
    <glyph glyph-name="semicolon" unicode=";" horiz-adv-x="538" 
d="M367 1024q62 0 104.5 -37t42.5 -106q0 -83 -56 -134t-128 -51q-60 0 -102 38.5t-42 107.5q0 83 54.5 132.5t126.5 49.5zM209 301q62 0 104.5 -41.5t42.5 -118.5q0 -133 -98 -258t-246 -202l-67 114q81 46 127 91.5t75 109.5q-56 -6 -87 31.5t-31 95.5q0 69 47 123.5
t133 54.5z" />
    <glyph glyph-name="less" unicode="&#x3c;" horiz-adv-x="1181" 
d="M1157 887l-756 -314l646 -325l-115 -193l-848 426l45 217l965 398z" />
    <glyph glyph-name="equal" unicode="=" horiz-adv-x="1181" 
d="M137 719l47 221h1000l-47 -221h-1000zM35 240l47 221h999l-47 -221h-999z" />
    <glyph glyph-name="greater" unicode="&#x3e;" horiz-adv-x="1181" 
d="M285 1124l848 -426l-46 -217l-964 -397l-64 209l756 313l-645 326z" />
    <glyph glyph-name="question" unicode="?" horiz-adv-x="962" 
d="M330 457l6 45q8 56 34 109t60.5 93.5t75 79.5t79 75t70 71t51 75t19.5 82q0 66 -49.5 106t-124.5 40q-140 0 -244 -107l-86 177q99 89 200 123t214 34q167 0 270 -94t103 -242q0 -68 -23 -129t-60 -106.5t-82 -86.5t-92 -77.5t-87 -71.5t-69 -76t-36 -83l-6 -37h-223z
M383 -27q-62 0 -103.5 37.5t-41.5 106.5q0 83 55 133.5t127 50.5q62 0 104.5 -38t42.5 -107q0 -83 -55.5 -133t-128.5 -50z" />
    <glyph glyph-name="at" unicode="@" horiz-adv-x="2052" 
d="M893 -418q-174 0 -322.5 58t-254.5 162t-166 255t-60 330q0 166 50.5 321t148.5 284.5t232 226t310.5 150.5t374.5 54q250 0 429.5 -84t270.5 -233.5t91 -349.5q0 -131 -40.5 -257t-111 -224.5t-174 -159t-221.5 -60.5q-97 0 -158.5 40.5t-77.5 103.5
q-147 -144 -329 -144q-153 0 -242.5 95.5t-89.5 255.5q0 137 62 261t174 202.5t245 78.5q86 0 148 -33.5t94 -91.5l55 105h217l-125 -584q-21 -100 66 -100q75 0 143.5 75t108 190t39.5 232q0 223 -152 354.5t-430 131.5q-157 0 -297.5 -44t-247 -122.5t-185 -182.5
t-119 -228.5t-40.5 -256.5q0 -274 165 -445t433 -171q272 0 535 137l80 -180q-303 -152 -629 -152zM956 256q84 0 151 60.5t85 144.5l22 102q18 81 -27 131.5t-124 50.5q-74 0 -133 -50.5t-88 -122.5t-29 -146q0 -83 37.5 -126.5t105.5 -43.5z" />
    <glyph glyph-name="A" unicode="A" horiz-adv-x="1484" 
d="M1079 0l-61 358h-604l-215 -358h-281l889 1434h270l277 -1434h-275zM551 584h428l-96 553z" />
    <glyph glyph-name="B" unicode="B" horiz-adv-x="1366" 
d="M1083 733q81 -38 125.5 -114t44.5 -173q0 -138 -70.5 -240.5t-188.5 -154t-267 -51.5h-670l305 1434h613q168 0 269.5 -87.5t101.5 -234.5q0 -130 -71.5 -233t-191.5 -146zM797 819q122 0 196 66t74 180q0 74 -44.5 122t-121.5 48h-309l-88 -416h293zM696 199
q130 0 208.5 71.5t78.5 188.5q0 78 -49 129t-133 51h-336l-94 -440h325z" />
    <glyph glyph-name="C" unicode="C" horiz-adv-x="1517" 
d="M821 -27q-160 0 -290 48t-215 134t-131 203t-46 256q0 179 58 333t165 268t271 179.5t364 65.5q147 0 284.5 -42t244.5 -120l-144 -206q-75 61 -179.5 91.5t-209.5 30.5q-132 0 -242 -44t-183 -120t-113.5 -177.5t-40.5 -215.5q0 -122 51 -220.5t154.5 -159t242.5 -60.5
q224 0 410 98l67 -213q-224 -129 -518 -129z" />
    <glyph glyph-name="D" unicode="D" horiz-adv-x="1517" 
d="M57 0l305 1434h445q156 0 282 -45.5t210 -127t129 -195t45 -249.5q0 -181 -66.5 -334.5t-183.5 -259t-281 -164.5t-354 -59h-531zM379 238h225q259 0 426.5 156.5t167.5 398.5q0 182 -115.5 292.5t-326.5 110.5h-172z" />
    <glyph glyph-name="E" unicode="E" horiz-adv-x="1243" 
d="M57 0l305 1434h953l-51 -238h-680l-78 -358h616l-49 -234h-614l-80 -366h715l-52 -238h-985z" />
    <glyph glyph-name="F" unicode="F" horiz-adv-x="1191" 
d="M57 0l305 1434h938l-49 -238h-667l-95 -440h603l-52 -240h-600l-110 -516h-273z" />
    <glyph glyph-name="G" unicode="G" horiz-adv-x="1562" 
d="M856 559l45 201h559l-135 -680q-182 -107 -485 -107q-327 0 -515 170t-188 471q0 176 64 332t176 269.5t273 179t347 65.5q147 0 284.5 -42t244.5 -120l-146 -206q-74 61 -178.5 91.5t-210.5 30.5q-107 0 -201 -31t-162.5 -85t-118 -125t-74.5 -153t-25 -167
q0 -122 48 -220.5t150.5 -160t245.5 -61.5q127 0 246 29l65 319h-309z" />
    <glyph glyph-name="H" unicode="H" horiz-adv-x="1552" 
d="M1317 1434h270l-305 -1434h-270l127 592h-682l-127 -592h-273l305 1434h273l-129 -603h682z" />
    <glyph glyph-name="I" unicode="I" horiz-adv-x="598" 
d="M57 0l305 1434h273l-305 -1434h-273z" />
    <glyph glyph-name="J" unicode="J" horiz-adv-x="919" 
d="M223 -25q-142 0 -291 41l64 203q84 -22 178 -22q107 0 184.5 57.5t102.5 171.5l213 1008h272l-225 -1055q-42 -198 -174.5 -301t-323.5 -103z" />
    <glyph glyph-name="K" unicode="K" horiz-adv-x="1417" 
d="M57 0l305 1434h273l-143 -656l749 656h342l-776 -670l496 -764h-328l-387 596l-156 -129l-102 -467h-273z" />
    <glyph glyph-name="L" unicode="L" horiz-adv-x="1122" 
d="M57 0l305 1434h273l-256 -1196h635l-51 -238h-906z" />
    <glyph glyph-name="M" unicode="M" horiz-adv-x="1767" 
d="M1538 1434h266l-305 -1434h-252l219 1030l-630 -772l-306 784l-221 -1042h-252l305 1434h261l301 -742z" />
    <glyph glyph-name="N" unicode="N" horiz-adv-x="1564" 
d="M1350 1434h252l-306 -1434h-260l-508 1024l-219 -1024h-252l305 1434h261l510 -1022z" />
    <glyph glyph-name="O" unicode="O" horiz-adv-x="1708" 
d="M823 -27q-153 0 -281.5 51.5t-216 141t-136 211t-48.5 260.5q0 165 60.5 315t167 262.5t265 179t343.5 66.5q153 0 282.5 -51t217 -140t136 -210t48.5 -260q0 -167 -60 -317t-167 -263t-266 -179.5t-345 -66.5zM850 219q114 0 214 46t168.5 122t108 176.5t39.5 208.5
q0 123 -51 222.5t-150 159.5t-229 60q-114 0 -214 -45.5t-168 -122t-107 -176.5t-39 -208q0 -190 116 -316.5t312 -126.5z" />
    <glyph glyph-name="P" unicode="P" horiz-adv-x="1296" 
d="M907 1434q187 0 306.5 -109t119.5 -283q0 -261 -155.5 -415t-419.5 -154h-328l-100 -473h-273l305 1434h545zM745 711q153 0 236.5 75.5t83.5 214.5q0 99 -70 147t-184 48h-227l-103 -485h264z" />
    <glyph glyph-name="Q" unicode="Q" horiz-adv-x="1708" 
d="M1661 799q0 -221 -101 -408t-282 -297l156 -276h-316l-100 176q-92 -21 -195 -21q-153 0 -281.5 51.5t-216 141t-136 211t-48.5 260.5q0 165 60.5 315t167 262.5t265 179t343.5 66.5q153 0 282.5 -51t217 -140t136 -210t48.5 -260zM850 219q27 0 39 2l-193 340h318
l139 -246q106 77 166.5 199t60.5 258q0 123 -51 222.5t-150 159.5t-229 60q-114 0 -214 -45.5t-168 -122t-107 -176.5t-39 -208q0 -190 116 -316.5t312 -126.5z" />
    <glyph glyph-name="R" unicode="R" horiz-adv-x="1396" 
d="M1333 1020q0 -196 -94.5 -330.5t-263.5 -187.5l235 -502h-299l-217 471h-264l-100 -471h-273l305 1434h545q193 0 309.5 -114.5t116.5 -299.5zM584 1196l-103 -485h264q153 0 236.5 72t83.5 210q0 103 -69 153t-185 50h-227z" />
    <glyph glyph-name="S" unicode="S" horiz-adv-x="1200" 
d="M518 -23q-256 0 -514 138l96 217q105 -56 220.5 -87.5t216.5 -31.5q133 0 218 55t85 154q0 37 -15 67.5t-36.5 50.5t-60 39.5t-70.5 31t-83 26.5q-154 46 -219 84q-157 94 -159 274q0 141 79.5 248.5t211 162t292.5 54.5q237 0 451 -112l-96 -226q-160 103 -351 103
q-136 0 -226.5 -53t-90.5 -152q0 -31 12.5 -55.5t33.5 -41.5t52.5 -31.5t63.5 -25.5t74 -24q9 -3 14 -4q48 -14 81 -25.5t78 -31t75.5 -39.5t63 -51t52 -66.5t32.5 -84.5t13 -106q0 -134 -80 -239t-215 -161.5t-299 -56.5z" />
    <glyph glyph-name="T" unicode="T" horiz-adv-x="1228" 
d="M373 0l254 1196h-430l51 238h1132l-51 -238h-430l-254 -1196h-272z" />
    <glyph glyph-name="U" unicode="U" horiz-adv-x="1576" 
d="M750 -27q-144 0 -262 46.5t-194.5 128t-106.5 200t-1 256.5l176 830h273l-172 -816q-19 -97 -3.5 -171.5t58.5 -125t105 -76.5t137 -26q165 0 265 97.5t138 275.5l178 842h273l-189 -879q-58 -274 -231.5 -428t-443.5 -154z" />
    <glyph glyph-name="V" unicode="V" horiz-adv-x="1425" 
d="M1317 1434h291l-873 -1434h-252l-268 1434h277l178 -1102z" />
    <glyph glyph-name="W" unicode="W" horiz-adv-x="2060" 
d="M1968 1434h277l-748 -1434h-266l-78 1063l-530 -1063h-267l-141 1434h256l82 -1090l532 1090h269l69 -1092z" />
    <glyph glyph-name="X" unicode="X" horiz-adv-x="1431" 
d="M1599 1434l-669 -701l383 -733h-299l-273 535l-512 -535h-323l700 733l-364 701h293l262 -504l481 504h321z" />
    <glyph glyph-name="Y" unicode="Y" horiz-adv-x="1302" 
d="M1184 1434h305l-692 -895l-119 -539h-272l118 539l-313 895h274l220 -639z" />
    <glyph glyph-name="Z" unicode="Z" horiz-adv-x="1306" 
d="M1403 1434l-29 -156l-944 -1040h737l-51 -238h-1136l30 156l946 1040h-690l51 238h1086z" />
    <glyph glyph-name="bracketleft" unicode="[" horiz-adv-x="718" 
d="M14 -285l371 1749h483l-47 -211h-241l-281 -1327h242l-45 -211h-482z" />
    <glyph glyph-name="backslash" unicode="\" horiz-adv-x="784" 
d="M449 -203l-248 1725l217 53l250 -1725z" />
    <glyph glyph-name="bracketright" unicode="]" horiz-adv-x="718" 
d="M-109 -285l46 211h239l283 1327h-242l45 211h483l-370 -1749h-484z" />
    <glyph glyph-name="asciicircum" unicode="^" horiz-adv-x="1179" 
d="M1108 420l-211 -78l-168 739l-487 -739l-205 78l629 956h219z" />
    <glyph glyph-name="underscore" unicode="_" horiz-adv-x="983" 
d="M-182 -362l43 200h983l-43 -200h-983z" />
    <glyph glyph-name="grave" unicode="`" horiz-adv-x="653" 
d="M610 1122l-352 242l148 166l329 -264z" />
    <glyph glyph-name="a" unicode="a" horiz-adv-x="1280" 
d="M1030 1018h219l-215 -1018h-205l-8 90q-129 -119 -311 -119q-106 0 -190 39t-136 105.5t-79 150.5t-27 178q0 87 22.5 172.5t69.5 162.5t111.5 136t155 94t194.5 35q112 0 204 -49.5t142 -134.5zM588 209q126 0 214.5 100t88.5 244q0 115 -67.5 184.5t-172.5 69.5
q-127 0 -215 -100.5t-88 -243.5q0 -116 67.5 -185t172.5 -69z" />
    <glyph glyph-name="b" unicode="b" horiz-adv-x="1286" 
d="M774 1044q106 0 190.5 -38.5t136 -104.5t78.5 -149.5t27 -178.5q0 -88 -22.5 -173.5t-69.5 -163t-112 -136.5t-156.5 -94t-196.5 -35q-116 0 -203.5 48t-136.5 131l-61 -150h-215l303 1434h262l-102 -480q114 90 278 90zM631 209q126 0 214.5 100.5t88.5 243.5
q0 116 -67.5 185t-172.5 69q-127 0 -215 -99.5t-88 -244.5q0 -115 67.5 -184.5t172.5 -69.5z" />
    <glyph glyph-name="c" unicode="c" horiz-adv-x="1052" 
d="M549 -27q-132 0 -238 53.5t-170.5 162.5t-64.5 257q0 165 77.5 302.5t211.5 216.5t294 79q119 0 221 -40.5t164 -116.5l-153 -187q-35 48 -94 76.5t-133 28.5q-142 0 -232 -98t-90 -238q0 -118 68.5 -187t185.5 -69q114 0 227 76l86 -203q-159 -113 -360 -113z" />
    <glyph glyph-name="d" unicode="d" horiz-adv-x="1282" 
d="M1079 1434h262l-305 -1434h-207l-6 94q-129 -123 -313 -123q-106 0 -190 39t-136 105.5t-79 150.5t-27 178q0 87 22.5 172.5t69.5 162.5t112 136t155.5 94t195.5 35q112 0 196.5 -42t135.5 -117zM590 209q127 0 215 100.5t88 243.5q0 116 -67.5 185t-172.5 69
q-126 0 -214.5 -100.5t-88.5 -243.5q0 -116 68 -185t172 -69z" />
    <glyph glyph-name="e" unicode="e" horiz-adv-x="1157" 
d="M1094 633q0 -45 -11 -103t-28 -94h-723q7 -123 89.5 -183t209.5 -60q160 0 293 83l61 -186q-176 -119 -395 -119q-228 0 -370 125.5t-142 347.5q0 120 44.5 230t120.5 191.5t185 130t231 48.5q195 0 315 -115.5t120 -295.5zM653 836q-110 0 -188 -61.5t-111 -166.5h492
q6 27 6 51q0 83 -52.5 130t-146.5 47z" />
    <glyph glyph-name="f" unicode="f" horiz-adv-x="708" 
d="M762 1251q-61 0 -108 -42.5t-64 -118.5l-15 -72h209l-41 -201h-211l-174 -817h-262l174 817h-161l43 201h161l27 127q32 152 134.5 233.5t234.5 81.5q133 0 235 -65l-86 -170q-45 26 -96 26z" />
    <glyph glyph-name="g" unicode="g" horiz-adv-x="1284" 
d="M1038 1018h215l-211 -1008q-47 -225 -203 -347t-388 -122q-272 0 -459 150l104 186q162 -127 346 -127q151 0 229 73.5t120 231.5l8 31q-118 -94 -279 -94q-107 0 -192.5 36.5t-139 100t-82 145t-28.5 175.5q0 109 38.5 214.5t107.5 190.5t177 137.5t236 52.5
q112 0 201 -48t141 -132zM586 231q128 0 216.5 96.5t88.5 235.5q0 111 -64 177.5t-168 66.5q-128 0 -217.5 -97t-89.5 -235q0 -110 64 -177t170 -67z" />
    <glyph glyph-name="h" unicode="h" horiz-adv-x="1239" 
d="M791 1044q119 0 207.5 -64.5t125 -173t9.5 -233.5l-123 -573h-262l116 551q29 133 -23.5 205.5t-156.5 72.5q-101 0 -175 -74t-99 -196l-117 -559h-262l303 1434h264l-100 -488q116 98 293 98z" />
    <glyph glyph-name="i" unicode="i" horiz-adv-x="544" 
d="M430 1174q-64 0 -103.5 37t-39.5 94q0 69 50.5 113t121.5 44q64 0 103.5 -36t39.5 -95q0 -68 -49.5 -112.5t-122.5 -44.5zM35 0l215 1018h262l-215 -1018h-262z" />
    <glyph glyph-name="j" unicode="j" horiz-adv-x="550" 
d="M434 1174q-64 0 -103.5 37t-39.5 94q0 69 50.5 113t121.5 44q65 0 104 -36t39 -95q0 -68 -49.5 -112.5t-122.5 -44.5zM-100 -457q-132 0 -246 74l59 190q64 -43 144 -43q69 0 110.5 41t61.5 138l225 1075h262l-233 -1112q-38 -186 -131.5 -274.5t-251.5 -88.5z" />
    <glyph glyph-name="k" unicode="k" horiz-adv-x="1126" 
d="M1202 1018l-524 -438l307 -580h-297l-203 418l-129 -109l-65 -309h-262l305 1434h262l-168 -793l455 377h319z" />
    <glyph glyph-name="l" unicode="l" horiz-adv-x="536" 
d="M29 -2l305 1436h262l-305 -1436h-262z" />
    <glyph glyph-name="m" unicode="m" horiz-adv-x="1865" 
d="M1442 1044q118 0 200.5 -64.5t112.5 -172.5t4 -234l-125 -573h-262l119 551q30 136 -12.5 207t-143.5 71q-86 0 -147.5 -59.5t-93.5 -163.5l-7 -33l-124 -573h-263l119 551q29 137 -13 207.5t-142 70.5q-95 0 -162 -73t-92 -197l-117 -559h-262l215 1018h209l4 -105
q122 131 311 131q108 0 185.5 -53t113.5 -145q80 103 167 150.5t206 47.5z" />
    <glyph glyph-name="n" unicode="n" horiz-adv-x="1239" 
d="M791 1044q119 0 208 -62t125.5 -171t8.5 -238l-123 -573h-262l116 551q29 133 -23.5 205.5t-156.5 72.5q-101 0 -175 -74t-99 -196l-117 -559h-262l215 1018h209l4 -107q130 133 332 133z" />
    <glyph glyph-name="o" unicode="o" horiz-adv-x="1222" 
d="M557 -29q-205 0 -340 131t-135 357q0 128 47.5 238.5t127 186t185 118t220.5 42.5q208 0 344.5 -129t136.5 -352q0 -171 -82 -308t-215 -210.5t-289 -73.5zM578 211q127 0 214 101.5t87 240.5q0 114 -61.5 184t-166.5 70q-129 0 -216 -101t-87 -241q0 -112 62 -183
t168 -71z" />
    <glyph glyph-name="p" unicode="p" horiz-adv-x="1286" 
d="M774 1044q106 0 190.5 -38.5t136 -104.5t78.5 -149.5t27 -178.5q0 -88 -22.5 -173.5t-69.5 -163t-112 -136.5t-155.5 -94t-195.5 -35q-112 0 -196.5 43t-135.5 119l-116 -563h-262l305 1448h207l6 -96q122 122 315 122zM631 209q126 0 214.5 100.5t88.5 243.5
q0 116 -67.5 185t-172.5 69q-127 0 -215 -99.5t-88 -244.5q0 -115 67.5 -184.5t172.5 -69.5z" />
    <glyph glyph-name="q" unicode="q" horiz-adv-x="1286" 
d="M1038 1018h217l-305 -1448h-262l105 498q-122 -97 -283 -97q-106 0 -190 39t-136 105.5t-79 150.5t-27 178q0 87 22.5 172.5t69.5 162.5t112 136t155.5 94t195.5 35q120 0 207.5 -48t136.5 -132zM590 209q127 0 215 100.5t88 243.5q0 116 -67.5 185t-172.5 69
q-126 0 -214.5 -100.5t-88.5 -243.5q0 -116 68 -185t172 -69z" />
    <glyph glyph-name="r" unicode="r" horiz-adv-x="815" 
d="M768 1044q80 0 135 -32l-80 -193q-42 17 -80 17q-121 0 -214.5 -84.5t-120.5 -208.5l-115 -543h-262l215 1018h209v-109q123 135 313 135z" />
    <glyph glyph-name="s" unicode="s" horiz-adv-x="944" 
d="M412 -29q-238 0 -414 148l74 196q59 -62 155 -100.5t183 -38.5q76 0 119.5 29t43.5 90q0 22 -12 41.5t-28.5 33t-47 28.5t-53.5 23.5t-63 22.5q-56 19 -91.5 35.5t-76 45.5t-60.5 71t-20 98q0 165 122.5 257.5t307.5 92.5q188 0 352 -110l-76 -186q-48 45 -127 71.5
t-153 26.5q-75 0 -123.5 -29t-48.5 -82q0 -36 45 -63.5t127 -55.5q49 -18 81 -31.5t74.5 -39.5t67.5 -54.5t43 -73.5t18 -100q0 -107 -59.5 -187.5t-153.5 -119.5t-206 -39z" />
    <glyph glyph-name="t" unicode="t" horiz-adv-x="808" 
d="M455 -27q-173 0 -250.5 88.5t-40.5 266.5l102 489h-168l43 201h164l64 282h262l-62 -282h240l-41 -201h-240l-100 -459q-37 -170 117 -170q54 0 112 17l15 -201q-105 -31 -217 -31z" />
    <glyph glyph-name="u" unicode="u" horiz-adv-x="1224" 
d="M934 1018h262l-217 -1018h-207l-4 111q-131 -140 -332 -140q-124 0 -210 65.5t-116.5 172.5t-3.5 233l125 576h263l-119 -551q-29 -135 20 -207t150 -72q98 0 171.5 74t98.5 195z" />
    <glyph glyph-name="v" unicode="v" horiz-adv-x="1083" 
d="M901 1018h275l-619 -1018h-242l-196 1018h264l113 -703z" />
    <glyph glyph-name="w" unicode="w" horiz-adv-x="1574" 
d="M1401 1018h266l-537 -1018h-253l-46 713l-348 -713h-252l-112 1018h258l45 -721l344 721h246l45 -721z" />
    <glyph glyph-name="x" unicode="x" horiz-adv-x="1069" 
d="M1169 1018l-471 -520l258 -498h-280l-168 346l-309 -346h-301l481 520l-246 498h273l167 -342l297 342h299z" />
    <glyph glyph-name="y" unicode="y" horiz-adv-x="1083" 
d="M895 1018h281l-869 -1448h-246l254 448l-196 1000h270l111 -729z" />
    <glyph glyph-name="z" unicode="z" horiz-adv-x="1015" 
d="M1034 1018l-26 -146l-639 -673h495l-43 -199h-837l28 145l637 672h-467l41 201h811z" />
    <glyph glyph-name="braceleft" unicode="{" horiz-adv-x="718" 
d="M408 -285q-136 0 -220 79.5t-84 205.5q0 47 47.5 196.5t47.5 190.5q0 44 -33.5 71t-91.5 27h-41l45 209h24q87 0 150 76q33 39 48.5 94.5t19.5 112.5t11 116.5t34 122.5t77 115q59 62 142.5 97.5t177.5 35.5h106l-47 -211h-22q-114 0 -172 -71q-35 -39 -53.5 -112
t-23.5 -141t-23 -141.5t-52 -113.5q-63 -70 -151 -90q53 -17 83.5 -63.5t30.5 -108.5q0 -65 -41 -190.5t-41 -174.5q0 -55 38.5 -88t105.5 -33h41l-45 -211h-88z" />
    <glyph glyph-name="bar" unicode="|" horiz-adv-x="491" 
d="M-68 -459l418 1966h219l-417 -1966h-220z" />
    <glyph glyph-name="braceright" unicode="}" horiz-adv-x="720" 
d="M346 1464q136 0 220.5 -79t84.5 -205q0 -47 -47 -196.5t-47 -190.5q0 -44 33 -71.5t90 -27.5h41l-43 -209h-27q-87 0 -149 -75q-33 -39 -48.5 -94.5t-19.5 -112.5t-10.5 -116.5t-33.5 -123t-77 -115.5q-60 -63 -143 -98t-178 -35h-105l45 211h23q112 0 174 72
q34 39 52.5 112t23.5 141t23.5 141.5t52.5 113.5q63 70 149 90q-54 17 -84.5 63.5t-30.5 108.5q0 65 41 190.5t41 174.5q0 55 -38 87.5t-105 32.5h-41l45 211h88z" />
    <glyph glyph-name="asciitilde" unicode="~" horiz-adv-x="1191" 
d="M817 430q-66 0 -126 15.5t-98 34.5t-89.5 34.5t-102.5 15.5q-60 0 -114.5 -23.5t-120.5 -72.5l-90 201q171 115 338 115q65 0 125 -16t98 -34.5t89.5 -34.5t102.5 -16q108 0 234 96l92 -200q-171 -115 -338 -115z" />
    <glyph glyph-name="uni00A0" unicode="&#xa0;" horiz-adv-x="491" 
 />
    <glyph glyph-name="exclamdown" unicode="&#xa1;" horiz-adv-x="579" 
d="M383 1024q62 0 103.5 -37t41.5 -106q0 -83 -54.5 -134t-125.5 -51q-62 0 -104.5 38.5t-42.5 107.5q0 83 55 132.5t127 49.5zM403 541l-184 -977h-264l231 977h217z" />
    <glyph glyph-name="cent" unicode="&#xa2;" horiz-adv-x="1054" 
d="M872 514l86 -203q-144 -103 -333 -112l-60 -281h-219l66 313q-131 47 -209 161.5t-78 279.5q0 230 145 397.5t363 196.5l53 250h219l-55 -263q163 -38 244 -141l-154 -186q-35 48 -94 76t-133 28q-142 0 -232 -98t-90 -238q0 -118 68.5 -187t185.5 -69q114 0 227 76z" />
    <glyph glyph-name="sterling" unicode="&#xa3;" horiz-adv-x="1175" 
d="M16 0l50 225h186l76 355h-156l49 225h154l45 209q46 217 182.5 331.5t333.5 114.5q204 0 352 -96l-114 -203q-88 64 -205 64q-113 0 -187 -63t-98 -175l-39 -182h354l-47 -225h-352l-76 -355h508l-49 -225h-967z" />
    <glyph glyph-name="currency" unicode="&#xa4;" horiz-adv-x="1179" 
d="M156 164l-127 153l200 175q-22 58 -22 120q0 174 102 295l-125 152l183 153l125 -153q90 47 204 47q123 0 205 -62l205 168l127 -153l-203 -176q25 -58 25 -123q0 -164 -105 -291l127 -152l-182 -153l-127 153q-96 -47 -203 -47q-123 0 -207 60zM602 465q110 0 183 81
t73 183q0 78 -49.5 129t-134.5 51q-110 0 -184 -81.5t-74 -184.5q0 -78 49.5 -128t136.5 -50z" />
    <glyph glyph-name="yen" unicode="&#xa5;" horiz-adv-x="1302" 
d="M1489 1434l-578 -746h222l-35 -160h-303l-37 -166h305l-33 -159h-307l-45 -203h-272l45 203h-304l35 159h303l37 166h-305l33 160h221l-260 746h274l220 -639l479 639h305z" />
    <glyph glyph-name="brokenbar" unicode="&#xa6;" horiz-adv-x="491" 
d="M184 723l168 786h219l-168 -786h-219zM-68 -461l168 787h219l-167 -787h-220z" />
    <glyph glyph-name="section" unicode="&#xa7;" horiz-adv-x="1105" 
d="M383 -293q-226 0 -449 98l86 197q190 -80 353 -80q117 0 192.5 45.5t75.5 134.5q0 37 -30 64t-77.5 45t-105.5 35t-115.5 40t-105 53.5t-77.5 82.5t-30 121q0 109 56 192.5t155 138.5q-71 61 -71 168q0 127 73 224t188.5 145.5t252.5 48.5q204 0 411 -90l-88 -196
q-152 73 -315 73q-109 0 -182.5 -44.5t-73.5 -125.5q0 -36 30 -62t77.5 -42.5t105 -33t115.5 -39.5t105.5 -53.5t77.5 -84t30 -123.5q0 -211 -205 -338q65 -65 65 -166q0 -130 -72 -229t-190 -149t-262 -50zM623 422q67 25 111 77t44 111q0 22 -11 40.5t-25 30t-43 24
t-48 18.5t-57.5 17t-56.5 16q-73 -24 -122.5 -76.5t-49.5 -110.5q0 -27 14 -47.5t44 -35t56.5 -23t72.5 -21t71 -20.5z" />
    <glyph glyph-name="dieresis" unicode="&#xa8;" horiz-adv-x="892" 
d="M377 1176q-59 0 -93 34t-34 90q0 71 43.5 115.5t109.5 44.5q58 0 92.5 -34.5t34.5 -90.5q0 -69 -42.5 -114t-110.5 -45zM834 1176q-59 0 -94 34t-35 90q0 71 44.5 115.5t108.5 44.5q59 0 94 -34.5t35 -90.5q0 -68 -43 -113.5t-110 -45.5z" />
    <glyph glyph-name="copyright" unicode="&#xa9;" horiz-adv-x="1742" 
d="M918 -27q-217 0 -389 94.5t-268.5 264.5t-96.5 385q0 161 56.5 299.5t156 236t239.5 152.5t302 55q163 0 303 -55t239 -152.5t155 -236t56 -299.5q0 -215 -96 -385t-268 -264.5t-389 -94.5zM918 55q186 0 336 83t236.5 235t86.5 344t-86.5 343.5t-236.5 234.5t-336 83
t-336 -83t-236 -234.5t-86 -343.5q0 -144 50.5 -268t138 -210t209 -135t260.5 -49zM944 307q-179 0 -288 113.5t-109 300.5t109 300.5t288 113.5q143 0 273 -82l-46 -78q-109 72 -227 72q-135 0 -219 -87t-84 -239t84 -240t219 -88q115 0 227 74l46 -78q-130 -82 -273 -82z
" />
    <glyph glyph-name="ordfeminine" unicode="&#xaa;" horiz-adv-x="798" 
d="M545 1460q143 0 223.5 -76t54.5 -204l-80 -394h-127l-2 48q-97 -72 -227 -72q-98 0 -160.5 51.5t-62.5 138.5q0 115 95 175.5t243 60.5q68 0 143 -21l8 37q13 60 -28 91.5t-117 31.5q-108 0 -199 -49l-37 125q142 57 273 57zM442 893q64 0 116 35.5t65 97.5l10 41
q-62 12 -113 12q-80 0 -127 -28t-47 -82q0 -36 26.5 -56t69.5 -20z" />
    <glyph glyph-name="guillemotleft" unicode="&#xab;" horiz-adv-x="1193" 
d="M365 4l-312 453l19 114l499 455l136 -123l-392 -389l224 -389zM883 4l-312 453l19 114l500 455l135 -123l-391 -389l223 -389z" />
    <glyph glyph-name="logicalnot" unicode="&#xac;" horiz-adv-x="1181" 
d="M784 90l82 391h-780l47 217h1000l-129 -608h-220z" />
    <glyph glyph-name="uni00AD" unicode="&#xad;" horiz-adv-x="655" 
d="M51 414l41 198h570l-44 -198h-567z" />
    <glyph glyph-name="registered" unicode="&#xae;" horiz-adv-x="768" 
d="M516 793q-146 0 -239 91t-93 234t93 234.5t239 91.5t239 -91.5t93 -234.5t-93 -234t-239 -91zM516 842q123 0 201 76.5t78 199.5t-78 200t-201 77t-200.5 -77t-77.5 -200t77.5 -199.5t200.5 -76.5zM397 938v360h140q51 0 84.5 -31.5t33.5 -80.5q0 -40 -22.5 -68.5
t-59.5 -34.5l95 -145h-66l-86 137h-59v-137h-60zM457 1120h71q31 0 49.5 17.5t18.5 46.5t-18.5 47t-49.5 18h-71v-129z" />
    <glyph glyph-name="macron" unicode="&#xaf;" horiz-adv-x="794" 
d="M229 1229l39 178h639l-37 -178h-641z" />
    <glyph glyph-name="degree" unicode="&#xb0;" horiz-adv-x="706" 
d="M469 924q-106 0 -174 67.5t-68 167.5q0 128 84.5 214.5t216.5 86.5q106 0 174 -67.5t68 -167.5q0 -127 -85 -214t-216 -87zM485 1057q63 0 101.5 44t38.5 107q0 49 -31 83t-82 34q-63 0 -102 -43t-39 -106q0 -49 31 -84t83 -35z" />
    <glyph glyph-name="plusminus" unicode="&#xb1;" horiz-adv-x="1181" 
d="M446 334l82 389h-389l45 221h391l84 391h220l-84 -391h391l-47 -221h-391l-82 -389h-220zM-16 0l47 221h999l-47 -221h-999z" />
    <glyph glyph-name="uni00B2" unicode="&#xb2;" horiz-adv-x="712" 
d="M643 1128l-223 -188h305l-31 -154h-579l22 121l350 299q138 117 138 197q0 40 -26.5 64t-72.5 24q-85 0 -200 -66l-56 154q148 76 295 76q110 0 179 -62t69 -166q0 -87 -43.5 -159t-126.5 -140z" />
    <glyph glyph-name="uni00B3" unicode="&#xb3;" horiz-adv-x="698" 
d="M618 1212q125 -36 125 -170q0 -125 -95.5 -198.5t-235.5 -73.5q-163 0 -314 74l76 127q96 -49 195 -49q84 0 135 34.5t51 98.5q0 47 -36.5 74.5t-110.5 27.5h-66l27 131h61q78 0 130 37.5t52 93.5q0 39 -30 62.5t-82 23.5q-101 0 -189 -55l-47 127q140 78 293 78
q112 0 179 -58.5t67 -150.5q0 -86 -49 -146.5t-136 -87.5z" />
    <glyph glyph-name="acute" unicode="&#xb4;" horiz-adv-x="645" 
d="M309 1122l-73 144l430 264l84 -166z" />
    <glyph glyph-name="uni00B5" unicode="&#xb5;" horiz-adv-x="1288" 
d="M1063 266q-17 -84 67 -84q28 0 64 8l-43 -204q-73 -13 -133 -13q-86 0 -139.5 41.5t-65.5 110.5q-67 -73 -145.5 -110.5t-155.5 -37.5q-145 0 -201 82l-110 -487h-262l305 1446h262l-121 -574q-28 -135 24 -196.5t150 -61.5q109 0 184 75.5t101 197.5l117 559h262z" />
    <glyph glyph-name="paragraph" unicode="&#xb6;" horiz-adv-x="1228" 
d="M672 -270l315 1482h-207l-141 -669h-72q-185 0 -296 100t-111 264q0 148 78.5 269.5t211 189.5t289.5 68h516l-362 -1704h-221z" />
    <glyph glyph-name="periodcentered" unicode="&#xb7;" horiz-adv-x="542" 
d="M254 344q-62 0 -103.5 38t-41.5 107q0 83 54.5 133t125.5 50q63 0 105 -37.5t42 -106.5q0 -83 -55 -133.5t-127 -50.5z" />
    <glyph glyph-name="cedilla" unicode="&#xb8;" horiz-adv-x="630" 
d="M84 -473q-106 0 -209 41l62 141q62 -24 124 -24q52 0 87.5 22t35.5 60q0 24 -22.5 38.5t-65.5 14.5h-37l72 180h182l-45 -92q53 -14 85 -56t32 -100q0 -107 -88 -166t-213 -59z" />
    <glyph glyph-name="uni00B9" unicode="&#xb9;" horiz-adv-x="571" 
d="M315 786l144 666l-201 -102l-45 127l315 161h158l-180 -852h-191z" />
    <glyph glyph-name="ordmasculine" unicode="&#xba;" horiz-adv-x="866" 
d="M530 764q-156 0 -242.5 83.5t-86.5 209.5q0 74 30 146t83 129.5t133.5 92.5t173.5 35q156 0 240.5 -82.5t84.5 -210.5q0 -74 -29.5 -146t-81.5 -129.5t-132 -92.5t-173 -35zM545 915q92 0 149.5 75.5t57.5 168.5q0 67 -38 108.5t-106 41.5q-91 0 -150 -75t-59 -167
q0 -67 38.5 -109.5t107.5 -42.5z" />
    <glyph glyph-name="guillemotright" unicode="&#xbb;" horiz-adv-x="1193" 
d="M113 4l-136 121l394 389l-226 389l174 123l314 -455l-21 -114zM631 4l-135 121l393 389l-225 389l174 123l311 -455l-19 -114z" />
    <glyph glyph-name="onequarter" unicode="&#xbc;" horiz-adv-x="1974" 
d="M518 1245l-199 -102l-45 129l314 160h160l-181 -852h-190zM1579 1425l121 -98l-1321 -1376l-119 98zM1821 852l-115 -537h106l-30 -139h-105l-37 -176h-170l37 176h-399l27 133l499 543h187zM1303 307h233l78 338z" />
    <glyph glyph-name="onehalf" unicode="&#xbd;" horiz-adv-x="2097" 
d="M520 1247l-198 -102l-46 127l314 162h158l-181 -852h-188zM1581 1425l121 -98l-1321 -1376l-119 98zM1821 342l-226 -188h308l-33 -154h-580l23 121l350 299q65 55 102 102.5t37 93.5q0 40 -26.5 64.5t-71.5 24.5q-86 0 -201 -66l-55 154q143 75 295 75q110 0 179 -61.5
t69 -165.5q0 -87 -44 -158.5t-126 -140.5z" />
    <glyph glyph-name="threequarters" unicode="&#xbe;" horiz-adv-x="1961" 
d="M739 838q0 -125 -95 -199t-236 -74q-164 0 -312 74l76 127q93 -49 195 -49q84 0 135 34.5t51 98.5q0 46 -37.5 74t-112.5 28h-65l29 131h61q78 0 130 37.5t52 93.5q0 38 -30.5 62t-81.5 24q-100 0 -191 -55l-47 127q144 78 293 78q113 0 180.5 -58.5t67.5 -150.5
q0 -86 -49.5 -145.5t-137.5 -87.5q125 -36 125 -170zM1581 1425l121 -98l-1321 -1376l-119 98zM1806 852l-114 -537h106l-29 -139h-106l-37 -176h-170l37 176h-397l24 133l502 543h184zM1288 307h236l78 342z" />
    <glyph glyph-name="questiondown" unicode="&#xbf;" horiz-adv-x="962" 
d="M575 1024q61 0 103.5 -37.5t42.5 -105.5q0 -84 -55 -134.5t-127 -50.5q-62 0 -105 38.5t-43 107.5q0 83 55.5 132.5t128.5 49.5zM629 541l-6 -45q-8 -57 -34 -110t-60.5 -94t-75 -80t-79.5 -74.5t-70.5 -70.5t-51 -75.5t-19.5 -81.5q0 -66 50 -106t125 -40q139 0 243 107
l86 -178q-100 -89 -201 -123.5t-212 -34.5q-167 0 -270 95t-103 243q0 68 22.5 129t59.5 106.5t82.5 87t92 78t86.5 71.5t69 76t36 83l7 37h223z" />
    <glyph glyph-name="Agrave" unicode="&#xc0;" horiz-adv-x="1484" 
d="M1145 1722l-125 -143l-350 240l147 168zM1079 0l-61 358h-604l-215 -358h-281l889 1434h270l277 -1434h-275zM551 584h428l-96 553z" />
    <glyph glyph-name="Aacute" unicode="&#xc1;" horiz-adv-x="1484" 
d="M1378 1819l-438 -240l-74 143l428 265zM807 1434h270l277 -1434h-275l-61 358h-604l-215 -358h-281zM551 584h428l-96 553z" />
    <glyph glyph-name="Acircumflex" unicode="&#xc2;" horiz-adv-x="1484" 
d="M995 1767l-262 -188l-92 123l305 246h158l207 -246l-133 -123zM1079 0l-61 358h-604l-215 -358h-281l889 1434h270l277 -1434h-275zM551 584h428l-96 553z" />
    <glyph glyph-name="Atilde" unicode="&#xc3;" horiz-adv-x="1484" 
d="M874 1720q-34 0 -64 -23.5t-46 -58.5l-146 68q34 90 97.5 141t140.5 51q49 0 94.5 -18t78.5 -35.5t52 -17.5q65 0 111 82l147 -68q-35 -91 -98.5 -141.5t-140.5 -50.5q-49 0 -95 17.5t-79 35.5t-52 18zM1079 0l-61 358h-604l-215 -358h-281l889 1434h270l277 -1434h-275z
M551 584h428l-96 553z" />
    <glyph glyph-name="Adieresis" unicode="&#xc4;" horiz-adv-x="1484" 
d="M760 1632q-60 0 -94.5 33.5t-34.5 89.5q0 72 44.5 116t110.5 44q58 0 92.5 -34t34.5 -91q0 -67 -43 -112.5t-110 -45.5zM1217 1632q-61 0 -95.5 33.5t-34.5 89.5q0 72 44.5 116t109.5 44q60 0 94.5 -34t34.5 -91q0 -67 -43 -112.5t-110 -45.5zM807 1434h270l277 -1434
h-275l-61 358h-604l-215 -358h-281zM551 584h428l-96 553z" />
    <glyph glyph-name="Aring" unicode="&#xc5;" horiz-adv-x="1484" 
d="M967 1563q-101 0 -156 58.5t-55 141.5q0 89 61.5 155.5t169.5 66.5q101 0 156 -59t55 -142q0 -89 -61 -155t-170 -66zM985 1868q-48 0 -76 -31.5t-28 -73.5q0 -35 23.5 -60.5t66.5 -25.5q48 0 76 32.5t28 74.5q0 35 -23.5 59.5t-66.5 24.5zM1079 0l-61 358h-604
l-215 -358h-281l889 1434h270l277 -1434h-275zM551 584h428l-96 553z" />
    <glyph glyph-name="AE" unicode="&#xc6;" horiz-adv-x="2091" 
d="M2114 1196h-680l-78 -358h616l-49 -234h-616l-78 -366h715l-52 -238h-985l76 358h-481l-297 -358h-287l1161 1434h1086zM690 584h342l117 553z" />
    <glyph glyph-name="Ccedilla" unicode="&#xc7;" horiz-adv-x="1517" 
d="M993 1214q-132 0 -242 -44t-183 -120t-113.5 -177.5t-40.5 -215.5q0 -122 51 -220.5t154.5 -159t242.5 -60.5q224 0 410 98l67 -213q-183 -107 -426 -125l-34 -69q54 -14 86 -56t32 -100q0 -107 -88 -166t-213 -59q-106 0 -209 41l60 141q61 -24 125 -24q53 0 89 22
t36 60q0 24 -23 38.5t-67 14.5h-35l61 157q-280 26 -437 200.5t-157 436.5q0 179 58 333t165 268t271 179.5t364 65.5q147 0 284.5 -42t244.5 -120l-144 -206q-75 61 -179.5 91.5t-209.5 30.5z" />
    <glyph glyph-name="Egrave" unicode="&#xc8;" horiz-adv-x="1243" 
d="M889 1579l-350 240l147 168l328 -265zM57 0l305 1434h953l-51 -238h-680l-78 -358h616l-49 -234h-614l-80 -366h715l-52 -238h-985z" />
    <glyph glyph-name="Eacute" unicode="&#xc9;" horiz-adv-x="1243" 
d="M809 1579l-74 143l428 265l84 -168zM57 0l305 1434h953l-51 -238h-680l-78 -358h616l-49 -234h-614l-80 -366h715l-52 -238h-985z" />
    <glyph glyph-name="Ecircumflex" unicode="&#xca;" horiz-adv-x="1243" 
d="M604 1579l-92 123l305 246h158l207 -246l-133 -123l-183 188zM57 0l305 1434h953l-51 -238h-680l-78 -358h616l-49 -234h-614l-80 -366h715l-52 -238h-985z" />
    <glyph glyph-name="Edieresis" unicode="&#xcb;" horiz-adv-x="1243" 
d="M631 1632q-60 0 -94.5 33.5t-34.5 89.5q0 72 44.5 116t110.5 44q58 0 92.5 -34t34.5 -91q0 -67 -43 -112.5t-110 -45.5zM1087 1632q-61 0 -95 33.5t-34 89.5q0 72 44.5 116t109.5 44q60 0 94.5 -34t34.5 -91q0 -67 -43.5 -112.5t-110.5 -45.5zM57 0l305 1434h953
l-51 -238h-680l-78 -358h616l-49 -234h-614l-80 -366h715l-52 -238h-985z" />
    <glyph glyph-name="Igrave" unicode="&#xcc;" horiz-adv-x="598" 
d="M573 1579l-350 240l148 168l327 -265zM57 0l305 1434h273l-305 -1434h-273z" />
    <glyph glyph-name="Iacute" unicode="&#xcd;" horiz-adv-x="598" 
d="M494 1579l-74 143l428 265l84 -168zM57 0l305 1434h273l-305 -1434h-273z" />
    <glyph glyph-name="Icircumflex" unicode="&#xce;" horiz-adv-x="598" 
d="M287 1579l-92 123l305 246h157l207 -246l-133 -123l-182 188zM57 0l305 1434h273l-305 -1434h-273z" />
    <glyph glyph-name="Idieresis" unicode="&#xcf;" horiz-adv-x="598" 
d="M313 1632q-60 0 -94.5 33.5t-34.5 89.5q0 72 45 116t111 44q58 0 92.5 -34t34.5 -91q0 -67 -43.5 -112.5t-110.5 -45.5zM770 1632q-61 0 -95 33.5t-34 89.5q0 72 44.5 116t109.5 44q60 0 94.5 -34t34.5 -91q0 -67 -43.5 -112.5t-110.5 -45.5zM57 0l305 1434h273
l-305 -1434h-273z" />
    <glyph glyph-name="Eth" unicode="&#xd0;" horiz-adv-x="1517" 
d="M807 1434q156 0 282 -45.5t210 -127t129 -195t45 -249.5q0 -181 -66.5 -334.5t-183.5 -259t-281 -164.5t-354 -59h-531l129 602h-141l41 197h141l135 635h445zM604 238q259 0 426.5 156.5t167.5 398.5q0 182 -115.5 292.5t-326.5 110.5h-172l-84 -397h327l-41 -197h-329
l-78 -364h225z" />
    <glyph glyph-name="Ntilde" unicode="&#xd1;" horiz-adv-x="1564" 
d="M913 1720q-34 0 -64 -23.5t-46 -58.5l-146 68q34 90 97.5 141t140.5 51q49 0 94.5 -18t78.5 -35.5t52 -17.5q65 0 111 82l147 -68q-35 -91 -98.5 -141.5t-140.5 -50.5q-49 0 -95 17.5t-79 35.5t-52 18zM1350 1434h252l-306 -1434h-260l-508 1024l-219 -1024h-252
l305 1434h261l510 -1022z" />
    <glyph glyph-name="Ograve" unicode="&#xd2;" horiz-adv-x="1708" 
d="M1047 1579l-351 240l148 168l327 -265zM823 -27q-153 0 -281.5 51.5t-216 141t-136 211t-48.5 260.5q0 165 60.5 315t167 262.5t265 179t343.5 66.5q153 0 282.5 -51t217 -140t136 -210t48.5 -260q0 -167 -60 -317t-167 -263t-266 -179.5t-345 -66.5zM850 219
q114 0 214 46t168.5 122t108 176.5t39.5 208.5q0 123 -51 222.5t-150 159.5t-229 60q-114 0 -214 -45.5t-168 -122t-107 -176.5t-39 -208q0 -190 116 -316.5t312 -126.5z" />
    <glyph glyph-name="Oacute" unicode="&#xd3;" horiz-adv-x="1708" 
d="M967 1579l-74 143l428 265l84 -168zM823 -27q-153 0 -281.5 51.5t-216 141t-136 211t-48.5 260.5q0 165 60.5 315t167 262.5t265 179t343.5 66.5q153 0 282.5 -51t217 -140t136 -210t48.5 -260q0 -167 -60 -317t-167 -263t-266 -179.5t-345 -66.5zM850 219q114 0 214 46
t168.5 122t108 176.5t39.5 208.5q0 123 -51 222.5t-150 159.5t-229 60q-114 0 -214 -45.5t-168 -122t-107 -176.5t-39 -208q0 -190 116 -316.5t312 -126.5z" />
    <glyph glyph-name="Ocircumflex" unicode="&#xd4;" horiz-adv-x="1708" 
d="M760 1579l-92 123l305 246h157l207 -246l-133 -123l-182 188zM823 -27q-153 0 -281.5 51.5t-216 141t-136 211t-48.5 260.5q0 165 60.5 315t167 262.5t265 179t343.5 66.5q153 0 282.5 -51t217 -140t136 -210t48.5 -260q0 -167 -60 -317t-167 -263t-266 -179.5
t-345 -66.5zM850 219q114 0 214 46t168.5 122t108 176.5t39.5 208.5q0 123 -51 222.5t-150 159.5t-229 60q-114 0 -214 -45.5t-168 -122t-107 -176.5t-39 -208q0 -190 116 -316.5t312 -126.5z" />
    <glyph glyph-name="Otilde" unicode="&#xd5;" horiz-adv-x="1708" 
d="M791 1638l-146 68q34 90 97.5 141t140.5 51q49 0 94.5 -18t78.5 -35.5t52 -17.5q65 0 111 82l147 -68q-35 -91 -99 -141.5t-141 -50.5q-49 0 -94.5 17.5t-78.5 35.5t-52 18q-34 0 -64 -23.5t-46 -58.5zM823 -27q-153 0 -281.5 51.5t-216 141t-136 211t-48.5 260.5
q0 165 60.5 315t167 262.5t265 179t343.5 66.5q153 0 282.5 -51t217 -140t136 -210t48.5 -260q0 -167 -60 -317t-167 -263t-266 -179.5t-345 -66.5zM850 219q114 0 214 46t168.5 122t108 176.5t39.5 208.5q0 123 -51 222.5t-150 159.5t-229 60q-114 0 -214 -45.5t-168 -122
t-107 -176.5t-39 -208q0 -190 116 -316.5t312 -126.5z" />
    <glyph glyph-name="Odieresis" unicode="&#xd6;" horiz-adv-x="1708" 
d="M786 1632q-60 0 -94.5 33.5t-34.5 89.5q0 72 45 116t111 44q58 0 92.5 -34t34.5 -91q0 -67 -43.5 -112.5t-110.5 -45.5zM1243 1632q-61 0 -95 33.5t-34 89.5q0 72 44.5 116t109.5 44q60 0 94.5 -34t34.5 -91q0 -67 -43.5 -112.5t-110.5 -45.5zM823 -27
q-153 0 -281.5 51.5t-216 141t-136 211t-48.5 260.5q0 165 60.5 315t167 262.5t265 179t343.5 66.5q153 0 282.5 -51t217 -140t136 -210t48.5 -260q0 -167 -60 -317t-167 -263t-266 -179.5t-345 -66.5zM850 219q114 0 214 46t168.5 122t108 176.5t39.5 208.5
q0 123 -51 222.5t-150 159.5t-229 60q-114 0 -214 -45.5t-168 -122t-107 -176.5t-39 -208q0 -190 116 -316.5t312 -126.5z" />
    <glyph glyph-name="multiply" unicode="&#xd7;" horiz-adv-x="1181" 
d="M193 113l-130 153l390 324l-252 323l180 154l256 -322l389 322l129 -154l-391 -325l254 -322l-180 -153l-256 321z" />
    <glyph glyph-name="Oslash" unicode="&#xd8;" horiz-adv-x="1708" 
d="M1419 1319q116 -91 179 -226t63 -294q0 -167 -60 -317t-167 -263t-266 -179.5t-345 -66.5q-147 0 -268 47l-94 -143l-182 88l102 154q-115 91 -177.5 225.5t-62.5 292.5q0 165 60.5 315t167 262.5t265 179t343.5 66.5q144 0 268 -45l94 139l181 -86zM422 662
q0 -192 113 -314l563 844q-71 22 -148 22q-114 0 -214 -45.5t-168 -122t-107 -176.5t-39 -208zM850 219q114 0 214 46t168.5 122t108 176.5t39.5 208.5q0 190 -114 313l-564 -843q74 -23 148 -23z" />
    <glyph glyph-name="Ugrave" unicode="&#xd9;" horiz-adv-x="1576" 
d="M1061 1579l-350 240l147 168l328 -265zM750 -27q-144 0 -262 46.5t-194.5 128t-106.5 200t-1 256.5l176 830h273l-172 -816q-19 -97 -3.5 -171.5t58.5 -125t105 -76.5t137 -26q165 0 265 97.5t138 275.5l178 842h273l-189 -879q-58 -274 -231.5 -428t-443.5 -154z" />
    <glyph glyph-name="Uacute" unicode="&#xda;" horiz-adv-x="1576" 
d="M981 1579l-74 143l428 265l84 -168zM750 -27q-144 0 -262 46.5t-194.5 128t-106.5 200t-1 256.5l176 830h273l-172 -816q-19 -97 -3.5 -171.5t58.5 -125t105 -76.5t137 -26q165 0 265 97.5t138 275.5l178 842h273l-189 -879q-58 -274 -231.5 -428t-443.5 -154z" />
    <glyph glyph-name="Ucircumflex" unicode="&#xdb;" horiz-adv-x="1576" 
d="M776 1579l-92 123l305 246h158l207 -246l-133 -123l-183 188zM750 -27q-144 0 -262 46.5t-194.5 128t-106.5 200t-1 256.5l176 830h273l-172 -816q-19 -97 -3.5 -171.5t58.5 -125t105 -76.5t137 -26q165 0 265 97.5t138 275.5l178 842h273l-189 -879
q-58 -274 -231.5 -428t-443.5 -154z" />
    <glyph glyph-name="Udieresis" unicode="&#xdc;" horiz-adv-x="1576" 
d="M803 1632q-60 0 -94.5 33.5t-34.5 89.5q0 72 44.5 116t110.5 44q58 0 92.5 -34t34.5 -91q0 -67 -43 -112.5t-110 -45.5zM1260 1632q-61 0 -95.5 33.5t-34.5 89.5q0 72 44.5 116t109.5 44q60 0 94.5 -34t34.5 -91q0 -67 -43 -112.5t-110 -45.5zM750 -27q-144 0 -262 46.5
t-194.5 128t-106.5 200t-1 256.5l176 830h273l-172 -816q-19 -97 -3.5 -171.5t58.5 -125t105 -76.5t137 -26q165 0 265 97.5t138 275.5l178 842h273l-189 -879q-58 -274 -231.5 -428t-443.5 -154z" />
    <glyph glyph-name="Yacute" unicode="&#xdd;" horiz-adv-x="1302" 
d="M1280 1819l-438 -240l-74 143l428 265zM1184 1434h305l-692 -895l-119 -539h-272l118 539l-313 895h274l220 -639z" />
    <glyph glyph-name="Thorn" unicode="&#xde;" horiz-adv-x="1298" 
d="M856 1190q187 0 306.5 -110t119.5 -287q0 -259 -156.5 -411.5t-418.5 -152.5h-328l-49 -229h-273l305 1434h273l-51 -244h272zM692 467q154 0 238 76t84 215q0 99 -70.5 146.5t-185.5 47.5h-226l-102 -485h262z" />
    <glyph glyph-name="germandbls" unicode="&#xdf;" horiz-adv-x="1316" 
d="M782 -27q-173 0 -327 80l92 174q110 -55 231 -55q82 0 134.5 31t52.5 90q0 41 -30 75t-72.5 60.5t-85.5 57.5t-73 82t-30 118q0 59 25.5 114.5t61.5 98t72 82.5t61.5 84t25.5 86q0 52 -36.5 81.5t-101.5 29.5q-99 0 -172 -59t-96 -163l-221 -1040h-264l227 1071
q40 185 187 287t354 102q176 0 278.5 -82.5t102.5 -218.5q0 -66 -25 -123.5t-60.5 -98t-71 -75.5t-60.5 -71.5t-25 -71.5q0 -29 16 -54t42 -44.5t57 -40t62.5 -45.5t57.5 -54.5t42 -73t16 -96.5q0 -109 -64 -187.5t-163.5 -114.5t-219.5 -36z" />
    <glyph glyph-name="agrave" unicode="&#xe0;" horiz-adv-x="1280" 
d="M977 1286l-127 -143l-350 241l147 166zM1030 1018h219l-215 -1018h-205l-8 90q-129 -119 -311 -119q-106 0 -190 39t-136 105.5t-79 150.5t-27 178q0 87 22.5 172.5t69.5 162.5t111.5 136t155 94t194.5 35q112 0 204 -49.5t142 -134.5zM588 209q126 0 214.5 100t88.5 244
q0 115 -67.5 184.5t-172.5 69.5q-127 0 -215 -100.5t-88 -243.5q0 -116 67.5 -185t172.5 -69z" />
    <glyph glyph-name="aacute" unicode="&#xe1;" horiz-adv-x="1280" 
d="M1137 1384l-439 -241l-73 143l428 264zM1030 1018h219l-215 -1018h-205l-8 90q-129 -119 -311 -119q-106 0 -190 39t-136 105.5t-79 150.5t-27 178q0 87 22.5 172.5t69.5 162.5t111.5 136t155 94t194.5 35q112 0 204 -49.5t142 -134.5zM588 209q126 0 214.5 100t88.5 244
q0 115 -67.5 184.5t-172.5 69.5q-127 0 -215 -100.5t-88 -243.5q0 -116 67.5 -185t172.5 -69z" />
    <glyph glyph-name="acircumflex" unicode="&#xe2;" horiz-adv-x="1280" 
d="M791 1333l-263 -188l-92 123l305 243h158l209 -243l-133 -123zM1030 1018h219l-215 -1018h-205l-8 90q-129 -119 -311 -119q-106 0 -190 39t-136 105.5t-79 150.5t-27 178q0 87 22.5 172.5t69.5 162.5t111.5 136t155 94t194.5 35q112 0 204 -49.5t142 -134.5zM588 209
q126 0 214.5 100t88.5 244q0 115 -67.5 184.5t-172.5 69.5q-127 0 -215 -100.5t-88 -243.5q0 -116 67.5 -185t172.5 -69z" />
    <glyph glyph-name="atilde" unicode="&#xe3;" horiz-adv-x="1280" 
d="M696 1286q-34 0 -64 -24.5t-46 -59.5l-146 68q33 91 97 142.5t141 51.5q49 0 94.5 -18t78.5 -35.5t52 -17.5q65 0 111 82l147 -68q-35 -92 -98 -143.5t-141 -51.5q-49 0 -95 18.5t-79 37t-52 18.5zM1030 1018h219l-215 -1018h-205l-8 90q-129 -119 -311 -119
q-106 0 -190 39t-136 105.5t-79 150.5t-27 178q0 87 22.5 172.5t69.5 162.5t111.5 136t155 94t194.5 35q112 0 204 -49.5t142 -134.5zM588 209q126 0 214.5 100t88.5 244q0 115 -67.5 184.5t-172.5 69.5q-127 0 -215 -100.5t-88 -243.5q0 -116 67.5 -185t172.5 -69z" />
    <glyph glyph-name="adieresis" unicode="&#xe4;" horiz-adv-x="1280" 
d="M559 1196q-61 0 -95 34t-34 91q0 71 45 115.5t109 44.5q59 0 94 -34.5t35 -90.5q0 -68 -43.5 -114t-110.5 -46zM1016 1196q-60 0 -94.5 34t-34.5 91q0 71 43.5 115.5t109.5 44.5q59 0 93 -34.5t34 -90.5q0 -68 -42 -114t-109 -46zM1030 1018h219l-215 -1018h-205l-8 90
q-129 -119 -311 -119q-106 0 -190 39t-136 105.5t-79 150.5t-27 178q0 87 22.5 172.5t69.5 162.5t111.5 136t155 94t194.5 35q112 0 204 -49.5t142 -134.5zM588 209q126 0 214.5 100t88.5 244q0 115 -67.5 184.5t-172.5 69.5q-127 0 -215 -100.5t-88 -243.5
q0 -116 67.5 -185t172.5 -69z" />
    <glyph glyph-name="aring" unicode="&#xe5;" horiz-adv-x="1280" 
d="M750 1126q-101 0 -157 59.5t-56 141.5q0 90 62 155.5t171 65.5q101 0 156 -58.5t55 -141.5q0 -89 -61 -155.5t-170 -66.5zM768 1434q-48 0 -76 -32.5t-28 -72.5q0 -37 22.5 -61.5t67.5 -24.5q48 0 75 31.5t27 73.5q0 35 -22.5 60.5t-65.5 25.5zM1030 1018h219l-215 -1018
h-205l-8 90q-129 -119 -311 -119q-106 0 -190 39t-136 105.5t-79 150.5t-27 178q0 87 22.5 172.5t69.5 162.5t111.5 136t155 94t194.5 35q112 0 204 -49.5t142 -134.5zM588 209q126 0 214.5 100t88.5 244q0 115 -67.5 184.5t-172.5 69.5q-127 0 -215 -100.5t-88 -243.5
q0 -116 67.5 -185t172.5 -69z" />
    <glyph glyph-name="ae" unicode="&#xe6;" horiz-adv-x="1826" 
d="M1765 633q0 -45 -11 -103t-28 -94h-722q7 -123 89.5 -183t209.5 -60q159 0 292 83l62 -186q-176 -119 -395 -119q-148 0 -263.5 55t-181.5 158q-87 -108 -195.5 -159.5t-250.5 -51.5q-148 0 -243 77.5t-95 207.5q0 111 70 195.5t181.5 126t243.5 41.5q124 0 230 -33
l18 84q17 82 -34.5 130t-143.5 48q-94 0 -170.5 -27.5t-167.5 -89.5l-43 201q115 60 211.5 85t208.5 25q109 0 192.5 -35.5t131.5 -99.5q161 135 372 135q193 0 312.5 -115.5t119.5 -295.5zM1325 836q-110 0 -188 -61.5t-111 -166.5h492q6 27 6 51q0 83 -52.5 130t-146.5 47
zM428 156q107 0 189 71t104 176l10 46q-60 16 -135 16q-128 0 -224 -54t-96 -141q0 -54 44 -84t108 -30z" />
    <glyph glyph-name="ccedilla" unicode="&#xe7;" horiz-adv-x="1052" 
d="M909 86q-147 -104 -329 -113l-35 -65q54 -14 86.5 -56t32.5 -100q0 -72 -43.5 -124.5t-110.5 -76.5t-148 -24q-105 0 -208 41l59 141q61 -24 125 -24q53 0 89 22t36 60q0 24 -23 38.5t-67 14.5h-35l65 172q-147 40 -237 158t-90 296q0 165 77.5 302.5t211.5 216.5t294 79
q119 0 221 -40.5t164 -116.5l-153 -187q-35 48 -94 76.5t-133 28.5q-142 0 -232 -98t-90 -238q0 -118 68.5 -187t185.5 -69q114 0 227 76z" />
    <glyph glyph-name="egrave" unicode="&#xe8;" horiz-adv-x="1157" 
d="M948 1286l-127 -143l-350 241l147 166zM1094 633q0 -45 -11 -103t-28 -94h-723q7 -123 89.5 -183t209.5 -60q160 0 293 83l61 -186q-176 -119 -395 -119q-228 0 -370 125.5t-142 347.5q0 120 44.5 230t120.5 191.5t185 130t231 48.5q195 0 315 -115.5t120 -295.5z
M653 836q-110 0 -188 -61.5t-111 -166.5h492q6 27 6 51q0 83 -52.5 130t-146.5 47z" />
    <glyph glyph-name="eacute" unicode="&#xe9;" horiz-adv-x="1157" 
d="M1108 1384l-438 -241l-74 143l428 264zM659 1044q195 0 315 -115.5t120 -295.5q0 -45 -11 -103t-28 -94h-723q7 -123 89.5 -183t209.5 -60q160 0 293 83l61 -186q-176 -119 -395 -119q-228 0 -370 125.5t-142 347.5q0 120 44.5 230t120.5 191.5t185 130t231 48.5z
M653 836q-110 0 -188 -61.5t-111 -166.5h492q6 27 6 51q0 83 -52.5 130t-146.5 47z" />
    <glyph glyph-name="ecircumflex" unicode="&#xea;" horiz-adv-x="1157" 
d="M762 1333l-262 -188l-92 123l305 243h157l209 -243l-133 -123zM1094 633q0 -45 -11 -103t-28 -94h-723q7 -123 89.5 -183t209.5 -60q160 0 293 83l61 -186q-176 -119 -395 -119q-228 0 -370 125.5t-142 347.5q0 120 44.5 230t120.5 191.5t185 130t231 48.5
q195 0 315 -115.5t120 -295.5zM653 836q-110 0 -188 -61.5t-111 -166.5h492q6 27 6 51q0 83 -52.5 130t-146.5 47z" />
    <glyph glyph-name="edieresis" unicode="&#xeb;" horiz-adv-x="1157" 
d="M532 1196q-60 0 -94.5 34t-34.5 91q0 71 44.5 115.5t109.5 44.5q59 0 94 -34.5t35 -90.5q0 -68 -43.5 -114t-110.5 -46zM1014 1481q59 0 93 -34.5t34 -90.5q0 -68 -42.5 -114t-109.5 -46q-61 0 -95 34t-34 91q0 71 44 115.5t110 44.5zM659 1044q195 0 315 -115.5
t120 -295.5q0 -45 -11 -103t-28 -94h-723q7 -123 89.5 -183t209.5 -60q160 0 293 83l61 -186q-176 -119 -395 -119q-228 0 -370 125.5t-142 347.5q0 120 44.5 230t120.5 191.5t185 130t231 48.5zM653 836q-110 0 -188 -61.5t-111 -166.5h492q6 27 6 51q0 83 -52.5 130
t-146.5 47z" />
    <glyph glyph-name="igrave" unicode="&#xec;" horiz-adv-x="530" 
d="M494 1143l-351 241l148 166l330 -264zM29 0l215 1018h262l-215 -1018h-262z" />
    <glyph glyph-name="iacute" unicode="&#xed;" horiz-adv-x="530" 
d="M342 1143l-74 143l428 264l84 -166zM29 0l215 1018h262l-215 -1018h-262z" />
    <glyph glyph-name="icircumflex" unicode="&#xee;" horiz-adv-x="530" 
d="M172 1145l-92 123l305 243h158l209 -243l-134 -123l-184 188zM29 0l215 1018h262l-215 -1018h-262z" />
    <glyph glyph-name="idieresis" unicode="&#xef;" horiz-adv-x="530" 
d="M203 1196q-61 0 -95 34t-34 91q0 71 44.5 115.5t108.5 44.5q59 0 94 -34.5t35 -90.5q0 -68 -43 -114t-110 -46zM659 1196q-61 0 -95 34t-34 91q0 71 44 115.5t110 44.5q59 0 93 -34.5t34 -90.5q0 -68 -42.5 -114t-109.5 -46zM29 0l215 1018h262l-215 -1018h-262z" />
    <glyph glyph-name="eth" unicode="&#xf0;" horiz-adv-x="1224" 
d="M971 1270q209 -206 209 -506q0 -159 -51.5 -304t-140 -251t-215 -169t-269.5 -63q-200 0 -319 113.5t-119 300.5q0 164 75.5 304t209.5 223t296 83q165 0 266 -98q-10 148 -157 277l-291 -136l-43 138l178 80q-39 24 -113 49l80 174q146 -38 275 -117l254 119l43 -137z
M535 193q136 0 244 110.5t108 261.5q0 104 -61 162.5t-158 58.5q-137 0 -243 -108t-106 -264q0 -102 59 -161.5t157 -59.5z" />
    <glyph glyph-name="ntilde" unicode="&#xf1;" horiz-adv-x="1239" 
d="M692 1286q-34 0 -64 -24.5t-46 -59.5l-146 68q33 91 97 142.5t141 51.5q49 0 94.5 -18t78.5 -35.5t52 -17.5q65 0 111 82l147 -68q-35 -92 -98 -143.5t-141 -51.5q-49 0 -95 18.5t-79 37t-52 18.5zM791 1044q119 0 208 -62t125.5 -171t8.5 -238l-123 -573h-262l116 551
q29 133 -23.5 205.5t-156.5 72.5q-101 0 -175 -74t-99 -196l-117 -559h-262l215 1018h209l4 -107q130 133 332 133z" />
    <glyph glyph-name="ograve" unicode="&#xf2;" horiz-adv-x="1222" 
d="M819 1143l-350 241l147 166l330 -264zM557 -29q-205 0 -340 131t-135 357q0 128 47.5 238.5t127 186t185 118t220.5 42.5q208 0 344.5 -129t136.5 -352q0 -171 -82 -308t-215 -210.5t-289 -73.5zM578 211q127 0 214 101.5t87 240.5q0 114 -61.5 184t-166.5 70
q-129 0 -216 -101t-87 -241q0 -112 62 -183t168 -71z" />
    <glyph glyph-name="oacute" unicode="&#xf3;" horiz-adv-x="1222" 
d="M668 1143l-74 143l428 264l84 -166zM557 -29q-205 0 -340 131t-135 357q0 128 47.5 238.5t127 186t185 118t220.5 42.5q208 0 344.5 -129t136.5 -352q0 -171 -82 -308t-215 -210.5t-289 -73.5zM578 211q127 0 214 101.5t87 240.5q0 114 -61.5 184t-166.5 70
q-129 0 -216 -101t-87 -241q0 -112 62 -183t168 -71z" />
    <glyph glyph-name="ocircumflex" unicode="&#xf4;" horiz-adv-x="1222" 
d="M498 1145l-92 123l305 243h157l209 -243l-133 -123l-184 188zM557 -29q-205 0 -340 131t-135 357q0 128 47.5 238.5t127 186t185 118t220.5 42.5q208 0 344.5 -129t136.5 -352q0 -171 -82 -308t-215 -210.5t-289 -73.5zM578 211q127 0 214 101.5t87 240.5
q0 114 -61.5 184t-166.5 70q-129 0 -216 -101t-87 -241q0 -112 62 -183t168 -71z" />
    <glyph glyph-name="otilde" unicode="&#xf5;" horiz-adv-x="1222" 
d="M555 1202l-145 68q33 92 96.5 143t140.5 51q49 0 94.5 -18t78.5 -35.5t52 -17.5q65 0 111 82l147 -68q-35 -92 -98 -143.5t-141 -51.5q-49 0 -94.5 18.5t-78.5 37t-52 18.5q-34 0 -64.5 -24.5t-46.5 -59.5zM557 -29q-205 0 -340 131t-135 357q0 128 47.5 238.5t127 186
t185 118t220.5 42.5q208 0 344.5 -129t136.5 -352q0 -171 -82 -308t-215 -210.5t-289 -73.5zM578 211q127 0 214 101.5t87 240.5q0 114 -61.5 184t-166.5 70q-129 0 -216 -101t-87 -241q0 -112 62 -183t168 -71z" />
    <glyph glyph-name="odieresis" unicode="&#xf6;" horiz-adv-x="1222" 
d="M530 1196q-60 0 -94.5 34t-34.5 91q0 71 44.5 115.5t109.5 44.5q59 0 94 -34.5t35 -90.5q0 -68 -43.5 -114t-110.5 -46zM987 1196q-61 0 -95 34t-34 91q0 71 44 115.5t110 44.5q59 0 93 -34.5t34 -90.5q0 -68 -42.5 -114t-109.5 -46zM557 -29q-205 0 -340 131t-135 357
q0 128 47.5 238.5t127 186t185 118t220.5 42.5q208 0 344.5 -129t136.5 -352q0 -171 -82 -308t-215 -210.5t-289 -73.5zM578 211q127 0 214 101.5t87 240.5q0 114 -61.5 184t-166.5 70q-129 0 -216 -101t-87 -241q0 -112 62 -183t168 -71z" />
    <glyph glyph-name="divide" unicode="&#xf7;" horiz-adv-x="1179" 
d="M680 844q-52 0 -87.5 32t-35.5 91q0 70 46.5 111.5t107.5 41.5q53 0 89 -31.5t36 -89.5q0 -69 -48 -112t-108 -43zM88 489l43 201h999l-43 -201h-999zM512 57q-52 0 -87.5 32t-35.5 91q0 70 46.5 112t107.5 42q53 0 89 -31.5t36 -89.5q0 -70 -47.5 -113t-108.5 -43z" />
    <glyph glyph-name="oslash" unicode="&#xf8;" horiz-adv-x="1222" 
d="M1006 915q137 -131 137 -352q0 -171 -82 -308t-215 -210.5t-289 -73.5q-104 0 -186 33l-80 -113l-139 74l84 121q-154 134 -154 373q0 128 47.5 238.5t127 186t185 118t220.5 42.5q112 0 208 -38l70 100l139 -86zM348 465q0 -91 41 -156l336 488q-38 10 -74 10
q-129 0 -216 -101t-87 -241zM578 211q127 0 214 101.5t87 240.5q0 77 -31 137l-330 -473q27 -6 60 -6z" />
    <glyph glyph-name="ugrave" unicode="&#xf9;" horiz-adv-x="1224" 
d="M969 1286l-127 -143l-350 241l147 166zM934 1018h262l-217 -1018h-207l-4 111q-131 -140 -332 -140q-124 0 -210 65.5t-116.5 172.5t-3.5 233l125 576h263l-119 -551q-29 -135 20 -207t150 -72q98 0 171.5 74t98.5 195z" />
    <glyph glyph-name="uacute" unicode="&#xfa;" horiz-adv-x="1224" 
d="M1126 1384l-438 -241l-74 143l428 264zM934 1018h262l-217 -1018h-207l-4 111q-131 -140 -332 -140q-124 0 -210 65.5t-116.5 172.5t-3.5 233l125 576h263l-119 -551q-29 -135 20 -207t150 -72q98 0 171.5 74t98.5 195z" />
    <glyph glyph-name="ucircumflex" unicode="&#xfb;" horiz-adv-x="1224" 
d="M780 1333l-262 -188l-92 123l305 243h158l209 -243l-133 -123zM934 1018h262l-217 -1018h-207l-4 111q-131 -140 -332 -140q-124 0 -210 65.5t-116.5 172.5t-3.5 233l125 576h263l-119 -551q-29 -135 20 -207t150 -72q98 0 171.5 74t98.5 195z" />
    <glyph glyph-name="udieresis" unicode="&#xfc;" horiz-adv-x="1224" 
d="M551 1196q-61 0 -95 34t-34 91q0 71 44.5 115.5t108.5 44.5q59 0 94.5 -34.5t35.5 -90.5q0 -68 -43.5 -114t-110.5 -46zM1008 1196q-60 0 -94.5 34t-34.5 91q0 71 43.5 115.5t109.5 44.5q59 0 93 -34.5t34 -90.5q0 -68 -42 -114t-109 -46zM934 1018h262l-217 -1018h-207
l-4 111q-131 -140 -332 -140q-124 0 -210 65.5t-116.5 172.5t-3.5 233l125 576h263l-119 -551q-29 -135 20 -207t150 -72q98 0 171.5 74t98.5 195z" />
    <glyph glyph-name="yacute" unicode="&#xfd;" horiz-adv-x="1083" 
d="M1049 1384l-439 -241l-73 143l428 264zM895 1018h281l-869 -1448h-246l254 448l-196 1000h270l111 -729z" />
    <glyph glyph-name="thorn" unicode="&#xfe;" horiz-adv-x="1284" 
d="M772 1044q106 0 190.5 -38.5t136 -104.5t78.5 -149.5t27 -178.5q0 -88 -22.5 -173.5t-69.5 -163t-112 -136.5t-155.5 -94t-195.5 -35q-112 0 -196.5 43t-135.5 119l-116 -563h-262l397 1864h262l-102 -478q115 88 276 88zM629 209q126 0 214.5 100.5t88.5 243.5
q0 116 -67.5 185t-172.5 69q-127 0 -215 -99.5t-88 -244.5q0 -115 67.5 -184.5t172.5 -69.5z" />
    <glyph glyph-name="ydieresis" unicode="&#xff;" horiz-adv-x="1083" 
d="M473 1196q-61 0 -95 34t-34 91q0 71 45 115.5t109 44.5q59 0 94 -34.5t35 -90.5q0 -68 -43.5 -114t-110.5 -46zM930 1196q-60 0 -94.5 34t-34.5 91q0 71 43.5 115.5t109.5 44.5q59 0 93 -34.5t34 -90.5q0 -68 -42 -114t-109 -46zM895 1018h281l-869 -1448h-246l254 448
l-196 1000h270l111 -729z" />
    <glyph glyph-name="Amacron" unicode="&#x100;" horiz-adv-x="1484" 
d="M1331 1862l-39 -176h-639l39 176h639zM1079 0l-61 358h-604l-215 -358h-281l889 1434h270l277 -1434h-275zM551 584h428l-96 553z" />
    <glyph glyph-name="amacron" unicode="&#x101;" horiz-adv-x="1280" 
d="M1133 1427l-39 -178h-639l37 178h641zM1030 1018h219l-215 -1018h-205l-8 90q-129 -119 -311 -119q-106 0 -190 39t-136 105.5t-79 150.5t-27 178q0 87 22.5 172.5t69.5 162.5t111.5 136t155 94t194.5 35q112 0 204 -49.5t142 -134.5zM588 209q126 0 214.5 100t88.5 244
q0 115 -67.5 184.5t-172.5 69.5q-127 0 -215 -100.5t-88 -243.5q0 -116 67.5 -185t172.5 -69z" />
    <glyph glyph-name="Abreve" unicode="&#x102;" horiz-adv-x="1484" 
d="M993 1583q-155 0 -232.5 92.5t-51.5 239.5h161q-9 -74 31 -120t113 -46q72 0 121.5 45.5t72.5 120.5h166q-79 -332 -381 -332zM807 1434h270l277 -1434h-275l-61 358h-604l-215 -358h-281zM551 584h428l-96 553z" />
    <glyph glyph-name="abreve" unicode="&#x103;" horiz-adv-x="1280" 
d="M782 1149q-157 0 -234.5 91.5t-49.5 238.5h161q-9 -73 30.5 -119.5t113.5 -46.5q72 0 121.5 45.5t72.5 120.5h166q-78 -330 -381 -330zM1030 1018h219l-215 -1018h-205l-8 90q-129 -119 -311 -119q-106 0 -190 39t-136 105.5t-79 150.5t-27 178q0 87 22.5 172.5
t69.5 162.5t111.5 136t155 94t194.5 35q112 0 204 -49.5t142 -134.5zM588 209q126 0 214.5 100t88.5 244q0 115 -67.5 184.5t-172.5 69.5q-127 0 -215 -100.5t-88 -243.5q0 -116 67.5 -185t172.5 -69z" />
    <glyph glyph-name="Aogonek" unicode="&#x104;" horiz-adv-x="1484" 
d="M1198 -317q26 0 84 14l14 -146q-68 -24 -159 -24q-98 0 -155.5 48.5t-57.5 131.5q0 154 182 293h-27l-61 358h-604l-215 -358h-281l889 1434h270l277 -1432l4 -2q-99 -51 -162 -121.5t-63 -130.5q0 -29 16.5 -47t48.5 -18zM551 584h428l-96 553z" />
    <glyph glyph-name="aogonek" unicode="&#x105;" horiz-adv-x="1280" 
d="M1030 1018h219l-215 -1018h-6q-99 -51 -162 -121.5t-63 -130.5q0 -29 16.5 -47t48.5 -18q26 0 84 14l15 -146q-68 -24 -160 -24q-98 0 -155.5 48.5t-57.5 131.5q0 92 64.5 176.5t168.5 151.5l-6 55q-129 -119 -311 -119q-106 0 -190 39t-136 105.5t-79 150.5t-27 178
q0 87 22.5 172.5t69.5 162.5t111.5 136t155 94t194.5 35q112 0 204 -49.5t142 -134.5zM588 209q126 0 214.5 100t88.5 244q0 115 -67.5 184.5t-172.5 69.5q-127 0 -215 -100.5t-88 -243.5q0 -116 67.5 -185t172.5 -69z" />
    <glyph glyph-name="Cacute" unicode="&#x106;" horiz-adv-x="1517" 
d="M981 1579l-74 143l428 265l84 -168zM821 -27q-160 0 -290 48t-215 134t-131 203t-46 256q0 179 58 333t165 268t271 179.5t364 65.5q147 0 284.5 -42t244.5 -120l-144 -206q-75 61 -179.5 91.5t-209.5 30.5q-132 0 -242 -44t-183 -120t-113.5 -177.5t-40.5 -215.5
q0 -122 51 -220.5t154.5 -159t242.5 -60.5q224 0 410 98l67 -213q-224 -129 -518 -129z" />
    <glyph glyph-name="cacute" unicode="&#x107;" horiz-adv-x="1052" 
d="M659 1137l-73 143l428 264l84 -166zM549 -27q-132 0 -238 53.5t-170.5 162.5t-64.5 257q0 165 77.5 302.5t211.5 216.5t294 79q119 0 221 -40.5t164 -116.5l-153 -187q-35 48 -94 76.5t-133 28.5q-142 0 -232 -98t-90 -238q0 -118 68.5 -187t185.5 -69q114 0 227 76
l86 -203q-159 -113 -360 -113z" />
    <glyph glyph-name="Ccircumflex" unicode="&#x108;" horiz-adv-x="1517" 
d="M774 1579l-92 123l305 246h158l207 -246l-133 -123l-183 188zM821 -27q-160 0 -290 48t-215 134t-131 203t-46 256q0 179 58 333t165 268t271 179.5t364 65.5q147 0 284.5 -42t244.5 -120l-144 -206q-75 61 -179.5 91.5t-209.5 30.5q-132 0 -242 -44t-183 -120
t-113.5 -177.5t-40.5 -215.5q0 -122 51 -220.5t154.5 -159t242.5 -60.5q224 0 410 98l67 -213q-224 -129 -518 -129z" />
    <glyph glyph-name="ccircumflex" unicode="&#x109;" horiz-adv-x="1052" 
d="M489 1139l-92 123l305 243h158l209 -243l-133 -123l-184 188zM549 -27q-132 0 -238 53.5t-170.5 162.5t-64.5 257q0 165 77.5 302.5t211.5 216.5t294 79q119 0 221 -40.5t164 -116.5l-153 -187q-35 48 -94 76.5t-133 28.5q-142 0 -232 -98t-90 -238q0 -118 68.5 -187
t185.5 -69q114 0 227 76l86 -203q-159 -113 -360 -113z" />
    <glyph glyph-name="Cdotaccent" unicode="&#x10a;" horiz-adv-x="1517" 
d="M1057 1622q-64 0 -101.5 36.5t-37.5 96.5q0 71 48.5 120.5t120.5 49.5q63 0 100.5 -36.5t37.5 -96.5q0 -74 -49 -122t-119 -48zM821 -27q-160 0 -290 48t-215 134t-131 203t-46 256q0 179 58 333t165 268t271 179.5t364 65.5q147 0 284.5 -42t244.5 -120l-144 -206
q-75 61 -179.5 91.5t-209.5 30.5q-132 0 -242 -44t-183 -120t-113.5 -177.5t-40.5 -215.5q0 -122 51 -220.5t154.5 -159t242.5 -60.5q224 0 410 98l67 -213q-224 -129 -518 -129z" />
    <glyph glyph-name="cdotaccent" unicode="&#x10b;" horiz-adv-x="1052" 
d="M745 1182q-63 0 -101 36t-38 95q0 72 49 122t121 50q63 0 100 -36.5t37 -96.5q0 -74 -49 -122t-119 -48zM549 -27q-132 0 -238 53.5t-170.5 162.5t-64.5 257q0 165 77.5 302.5t211.5 216.5t294 79q119 0 221 -40.5t164 -116.5l-153 -187q-35 48 -94 76.5t-133 28.5
q-142 0 -232 -98t-90 -238q0 -118 68.5 -187t185.5 -69q114 0 227 76l86 -203q-159 -113 -360 -113z" />
    <glyph glyph-name="Ccaron" unicode="&#x10c;" horiz-adv-x="1517" 
d="M922 1599l-207 246l131 121l184 -186l262 186l92 -121l-305 -246h-157zM821 -27q-160 0 -290 48t-215 134t-131 203t-46 256q0 179 58 333t165 268t271 179.5t364 65.5q147 0 284.5 -42t244.5 -120l-144 -206q-75 61 -179.5 91.5t-209.5 30.5q-132 0 -242 -44t-183 -120
t-113.5 -177.5t-40.5 -215.5q0 -122 51 -220.5t154.5 -159t242.5 -60.5q224 0 410 98l67 -213q-224 -129 -518 -129z" />
    <glyph glyph-name="ccaron" unicode="&#x10d;" horiz-adv-x="1052" 
d="M647 1159l-207 244l133 123l185 -189l262 189l92 -123l-305 -244h-160zM549 -27q-132 0 -238 53.5t-170.5 162.5t-64.5 257q0 165 77.5 302.5t211.5 216.5t294 79q119 0 221 -40.5t164 -116.5l-153 -187q-35 48 -94 76.5t-133 28.5q-142 0 -232 -98t-90 -238
q0 -118 68.5 -187t185.5 -69q114 0 227 76l86 -203q-159 -113 -360 -113z" />
    <glyph glyph-name="Dcaron" unicode="&#x10e;" horiz-adv-x="1517" 
d="M766 1599l-207 246l131 121l184 -186l263 186l92 -121l-305 -246h-158zM57 0l305 1434h445q156 0 282 -45.5t210 -127t129 -195t45 -249.5q0 -181 -66.5 -334.5t-183.5 -259t-281 -164.5t-354 -59h-531zM379 238h225q259 0 426.5 156.5t167.5 398.5q0 182 -115.5 292.5
t-326.5 110.5h-172z" />
    <glyph glyph-name="dcaron" unicode="&#x10f;" horiz-adv-x="1533" 
d="M1495 1530l191 -66l-150 -364l-172 59zM965 885l114 549h262l-305 -1434h-207l-6 94q-129 -123 -313 -123q-106 0 -190 39t-136 105.5t-79 150.5t-27 178q0 87 22.5 172.5t69.5 162.5t112 136t155.5 94t195.5 35q112 0 196.5 -42t135.5 -117zM590 209q127 0 215 100.5
t88 243.5q0 116 -67.5 185t-172.5 69q-126 0 -214.5 -100.5t-88.5 -243.5q0 -116 68 -185t172 -69z" />
    <glyph glyph-name="Dcroat" unicode="&#x110;" horiz-adv-x="1517" 
d="M807 1434q156 0 282 -45.5t210 -127t129 -195t45 -249.5q0 -181 -66.5 -334.5t-183.5 -259t-281 -164.5t-354 -59h-531l129 602h-141l41 197h141l135 635h445zM604 238q259 0 426.5 156.5t167.5 398.5q0 182 -115.5 292.5t-326.5 110.5h-172l-84 -397h327l-41 -197h-329
l-78 -364h225z" />
    <glyph glyph-name="dcroat" unicode="&#x111;" horiz-adv-x="1282" 
d="M1489 1300l-39 -182h-176l-238 -1118h-207l-6 94q-129 -123 -313 -123q-106 0 -190 39t-136 105.5t-79 150.5t-27 178q0 87 22.5 172.5t69.5 162.5t112 136t155.5 94t195.5 35q112 0 196.5 -42t135.5 -117l49 233h-264l38 182h263l28 134h262l-28 -134h176zM590 209
q127 0 215 100.5t88 243.5q0 116 -67.5 185t-172.5 69q-126 0 -214.5 -100.5t-88.5 -243.5q0 -116 68 -185t172 -69z" />
    <glyph glyph-name="Emacron" unicode="&#x112;" horiz-adv-x="1243" 
d="M522 1686l39 176h639l-39 -176h-639zM57 0l305 1434h953l-51 -238h-680l-78 -358h616l-49 -234h-614l-80 -366h715l-52 -238h-985z" />
    <glyph glyph-name="emacron" unicode="&#x113;" horiz-adv-x="1157" 
d="M1104 1427l-39 -178h-639l37 178h641zM659 1044q195 0 315 -115.5t120 -295.5q0 -45 -11 -103t-28 -94h-723q7 -123 89.5 -183t209.5 -60q160 0 293 83l61 -186q-176 -119 -395 -119q-228 0 -370 125.5t-142 347.5q0 120 44.5 230t120.5 191.5t185 130t231 48.5zM653 836
q-110 0 -188 -61.5t-111 -166.5h492q6 27 6 51q0 83 -52.5 130t-146.5 47z" />
    <glyph glyph-name="Ebreve" unicode="&#x114;" horiz-adv-x="1243" 
d="M862 1583q-155 0 -232.5 92.5t-51.5 239.5h161q-9 -74 31 -120t113 -46q72 0 121.5 45.5t72.5 120.5h166q-79 -332 -381 -332zM57 0l305 1434h953l-51 -238h-680l-78 -358h616l-49 -234h-614l-80 -366h715l-52 -238h-985z" />
    <glyph glyph-name="ebreve" unicode="&#x115;" horiz-adv-x="1157" 
d="M756 1149q-157 0 -235 91.5t-50 238.5h162q-9 -73 30 -119.5t113 -46.5q72 0 122 45.5t73 120.5h166q-78 -330 -381 -330zM659 1044q195 0 315 -115.5t120 -295.5q0 -45 -11 -103t-28 -94h-723q7 -123 89.5 -183t209.5 -60q160 0 293 83l61 -186q-176 -119 -395 -119
q-228 0 -370 125.5t-142 347.5q0 120 44.5 230t120.5 191.5t185 130t231 48.5zM653 836q-110 0 -188 -61.5t-111 -166.5h492q6 27 6 51q0 83 -52.5 130t-146.5 47z" />
    <glyph glyph-name="Edotaccent" unicode="&#x116;" horiz-adv-x="1243" 
d="M887 1622q-64 0 -101.5 36.5t-37.5 96.5q0 71 49 120.5t121 49.5q63 0 100 -36.5t37 -96.5q0 -74 -49 -122t-119 -48zM57 0l305 1434h953l-51 -238h-680l-78 -358h616l-49 -234h-614l-80 -366h715l-52 -238h-985z" />
    <glyph glyph-name="edotaccent" unicode="&#x117;" horiz-adv-x="1157" 
d="M756 1188q-63 0 -101.5 36t-38.5 95q0 72 49 122t121 50q63 0 100.5 -36.5t37.5 -96.5q0 -74 -49 -122t-119 -48zM1094 633q0 -45 -11 -103t-28 -94h-723q7 -123 89.5 -183t209.5 -60q160 0 293 83l61 -186q-176 -119 -395 -119q-228 0 -370 125.5t-142 347.5
q0 120 44.5 230t120.5 191.5t185 130t231 48.5q195 0 315 -115.5t120 -295.5zM653 836q-110 0 -188 -61.5t-111 -166.5h492q6 27 6 51q0 83 -52.5 130t-146.5 47z" />
    <glyph glyph-name="Eogonek" unicode="&#x118;" horiz-adv-x="1243" 
d="M1264 1196h-680l-78 -358h616l-49 -234h-614l-80 -366h715l-52 -238q-99 -51 -162 -121.5t-63 -130.5q0 -29 17 -47t49 -18q26 0 84 14l14 -146q-68 -24 -160 -24q-98 0 -155.5 48.5t-57.5 131.5q0 153 183 293h-734l305 1434h953z" />
    <glyph glyph-name="eogonek" unicode="&#x119;" horiz-adv-x="1155" 
d="M1094 633q0 -45 -11 -103t-28 -94h-723q6 -129 78.5 -185t201.5 -56q166 0 312 86l59 -199q-135 -83 -212 -165.5t-77 -147.5q0 -29 17.5 -47.5t50.5 -18.5q21 0 84 14l14 -145q-71 -25 -162 -25q-95 0 -149.5 45t-54.5 123q0 127 149 258q-23 -2 -65 -2
q-223 0 -361.5 125.5t-138.5 347.5q0 120 44.5 230t120.5 191.5t185 130t231 48.5q195 0 315 -115.5t120 -295.5zM653 836q-110 0 -188 -61.5t-111 -166.5h492q6 27 6 51q0 83 -52.5 130t-146.5 47z" />
    <glyph glyph-name="Ecaron" unicode="&#x11a;" horiz-adv-x="1243" 
d="M750 1599l-207 246l131 121l184 -186l262 186l92 -121l-305 -246h-157zM57 0l305 1434h953l-51 -238h-680l-78 -358h616l-49 -234h-614l-80 -366h715l-52 -238h-985z" />
    <glyph glyph-name="ecaron" unicode="&#x11b;" horiz-adv-x="1157" 
d="M817 1165h-160l-206 244l133 123l184 -189l262 189l92 -123zM659 1044q195 0 315 -115.5t120 -295.5q0 -45 -11 -103t-28 -94h-723q7 -123 89.5 -183t209.5 -60q160 0 293 83l61 -186q-176 -119 -395 -119q-228 0 -370 125.5t-142 347.5q0 120 44.5 230t120.5 191.5
t185 130t231 48.5zM653 836q-110 0 -188 -61.5t-111 -166.5h492q6 27 6 51q0 83 -52.5 130t-146.5 47z" />
    <glyph glyph-name="Gcircumflex" unicode="&#x11c;" horiz-adv-x="1562" 
d="M1038 1767l-262 -188l-92 123l305 246h158l207 -246l-133 -123zM856 559l45 201h559l-135 -680q-182 -107 -485 -107q-327 0 -515 170t-188 471q0 176 64 332t176 269.5t273 179t347 65.5q147 0 284.5 -42t244.5 -120l-146 -206q-74 61 -178.5 91.5t-210.5 30.5
q-107 0 -201 -31t-162.5 -85t-118 -125t-74.5 -153t-25 -167q0 -122 48 -220.5t150.5 -160t245.5 -61.5q127 0 246 29l65 319h-309z" />
    <glyph glyph-name="gcircumflex" unicode="&#x11d;" horiz-adv-x="1284" 
d="M778 1333l-262 -188l-92 123l305 243h158l209 -243l-133 -123zM1038 1018h215l-211 -1008q-47 -225 -203 -347t-388 -122q-272 0 -459 150l104 186q162 -127 346 -127q151 0 229 73.5t120 231.5l8 31q-118 -94 -279 -94q-107 0 -192.5 36.5t-139 100t-82 145t-28.5 175.5
q0 109 38.5 214.5t107.5 190.5t177 137.5t236 52.5q112 0 201 -48t141 -132zM586 231q128 0 216.5 96.5t88.5 235.5q0 111 -64 177.5t-168 66.5q-128 0 -217.5 -97t-89.5 -235q0 -110 64 -177t170 -67z" />
    <glyph glyph-name="Gbreve" unicode="&#x11e;" horiz-adv-x="1562" 
d="M1034 1583q-155 0 -232.5 92.5t-51.5 239.5h161q-9 -74 31 -120t113 -46q72 0 121.5 45.5t72.5 120.5h166q-79 -332 -381 -332zM856 559l45 201h559l-135 -680q-182 -107 -485 -107q-327 0 -515 170t-188 471q0 176 64 332t176 269.5t273 179t347 65.5q147 0 284.5 -42
t244.5 -120l-146 -206q-74 61 -178.5 91.5t-210.5 30.5q-107 0 -201 -31t-162.5 -85t-118 -125t-74.5 -153t-25 -167q0 -122 48 -220.5t150.5 -160t245.5 -61.5q127 0 246 29l65 319h-309z" />
    <glyph glyph-name="gbreve" unicode="&#x11f;" horiz-adv-x="1284" 
d="M772 1149q-157 0 -235 91.5t-50 238.5h162q-9 -73 30.5 -119.5t113.5 -46.5q72 0 121.5 45.5t72.5 120.5h166q-78 -330 -381 -330zM1038 1018h215l-211 -1008q-47 -225 -203 -347t-388 -122q-272 0 -459 150l104 186q162 -127 346 -127q151 0 229 73.5t120 231.5l8 31
q-118 -94 -279 -94q-107 0 -192.5 36.5t-139 100t-82 145t-28.5 175.5q0 109 38.5 214.5t107.5 190.5t177 137.5t236 52.5q112 0 201 -48t141 -132zM586 231q128 0 216.5 96.5t88.5 235.5q0 111 -64 177.5t-168 66.5q-128 0 -217.5 -97t-89.5 -235q0 -110 64 -177t170 -67z
" />
    <glyph glyph-name="Gdotaccent" unicode="&#x120;" horiz-adv-x="1562" 
d="M1059 1622q-64 0 -101.5 36.5t-37.5 96.5q0 71 49 120.5t121 49.5q63 0 100 -36.5t37 -96.5q0 -74 -49 -122t-119 -48zM856 559l45 201h559l-135 -680q-182 -107 -485 -107q-327 0 -515 170t-188 471q0 176 64 332t176 269.5t273 179t347 65.5q147 0 284.5 -42
t244.5 -120l-146 -206q-74 61 -178.5 91.5t-210.5 30.5q-107 0 -201 -31t-162.5 -85t-118 -125t-74.5 -153t-25 -167q0 -122 48 -220.5t150.5 -160t245.5 -61.5q127 0 246 29l65 319h-309z" />
    <glyph glyph-name="gdotaccent" unicode="&#x121;" horiz-adv-x="1284" 
d="M774 1188q-63 0 -101 36t-38 95q0 72 49 122t121 50q63 0 100 -36.5t37 -96.5q0 -74 -49 -122t-119 -48zM1038 1018h215l-211 -1008q-47 -225 -203 -347t-388 -122q-272 0 -459 150l104 186q162 -127 346 -127q151 0 229 73.5t120 231.5l8 31q-118 -94 -279 -94
q-107 0 -192.5 36.5t-139 100t-82 145t-28.5 175.5q0 109 38.5 214.5t107.5 190.5t177 137.5t236 52.5q112 0 201 -48t141 -132zM586 231q128 0 216.5 96.5t88.5 235.5q0 111 -64 177.5t-168 66.5q-128 0 -217.5 -97t-89.5 -235q0 -110 64 -177t170 -67z" />
    <glyph glyph-name="uni0122" unicode="&#x122;" horiz-adv-x="1562" 
d="M856 559l45 201h559l-135 -680q-182 -107 -485 -107q-327 0 -515 170t-188 471q0 176 64 332t176 269.5t273 179t347 65.5q147 0 284.5 -42t244.5 -120l-146 -206q-74 61 -178.5 91.5t-210.5 30.5q-107 0 -201 -31t-162.5 -85t-118 -125t-74.5 -153t-25 -167
q0 -122 48 -220.5t150.5 -160t245.5 -61.5q127 0 246 29l65 319h-309zM809 -104q58 0 93.5 -39.5t35.5 -102.5q0 -111 -81 -218.5t-204 -172.5l-65 105q109 61 164 174q-42 -6 -69.5 24t-27.5 78q0 66 44 109t110 43z" />
    <glyph glyph-name="uni0123" unicode="&#x123;" horiz-adv-x="1263" 
d="M735 1122q-48 0 -81 31t-33 92q0 105 77 204.5t195 162.5l51 -90q-64 -37 -101.5 -74t-62.5 -88q43 4 68.5 -26t25.5 -74q0 -53 -36.5 -95.5t-102.5 -42.5zM1038 1018h215l-211 -1008q-47 -225 -203 -347t-388 -122q-272 0 -459 150l104 186q162 -127 346 -127
q151 0 229 73.5t120 231.5l8 31q-118 -94 -279 -94q-107 0 -192.5 36.5t-139 100t-82 145t-28.5 175.5q0 109 38.5 214.5t107.5 190.5t177 137.5t236 52.5q112 0 201 -48t141 -132zM586 231q128 0 216.5 96.5t88.5 235.5q0 111 -64 177.5t-168 66.5q-128 0 -217.5 -97
t-89.5 -235q0 -110 64 -177t170 -67z" />
    <glyph glyph-name="Hcircumflex" unicode="&#x124;" horiz-adv-x="1552" 
d="M1028 1767l-262 -188l-92 123l305 246h158l206 -246l-133 -123zM1317 1434h270l-305 -1434h-270l127 592h-682l-127 -592h-273l305 1434h273l-129 -603h682z" />
    <glyph glyph-name="hcircumflex" unicode="&#x125;" horiz-adv-x="1239" 
d="M518 1767l-262 -188l-92 123l305 246h158l207 -246l-134 -123zM791 1044q119 0 207.5 -64.5t125 -173t9.5 -233.5l-123 -573h-262l116 551q29 133 -23.5 205.5t-156.5 72.5q-101 0 -175 -74t-99 -196l-117 -559h-262l303 1434h264l-100 -488q116 98 293 98z" />
    <glyph glyph-name="Hbar" unicode="&#x126;" horiz-adv-x="1552" 
d="M1696 1210l-41 -196h-158l-215 -1014h-270l127 592h-682l-127 -592h-273l215 1014h-157l43 196h157l47 224h273l-47 -224h682l47 224h270l-47 -224h156zM1188 831l39 183h-682l-39 -183h682z" />
    <glyph glyph-name="hbar" unicode="&#x127;" horiz-adv-x="1239" 
d="M791 1044q119 0 207.5 -64.5t125 -173t9.5 -233.5l-123 -573h-262l116 551q29 133 -23.5 205.5t-156.5 72.5q-101 0 -175 -74t-99 -196l-117 -559h-262l235 1118h-174l39 182h174l29 134h264l-27 -134h260l-38 -182h-261l-34 -172q116 98 293 98z" />
    <glyph glyph-name="Itilde" unicode="&#x128;" horiz-adv-x="598" 
d="M317 1638l-145 68q34 90 97.5 141t140.5 51q49 0 94.5 -18t78.5 -35.5t52 -17.5q64 0 110 82l148 -68q-35 -91 -99 -141.5t-141 -50.5q-49 0 -94.5 17.5t-78.5 35.5t-52 18q-34 0 -64.5 -23.5t-46.5 -58.5zM57 0l305 1434h273l-305 -1434h-273z" />
    <glyph glyph-name="itilde" unicode="&#x129;" horiz-adv-x="530" 
d="M229 1202l-145 68q33 91 97 142.5t141 51.5q49 0 94.5 -18t78.5 -35.5t52 -17.5q64 0 110 82l148 -68q-35 -92 -98.5 -143.5t-141.5 -51.5q-49 0 -94.5 18.5t-78.5 37t-52 18.5q-34 0 -64.5 -24.5t-46.5 -59.5zM29 0l215 1018h262l-215 -1018h-262z" />
    <glyph glyph-name="Imacron" unicode="&#x12a;" horiz-adv-x="598" 
d="M207 1686l39 176h639l-39 -176h-639zM57 0l305 1434h273l-305 -1434h-273z" />
    <glyph glyph-name="imacron" unicode="&#x12b;" horiz-adv-x="530" 
d="M98 1249l37 178h641l-39 -178h-639zM29 0l215 1018h262l-215 -1018h-262z" />
    <glyph glyph-name="Ibreve" unicode="&#x12c;" horiz-adv-x="598" 
d="M547 1583q-156 0 -233.5 92.5t-51.5 239.5h162q-9 -74 30.5 -120t112.5 -46q72 0 122 45.5t73 120.5h166q-79 -332 -381 -332zM57 0l305 1434h273l-305 -1434h-273z" />
    <glyph glyph-name="ibreve" unicode="&#x12d;" horiz-adv-x="530" 
d="M426 1149q-157 0 -235 91.5t-50 238.5h162q-9 -73 30 -119.5t113 -46.5q72 0 122 45.5t73 120.5h166q-78 -330 -381 -330zM29 0l215 1018h262l-215 -1018h-262z" />
    <glyph glyph-name="Iogonek" unicode="&#x12e;" horiz-adv-x="598" 
d="M362 1434h273l-305 -1434h-2q-99 -51 -162.5 -121.5t-63.5 -130.5q0 -29 17 -47t49 -18q26 0 84 14l14 -146q-68 -24 -160 -24q-98 0 -155 48.5t-57 131.5q0 154 182 293h-19z" />
    <glyph glyph-name="iogonek" unicode="&#x12f;" horiz-adv-x="544" 
d="M459 1462q64 0 103.5 -36t39.5 -95q0 -68 -49.5 -112.5t-122.5 -44.5q-64 0 -103.5 37t-39.5 94q0 69 50.5 113t121.5 44zM35 0l215 1018h262l-215 -1018q-99 -51 -162 -121.5t-63 -130.5q0 -29 16.5 -47t48.5 -18q26 0 84 14l15 -146q-68 -24 -160 -24
q-98 0 -155.5 48.5t-57.5 131.5q0 154 182 293h-10z" />
    <glyph glyph-name="Idotaccent" unicode="&#x130;" horiz-adv-x="598" 
d="M569 1622q-64 0 -101.5 36.5t-37.5 96.5q0 71 49 120.5t121 49.5q63 0 100 -36.5t37 -96.5q0 -74 -49 -122t-119 -48zM57 0l305 1434h273l-305 -1434h-273z" />
    <glyph glyph-name="dotlessi" unicode="&#x131;" horiz-adv-x="530" 
d="M29 0l215 1018h262l-215 -1018h-262z" />
    <glyph glyph-name="IJ" unicode="&#x132;" horiz-adv-x="1517" 
d="M57 0l305 1434h273l-305 -1434h-273zM821 -25q-142 0 -291 41l64 203q84 -22 178 -22q107 0 184.5 57.5t102.5 171.5l213 1008h272l-225 -1055q-42 -198 -174.5 -301t-323.5 -103z" />
    <glyph glyph-name="ij" unicode="&#x133;" horiz-adv-x="1095" 
d="M430 1174q-64 0 -103.5 37t-39.5 94q0 69 50.5 113t121.5 44q64 0 103.5 -36t39.5 -95q0 -68 -49.5 -112.5t-122.5 -44.5zM979 1174q-64 0 -103.5 37t-39.5 94q0 69 50.5 113t121.5 44q65 0 104 -36t39 -95q0 -68 -49.5 -112.5t-122.5 -44.5zM35 0l215 1018h262
l-215 -1018h-262zM444 -457q-131 0 -245 74l59 190q64 -43 143 -43q69 0 110.5 41t61.5 138l226 1075h262l-234 -1112q-38 -186 -131.5 -274.5t-251.5 -88.5z" />
    <glyph glyph-name="Jcircumflex" unicode="&#x134;" horiz-adv-x="919" 
d="M596 1579l-92 123l305 246h158l207 -246l-134 -123l-182 188zM223 -25q-142 0 -291 41l64 203q84 -22 178 -22q107 0 184.5 57.5t102.5 171.5l213 1008h272l-225 -1055q-42 -198 -174.5 -301t-323.5 -103z" />
    <glyph glyph-name="jcircumflex" unicode="&#x135;" horiz-adv-x="540" 
d="M176 1145l-92 123l305 243h158l209 -243l-133 -123l-185 188zM-100 -457q-132 0 -246 74l59 190q64 -43 144 -43q69 0 110.5 41t61.5 138l225 1075h262l-233 -1112q-38 -186 -131.5 -274.5t-251.5 -88.5z" />
    <glyph glyph-name="uni0136" unicode="&#x136;" horiz-adv-x="1417" 
d="M57 0l305 1434h273l-143 -656l749 656h342l-776 -670l496 -764h-328l-387 596l-156 -129l-102 -467h-273zM416 -637l-66 105q109 61 164 174q-42 -6 -69 24t-27 78q0 66 43.5 109t109.5 43q58 0 93.5 -39.5t35.5 -102.5q0 -111 -81 -218.5t-203 -172.5z" />
    <glyph glyph-name="uni0137" unicode="&#x137;" horiz-adv-x="1126" 
d="M1202 1018l-524 -438l307 -580h-297l-203 418l-129 -109l-65 -309h-262l305 1434h262l-168 -793l455 377h319zM414 -104q58 0 93.5 -39.5t35.5 -102.5q0 -111 -81 -218.5t-204 -172.5l-65 105q107 60 163 174q-42 -6 -69 24t-27 78q0 66 44 109t110 43z" />
    <glyph glyph-name="kgreenlandic" unicode="&#x138;" horiz-adv-x="1126" 
d="M1202 1018l-520 -445l303 -573h-297l-199 410l-137 -117l-61 -293h-262l217 1018h262l-80 -371l455 371h319z" />
    <glyph glyph-name="Lacute" unicode="&#x139;" horiz-adv-x="1122" 
d="M494 1579l-74 143l428 265l84 -168zM57 0l305 1434h273l-256 -1196h635l-51 -238h-906z" />
    <glyph glyph-name="lacute" unicode="&#x13a;" horiz-adv-x="536" 
d="M459 1579l-74 143l428 265l84 -168zM29 -2l305 1436h262l-305 -1436h-262z" />
    <glyph glyph-name="uni013B" unicode="&#x13b;" horiz-adv-x="1122" 
d="M57 0l305 1434h273l-256 -1196h635l-51 -238h-906zM307 -637l-65 105q109 61 164 174q-42 -6 -69.5 24t-27.5 78q0 66 44 109t110 43q58 0 93.5 -39.5t35.5 -102.5q0 -111 -81 -218.5t-204 -172.5z" />
    <glyph glyph-name="uni013C" unicode="&#x13c;" horiz-adv-x="536" 
d="M29 -2l305 1436h262l-305 -1436h-262zM-33 -637l-65 105q109 61 164 174q-42 -6 -69.5 24t-27.5 78q0 66 44 109t110 43q58 0 93.5 -39.5t35.5 -102.5q0 -111 -81 -218.5t-204 -172.5z" />
    <glyph glyph-name="Lcaron" unicode="&#x13d;" horiz-adv-x="1120" 
d="M926 1071l-172 57l131 373l190 -65zM57 0l305 1434h273l-256 -1196h635l-51 -238h-906z" />
    <glyph glyph-name="lcaron" unicode="&#x13e;" horiz-adv-x="788" 
d="M788 1092l-172 59l132 371l190 -66zM29 -2l305 1436h262l-305 -1436h-262z" />
    <glyph glyph-name="Ldot" unicode="&#x13f;" horiz-adv-x="1122" 
d="M57 0l305 1434h273l-256 -1196h635l-51 -238h-906zM893 608q-64 0 -101.5 36.5t-37.5 96.5q0 71 49 120.5t121 49.5q62 0 98.5 -36.5t36.5 -96.5q0 -74 -48 -122t-118 -48z" />
    <glyph glyph-name="ldot" unicode="&#x140;" horiz-adv-x="929" 
d="M29 -2l305 1436h262l-305 -1436h-262zM741 506q-61 0 -103 38t-42 105q0 85 55 135t127 50q63 0 105.5 -38t42.5 -108q0 -82 -56.5 -132t-128.5 -50z" />
    <glyph glyph-name="Lslash" unicode="&#x141;" horiz-adv-x="1122" 
d="M379 238h635l-51 -238h-906l111 516l-90 -37l-76 176l215 90l145 689h273l-121 -562l207 89l78 -183l-334 -139z" />
    <glyph glyph-name="lslash" unicode="&#x142;" horiz-adv-x="536" 
d="M653 764l-223 -109l-139 -657h-262l108 514l-129 -63l-51 141l221 108l156 736h262l-125 -590l133 65z" />
    <glyph glyph-name="Nacute" unicode="&#x143;" horiz-adv-x="1564" 
d="M1417 1819l-438 -240l-74 143l428 265zM1350 1434h252l-306 -1434h-260l-508 1024l-219 -1024h-252l305 1434h261l510 -1022z" />
    <glyph glyph-name="nacute" unicode="&#x144;" horiz-adv-x="1239" 
d="M1133 1384l-439 -241l-73 143l428 264zM791 1044q119 0 208 -62t125.5 -171t8.5 -238l-123 -573h-262l116 551q29 133 -23.5 205.5t-156.5 72.5q-101 0 -175 -74t-99 -196l-117 -559h-262l215 1018h209l4 -107q130 133 332 133z" />
    <glyph glyph-name="uni0145" unicode="&#x145;" horiz-adv-x="1564" 
d="M1350 1434h252l-306 -1434h-260l-508 1024l-219 -1024h-252l305 1434h261l510 -1022zM643 -104q58 0 93.5 -39.5t35.5 -102.5q0 -111 -81 -218.5t-204 -172.5l-65 105q109 61 164 174q-42 -6 -69.5 24t-27.5 78q0 66 44 109t110 43z" />
    <glyph glyph-name="uni0146" unicode="&#x146;" horiz-adv-x="1239" 
d="M791 1044q119 0 208 -62t125.5 -171t8.5 -238l-123 -573h-262l116 551q29 133 -23.5 205.5t-156.5 72.5q-101 0 -175 -74t-99 -196l-117 -559h-262l215 1018h209l4 -107q130 133 332 133zM481 -104q58 0 93.5 -39.5t35.5 -102.5q0 -111 -81 -218.5t-203 -172.5l-66 105
q109 61 164 174q-42 -6 -69 24t-27 78q0 66 43.5 109t109.5 43z" />
    <glyph glyph-name="Ncaron" unicode="&#x147;" horiz-adv-x="1564" 
d="M1077 1599h-157l-207 246l131 121l184 -186l262 186l92 -121zM1350 1434h252l-306 -1434h-260l-508 1024l-219 -1024h-252l305 1434h261l510 -1022z" />
    <glyph glyph-name="ncaron" unicode="&#x148;" horiz-adv-x="1239" 
d="M842 1165h-160l-207 244l133 123l185 -189l262 189l92 -123zM791 1044q119 0 208 -62t125.5 -171t8.5 -238l-123 -573h-262l116 551q29 133 -23.5 205.5t-156.5 72.5q-101 0 -175 -74t-99 -196l-117 -559h-262l215 1018h209l4 -107q130 133 332 133z" />
    <glyph glyph-name="Eng" unicode="&#x14a;" horiz-adv-x="1566" 
d="M1602 1434l-304 -1434h-4l-10 -53q-41 -199 -174 -301.5t-324 -102.5q-141 0 -290 41l61 203q103 -25 180 -25q108 0 193 58t110 168l-512 1036l-219 -1024h-252l305 1434h261l510 -1022l124 589l93 433h252z" />
    <glyph glyph-name="eng" unicode="&#x14b;" horiz-adv-x="1239" 
d="M795 1044q117 0 204.5 -64.5t124 -173t9.5 -233.5l-156 -723q-30 -144 -133.5 -226.5t-247.5 -82.5q-124 0 -234 64l64 186q54 -39 121 -39t115 38t63 108l139 653q29 133 -23.5 205.5t-156.5 72.5q-101 0 -175 -74t-99 -196l-117 -559h-262l215 1018h207l4 -107
q133 133 338 133z" />
    <glyph glyph-name="Omacron" unicode="&#x14c;" horiz-adv-x="1708" 
d="M680 1686l39 176h639l-39 -176h-639zM823 -27q-153 0 -281.5 51.5t-216 141t-136 211t-48.5 260.5q0 165 60.5 315t167 262.5t265 179t343.5 66.5q153 0 282.5 -51t217 -140t136 -210t48.5 -260q0 -167 -60 -317t-167 -263t-266 -179.5t-345 -66.5zM850 219q114 0 214 46
t168.5 122t108 176.5t39.5 208.5q0 123 -51 222.5t-150 159.5t-229 60q-114 0 -214 -45.5t-168 -122t-107 -176.5t-39 -208q0 -190 116 -316.5t312 -126.5z" />
    <glyph glyph-name="omacron" unicode="&#x14d;" horiz-adv-x="1222" 
d="M424 1249l37 178h641l-39 -178h-639zM557 -29q-205 0 -340 131t-135 357q0 128 47.5 238.5t127 186t185 118t220.5 42.5q208 0 344.5 -129t136.5 -352q0 -171 -82 -308t-215 -210.5t-289 -73.5zM578 211q127 0 214 101.5t87 240.5q0 114 -61.5 184t-166.5 70
q-129 0 -216 -101t-87 -241q0 -112 62 -183t168 -71z" />
    <glyph glyph-name="Obreve" unicode="&#x14e;" horiz-adv-x="1708" 
d="M1020 1583q-156 0 -233.5 92.5t-51.5 239.5h162q-9 -74 30.5 -120t112.5 -46q72 0 122 45.5t73 120.5h166q-79 -332 -381 -332zM823 -27q-153 0 -281.5 51.5t-216 141t-136 211t-48.5 260.5q0 165 60.5 315t167 262.5t265 179t343.5 66.5q153 0 282.5 -51t217 -140
t136 -210t48.5 -260q0 -167 -60 -317t-167 -263t-266 -179.5t-345 -66.5zM850 219q114 0 214 46t168.5 122t108 176.5t39.5 208.5q0 123 -51 222.5t-150 159.5t-229 60q-114 0 -214 -45.5t-168 -122t-107 -176.5t-39 -208q0 -190 116 -316.5t312 -126.5z" />
    <glyph glyph-name="obreve" unicode="&#x14f;" horiz-adv-x="1222" 
d="M754 1149q-157 0 -235 91.5t-50 238.5h162q-9 -73 30 -119.5t113 -46.5q72 0 122 45.5t73 120.5h166q-78 -330 -381 -330zM557 -29q-205 0 -340 131t-135 357q0 128 47.5 238.5t127 186t185 118t220.5 42.5q208 0 344.5 -129t136.5 -352q0 -171 -82 -308t-215 -210.5
t-289 -73.5zM578 211q127 0 214 101.5t87 240.5q0 114 -61.5 184t-166.5 70q-129 0 -216 -101t-87 -241q0 -112 62 -183t168 -71z" />
    <glyph glyph-name="Ohungarumlaut" unicode="&#x150;" horiz-adv-x="1708" 
d="M807 1573l-111 133l377 330l125 -150zM1260 1573l-111 133l377 330l123 -150zM823 -27q-153 0 -281.5 51.5t-216 141t-136 211t-48.5 260.5q0 165 60.5 315t167 262.5t265 179t343.5 66.5q153 0 282.5 -51t217 -140t136 -210t48.5 -260q0 -167 -60 -317t-167 -263
t-266 -179.5t-345 -66.5zM850 219q114 0 214 46t168.5 122t108 176.5t39.5 208.5q0 123 -51 222.5t-150 159.5t-229 60q-114 0 -214 -45.5t-168 -122t-107 -176.5t-39 -208q0 -190 116 -316.5t312 -126.5z" />
    <glyph glyph-name="ohungarumlaut" unicode="&#x151;" horiz-adv-x="1222" 
d="M487 1139l-110 131l377 329l123 -149zM938 1139l-109 131l377 329l123 -149zM557 -29q-205 0 -340 131t-135 357q0 128 47.5 238.5t127 186t185 118t220.5 42.5q208 0 344.5 -129t136.5 -352q0 -171 -82 -308t-215 -210.5t-289 -73.5zM578 211q127 0 214 101.5t87 240.5
q0 114 -61.5 184t-166.5 70q-129 0 -216 -101t-87 -241q0 -112 62 -183t168 -71z" />
    <glyph glyph-name="OE" unicode="&#x152;" horiz-adv-x="2312" 
d="M2333 1196h-680l-76 -358h614l-49 -234h-614l-78 -366h713l-52 -238h-985l4 16q-151 -43 -309 -43q-161 0 -291 48t-215.5 134t-131.5 203t-46 256q0 176 64 332t176 269.5t273 179t347 65.5q230 0 420 -96l15 70h952zM860 217q169 0 326 59l176 830q-74 54 -173 81
t-198 27q-132 0 -241.5 -44t-182.5 -120t-113 -177.5t-40 -215.5q0 -122 50.5 -220.5t153.5 -159t242 -60.5z" />
    <glyph glyph-name="oe" unicode="&#x153;" horiz-adv-x="1957" 
d="M1896 633q0 -45 -10.5 -103.5t-27.5 -93.5h-723q7 -123 89.5 -183t209.5 -60q159 0 292 83l62 -186q-176 -119 -395 -119q-134 0 -241.5 44.5t-174.5 129.5q-82 -83 -191 -128.5t-229 -45.5q-205 0 -340 131t-135 357q0 128 47.5 238.5t127 186t185 118t220.5 42.5
q121 0 221 -45t166 -131q80 83 186.5 129.5t228.5 46.5q193 0 312.5 -115.5t119.5 -295.5zM1456 836q-110 0 -188 -61.5t-111 -166.5h492q6 27 6 51q0 83 -52.5 130t-146.5 47zM578 211q127 0 214 101.5t87 240.5q0 114 -61.5 184t-166.5 70q-129 0 -216 -101t-87 -241
q0 -112 62 -183t168 -71z" />
    <glyph glyph-name="Racute" unicode="&#x154;" horiz-adv-x="1396" 
d="M1235 1819l-438 -240l-74 143l428 265zM1333 1020q0 -196 -94.5 -330.5t-263.5 -187.5l235 -502h-299l-217 471h-264l-100 -471h-273l305 1434h545q193 0 309.5 -114.5t116.5 -299.5zM584 1196l-103 -485h264q153 0 236.5 72t83.5 210q0 103 -69 153t-185 50h-227z" />
    <glyph glyph-name="racute" unicode="&#x155;" horiz-adv-x="815" 
d="M936 1384l-438 -241l-74 143l428 264zM455 909q123 135 313 135q80 0 135 -32l-80 -193q-42 17 -80 17q-121 0 -214.5 -84.5t-120.5 -208.5l-115 -543h-262l215 1018h209v-109z" />
    <glyph glyph-name="uni0156" unicode="&#x156;" horiz-adv-x="1396" 
d="M1333 1020q0 -196 -94.5 -330.5t-263.5 -187.5l235 -502h-299l-217 471h-264l-100 -471h-273l305 1434h545q193 0 309.5 -114.5t116.5 -299.5zM584 1196l-103 -485h264q153 0 236.5 72t83.5 210q0 103 -69 153t-185 50h-227zM535 -104q58 0 93.5 -39.5t35.5 -102.5
q0 -111 -81 -218.5t-204 -172.5l-66 105q109 61 164 174q-42 -6 -69 24t-27 78q0 66 44 109t110 43z" />
    <glyph glyph-name="uni0157" unicode="&#x157;" horiz-adv-x="815" 
d="M768 1044q80 0 135 -32l-80 -193q-42 17 -80 17q-121 0 -214.5 -84.5t-120.5 -208.5l-115 -543h-262l215 1018h209v-109q123 135 313 135zM123 -104q58 0 93.5 -39.5t35.5 -102.5q0 -111 -81 -218.5t-204 -172.5l-65 105q109 61 164 174q-42 -6 -69.5 24t-27.5 78
q0 66 44 109t110 43z" />
    <glyph glyph-name="Rcaron" unicode="&#x158;" horiz-adv-x="1396" 
d="M895 1599h-158l-207 246l132 121l184 -186l262 186l92 -121zM1333 1020q0 -196 -94.5 -330.5t-263.5 -187.5l235 -502h-299l-217 471h-264l-100 -471h-273l305 1434h545q193 0 309.5 -114.5t116.5 -299.5zM584 1196l-103 -485h264q153 0 236.5 72t83.5 210q0 103 -69 153
t-185 50h-227z" />
    <glyph glyph-name="rcaron" unicode="&#x159;" horiz-adv-x="815" 
d="M645 1165h-160l-206 244l133 123l184 -189l262 189l92 -123zM455 909q123 135 313 135q80 0 135 -32l-80 -193q-42 17 -80 17q-121 0 -214.5 -84.5t-120.5 -208.5l-115 -543h-262l215 1018h209v-109z" />
    <glyph glyph-name="Sacute" unicode="&#x15a;" horiz-adv-x="1200" 
d="M791 1579l-74 143l428 265l84 -168zM518 -23q-256 0 -514 138l96 217q105 -56 220.5 -87.5t216.5 -31.5q133 0 218 55t85 154q0 37 -15 67.5t-36.5 50.5t-60 39.5t-70.5 31t-83 26.5q-154 46 -219 84q-157 94 -159 274q0 141 79.5 248.5t211 162t292.5 54.5
q237 0 451 -112l-96 -226q-160 103 -351 103q-136 0 -226.5 -53t-90.5 -152q0 -31 12.5 -55.5t33.5 -41.5t52.5 -31.5t63.5 -25.5t74 -24q9 -3 14 -4q48 -14 81 -25.5t78 -31t75.5 -39.5t63 -51t52 -66.5t32.5 -84.5t13 -106q0 -134 -80 -239t-215 -161.5t-299 -56.5z" />
    <glyph glyph-name="sacute" unicode="&#x15b;" horiz-adv-x="944" 
d="M549 1143l-74 143l428 264l84 -166zM412 -29q-238 0 -414 148l74 196q59 -62 155 -100.5t183 -38.5q76 0 119.5 29t43.5 90q0 22 -12 41.5t-28.5 33t-47 28.5t-53.5 23.5t-63 22.5q-56 19 -91.5 35.5t-76 45.5t-60.5 71t-20 98q0 165 122.5 257.5t307.5 92.5
q188 0 352 -110l-76 -186q-48 45 -127 71.5t-153 26.5q-75 0 -123.5 -29t-48.5 -82q0 -36 45 -63.5t127 -55.5q49 -18 81 -31.5t74.5 -39.5t67.5 -54.5t43 -73.5t18 -100q0 -107 -59.5 -187.5t-153.5 -119.5t-206 -39z" />
    <glyph glyph-name="Scircumflex" unicode="&#x15c;" horiz-adv-x="1200" 
d="M584 1579l-92 123l305 246h157l207 -246l-133 -123l-182 188zM518 -23q-256 0 -514 138l96 217q105 -56 220.5 -87.5t216.5 -31.5q133 0 218 55t85 154q0 37 -15 67.5t-36.5 50.5t-60 39.5t-70.5 31t-83 26.5q-154 46 -219 84q-157 94 -159 274q0 141 79.5 248.5t211 162
t292.5 54.5q237 0 451 -112l-96 -226q-160 103 -351 103q-136 0 -226.5 -53t-90.5 -152q0 -31 12.5 -55.5t33.5 -41.5t52.5 -31.5t63.5 -25.5t74 -24q9 -3 14 -4q48 -14 81 -25.5t78 -31t75.5 -39.5t63 -51t52 -66.5t32.5 -84.5t13 -106q0 -134 -80 -239t-215 -161.5
t-299 -56.5z" />
    <glyph glyph-name="scircumflex" unicode="&#x15d;" horiz-adv-x="944" 
d="M377 1145l-92 123l305 243h158l208 -243l-133 -123l-184 188zM412 -29q-238 0 -414 148l74 196q59 -62 155 -100.5t183 -38.5q76 0 119.5 29t43.5 90q0 22 -12 41.5t-28.5 33t-47 28.5t-53.5 23.5t-63 22.5q-56 19 -91.5 35.5t-76 45.5t-60.5 71t-20 98
q0 165 122.5 257.5t307.5 92.5q188 0 352 -110l-76 -186q-48 45 -127 71.5t-153 26.5q-75 0 -123.5 -29t-48.5 -82q0 -36 45 -63.5t127 -55.5q49 -18 81 -31.5t74.5 -39.5t67.5 -54.5t43 -73.5t18 -100q0 -107 -59.5 -187.5t-153.5 -119.5t-206 -39z" />
    <glyph glyph-name="Scedilla" unicode="&#x15e;" horiz-adv-x="1200" 
d="M784 1225q-136 0 -226.5 -53t-90.5 -152q0 -31 12.5 -55.5t33.5 -41.5t52.5 -31.5t63.5 -25.5t74 -24q9 -3 14 -4q48 -14 81 -25.5t78 -31t75.5 -39.5t63 -51t52 -66.5t32.5 -84.5t13 -106q0 -186 -147.5 -309.5t-372.5 -142.5l-37 -74q54 -14 86.5 -56t32.5 -100
q0 -107 -88 -166t-213 -59q-106 0 -209 41l59 141q61 -24 125 -24q53 0 89 22t36 60q0 24 -23 38.5t-67 14.5h-35l64 164q-205 21 -408 131l96 217q105 -56 220.5 -87.5t216.5 -31.5q133 0 218 55t85 154q0 37 -15 67.5t-36.5 50.5t-60 39.5t-70.5 31t-83 26.5
q-154 46 -219 84q-157 94 -159 274q0 141 79.5 248.5t211 162t292.5 54.5q237 0 451 -112l-96 -226q-160 103 -351 103z" />
    <glyph glyph-name="scedilla" unicode="&#x15f;" horiz-adv-x="944" 
d="M547 616q49 -18 81 -31.5t74.5 -39.5t67.5 -54.5t43 -73.5t18 -100q0 -105 -57 -184t-147 -119t-199 -43l-33 -63q54 -14 86.5 -56t32.5 -100q0 -107 -88 -166t-213 -59q-106 0 -209 41l59 141q61 -24 125 -24q53 0 89 22t36 60q0 24 -23 38.5t-67 14.5h-35l66 168
q-142 35 -256 131l74 196q59 -62 155 -100.5t183 -38.5q76 0 119.5 29t43.5 90q0 22 -12 41.5t-28.5 33t-47 28.5t-53.5 23.5t-63 22.5q-56 19 -91.5 35.5t-76 45.5t-60.5 71t-20 98q0 165 122.5 257.5t307.5 92.5q188 0 352 -110l-76 -186q-48 45 -127 71.5t-153 26.5
q-75 0 -123.5 -29t-48.5 -82q0 -36 45 -63.5t127 -55.5z" />
    <glyph glyph-name="Scaron" unicode="&#x160;" horiz-adv-x="1200" 
d="M731 1599l-207 246l131 121l185 -186l262 186l92 -121l-305 -246h-158zM518 -23q-256 0 -514 138l96 217q105 -56 220.5 -87.5t216.5 -31.5q133 0 218 55t85 154q0 37 -15 67.5t-36.5 50.5t-60 39.5t-70.5 31t-83 26.5q-154 46 -219 84q-157 94 -159 274
q0 141 79.5 248.5t211 162t292.5 54.5q237 0 451 -112l-96 -226q-160 103 -351 103q-136 0 -226.5 -53t-90.5 -152q0 -31 12.5 -55.5t33.5 -41.5t52.5 -31.5t63.5 -25.5t74 -24q9 -3 14 -4q48 -14 81 -25.5t78 -31t75.5 -39.5t63 -51t52 -66.5t32.5 -84.5t13 -106
q0 -134 -80 -239t-215 -161.5t-299 -56.5z" />
    <glyph glyph-name="scaron" unicode="&#x161;" horiz-adv-x="944" 
d="M537 1165l-207 244l133 123l184 -189l262 189l92 -123l-305 -244h-159zM412 -29q-238 0 -414 148l74 196q59 -62 155 -100.5t183 -38.5q76 0 119.5 29t43.5 90q0 22 -12 41.5t-28.5 33t-47 28.5t-53.5 23.5t-63 22.5q-56 19 -91.5 35.5t-76 45.5t-60.5 71t-20 98
q0 165 122.5 257.5t307.5 92.5q188 0 352 -110l-76 -186q-48 45 -127 71.5t-153 26.5q-75 0 -123.5 -29t-48.5 -82q0 -36 45 -63.5t127 -55.5q49 -18 81 -31.5t74.5 -39.5t67.5 -54.5t43 -73.5t18 -100q0 -107 -59.5 -187.5t-153.5 -119.5t-206 -39z" />
    <glyph glyph-name="uni0162" unicode="&#x162;" horiz-adv-x="1228" 
d="M373 0l254 1196h-430l51 238h1132l-51 -238h-430l-254 -1196h-272zM317 -637l-65 105q109 61 164 174q-42 -6 -69.5 24t-27.5 78q0 66 44 109t110 43q58 0 93.5 -39.5t35.5 -102.5q0 -111 -81 -218.5t-204 -172.5z" />
    <glyph glyph-name="uni0163" unicode="&#x163;" horiz-adv-x="808" 
d="M455 -27q-173 0 -250.5 88.5t-40.5 266.5l102 489h-168l43 201h164l64 282h262l-62 -282h240l-41 -201h-240l-100 -459q-37 -170 117 -170q54 0 112 17l15 -201q-105 -31 -217 -31zM164 -637l-66 105q109 61 164 174q-42 -6 -69 24t-27 78q0 66 43.5 109t109.5 43
q58 0 94 -39.5t36 -102.5q0 -111 -81 -218.5t-204 -172.5z" />
    <glyph glyph-name="Tcaron" unicode="&#x164;" horiz-adv-x="1228" 
d="M750 1599l-207 246l131 121l184 -186l262 186l92 -121l-305 -246h-157zM373 0l254 1196h-430l51 238h1132l-51 -238h-430l-254 -1196h-272z" />
    <glyph glyph-name="tcaron" unicode="&#x165;" horiz-adv-x="808" 
d="M899 1092l-172 59l131 371l191 -66zM455 -27q-173 0 -250.5 88.5t-40.5 266.5l102 489h-168l43 201h164l64 282h262l-62 -282h240l-41 -201h-240l-100 -459q-37 -170 117 -170q54 0 112 17l15 -201q-105 -31 -217 -31z" />
    <glyph glyph-name="Tbar" unicode="&#x166;" horiz-adv-x="1228" 
d="M1329 1196h-430l-98 -461h235l-41 -196h-235l-115 -539h-272l114 539h-233l41 196h233l99 461h-430l51 238h1132z" />
    <glyph glyph-name="tbar" unicode="&#x167;" horiz-adv-x="808" 
d="M768 817h-240l-43 -199h246l-39 -182h-248l-16 -78q-37 -170 117 -170q54 0 112 17l15 -201q-105 -31 -217 -31q-173 0 -250.5 88.5t-40.5 266.5l22 108h-168l39 182h168l41 199h-168l43 201h164l64 282h262l-62 -282h240z" />
    <glyph glyph-name="Utilde" unicode="&#x168;" horiz-adv-x="1576" 
d="M805 1638l-146 68q34 90 97.5 141t140.5 51q49 0 94.5 -18t78.5 -35.5t52 -17.5q65 0 111 82l147 -68q-35 -91 -98.5 -141.5t-140.5 -50.5q-49 0 -95 17.5t-79 35.5t-52 18q-34 0 -64 -23.5t-46 -58.5zM750 -27q-144 0 -262 46.5t-194.5 128t-106.5 200t-1 256.5l176 830
h273l-172 -816q-19 -97 -3.5 -171.5t58.5 -125t105 -76.5t137 -26q165 0 265 97.5t138 275.5l178 842h273l-189 -879q-58 -274 -231.5 -428t-443.5 -154z" />
    <glyph glyph-name="utilde" unicode="&#x169;" horiz-adv-x="1224" 
d="M686 1286q-34 0 -64.5 -24.5t-46.5 -59.5l-145 68q33 91 97 142.5t141 51.5q49 0 94.5 -18t78.5 -35.5t52 -17.5q65 0 111 82l147 -68q-35 -92 -98.5 -143.5t-141.5 -51.5q-49 0 -94.5 18.5t-78.5 37t-52 18.5zM934 1018h262l-217 -1018h-207l-4 111q-131 -140 -332 -140
q-124 0 -210 65.5t-116.5 172.5t-3.5 233l125 576h263l-119 -551q-29 -135 20 -207t150 -72q98 0 171.5 74t98.5 195z" />
    <glyph glyph-name="Umacron" unicode="&#x16a;" horiz-adv-x="1576" 
d="M694 1686l39 176h639l-39 -176h-639zM750 -27q-144 0 -262 46.5t-194.5 128t-106.5 200t-1 256.5l176 830h273l-172 -816q-19 -97 -3.5 -171.5t58.5 -125t105 -76.5t137 -26q165 0 265 97.5t138 275.5l178 842h273l-189 -879q-58 -274 -231.5 -428t-443.5 -154z" />
    <glyph glyph-name="umacron" unicode="&#x16b;" horiz-adv-x="1224" 
d="M1124 1427l-39 -178h-639l37 178h641zM934 1018h262l-217 -1018h-207l-4 111q-131 -140 -332 -140q-124 0 -210 65.5t-116.5 172.5t-3.5 233l125 576h263l-119 -551q-29 -135 20 -207t150 -72q98 0 171.5 74t98.5 195z" />
    <glyph glyph-name="Ubreve" unicode="&#x16c;" horiz-adv-x="1576" 
d="M1034 1583q-155 0 -232.5 92.5t-51.5 239.5h161q-9 -74 31 -120t113 -46q72 0 121.5 45.5t72.5 120.5h166q-79 -332 -381 -332zM750 -27q-144 0 -262 46.5t-194.5 128t-106.5 200t-1 256.5l176 830h273l-172 -816q-19 -97 -3.5 -171.5t58.5 -125t105 -76.5t137 -26
q165 0 265 97.5t138 275.5l178 842h273l-189 -879q-58 -274 -231.5 -428t-443.5 -154z" />
    <glyph glyph-name="ubreve" unicode="&#x16d;" horiz-adv-x="1224" 
d="M774 1149q-157 0 -235 91.5t-50 238.5h162q-9 -73 30.5 -119.5t113.5 -46.5q72 0 121.5 45.5t72.5 120.5h166q-78 -330 -381 -330zM934 1018h262l-217 -1018h-207l-4 111q-131 -140 -332 -140q-124 0 -210 65.5t-116.5 172.5t-3.5 233l125 576h263l-119 -551
q-29 -135 20 -207t150 -72q98 0 171.5 74t98.5 195z" />
    <glyph glyph-name="Uring" unicode="&#x16e;" horiz-adv-x="1576" 
d="M1010 1563q-101 0 -156 58.5t-55 141.5q0 89 61.5 155.5t169.5 66.5q101 0 156 -59t55 -142q0 -89 -61 -155t-170 -66zM1014 1677q48 0 76 32.5t28 74.5q0 35 -23.5 59.5t-66.5 24.5q-48 0 -76 -31.5t-28 -73.5q0 -35 23.5 -60.5t66.5 -25.5zM750 -27q-144 0 -262 46.5
t-194.5 128t-106.5 200t-1 256.5l176 830h273l-172 -816q-19 -97 -3.5 -171.5t58.5 -125t105 -76.5t137 -26q165 0 265 97.5t138 275.5l178 842h273l-189 -879q-58 -274 -231.5 -428t-443.5 -154z" />
    <glyph glyph-name="uring" unicode="&#x16f;" horiz-adv-x="1224" 
d="M739 1126q-101 0 -157 59.5t-56 141.5q0 90 62.5 155.5t171.5 65.5q101 0 156 -58.5t55 -141.5q0 -89 -61.5 -155.5t-170.5 -66.5zM758 1434q-48 0 -76.5 -32.5t-28.5 -72.5q0 -37 22.5 -61.5t67.5 -24.5q48 0 75.5 31.5t27.5 73.5q0 35 -22.5 60.5t-65.5 25.5zM934 1018
h262l-217 -1018h-207l-4 111q-131 -140 -332 -140q-124 0 -210 65.5t-116.5 172.5t-3.5 233l125 576h263l-119 -551q-29 -135 20 -207t150 -72q98 0 171.5 74t98.5 195z" />
    <glyph glyph-name="Uhungarumlaut" unicode="&#x170;" horiz-adv-x="1576" 
d="M821 1573l-110 133l376 330l125 -150zM1274 1573l-111 133l377 330l123 -150zM750 -27q-144 0 -262 46.5t-194.5 128t-106.5 200t-1 256.5l176 830h273l-172 -816q-19 -97 -3.5 -171.5t58.5 -125t105 -76.5t137 -26q165 0 265 97.5t138 275.5l178 842h273l-189 -879
q-58 -274 -231.5 -428t-443.5 -154z" />
    <glyph glyph-name="uhungarumlaut" unicode="&#x171;" horiz-adv-x="1224" 
d="M897 1450l-389 -311l-111 131l377 329zM958 1139l-108 131l377 329l123 -149zM815 457l119 561h262l-217 -1018h-207l-4 111q-131 -140 -332 -140q-124 0 -210 65.5t-116.5 172.5t-3.5 233l125 576h263l-119 -551q-29 -135 20 -207t150 -72q98 0 171.5 74t98.5 195z" />
    <glyph glyph-name="Uogonek" unicode="&#x172;" horiz-adv-x="1576" 
d="M1341 1434h273l-189 -879q-59 -281 -239 -434q-102 -89 -159.5 -191t-57.5 -176q0 -71 67 -71q24 0 82 14l15 -146q-68 -24 -160 -24q-91 0 -145 46.5t-54 127.5q0 125 123 287q-67 -15 -147 -15q-144 0 -262 46.5t-194.5 128t-106.5 200t-1 256.5l176 830h273l-172 -816
q-19 -97 -3.5 -171.5t58.5 -125t105 -76.5t137 -26q165 0 265 97.5t138 275.5z" />
    <glyph glyph-name="uogonek" unicode="&#x173;" horiz-adv-x="1224" 
d="M981 0q-99 -51 -162 -121.5t-63 -130.5q0 -29 16.5 -47t48.5 -18q26 0 84 14l15 -146q-68 -24 -160 -24q-98 0 -155.5 48.5t-57.5 131.5q0 91 62 174t163 148l-4 82q-131 -140 -332 -140q-124 0 -210 65.5t-116.5 172.5t-3.5 233l125 576h263l-119 -551q-29 -135 20 -207
t150 -72q98 0 171.5 74t98.5 195l119 561h262l-217 -1018h2z" />
    <glyph glyph-name="Wcircumflex" unicode="&#x174;" horiz-adv-x="2060" 
d="M1278 1767l-262 -188l-92 123l305 246h157l207 -246l-133 -123zM1968 1434h277l-748 -1434h-266l-78 1063l-530 -1063h-267l-141 1434h256l82 -1090l532 1090h269l69 -1092z" />
    <glyph glyph-name="wcircumflex" unicode="&#x175;" horiz-adv-x="1574" 
d="M948 1333l-262 -188l-92 123l305 243h158l209 -243l-133 -123zM1401 1018h266l-537 -1018h-253l-46 713l-348 -713h-252l-112 1018h258l45 -721l344 721h246l45 -721z" />
    <glyph glyph-name="Ycircumflex" unicode="&#x176;" horiz-adv-x="1302" 
d="M899 1767l-262 -188l-92 123l305 246h158l206 -246l-133 -123zM1184 1434h305l-692 -895l-119 -539h-272l118 539l-313 895h274l220 -639z" />
    <glyph glyph-name="ycircumflex" unicode="&#x177;" horiz-adv-x="1083" 
d="M702 1333l-262 -188l-92 123l305 243h158l209 -243l-133 -123zM895 1018h281l-869 -1448h-246l254 448l-196 1000h270l111 -729z" />
    <glyph glyph-name="Ydieresis" unicode="&#x178;" horiz-adv-x="1302" 
d="M664 1632q-60 0 -94.5 33.5t-34.5 89.5q0 72 44.5 116t110.5 44q58 0 92.5 -34t34.5 -91q0 -67 -43 -112.5t-110 -45.5zM1120 1632q-61 0 -95 33.5t-34 89.5q0 72 44.5 116t109.5 44q60 0 94.5 -34t34.5 -91q0 -67 -43.5 -112.5t-110.5 -45.5zM1184 1434h305l-692 -895
l-119 -539h-272l118 539l-313 895h274l220 -639z" />
    <glyph glyph-name="Zacute" unicode="&#x179;" horiz-adv-x="1306" 
d="M1292 1819l-438 -240l-74 143l428 265zM1403 1434l-29 -156l-944 -1040h737l-51 -238h-1136l30 156l946 1040h-690l51 238h1086z" />
    <glyph glyph-name="zacute" unicode="&#x17a;" horiz-adv-x="1015" 
d="M1034 1384l-438 -241l-74 143l428 264zM182 817l41 201h811l-26 -146l-639 -673h495l-43 -199h-837l28 145l637 672h-467z" />
    <glyph glyph-name="Zdotaccent" unicode="&#x17b;" horiz-adv-x="1306" 
d="M932 1622q-64 0 -101.5 36.5t-37.5 96.5q0 71 49 120.5t121 49.5q63 0 100 -36.5t37 -96.5q0 -74 -49 -122t-119 -48zM1403 1434l-29 -156l-944 -1040h737l-51 -238h-1136l30 156l946 1040h-690l51 238h1086z" />
    <glyph glyph-name="zdotaccent" unicode="&#x17c;" horiz-adv-x="1015" 
d="M682 1188q-63 0 -101 36t-38 95q0 72 49 122t121 50q63 0 100 -36.5t37 -96.5q0 -74 -49 -122t-119 -48zM1034 1018l-26 -146l-639 -673h495l-43 -199h-837l28 145l637 672h-467l41 201h811z" />
    <glyph glyph-name="Zcaron" unicode="&#x17d;" horiz-adv-x="1306" 
d="M952 1599h-157l-207 246l131 121l184 -186l262 186l92 -121zM1403 1434l-29 -156l-944 -1040h737l-51 -238h-1136l30 156l946 1040h-690l51 238h1086z" />
    <glyph glyph-name="zcaron" unicode="&#x17e;" horiz-adv-x="1015" 
d="M741 1165h-159l-207 244l133 123l184 -189l262 189l93 -123zM182 817l41 201h811l-26 -146l-639 -673h495l-43 -199h-837l28 145l637 672h-467z" />
    <glyph glyph-name="florin" unicode="&#x192;" horiz-adv-x="929" 
d="M899 1251q-68 0 -114.5 -40.5t-59.5 -110.5l-23 -103h211l-43 -200h-211l-108 -510q-31 -148 -124.5 -231t-233.5 -83q-114 0 -220 50l52 180q43 -21 98 -21q68 0 114.5 40.5t61.5 111.5l98 463h-159l41 200h161l33 150q31 147 124.5 230t233.5 83q116 0 220 -49
l-52 -180q-41 20 -100 20z" />
    <glyph glyph-name="uni01CD" unicode="&#x1cd;" horiz-adv-x="1484" 
d="M1038 1599h-157l-207 246l131 121l184 -186l262 186l92 -121zM1079 0l-61 358h-604l-215 -358h-281l889 1434h270l277 -1434h-275zM551 584h428l-96 553z" />
    <glyph glyph-name="uni01CE" unicode="&#x1ce;" horiz-adv-x="1280" 
d="M846 1165h-160l-207 244l133 123l185 -189l262 189l92 -123zM1030 1018h219l-215 -1018h-205l-8 90q-129 -119 -311 -119q-106 0 -190 39t-136 105.5t-79 150.5t-27 178q0 87 22.5 172.5t69.5 162.5t111.5 136t155 94t194.5 35q112 0 204 -49.5t142 -134.5zM588 209
q126 0 214.5 100t88.5 244q0 115 -67.5 184.5t-172.5 69.5q-127 0 -215 -100.5t-88 -243.5q0 -116 67.5 -185t172.5 -69z" />
    <glyph glyph-name="AEacute" unicode="&#x1fc;" horiz-adv-x="2091" 
d="M1851 1819l-438 -240l-74 143l428 265zM2114 1196h-680l-78 -358h616l-49 -234h-616l-78 -366h715l-52 -238h-985l76 358h-481l-297 -358h-287l1161 1434h1086zM690 584h342l117 553z" />
    <glyph glyph-name="aeacute" unicode="&#x1fd;" horiz-adv-x="1826" 
d="M1417 1384l-438 -241l-74 143l428 264zM1765 633q0 -45 -11 -103t-28 -94h-722q7 -123 89.5 -183t209.5 -60q159 0 292 83l62 -186q-176 -119 -395 -119q-148 0 -263.5 55t-181.5 158q-87 -108 -195.5 -159.5t-250.5 -51.5q-148 0 -243 77.5t-95 207.5q0 111 70 195.5
t181.5 126t243.5 41.5q124 0 230 -33l18 84q17 82 -34.5 130t-143.5 48q-94 0 -170.5 -27.5t-167.5 -89.5l-43 201q115 60 211.5 85t208.5 25q109 0 192.5 -35.5t131.5 -99.5q161 135 372 135q193 0 312.5 -115.5t119.5 -295.5zM1325 836q-110 0 -188 -61.5t-111 -166.5h492
q6 27 6 51q0 83 -52.5 130t-146.5 47zM428 156q107 0 189 71t104 176l10 46q-60 16 -135 16q-128 0 -224 -54t-96 -141q0 -54 44 -84t108 -30z" />
    <glyph glyph-name="Oslashacute" unicode="&#x1fe;" horiz-adv-x="1708" 
d="M1405 1819l-438 -240l-74 143l428 265zM1419 1319q116 -91 179 -226t63 -294q0 -167 -60 -317t-167 -263t-266 -179.5t-345 -66.5q-147 0 -268 47l-94 -143l-182 88l102 154q-115 91 -177.5 225.5t-62.5 292.5q0 165 60.5 315t167 262.5t265 179t343.5 66.5
q144 0 268 -45l94 139l181 -86zM422 662q0 -192 113 -314l563 844q-71 22 -148 22q-114 0 -214 -45.5t-168 -122t-107 -176.5t-39 -208zM850 219q114 0 214 46t168.5 122t108 176.5t39.5 208.5q0 190 -114 313l-564 -843q74 -23 148 -23z" />
    <glyph glyph-name="oslashacute" unicode="&#x1ff;" horiz-adv-x="1222" 
d="M1106 1384l-438 -241l-74 143l428 264zM1006 915q137 -131 137 -352q0 -171 -82 -308t-215 -210.5t-289 -73.5q-104 0 -186 33l-80 -113l-139 74l84 121q-154 134 -154 373q0 128 47.5 238.5t127 186t185 118t220.5 42.5q112 0 208 -38l70 100l139 -86zM348 465
q0 -91 41 -156l336 488q-38 10 -74 10q-129 0 -216 -101t-87 -241zM578 211q127 0 214 101.5t87 240.5q0 77 -31 137l-330 -473q27 -6 60 -6z" />
    <glyph glyph-name="uni0218" unicode="&#x218;" horiz-adv-x="1200" 
d="M518 -23q-256 0 -514 138l96 217q105 -56 220.5 -87.5t216.5 -31.5q133 0 218 55t85 154q0 37 -15 67.5t-36.5 50.5t-60 39.5t-70.5 31t-83 26.5q-154 46 -219 84q-157 94 -159 274q0 141 79.5 248.5t211 162t292.5 54.5q237 0 451 -112l-96 -226q-160 103 -351 103
q-136 0 -226.5 -53t-90.5 -152q0 -31 12.5 -55.5t33.5 -41.5t52.5 -31.5t63.5 -25.5t74 -24q9 -3 14 -4q48 -14 81 -25.5t78 -31t75.5 -39.5t63 -51t52 -66.5t32.5 -84.5t13 -106q0 -134 -80 -239t-215 -161.5t-299 -56.5zM299 -637l-66 105q109 61 164 174q-42 -6 -69 24
t-27 78q0 66 44 109t110 43q58 0 93.5 -39.5t35.5 -102.5q0 -111 -81 -218.5t-204 -172.5z" />
    <glyph glyph-name="uni0219" unicode="&#x219;" horiz-adv-x="944" 
d="M412 -29q-238 0 -414 148l74 196q59 -62 155 -100.5t183 -38.5q76 0 119.5 29t43.5 90q0 22 -12 41.5t-28.5 33t-47 28.5t-53.5 23.5t-63 22.5q-56 19 -91.5 35.5t-76 45.5t-60.5 71t-20 98q0 165 122.5 257.5t307.5 92.5q188 0 352 -110l-76 -186q-48 45 -127 71.5
t-153 26.5q-75 0 -123.5 -29t-48.5 -82q0 -36 45 -63.5t127 -55.5q49 -18 81 -31.5t74.5 -39.5t67.5 -54.5t43 -73.5t18 -100q0 -107 -59.5 -187.5t-153.5 -119.5t-206 -39zM141 -637l-65 105q109 61 164 174q-42 -6 -69.5 24t-27.5 78q0 66 44 109t110 43q58 0 93.5 -39.5
t35.5 -102.5q0 -111 -81 -218.5t-204 -172.5z" />
    <glyph glyph-name="uni021A" unicode="&#x21a;" horiz-adv-x="1228" 
d="M373 0l254 1196h-430l51 238h1132l-51 -238h-430l-254 -1196h-272zM317 -637l-65 105q109 61 164 174q-42 -6 -69.5 24t-27.5 78q0 66 44 109t110 43q58 0 93.5 -39.5t35.5 -102.5q0 -111 -81 -218.5t-204 -172.5z" />
    <glyph glyph-name="uni021B" unicode="&#x21b;" horiz-adv-x="808" 
d="M455 -27q-173 0 -250.5 88.5t-40.5 266.5l102 489h-168l43 201h164l64 282h262l-62 -282h240l-41 -201h-240l-100 -459q-37 -170 117 -170q54 0 112 17l15 -201q-105 -31 -217 -31zM164 -637l-66 105q109 61 164 174q-42 -6 -69 24t-27 78q0 66 43.5 109t109.5 43
q58 0 94 -39.5t36 -102.5q0 -111 -81 -218.5t-204 -172.5z" />
    <glyph glyph-name="uni0237" unicode="&#x237;" horiz-adv-x="540" 
d="M-100 -457q-132 0 -246 74l59 190q64 -43 144 -43q69 0 110.5 41t61.5 138l225 1075h262l-233 -1112q-38 -186 -131.5 -274.5t-251.5 -88.5z" />
    <glyph glyph-name="circumflex" unicode="&#x2c6;" horiz-adv-x="825" 
d="M324 1124l-91 123l304 244h159l207 -244l-133 -123l-182 189z" />
    <glyph glyph-name="caron" unicode="&#x2c7;" horiz-adv-x="825" 
d="M471 1145l-207 244l131 122l185 -188l264 188l90 -122l-305 -244h-158z" />
    <glyph glyph-name="breve" unicode="&#x2d8;" horiz-adv-x="821" 
d="M563 1128q-156 0 -233 91.5t-51 238.5h161q-8 -73 31.5 -119.5t112.5 -46.5q72 0 121.5 45.5t72.5 120.5h166q-78 -330 -381 -330z" />
    <glyph glyph-name="dotaccent" unicode="&#x2d9;" horiz-adv-x="458" 
d="M385 1167q-63 0 -100 36t-37 95q0 73 48.5 122.5t121.5 49.5q61 0 98 -36.5t37 -96.5q0 -74 -49 -122t-119 -48z" />
    <glyph glyph-name="ring" unicode="&#x2da;" horiz-adv-x="604" 
d="M465 1106q-102 0 -157.5 59.5t-55.5 141.5q0 90 61.5 155.5t169.5 65.5q101 0 156 -59t55 -142q0 -89 -60.5 -155t-168.5 -66zM467 1223q48 0 76 31.5t28 72.5q0 35 -23.5 60.5t-66.5 25.5q-48 0 -76 -32t-28 -72q0 -36 23.5 -61t66.5 -25z" />
    <glyph glyph-name="ogonek" unicode="&#x2db;" horiz-adv-x="565" 
d="M123 -473q-97 0 -154 48.5t-57 131.5q0 103 79.5 195.5t201.5 160.5l153 -63q-100 -51 -163.5 -121.5t-63.5 -130.5q0 -29 16.5 -47t50.5 -18q24 0 82 14l15 -146q-66 -24 -160 -24z" />
    <glyph glyph-name="tilde" unicode="&#x2dc;" horiz-adv-x="847" 
d="M379 1182l-146 67q35 92 99 143.5t141 51.5q49 0 94.5 -18t78.5 -36t52 -18q67 0 109 82l147 -68q-33 -92 -96.5 -143t-140.5 -51q-49 0 -95 18.5t-79 37t-51 18.5q-34 0 -65.5 -24.5t-47.5 -59.5z" />
    <glyph glyph-name="hungarumlaut" unicode="&#x2dd;" horiz-adv-x="1069" 
d="M344 1118l-111 131l379 330l123 -149zM797 1118l-111 131l377 330l125 -149z" />
    <glyph glyph-name="gravecomb" unicode="&#x300;" 
d="M-55 1122l-351 242l148 166l330 -264z" />
    <glyph glyph-name="acutecomb" unicode="&#x301;" 
d="M-346 1122l-74 144l428 264l84 -166z" />
    <glyph glyph-name="uni0302" unicode="&#x302;" 
d="M-512 1124l-92 123l305 244h158l209 -244l-134 -123l-184 189z" />
    <glyph glyph-name="tildecomb" unicode="&#x303;" 
d="M-479 1182l-146 67q34 92 97.5 143.5t140.5 51.5q49 0 94.5 -18t78.5 -36t52 -18q65 0 111 82l147 -68q-35 -92 -98 -143t-141 -51q-49 0 -95 18.5t-79 37t-52 18.5q-34 0 -64 -24.5t-46 -59.5z" />
    <glyph glyph-name="uni0304" unicode="&#x304;" 
d="M-575 1229l36 178h641l-39 -178h-638z" />
    <glyph glyph-name="uni0306" unicode="&#x306;" 
d="M-268 1128q-157 0 -235 91.5t-50 238.5h162q-9 -73 30 -119.5t113 -46.5q72 0 122 45.5t73 120.5h166q-78 -330 -381 -330z" />
    <glyph glyph-name="uni0307" unicode="&#x307;" 
d="M-84 1167q-63 0 -101 36t-38 95q0 72 49 122t121 50q63 0 100 -36.5t37 -96.5q0 -74 -49 -122t-119 -48z" />
    <glyph glyph-name="uni0308" unicode="&#x308;" 
d="M-526 1176q-61 0 -95 34t-34 90q0 71 44.5 115.5t108.5 44.5q59 0 94 -34.5t35 -90.5q0 -68 -43 -113.5t-110 -45.5zM-70 1176q-61 0 -95 34t-34 90q0 71 44 115.5t110 44.5q59 0 93 -34.5t34 -90.5q0 -68 -42.5 -113.5t-109.5 -45.5z" />
    <glyph glyph-name="uni030A" unicode="&#x30a;" 
d="M-152 1106q-101 0 -157 59.5t-56 141.5q0 90 62.5 155.5t171.5 65.5q101 0 156 -59t55 -142q0 -89 -61.5 -155t-170.5 -66zM-147 1223q48 0 75 31t27 73q0 35 -22.5 60.5t-65.5 25.5q-48 0 -76.5 -32t-28.5 -72q0 -37 23 -61.5t68 -24.5z" />
    <glyph glyph-name="uni030B" unicode="&#x30b;" 
d="M-735 1118l-111 131l377 330l123 -149zM-285 1118l-108 131l377 330l122 -149z" />
    <glyph glyph-name="uni030C" unicode="&#x30c;" 
d="M-367 1145l-206 244l133 122l184 -188l262 188l92 -122l-305 -244h-160z" />
    <glyph glyph-name="uni0326" unicode="&#x326;" 
d="M-541 -637l-65 105q109 61 164 174q-42 -6 -69.5 24t-27.5 78q0 66 44 109t110 43q58 0 93.5 -39.5t35.5 -102.5q0 -111 -81 -218.5t-204 -172.5z" />
    <glyph glyph-name="uni0327" unicode="&#x327;" 
d="M-557 -473q-106 0 -209 41l59 141q61 -24 125 -24q53 0 89 22t36 60q0 24 -23 38.5t-67 14.5h-35l70 180h184l-47 -92q54 -14 86.5 -56t32.5 -100q0 -107 -88 -166t-213 -59z" />
    <glyph glyph-name="uni0328" unicode="&#x328;" 
d="M-453 -473q-98 0 -155.5 48.5t-57.5 131.5q0 103 79.5 195t201.5 161l154 -63q-99 -51 -162.5 -121.5t-63.5 -130.5q0 -29 17 -47t49 -18q26 0 84 14l14 -146q-68 -24 -160 -24z" />
    <glyph glyph-name="uni0394" unicode="&#x394;" horiz-adv-x="1406" 
d="M-51 0l31 154l798 1280h248l254 -1280l-31 -154h-1300zM283 211h729l-168 915z" />
    <glyph glyph-name="Pi" unicode="&#x3a0;" horiz-adv-x="1572" 
d="M57 0l305 1434h1246l-305 -1434h-271l260 1223h-702l-260 -1223h-273z" />
    <glyph glyph-name="uni03A9" unicode="&#x3a9;" horiz-adv-x="1638" 
d="M-14 0l45 211h313q-164 169 -164 426q0 112 28.5 218t80 196.5t126.5 166.5t165.5 129.5t200 83t227.5 29.5q267 0 418 -147t151 -389q0 -212 -104 -397t-289 -316h303l-45 -211h-623l33 176q208 136 332.5 331.5t124.5 407.5q0 153 -80.5 242.5t-233.5 89.5
q-99 0 -188 -36t-155 -98.5t-114.5 -144.5t-73 -176.5t-24.5 -191.5q0 -243 201 -422l-33 -178h-622z" />
    <glyph glyph-name="uni03BC" unicode="&#x3bc;" horiz-adv-x="1288" 
d="M1063 266q-17 -84 67 -84q28 0 64 8l-43 -204q-73 -13 -133 -13q-86 0 -139.5 41.5t-65.5 110.5q-67 -73 -145.5 -110.5t-155.5 -37.5q-145 0 -201 82l-110 -487h-262l305 1446h262l-121 -574q-28 -135 24 -196.5t150 -61.5q109 0 184 75.5t101 197.5l117 559h262z" />
    <glyph glyph-name="pi" unicode="&#x3c0;" horiz-adv-x="1335" 
d="M1012 -27q-135 0 -195.5 71.5t-32.5 201.5l121 571h-340l-174 -817h-262l174 817h-188l43 201h1241l-43 -201h-189l-116 -551q-17 -84 69 -84q26 0 62 8l-41 -204q-73 -13 -129 -13z" />
    <glyph glyph-name="Wgrave" unicode="&#x1e80;" horiz-adv-x="2060" 
d="M1427 1722l-124 -143l-351 240l148 168zM1968 1434h277l-748 -1434h-266l-78 1063l-530 -1063h-267l-141 1434h256l82 -1090l532 1090h269l69 -1092z" />
    <glyph glyph-name="wgrave" unicode="&#x1e81;" horiz-adv-x="1574" 
d="M1137 1286l-127 -143l-351 241l148 166zM1401 1018h266l-537 -1018h-253l-46 713l-348 -713h-252l-112 1018h258l45 -721l344 721h246l45 -721z" />
    <glyph glyph-name="Wacute" unicode="&#x1e82;" horiz-adv-x="2060" 
d="M1661 1819l-438 -240l-74 143l428 265zM1968 1434h277l-748 -1434h-266l-78 1063l-530 -1063h-267l-141 1434h256l82 -1090l532 1090h269l69 -1092z" />
    <glyph glyph-name="wacute" unicode="&#x1e83;" horiz-adv-x="1574" 
d="M1296 1384l-438 -241l-74 143l428 264zM1401 1018h266l-537 -1018h-253l-46 713l-348 -713h-252l-112 1018h258l45 -721l344 721h246l45 -721z" />
    <glyph glyph-name="Wdieresis" unicode="&#x1e84;" horiz-adv-x="2060" 
d="M1042 1632q-60 0 -94.5 33.5t-34.5 89.5q0 72 45 116t111 44q58 0 92.5 -34t34.5 -91q0 -67 -43.5 -112.5t-110.5 -45.5zM1499 1632q-61 0 -95 33.5t-34 89.5q0 72 44.5 116t109.5 44q60 0 94.5 -34t34.5 -91q0 -67 -43.5 -112.5t-110.5 -45.5zM1968 1434h277l-748 -1434
h-266l-78 1063l-530 -1063h-267l-141 1434h256l82 -1090l532 1090h269l69 -1092z" />
    <glyph glyph-name="wdieresis" unicode="&#x1e85;" horiz-adv-x="1574" 
d="M719 1196q-61 0 -95 34t-34 91q0 71 44.5 115.5t108.5 44.5q59 0 94 -34.5t35 -90.5q0 -68 -43 -114t-110 -46zM1176 1196q-60 0 -94.5 34t-34.5 91q0 71 43.5 115.5t109.5 44.5q59 0 93 -34.5t34 -90.5q0 -68 -42 -114t-109 -46zM1401 1018h266l-537 -1018h-253l-46 713
l-348 -713h-252l-112 1018h258l45 -721l344 721h246l45 -721z" />
    <glyph glyph-name="uni1E9E" unicode="&#x1e9e;" horiz-adv-x="1546" 
d="M1618 1434l-29 -156l-401 -444q129 -43 193.5 -140.5t64.5 -234.5q0 -217 -157.5 -349.5t-416.5 -132.5q-223 0 -405 136l129 200q124 -106 297 -106q126 0 206.5 62.5t80.5 176.5q0 94 -63 149.5t-173 55.5h-51l-16 133l364 412h-670l-252 -1196h-262l305 1434h1256z
" />
    <glyph glyph-name="Ygrave" unicode="&#x1ef2;" horiz-adv-x="1302" 
d="M1047 1722l-125 -143l-351 240l148 168zM1184 1434h305l-692 -895l-119 -539h-272l118 539l-313 895h274l220 -639z" />
    <glyph glyph-name="ygrave" unicode="&#x1ef3;" horiz-adv-x="1083" 
d="M889 1286l-127 -143l-350 241l147 166zM895 1018h281l-869 -1448h-246l254 448l-196 1000h270l111 -729z" />
    <glyph glyph-name="uni2002" unicode="&#x2002;" horiz-adv-x="983" 
 />
    <glyph glyph-name="uni2003" unicode="&#x2003;" horiz-adv-x="1966" 
 />
    <glyph glyph-name="uni2009" unicode="&#x2009;" horiz-adv-x="245" 
 />
    <glyph glyph-name="uni200A" unicode="&#x200a;" horiz-adv-x="122" 
 />
    <glyph glyph-name="endash" unicode="&#x2013;" horiz-adv-x="983" 
d="M27 414l43 198h895l-43 -198h-895z" />
    <glyph glyph-name="emdash" unicode="&#x2014;" horiz-adv-x="1966" 
d="M27 414l43 198h1878l-43 -198h-1878z" />
    <glyph glyph-name="quoteleft" unicode="&#x2018;" horiz-adv-x="540" 
d="M418 1147q56 4 87.5 -34t31.5 -95q0 -68 -47 -122t-132 -54q-63 0 -106 40t-43 119q0 131 98 256.5t246 204.5l68 -114q-79 -46 -126 -92.5t-77 -108.5z" />
    <glyph glyph-name="quoteright" unicode="&#x2019;" horiz-adv-x="540" 
d="M455 1460q63 0 106 -40t43 -117q0 -133 -98 -258.5t-246 -202.5l-67 114q81 46 127 91.5t75 109.5q-56 -6 -87.5 31.5t-31.5 95.5q0 68 47 122t132 54z" />
    <glyph glyph-name="quotesinglbase" unicode="&#x201a;" horiz-adv-x="538" 
d="M209 301q62 0 104.5 -41.5t42.5 -118.5q0 -133 -98 -258t-246 -202l-67 114q81 46 127 91.5t75 109.5q-56 -6 -87 31.5t-31 95.5q0 69 47 123.5t133 54.5z" />
    <glyph glyph-name="quotedblleft" unicode="&#x201c;" horiz-adv-x="980" 
d="M621 1348q-79 -46 -126 -92.5t-77 -108.5q56 4 87.5 -34t31.5 -95q0 -68 -47 -122t-132 -54q-63 0 -106 40t-43 119q0 131 98 256.5t246 204.5zM858 1147q56 4 88.5 -34t32.5 -95q0 -69 -47 -122.5t-133 -53.5q-64 0 -107 40.5t-43 118.5q0 131 98 256.5t246 204.5
l68 -114q-79 -46 -126 -92.5t-77 -108.5z" />
    <glyph glyph-name="quotedblright" unicode="&#x201d;" horiz-adv-x="978" 
d="M455 1460q63 0 106 -40t43 -117q0 -133 -98 -258.5t-246 -202.5l-67 114q81 46 127 91.5t75 109.5q-56 -6 -87.5 31.5t-31.5 95.5q0 68 47 122t132 54zM895 1460q62 0 105.5 -40t43.5 -117q0 -132 -98.5 -258t-245.5 -203l-69 114q81 47 128 92.5t77 108.5
q-56 -6 -88.5 32t-32.5 95q0 69 47 122.5t133 53.5z" />
    <glyph glyph-name="quotedblbase" unicode="&#x201e;" horiz-adv-x="978" 
d="M209 301q62 0 104.5 -41.5t42.5 -118.5q0 -133 -98 -258t-246 -202l-67 114q81 46 127 91.5t75 109.5q-56 -6 -87 31.5t-31 95.5q0 69 47 123.5t133 54.5zM647 301q63 0 106.5 -41.5t43.5 -118.5q0 -132 -98.5 -257t-245.5 -203l-68 114q80 46 126.5 91.5t76.5 109.5
q-56 -7 -88.5 31t-32.5 96q0 69 47 123.5t133 54.5z" />
    <glyph glyph-name="dagger" unicode="&#x2020;" horiz-adv-x="1024" 
d="M307 0l191 899h-336l43 199h336l71 336h201l-72 -336h334l-41 -199h-336l-190 -899h-201z" />
    <glyph glyph-name="daggerdbl" unicode="&#x2021;" horiz-adv-x="1024" 
d="M307 0l70 336h-334l41 199h336l78 364h-336l43 199h336l71 336h201l-72 -336h334l-41 -199h-336l-77 -364h335l-43 -199h-335l-70 -336h-201z" />
    <glyph glyph-name="bullet" unicode="&#x2022;" horiz-adv-x="980" 
d="M475 295q-115 0 -188.5 73t-73.5 187q0 101 51 178t127 114.5t160 37.5q115 0 188.5 -73t73.5 -187q0 -101 -51 -178t-127 -114.5t-160 -37.5z" />
    <glyph glyph-name="ellipsis" unicode="&#x2026;" horiz-adv-x="1800" 
d="M174 -27q-61 0 -103 37.5t-42 106.5q0 83 55 133.5t127 50.5q62 0 104.5 -38t42.5 -107q0 -83 -55.5 -133t-128.5 -50zM805 -27q-62 0 -104 37.5t-42 106.5q0 83 55 133.5t126 50.5q62 0 104.5 -38t42.5 -107q0 -83 -55 -133t-127 -50zM1434 -27q-62 0 -104 37.5
t-42 106.5q0 83 55 133.5t127 50.5q62 0 105 -38t43 -107q0 -83 -55.5 -133t-128.5 -50z" />
    <glyph glyph-name="perthousand" unicode="&#x2030;" horiz-adv-x="2650" 
d="M512 737q-155 0 -241.5 86.5t-86.5 220.5q0 76 30 150t83 133.5t135 96t178 36.5q154 0 240 -86.5t86 -220.5q0 -76 -29.5 -150t-82 -133.5t-134.5 -96t-178 -36.5zM334 -35l-117 101l1319 1376l119 -101zM526 889q96 0 154.5 79t58.5 175q0 74 -37 120t-104 46
q-64 0 -115 -39.5t-76.5 -97t-25.5 -117.5q0 -73 39.5 -119.5t105.5 -46.5zM1280 -27q-155 0 -242.5 87t-87.5 221q0 76 30 149.5t83.5 133t136 96t178.5 36.5q154 0 240 -86.5t86 -220.5q0 -76 -29.5 -150t-82 -133.5t-134.5 -96t-178 -36.5zM2134 -27q-155 0 -241.5 87
t-86.5 221q0 76 30 149.5t83 133t135 96t178 36.5q154 0 240 -86.5t86 -220.5q0 -76 -29.5 -150t-82 -133.5t-134.5 -96t-178 -36.5zM1294 125q96 0 154.5 79t58.5 175q0 74 -37 120t-104 46q-64 0 -115 -39.5t-76.5 -97t-25.5 -117.5q0 -73 39.5 -119.5t105.5 -46.5z
M2148 125q96 0 154.5 79t58.5 175q0 74 -37 120t-104 46q-64 0 -115 -39.5t-76.5 -97t-25.5 -117.5q0 -73 39.5 -119.5t105.5 -46.5z" />
    <glyph glyph-name="guilsinglleft" unicode="&#x2039;" horiz-adv-x="677" 
d="M365 4l-312 453l19 114l499 455l136 -123l-392 -389l224 -389z" />
    <glyph glyph-name="guilsinglright" unicode="&#x203a;" horiz-adv-x="677" 
d="M113 4l-136 121l394 389l-226 389l174 123l314 -455l-21 -114z" />
    <glyph glyph-name="fraction" unicode="&#x2044;" horiz-adv-x="395" 
d="M-362 -49l-119 98l1319 1376l120 -98z" />
    <glyph glyph-name="uni2074" unicode="&#x2074;" horiz-adv-x="784" 
d="M864 1638l-112 -536h104l-29 -139h-106l-37 -177h-168l35 177h-397l24 133l502 542h184zM346 1094h236l77 338z" />
    <glyph glyph-name="Euro" unicode="&#x20ac;" horiz-adv-x="1798" 
d="M1272 1214q-172 0 -302.5 -72.5t-201.5 -197.5h471v-160h-532q-13 -67 -13 -127v-26h545v-160h-508q47 -116 154 -185t258 -69q223 0 409 98l66 -213q-221 -129 -516 -129q-276 0 -451 136t-219 362h-276v160h264q0 67 14 153h-278v160h319q88 238 295 377t508 139
q146 0 283.5 -42t244.5 -120l-143 -206q-76 61 -180 91.5t-211 30.5z" />
    <glyph glyph-name="uni2113" unicode="&#x2113;" horiz-adv-x="980" 
d="M614 -27q-148 0 -244 91t-96 233v815q0 157 93 252.5t241 95.5q137 0 224.5 -94t87.5 -240q0 -168 -103.5 -330t-300.5 -296v-183q0 -60 38.5 -97.5t100.5 -37.5q53 0 142 21l32 -201q-110 -29 -215 -29zM516 733q205 171 205 361q0 68 -28 111.5t-75 43.5
q-46 0 -74 -41.5t-28 -109.5v-365z" />
    <glyph glyph-name="uni2116" unicode="&#x2116;" horiz-adv-x="2418" 
d="M2150 1460q156 0 240 -82.5t84 -210.5q0 -75 -29 -146.5t-81 -129t-132 -92.5t-174 -35q-156 0 -242.5 83.5t-86.5 209.5q0 74 30 146t82.5 129.5t133.5 92.5t175 35zM1133 412l217 1022h252l-306 -1434h-260l-508 1024l-219 -1024h-252l305 1434h261zM2073 915
q93 0 149.5 75t56.5 169q0 67 -37 108.5t-104 41.5q-91 0 -151 -75t-60 -167q0 -66 39.5 -109t106.5 -43z" />
    <glyph glyph-name="trademark" unicode="&#x2122;" horiz-adv-x="1179" 
d="M289 922l94 436h-172l16 76h435l-19 -76h-172l-94 -436h-88zM641 922l111 512h96l119 -222l215 222h94l-111 -512h-86l84 395l-225 -240l-127 240l-86 -395h-84z" />
    <glyph glyph-name="uni2126" unicode="&#x2126;" horiz-adv-x="1638" 
d="M-14 0l45 211h313q-164 169 -164 426q0 112 28.5 218t80 196.5t126.5 166.5t165.5 129.5t200 83t227.5 29.5q267 0 418 -147t151 -389q0 -212 -104 -397t-289 -316h303l-45 -211h-623l33 176q208 136 332.5 331.5t124.5 407.5q0 153 -80.5 242.5t-233.5 89.5
q-99 0 -188 -36t-155 -98.5t-114.5 -144.5t-73 -176.5t-24.5 -191.5q0 -243 201 -422l-33 -178h-622z" />
    <glyph glyph-name="estimated" unicode="&#x212e;" horiz-adv-x="1986" 
d="M1040 -27q-160 0 -305.5 57.5t-250.5 154t-167.5 230t-62.5 279.5t62.5 279.5t167.5 230t250.5 154t305.5 57.5t305.5 -57.5t251 -154t168 -230t62.5 -279.5q0 -22 -2 -32h-1276v-402q91 -104 218 -162.5t273 -58.5q147 0 276.5 60.5t221.5 168.5h135
q-110 -136 -276 -215.5t-357 -79.5zM549 727h983v401q-93 104 -221 163t-271 59q-145 0 -272.5 -59t-218.5 -163v-401z" />
    <glyph glyph-name="arrowleft" unicode="&#x2190;" horiz-adv-x="1990" 
d="M770 -96l-686 686l686 686l174 -168l-412 -397h1387v-242h-1387l412 -397z" />
    <glyph glyph-name="arrowup" unicode="&#x2191;" horiz-adv-x="1966" 
d="M930 -328v1387l-398 -412l-167 174l686 686l686 -686l-166 -174l-400 412v-1387h-241z" />
    <glyph glyph-name="arrowright" unicode="&#x2192;" horiz-adv-x="1992" 
d="M1260 -96l-175 168l412 397h-1386v242h1386l-412 397l175 168l686 -686z" />
    <glyph glyph-name="arrowdown" unicode="&#x2193;" horiz-adv-x="1966" 
d="M952 -328l-684 686l166 174l397 -411v1386h244v-1386l398 411l165 -174z" />
    <glyph glyph-name="uni2196" unicode="&#x2196;" horiz-adv-x="2224" 
d="M1704 -145l-979 981l10 -574l-243 8v969h970l6 -242l-573 9l981 -979z" />
    <glyph glyph-name="uni2197" unicode="&#x2197;" horiz-adv-x="1914" 
d="M319 -145l-169 172l980 981l-575 -11l8 242h969v-969l-242 -8l10 576z" />
    <glyph glyph-name="uni2198" unicode="&#x2198;" horiz-adv-x="2222" 
d="M801 -59l-6 241l573 -10l-981 981l172 172l979 -983l-10 576l244 -9v-968h-971z" />
    <glyph glyph-name="uni2199" unicode="&#x2199;" horiz-adv-x="1914" 
d="M422 -59v968l242 9l-11 -576l981 983l170 -172l-981 -981l574 10l-6 -241h-969z" />
    <glyph glyph-name="partialdiff" unicode="&#x2202;" horiz-adv-x="1228" 
d="M754 1462q234 0 346 -164t112 -464q0 -131 -30.5 -257t-90.5 -235.5t-142.5 -192.5t-194 -130.5t-236.5 -47.5q-200 0 -317 114t-117 304q0 120 44.5 231t119 192.5t179 130t218.5 48.5q233 0 326 -149q12 173 -52.5 269.5t-203.5 96.5q-132 0 -293 -84l-57 244
q187 94 389 94zM551 203q64 0 127.5 29t112.5 77t79.5 116t30.5 140q0 93 -61.5 146t-157.5 53q-137 0 -242.5 -102.5t-105.5 -251.5q0 -96 59 -151.5t158 -55.5z" />
    <glyph glyph-name="uni2206" unicode="&#x2206;" horiz-adv-x="1406" 
d="M-51 0l31 154l798 1280h248l254 -1280l-31 -154h-1300zM283 211h729l-168 915z" />
    <glyph glyph-name="product" unicode="&#x220f;" horiz-adv-x="1636" 
d="M-25 -426l396 1860h1292l-395 -1860h-273l351 1649h-748l-350 -1649h-273z" />
    <glyph glyph-name="summation" unicode="&#x2211;" horiz-adv-x="1304" 
d="M-131 -430l31 162l798 788l-432 752l31 162h1137l-45 -211h-785l365 -643l-21 -140l-676 -659h842l-43 -211h-1202z" />
    <glyph glyph-name="minus" unicode="&#x2212;" horiz-adv-x="1179" 
d="M86 481l47 217h1000l-46 -217h-1001z" />
    <glyph glyph-name="uni2215" unicode="&#x2215;" horiz-adv-x="393" 
d="M-365 -49l-118 98l1319 1376l120 -98z" />
    <glyph glyph-name="radical" unicode="&#x221a;" horiz-adv-x="1394" 
d="M391 -430l-82 629l-329 -103l-27 205l549 172l69 -594l783 1591l211 -55l-906 -1845h-268z" />
    <glyph glyph-name="infinity" unicode="&#x221e;" horiz-adv-x="1634" 
d="M387 172q-149 0 -234 91.5t-85 248.5q0 126 59 239.5t166.5 185t236.5 71.5q123 0 200.5 -58t133.5 -182q114 132 210 186t210 54q148 0 235 -95.5t87 -244.5q0 -133 -60 -246.5t-167.5 -181.5t-237.5 -68q-123 0 -199.5 58t-132.5 182q-114 -132 -210.5 -186t-211.5 -54
zM436 391q75 0 143 53t150 166q-59 178 -192 178q-94 0 -162 -76t-68 -180q0 -61 34.5 -101t94.5 -40zM1133 393q96 0 164.5 74.5t68.5 179.5q0 61 -35 101t-96 40q-74 0 -142.5 -53.5t-148.5 -165.5q57 -176 189 -176z" />
    <glyph glyph-name="integral" unicode="&#x222b;" horiz-adv-x="845" 
d="M145 -457q-92 0 -196 33l76 197q35 -17 88 -17q113 0 173 96t60 236q0 103 -49 372.5t-49 409.5q0 167 51.5 299t156 211.5t246.5 79.5q93 0 197 -33l-74 -196q-38 16 -92 16q-73 0 -123.5 -48.5t-72 -122t-21.5 -163.5q0 -102 49 -371t49 -409q0 -166 -53.5 -298.5
t-161.5 -212t-254 -79.5z" />
    <glyph glyph-name="approxequal" unicode="&#x2248;" horiz-adv-x="1193" 
d="M868 670q-65 0 -125.5 15.5t-98.5 33.5t-89.5 33.5t-101.5 15.5q-110 0 -236 -96l-90 200q174 117 340 117q65 0 124.5 -15.5t98 -33.5t90 -33.5t101.5 -15.5q115 0 233 92l92 -201q-167 -112 -338 -112zM766 190q-65 0 -125.5 15.5t-98.5 34t-89.5 34t-102.5 15.5
q-108 0 -233 -92l-90 200q165 113 335 113q65 0 125.5 -15.5t99 -33.5t90.5 -33.5t103 -15.5q108 0 234 96l90 -201q-171 -117 -338 -117z" />
    <glyph glyph-name="notequal" unicode="&#x2260;" horiz-adv-x="1181" 
d="M1137 719h-355l-149 -258h448l-47 -221h-528l-170 -291l-199 96l113 195h-215l47 221h297l149 258h-393l49 221h471l170 293l201 -96l-115 -197h273z" />
    <glyph glyph-name="lessequal" unicode="&#x2264;" horiz-adv-x="1183" 
d="M1196 1141l-756 -314l645 -327l-114 -193l-848 426l45 219l965 398zM-14 0l47 221h999l-47 -221h-999z" />
    <glyph glyph-name="greaterequal" unicode="&#x2265;" horiz-adv-x="1181" 
d="M322 1368l847 -426l-45 -217l-964 -397l-62 209l754 313l-645 326zM-16 0l47 221h999l-47 -221h-999z" />
    <glyph glyph-name="dotmath" unicode="&#x22c5;" horiz-adv-x="542" 
d="M254 344q-62 0 -103.5 38t-41.5 107q0 83 54.5 133t125.5 50q63 0 105 -37.5t42 -106.5q0 -83 -55 -133.5t-127 -50.5z" />
    <glyph glyph-name="lozenge" unicode="&#x25ca;" horiz-adv-x="1179" 
d="M520 0l-432 688l432 688h219l432 -688l-432 -688h-219zM629 240l278 448l-278 447l-277 -447z" />
    <glyph glyph-name="uniF8FF" unicode="&#xf8ff;" horiz-adv-x="1329" 
d="M406 1217q-26 0 -44 17.5t-18 45.5q0 26 18 43.5t44 17.5q28 0 45.5 -17.5t17.5 -43.5q0 -28 -17.5 -45.5t-45.5 -17.5zM541 1217q-27 0 -44.5 17.5t-17.5 45.5q0 26 18 43.5t44 17.5q28 0 45.5 -17.5t17.5 -43.5q0 -28 -17.5 -45.5t-45.5 -17.5zM676 1217
q-26 0 -44 17.5t-18 45.5q0 26 18 43.5t44 17.5q28 0 45.5 -17.5t17.5 -43.5q0 -28 -17.5 -45.5t-45.5 -17.5zM811 1217q-26 0 -43.5 17.5t-17.5 45.5q0 26 17.5 43.5t43.5 17.5q28 0 45.5 -17.5t17.5 -43.5q0 -28 -17.5 -45.5t-45.5 -17.5zM946 1217q-26 0 -43.5 17.5
t-17.5 45.5q0 26 17.5 43.5t43.5 17.5q28 0 46 -17.5t18 -43.5q0 -28 -18 -45.5t-46 -17.5zM1081 1217q-26 0 -43.5 17.5t-17.5 45.5q0 26 17.5 43.5t43.5 17.5q28 0 46 -17.5t18 -43.5q0 -28 -18 -45.5t-46 -17.5zM406 1081q-26 0 -44 18t-18 46q0 26 18 43.5t44 17.5
q28 0 45.5 -17.5t17.5 -43.5q0 -28 -17.5 -46t-45.5 -18zM406 946q-26 0 -44 18t-18 46q0 26 18 43.5t44 17.5q28 0 45.5 -17.5t17.5 -43.5q0 -28 -17.5 -46t-45.5 -18zM676 946q-26 0 -44 18t-18 46q0 26 18 43.5t44 17.5q28 0 45.5 -17.5t17.5 -43.5q0 -28 -17.5 -46
t-45.5 -18zM811 946q-26 0 -43.5 18t-17.5 46q0 26 17.5 43.5t43.5 17.5q28 0 45.5 -17.5t17.5 -43.5q0 -28 -17.5 -46t-45.5 -18zM946 946q-26 0 -43.5 18t-17.5 46q0 26 17.5 43.5t43.5 17.5q28 0 46 -17.5t18 -43.5q0 -28 -18 -46t-46 -18zM1081 946q-26 0 -43.5 18
t-17.5 46q0 26 17.5 43.5t43.5 17.5q28 0 46 -17.5t18 -43.5q0 -28 -18 -46t-46 -18zM406 811q-26 0 -44 17.5t-18 45.5q0 26 18 44t44 18q28 0 45.5 -18t17.5 -44q0 -28 -17.5 -45.5t-45.5 -17.5zM676 811q-26 0 -44 17.5t-18 45.5q0 26 18 44t44 18q28 0 45.5 -18
t17.5 -44q0 -28 -17.5 -45.5t-45.5 -17.5zM406 676q-26 0 -44 18t-18 45q0 26 18 44t44 18q28 0 45.5 -17.5t17.5 -44.5q0 -28 -17.5 -45.5t-45.5 -17.5zM676 676q-26 0 -44 18t-18 45q0 26 18 44t44 18q28 0 45.5 -17.5t17.5 -44.5q0 -28 -17.5 -45.5t-45.5 -17.5zM811 676
q-26 0 -43.5 17.5t-17.5 45.5q0 26 17.5 44t43.5 18q27 0 45 -17.5t18 -44.5q0 -28 -17.5 -45.5t-45.5 -17.5zM946 676q-26 0 -43.5 17.5t-17.5 45.5q0 26 17.5 44t43.5 18q28 0 46 -18t18 -44q0 -28 -18 -45.5t-46 -17.5zM1081 676q-26 0 -43.5 17.5t-17.5 45.5
q0 26 17.5 44t43.5 18q28 0 46 -18t18 -44q0 -28 -18 -45.5t-46 -17.5zM406 541q-26 0 -44 17.5t-18 45.5q0 26 18 44t44 18q28 0 45.5 -18t17.5 -44q0 -28 -17.5 -45.5t-45.5 -17.5zM1081 541q-26 0 -43.5 17.5t-17.5 45.5q0 26 17.5 44t43.5 18q28 0 46 -18t18 -44
q0 -28 -18 -45.5t-46 -17.5zM406 406q-26 0 -44 18t-18 45q0 26 18 43.5t44 17.5q28 0 45.5 -17.5t17.5 -43.5q0 -28 -17.5 -45.5t-45.5 -17.5zM676 406q-26 0 -44 18t-18 45q0 26 18 43.5t44 17.5q28 0 45.5 -17.5t17.5 -43.5q0 -28 -17.5 -45.5t-45.5 -17.5zM811 406
q-26 0 -43.5 17.5t-17.5 45.5q0 26 17.5 43.5t43.5 17.5q28 0 45.5 -17.5t17.5 -43.5q0 -28 -17.5 -45.5t-45.5 -17.5zM946 406q-26 0 -43.5 17.5t-17.5 45.5q0 26 17.5 43.5t43.5 17.5q28 0 46 -17.5t18 -43.5q0 -28 -18 -45.5t-46 -17.5zM1081 406q-26 0 -43.5 17.5
t-17.5 45.5q0 26 17.5 43.5t43.5 17.5q28 0 46 -17.5t18 -43.5q0 -28 -18 -45.5t-46 -17.5zM406 270q-26 0 -44 18t-18 46q0 26 18 43.5t44 17.5q28 0 45.5 -17.5t17.5 -43.5q0 -28 -17.5 -46t-45.5 -18zM406 135q-26 0 -44 18t-18 46q0 26 18 43.5t44 17.5q28 0 45.5 -17.5
t17.5 -43.5q0 -28 -17.5 -46t-45.5 -18zM676 135q-26 0 -44 18t-18 46q0 26 18 43.5t44 17.5q28 0 45.5 -17.5t17.5 -43.5q0 -28 -17.5 -46t-45.5 -18zM406 0q-26 0 -44 18t-18 45q0 26 18 44t44 18q28 0 45.5 -17.5t17.5 -44.5q0 -28 -17.5 -45.5t-45.5 -17.5zM541 0
q-27 0 -44.5 18t-17.5 45q0 26 18 44t44 18q27 0 45 -17.5t18 -44.5q0 -28 -17.5 -45.5t-45.5 -17.5zM676 0q-26 0 -44 18t-18 45q0 26 18 44t44 18q28 0 45.5 -17.5t17.5 -44.5q0 -28 -17.5 -45.5t-45.5 -17.5z" />
    <glyph glyph-name="Iacute_J.loclNLD" horiz-adv-x="1517" 
d="M494 1579l-74 143l428 265l84 -168zM1401 1579l-74 143l428 265l84 -168zM57 0l305 1434h273l-305 -1434h-273zM821 -25q-142 0 -291 41l64 203q84 -22 178 -22q107 0 184.5 57.5t102.5 171.5l213 1008h272l-225 -1055q-42 -198 -174.5 -301t-323.5 -103z" />
    <glyph glyph-name="Cacute.loclPLK" horiz-adv-x="1517" 
d="M1176 1571l-175 59l115 346l201 -69zM821 -27q-160 0 -290 48t-215 134t-131 203t-46 256q0 179 58 333t165 268t271 179.5t364 65.5q147 0 284.5 -42t244.5 -120l-144 -206q-75 61 -179.5 91.5t-209.5 30.5q-132 0 -242 -44t-183 -120t-113.5 -177.5t-40.5 -215.5
q0 -122 51 -220.5t154.5 -159t242.5 -60.5q224 0 410 98l67 -213q-224 -129 -518 -129z" />
    <glyph glyph-name="Nacute.loclPLK" horiz-adv-x="1564" 
d="M1317 1907l-141 -336l-175 59l115 346zM1350 1434h252l-306 -1434h-260l-508 1024l-219 -1024h-252l305 1434h261l510 -1022z" />
    <glyph glyph-name="Oacute.loclPLK" horiz-adv-x="1708" 
d="M1161 1571l-174 59l115 346l201 -69zM823 -27q-153 0 -281.5 51.5t-216 141t-136 211t-48.5 260.5q0 165 60.5 315t167 262.5t265 179t343.5 66.5q153 0 282.5 -51t217 -140t136 -210t48.5 -260q0 -167 -60 -317t-167 -263t-266 -179.5t-345 -66.5zM850 219q114 0 214 46
t168.5 122t108 176.5t39.5 208.5q0 123 -51 222.5t-150 159.5t-229 60q-114 0 -214 -45.5t-168 -122t-107 -176.5t-39 -208q0 -190 116 -316.5t312 -126.5z" />
    <glyph glyph-name="Sacute.loclPLK" horiz-adv-x="1200" 
d="M985 1571l-174 59l115 346l200 -69zM518 -23q-256 0 -514 138l96 217q105 -56 220.5 -87.5t216.5 -31.5q133 0 218 55t85 154q0 37 -15 67.5t-36.5 50.5t-60 39.5t-70.5 31t-83 26.5q-154 46 -219 84q-157 94 -159 274q0 141 79.5 248.5t211 162t292.5 54.5
q237 0 451 -112l-96 -226q-160 103 -351 103q-136 0 -226.5 -53t-90.5 -152q0 -31 12.5 -55.5t33.5 -41.5t52.5 -31.5t63.5 -25.5t74 -24q9 -3 14 -4q48 -14 81 -25.5t78 -31t75.5 -39.5t63 -51t52 -66.5t32.5 -84.5t13 -106q0 -134 -80 -239t-215 -161.5t-299 -56.5z" />
    <glyph glyph-name="Zacute.loclPLK" horiz-adv-x="1306" 
d="M1192 1907l-141 -336l-174 59l114 346zM1403 1434l-29 -156l-944 -1040h737l-51 -238h-1136l30 156l946 1040h-690l51 238h1086z" />
    <glyph glyph-name="i.loclTRK" horiz-adv-x="530" 
d="M428 1188q-63 0 -101 36t-38 95q0 72 49 122t121 50q63 0 100 -36.5t37 -96.5q0 -74 -49 -122t-119 -48zM29 0l215 1018h262l-215 -1018h-262z" />
    <glyph glyph-name="germandbls.calt" horiz-adv-x="1546" 
d="M1618 1434l-29 -156l-401 -444q129 -43 193.5 -140.5t64.5 -234.5q0 -217 -157.5 -349.5t-416.5 -132.5q-223 0 -405 136l129 200q124 -106 297 -106q126 0 206.5 62.5t80.5 176.5q0 94 -63 149.5t-173 55.5h-51l-16 133l364 412h-670l-252 -1196h-262l305 1434h1256z
" />
    <glyph glyph-name="iacute_j.loclNLD" horiz-adv-x="1071" 
d="M342 1143l-74 143l428 264l84 -166zM877 1143l-74 143l428 264l84 -166zM29 0l215 1018h262l-215 -1018h-262zM430 -457q-132 0 -246 74l60 190q64 -43 143 -43q69 0 110.5 41t61.5 138l225 1075h263l-234 -1112q-38 -186 -131.5 -274.5t-251.5 -88.5z" />
    <glyph glyph-name="cacute.loclPLK" horiz-adv-x="1052" 
d="M750 1133l-172 59l112 348l201 -70zM549 -27q-132 0 -238 53.5t-170.5 162.5t-64.5 257q0 165 77.5 302.5t211.5 216.5t294 79q119 0 221 -40.5t164 -116.5l-153 -187q-35 48 -94 76.5t-133 28.5q-142 0 -232 -98t-90 -238q0 -118 68.5 -187t185.5 -69q114 0 227 76
l86 -203q-159 -113 -360 -113z" />
    <glyph glyph-name="nacute.loclPLK" horiz-adv-x="1239" 
d="M926 1477l-142 -338l-172 59l113 348zM791 1044q119 0 208 -62t125.5 -171t8.5 -238l-123 -573h-262l116 551q29 133 -23.5 205.5t-156.5 72.5q-101 0 -175 -74t-99 -196l-117 -559h-262l215 1018h209l4 -107q130 133 332 133z" />
    <glyph glyph-name="oacute.loclPLK" horiz-adv-x="1222" 
d="M758 1139l-172 59l112 348l201 -69zM557 -29q-205 0 -340 131t-135 357q0 128 47.5 238.5t127 186t185 118t220.5 42.5q208 0 344.5 -129t136.5 -352q0 -171 -82 -308t-215 -210.5t-289 -73.5zM578 211q127 0 214 101.5t87 240.5q0 114 -61.5 184t-166.5 70
q-129 0 -216 -101t-87 -241q0 -112 62 -183t168 -71z" />
    <glyph glyph-name="sacute.loclPLK" horiz-adv-x="944" 
d="M639 1139l-172 59l113 348l200 -69zM412 -29q-238 0 -414 148l74 196q59 -62 155 -100.5t183 -38.5q76 0 119.5 29t43.5 90q0 22 -12 41.5t-28.5 33t-47 28.5t-53.5 23.5t-63 22.5q-56 19 -91.5 35.5t-76 45.5t-60.5 71t-20 98q0 165 122.5 257.5t307.5 92.5
q188 0 352 -110l-76 -186q-48 45 -127 71.5t-153 26.5q-75 0 -123.5 -29t-48.5 -82q0 -36 45 -63.5t127 -55.5q49 -18 81 -31.5t74.5 -39.5t67.5 -54.5t43 -73.5t18 -100q0 -107 -59.5 -187.5t-153.5 -119.5t-206 -39z" />
    <glyph glyph-name="zacute.loclPLK" horiz-adv-x="1015" 
d="M827 1477l-141 -338l-172 59l113 348zM1034 1018l-26 -146l-639 -673h495l-43 -199h-837l28 145l637 672h-467l41 201h811z" />
    <glyph glyph-name="zero.tf" horiz-adv-x="1245" 
d="M528 -27q-130 0 -229 56t-154.5 157t-71 242t22.5 311q67 322 265.5 521.5t449.5 199.5q130 0 229 -56t154 -157t70 -242t-23 -311q-67 -322 -264.5 -521.5t-448.5 -199.5zM547 219q143 0 260 142.5t166 377.5q46 217 -2.5 346t-177.5 129q-141 0 -259 -143t-169 -377
q-44 -217 5.5 -346t176.5 -129z" />
    <glyph glyph-name="one.tf" horiz-adv-x="1245" 
d="M848 1434h231l-305 -1434h-272l239 1133l-315 -162l-78 207z" />
    <glyph glyph-name="two.tf" horiz-adv-x="1245" 
d="M793 506q-126 -75 -206.5 -136t-129.5 -132h618l-51 -238h-946l16 86q16 91 65 174t167.5 189t306.5 219q71 44 114 72.5t93 69t77 74.5t45.5 78t18.5 91q0 84 -59 128t-162 44q-171 0 -334 -119l-86 186q199 168 467 168q197 0 316.5 -95t119.5 -275q0 -63 -15 -122
t-38.5 -105.5t-61.5 -92.5t-73 -79.5t-85.5 -70t-87.5 -60t-89 -54.5z" />
    <glyph glyph-name="three.tf" horiz-adv-x="1245" 
d="M1194 1100q0 -129 -77.5 -229t-227.5 -148q88 -40 138 -114t50 -177q0 -145 -74 -250t-202.5 -157t-296.5 -52q-254 0 -447 148l117 205q56 -51 146.5 -80t195.5 -29q124 0 207.5 58t83.5 163q0 83 -67.5 131.5t-192.5 48.5h-94l47 220h88q138 0 230.5 59t92.5 162
q0 75 -61.5 116.5t-159.5 41.5q-158 0 -305 -91l-53 211q202 123 432 123q185 0 307.5 -93.5t122.5 -266.5z" />
    <glyph glyph-name="four.tf" horiz-adv-x="1245" 
d="M1233 555l-49 -238h-234l-67 -317h-273l64 317h-639l43 215l823 902h287l-187 -879h232zM358 541h394l120 565z" />
    <glyph glyph-name="five.tf" horiz-adv-x="1245" 
d="M1176 1196h-560l-96 -319q83 22 162 22q189 0 302.5 -111t113.5 -288q0 -249 -155.5 -389t-414.5 -140q-130 0 -255 39t-220 111l117 198q74 -53 165 -81.5t181 -28.5q147 0 238.5 71.5t91.5 198.5q0 102 -64.5 158.5t-169.5 56.5q-108 0 -190 -57l-203 55l209 742h797z
" />
    <glyph glyph-name="six.tf" horiz-adv-x="1245" 
d="M766 907q183 0 287 -111.5t104 -279.5q0 -79 -21.5 -156t-66 -147t-107 -123.5t-151.5 -85t-193 -31.5q-221 0 -342.5 132t-121.5 358q0 162 28 309t86 273t142 218t202.5 144.5t259.5 52.5q243 0 396 -147l-115 -191q-52 53 -129 83t-156 30q-182 0 -290 -127.5
t-146 -341.5q141 141 334 141zM623 205q114 0 189 80.5t75 183.5q0 87 -56 143t-151 56q-118 0 -193 -78.5t-75 -179.5q0 -90 56.5 -147.5t154.5 -57.5z" />
    <glyph glyph-name="seven.tf" horiz-adv-x="1245" 
d="M328 1434h917l-33 -166l-811 -1268h-280l770 1196h-615z" />
    <glyph glyph-name="eight.tf" horiz-adv-x="1245" 
d="M979 748q74 -47 116 -125t42 -181q0 -110 -47 -201t-124.5 -148.5t-172.5 -88.5t-195 -31q-89 0 -170 26t-145.5 74.5t-103 127.5t-38.5 178q0 142 73.5 242.5t199.5 154.5q-123 89 -123 250q0 102 42.5 186t114.5 137t163 82t190 29q118 0 214 -40t156 -121.5t60 -192.5
q0 -123 -67.5 -212.5t-184.5 -145.5zM788 1241q-106 0 -170.5 -63.5t-64.5 -153.5q0 -73 50.5 -120.5t137.5 -47.5q105 0 169.5 64t64.5 153q0 73 -51 120.5t-136 47.5zM616 195q108 0 185.5 68t77.5 181q0 85 -59.5 140t-151.5 55q-117 0 -192 -70t-75 -178
q0 -89 62 -142.5t153 -53.5z" />
    <glyph glyph-name="nine.tf" horiz-adv-x="1245" 
d="M774 1460q221 0 343 -131.5t122 -357.5q0 -162 -28 -309.5t-86 -274t-142 -219t-202.5 -145t-260.5 -52.5q-110 0 -212.5 37.5t-180.5 110.5l115 192q52 -53 127.5 -82.5t156.5 -29.5q93 0 169 35.5t128.5 100t87 148t52.5 187.5q-138 -144 -334 -144q-183 0 -287 112
t-104 280q0 79 21 156t65.5 147t106.5 123t151 84.5t192 31.5zM715 766q118 0 193 78t75 180q0 90 -57.5 146.5t-155.5 56.5q-114 0 -188 -79.5t-74 -182.5q0 -87 56 -143t151 -56z" />
    <glyph glyph-name="exclamdown.case" horiz-adv-x="575" 
d="M475 1460q62 0 104 -37t42 -106q0 -83 -55 -133.5t-126 -50.5q-63 0 -105 38t-42 107q0 83 55 132.5t127 49.5zM496 977l-185 -977h-264l229 977h220z" />
    <glyph glyph-name="questiondown.case" horiz-adv-x="964" 
d="M684 1460q61 0 103 -37.5t42 -105.5q0 -83 -55 -133.5t-127 -50.5q-62 0 -104.5 38t-42.5 107q0 83 55.5 132.5t128.5 49.5zM737 977l-6 -45q-9 -65 -42 -126t-76 -104.5t-91 -90t-88 -84.5t-66 -85.5t-26 -95.5q0 -66 49.5 -105.5t124.5 -39.5q141 0 244 106l86 -176
q-99 -90 -200 -124t-214 -34q-168 0 -270.5 94t-102.5 242q0 68 23 129t60 106.5t82 87t92 78t87 71.5t69 76t36 83l6 37h223z" />
    <glyph glyph-name="periodcentered.case" horiz-adv-x="542" 
d="M293 535q-61 0 -103.5 38t-42.5 107q0 83 55 132.5t128 49.5q62 0 104.5 -37t42.5 -106q0 -83 -56 -133.5t-128 -50.5z" />
    <glyph glyph-name="bullet.case" horiz-adv-x="983" 
d="M498 393q-115 0 -188.5 73t-73.5 187q0 101 50.5 178t126.5 114.5t160 37.5q115 0 189 -73t74 -187q0 -101 -51 -178t-127 -114.5t-160 -37.5z" />
    <glyph glyph-name="parenleft.case" horiz-adv-x="722" 
d="M346 -236q-201 286 -201 660q0 326 156.5 645.5t425.5 556.5l168 -139q-238 -214 -376 -496.5t-138 -564.5q0 -311 162 -555z" />
    <glyph glyph-name="parenright.case" horiz-adv-x="722" 
d="M76 -250l-170 139q239 214 377.5 496.5t138.5 564.5q0 313 -164 555l199 107q200 -282 200 -658q0 -326 -156 -646.5t-425 -557.5z" />
    <glyph glyph-name="braceleft.case" horiz-adv-x="718" 
d="M428 -186q-136 0 -219.5 79t-83.5 205q0 47 47 196.5t47 190.5q0 44 -34 71.5t-91 27.5h-41l45 209h25q87 0 149 75q33 39 48.5 94.5t20 112.5t11.5 116.5t34 123t77 115.5q60 63 142.5 98t176.5 35h107l-47 -211h-23q-113 0 -172 -72q-29 -32 -45.5 -85.5t-23.5 -110.5
t-14 -114.5t-23.5 -111t-44.5 -86.5q-63 -70 -152 -90q54 -17 84.5 -63.5t30.5 -108.5q0 -65 -41 -190.5t-41 -174.5q0 -55 38 -87.5t105 -32.5h41l-45 -211h-88z" />
    <glyph glyph-name="braceright.case" horiz-adv-x="718" 
d="M367 1563q136 0 220.5 -79.5t84.5 -205.5q0 -47 -47 -196.5t-47 -190.5q0 -44 32.5 -71t89.5 -27h41l-43 -209h-26q-87 0 -150 -76q-33 -39 -48.5 -94.5t-19 -112.5t-10.5 -116.5t-33.5 -122.5t-76.5 -115q-60 -63 -143.5 -98t-178.5 -35h-104l45 211h22q113 0 175 71
q34 39 52.5 112t23 141t23 141.5t52.5 113.5q63 69 150 90q-54 17 -84.5 63.5t-30.5 108.5q0 65 41 190.5t41 174.5q0 55 -38.5 88t-105.5 33h-41l46 211h88z" />
    <glyph glyph-name="bracketleft.case" horiz-adv-x="718" 
d="M35 -186l371 1749h483l-47 -211h-242l-281 -1327h242l-45 -211h-481z" />
    <glyph glyph-name="bracketright.case" horiz-adv-x="716" 
d="M-88 -186l45 211h240l282 1327h-241l45 211h483l-371 -1749h-483z" />
    <glyph glyph-name="hyphen.case" horiz-adv-x="655" 
d="M68 604l41 201h567l-41 -201h-567z" />
    <glyph glyph-name="uni00AD.case" horiz-adv-x="655" 
d="M68 604l41 201h567l-41 -201h-567z" />
    <glyph glyph-name="endash.case" horiz-adv-x="983" 
d="M68 604l41 201h895l-41 -201h-895z" />
    <glyph glyph-name="emdash.case" horiz-adv-x="1966" 
d="M68 604l41 201h1878l-41 -201h-1878z" />
    <glyph glyph-name="guillemotleft.case" horiz-adv-x="1193" 
d="M399 168l-311 453l18 114l500 455l135 -123l-393 -389l225 -389zM918 168l-314 453l19 114l501 455l136 -123l-394 -389l224 -389z" />
    <glyph glyph-name="guillemotright.case" horiz-adv-x="1196" 
d="M147 168l-135 121l394 389l-226 389l174 123l314 -455l-21 -114zM666 168l-136 121l394 389l-226 389l174 123l312 -455l-19 -114z" />
    <glyph glyph-name="guilsinglleft.case" horiz-adv-x="675" 
d="M399 168l-311 453l18 114l500 455l135 -123l-393 -389l225 -389z" />
    <glyph glyph-name="guilsinglright.case" horiz-adv-x="677" 
d="M147 166l-135 123l394 387l-226 391l174 121l314 -455l-21 -112z" />
    <glyph glyph-name="arrowup.case" horiz-adv-x="1966" 
d="M952 -229v1386l-397 -412l-168 175l686 686l686 -686l-166 -175l-399 412v-1386h-242z" />
    <glyph glyph-name="uni2197.case" horiz-adv-x="1914" 
d="M342 -47l-172 172l981 981l-573 -10l6 241h970v-968l-243 -9l10 576z" />
    <glyph glyph-name="arrowright.case" horiz-adv-x="1992" 
d="M1282 2l-176 168l412 397h-1385v242h1385l-412 397l176 168l686 -686z" />
    <glyph glyph-name="uni2198.case" horiz-adv-x="2226" 
d="M825 39l-8 242l576 -11l-981 981l170 172l981 -983l-11 576l242 -8v-969h-969z" />
    <glyph glyph-name="arrowdown.case" horiz-adv-x="1966" 
d="M973 -229l-684 686l166 174l397 -412v1387h244v-1387l397 412l166 -174z" />
    <glyph glyph-name="uni2199.case" horiz-adv-x="1914" 
d="M442 39v969l244 8l-10 -576l979 983l172 -172l-981 -981l573 11l-6 -242h-971z" />
    <glyph glyph-name="arrowleft.case" horiz-adv-x="1990" 
d="M791 2l-687 686l687 686l174 -168l-412 -397h1386v-242h-1386l412 -397z" />
    <glyph glyph-name="uni2196.case" horiz-adv-x="2224" 
d="M1724 -47l-979 981l11 -574l-244 9v968h971l6 -241l-574 8l981 -979z" />
    <glyph glyph-name="uni0308.case" 
d="M-449 1548q-60 0 -94.5 33.5t-34.5 89.5q0 72 45 116t111 44q58 0 92.5 -34t34.5 -91q0 -67 -43.5 -112.5t-110.5 -45.5zM8 1548q-61 0 -95 33.5t-34 89.5q0 72 44.5 116t109.5 44q60 0 94.5 -34t34.5 -91q0 -67 -43.5 -112.5t-110.5 -45.5z" />
    <glyph glyph-name="uni0307.case" 
d="M-6 1538q-64 0 -101.5 36.5t-37.5 96.5q0 71 49 120.5t121 49.5q63 0 100 -36.5t37 -96.5q0 -74 -49 -122t-119 -48z" />
    <glyph glyph-name="gravecomb.case" 
d="M25 1495l-351 240l148 168l328 -265z" />
    <glyph glyph-name="acutecomb.case" 
d="M-268 1495l-74 143l428 265l84 -168z" />
    <glyph glyph-name="uni030B.case" 
d="M-657 1489l-111 133l377 330l125 -150zM-205 1489l-110 133l376 330l123 -150z" />
    <glyph glyph-name="uni0302.case" 
d="M-432 1495l-92 123l305 246h158l206 -246l-133 -123l-182 188z" />
    <glyph glyph-name="uni030C.case" 
d="M-287 1516l-207 245l132 121l184 -186l262 186l92 -121l-305 -245h-158z" />
    <glyph glyph-name="uni0306.case" 
d="M-190 1499q-156 0 -233.5 92.5t-51.5 239.5h162q-9 -74 30.5 -120t112.5 -46q72 0 122 45.5t73 120.5h165q-79 -332 -380 -332z" />
    <glyph glyph-name="uni030A.case" 
d="M-74 1479q-101 0 -156 58.5t-55 141.5q0 89 62 155.5t170 66.5q101 0 156 -59t55 -142q0 -89 -61.5 -155t-170.5 -66zM-70 1593q48 0 76.5 32.5t28.5 74.5q0 35 -23.5 59.5t-66.5 24.5q-48 0 -76.5 -32t-28.5 -73q0 -35 23.5 -60.5t66.5 -25.5z" />
    <glyph glyph-name="tildecomb.case" 
d="M-399 1554l-146 68q34 90 97.5 141.5t140.5 51.5q49 0 94.5 -18t78.5 -36t52 -18q65 0 111 82l147 -68q-35 -91 -98.5 -141.5t-140.5 -50.5q-49 0 -95 17.5t-79 35.5t-52 18q-34 0 -64 -23.5t-46 -58.5z" />
    <glyph glyph-name="uni0304.case" 
d="M-498 1602l39 176h639l-39 -176h-639z" />
    <glyph glyph-name="acute.case" horiz-adv-x="647" 
d="M389 1495l-74 143l430 265l84 -168z" />
    <glyph glyph-name="breve.case" horiz-adv-x="821" 
d="M641 1499q-156 0 -233.5 92.5t-51.5 239.5h164q-9 -74 30 -120t112 -46q72 0 121.5 45.5t74.5 120.5h166q-82 -332 -383 -332z" />
    <glyph glyph-name="caron.case" horiz-adv-x="825" 
d="M549 1516l-207 245l133 121l182 -186l265 186l92 -121l-305 -245h-160z" />
    <glyph glyph-name="circumflex.case" horiz-adv-x="825" 
d="M403 1495l-92 123l305 246h158l209 -246l-133 -123l-184 188z" />
    <glyph glyph-name="dieresis.case" horiz-adv-x="892" 
d="M455 1548q-59 0 -93 33.5t-34 89.5q0 72 43.5 116t109.5 44q59 0 93 -33.5t34 -91.5q0 -67 -42.5 -112.5t-110.5 -45.5zM911 1548q-59 0 -93 33.5t-34 89.5q0 72 44 116t110 44q58 0 92.5 -34t34.5 -91q0 -67 -43 -112.5t-111 -45.5z" />
    <glyph glyph-name="dotaccent.case" horiz-adv-x="460" 
d="M465 1538q-63 0 -100 36.5t-37 96.5q0 71 48.5 120.5t119.5 49.5q63 0 100 -36.5t37 -96.5q0 -74 -49 -122t-119 -48z" />
    <glyph glyph-name="grave.case" horiz-adv-x="651" 
d="M688 1495l-352 240l147 168l330 -265z" />
    <glyph glyph-name="hungarumlaut.case" horiz-adv-x="1069" 
d="M422 1489l-109 133l377 330l123 -150zM874 1489l-108 133l377 330l123 -150z" />
    <glyph glyph-name="macron.case" horiz-adv-x="794" 
d="M309 1602l37 176h639l-37 -176h-639z" />
    <glyph glyph-name="ring.case" horiz-adv-x="604" 
d="M543 1479q-101 0 -157 58.5t-56 141.5q0 89 61.5 155.5t169.5 66.5q101 0 157 -59t56 -142q0 -89 -61 -155t-170 -66zM545 1593q48 0 76 32.5t28 74.5q0 35 -23 59.5t-65 24.5q-49 0 -76.5 -31.5t-27.5 -73.5q0 -35 22.5 -60.5t65.5 -25.5z" />
    <glyph glyph-name="tilde.case" horiz-adv-x="847" 
d="M459 1554l-146 68q35 90 99 141.5t141 51.5q49 0 94.5 -18t78.5 -36t52 -18q67 0 109 82l147 -68q-33 -91 -96.5 -141.5t-140.5 -50.5q-49 0 -95 17.5t-79.5 35.5t-51.5 18q-34 0 -65.5 -23.5t-46.5 -58.5z" />
    <glyph glyph-name="acutecomb.loclPLK" 
d="M2 1118l-172 60l113 348l200 -70z" />
    <glyph glyph-name="acutecomb.case.loclPLK" 
d="M49 1487l-174 59l115 346l200 -69z" />
    </font>
</defs>
</svg>
